<svg xmlns="http://www.w3.org/2000/svg" width="31" height="31" viewBox="0 0 31 31"><defs><style>.a{fill:none;}.b{fill:#fff;stroke:#fff;}.c{fill:#f0f0f0;}.d{fill:#1c2143;}.e{fill:#2ea7e0;}.f{stroke:none;}</style></defs><g transform="translate(1 1)"><g transform="translate(4 4)"><rect class="a" width="25" height="25"/></g><g class="b"><circle class="f" cx="14.5" cy="14.5" r="14.5"/><circle class="a" cx="14.5" cy="14.5" r="15"/></g><circle class="c" cx="14.5" cy="14.5" r="14.5"/><g transform="translate(6.614 2.4)"><path class="d" d="M2071.315,1163c.355.065,1.085,1.062,1.291,1.37,2.058,3.162,2.516,6.469.37,9.6-1.244,1.792-2.924,3.55-3.737,5.589a6.791,6.791,0,0,0,.561,5.847c.225.458.505.893.725,1.352.047.117.122.253.051.374-.131.1-.318.052-.468.033-3.6-.744-6.268-4.7-6.08-8.293a8.416,8.416,0,0,1,1.534-4.354c1.062-1.567,2.629-2.755,3.732-4.374a11.3,11.3,0,0,0,1.843-4.869A20.568,20.568,0,0,0,2071.315,1163Z" transform="translate(-2064.018 -1163)"/><path class="e" d="M3805.438,3237.033c0-.009,0-.019.014-.028s.019,0,.033,0a1.267,1.267,0,0,1,.281.22,8.294,8.294,0,0,1,2.578,8.592,7.527,7.527,0,0,1-1.792,3.012,7.987,7.987,0,0,1-2.025,1.516,3.876,3.876,0,0,0-.9.655,4.533,4.533,0,0,0-.383.505c-.44-.122-1.535-1.838-1.74-2.287a6.412,6.412,0,0,1,.346-5.458c.776-1.679,1.956-3.041,2.812-4.682A7.025,7.025,0,0,0,3805.438,3237.033Z" transform="translate(-3792.911 -3227.299)"/></g></g></svg>