<svg xmlns="http://www.w3.org/2000/svg" width="116.587" height="67.219" viewBox="0 0 116.587 67.219"><defs><style>.a{opacity:0.25;}.ac,.b{fill:#0950b5;}.c{fill:#131313;}.d{fill:#030504;}.e{fill:#ded8be;}.f{fill:#cdc7ac;}.g{fill:#e6e6d2;}.h{fill:#f3fafa;}.i{fill:#1e3216;}.j{fill:#4b1414;}.k{fill:#f77a16;}.l{fill:#d15815;}.m{fill:#c9da82;}.n{fill:#9fbe78;}.o{fill:#ebe995;}.p{fill:#a43637;}.q{fill:#8c1f2d;}.r{fill:#fd992f;}.s{fill:#ffb155;}.t{fill:#2e6234;}.u{fill:#cc4e4b;}.v{fill:#e8e2c6;}.w{fill:#e94153;}.aa,.ab,.w,.x,.y{fill-rule:evenodd;}.x{fill:#575659;}.y{fill:#bdbdbd;}.aa,.z{fill:#e4a20e;}.ab{fill:#357ce1;}.ac{opacity:0.5;}</style></defs><g transform="translate(0 0)"><g transform="translate(4.686 0)"><g class="a" transform="translate(0.745 40.689)"><ellipse class="b" cx="52.309" cy="13.265" rx="52.309" ry="13.265"/></g><g transform="translate(41.47 59.165)"><ellipse class="c" cx="2.654" cy="2.212" rx="2.654" ry="2.212" transform="translate(0.587 1.551) rotate(-11.13)"/><path class="d" d="M1874.574-556.983a3.794,3.794,0,0,1-1.822-.454,3.032,3.032,0,0,1-1.555-2.055,3.032,3.032,0,0,1,.66-2.49,3.91,3.91,0,0,1,2.288-1.341,3.439,3.439,0,0,1,4.182,2.43,3.032,3.032,0,0,1-.661,2.491,3.9,3.9,0,0,1-2.287,1.342A4.158,4.158,0,0,1,1874.574-556.983Zm.366-4.46a2.19,2.19,0,0,0-.417.04,1.973,1.973,0,0,0-1.144.654,1.093,1.093,0,0,0-.26.877,1.091,1.091,0,0,0,.573.715,1.976,1.976,0,0,0,1.307.172,1.975,1.975,0,0,0,1.144-.654,1.092,1.092,0,0,0,.26-.877A1.394,1.394,0,0,0,1874.941-561.443Z" transform="translate(-1871.144 563.402)"/></g><g transform="translate(64.1 50.395)"><ellipse class="c" cx="2.654" cy="2.212" rx="2.654" ry="2.212" transform="translate(0.588 1.552) rotate(-11.13)"/><path class="d" d="M1909.235-570.41a3.321,3.321,0,0,1-3.387-2.507,3.438,3.438,0,0,1,2.949-3.833,3.9,3.9,0,0,1,2.625.375,3.032,3.032,0,0,1,1.556,2.055,3.029,3.029,0,0,1-.661,2.49,3.9,3.9,0,0,1-2.289,1.341A4.077,4.077,0,0,1,1909.235-570.41Zm.36-4.459a2.193,2.193,0,0,0-.42.041c-.89.176-1.534.877-1.4,1.532a1.528,1.528,0,0,0,1.881.886,1.971,1.971,0,0,0,1.144-.654,1.094,1.094,0,0,0,.261-.878h0a1.1,1.1,0,0,0-.573-.714A1.864,1.864,0,0,0,1909.594-574.87Z" transform="translate(-1905.794 576.83)"/></g><g transform="translate(0 8.438)"><g transform="translate(35.726 22.838)"><path class="d" d="M1875.567-601.321a.948.948,0,0,1-.221-.025l-12.235-2.822a.979.979,0,0,1-.735-1.174.979.979,0,0,1,1.175-.734l12.236,2.821a.981.981,0,0,1,.735,1.175A.98.98,0,0,1,1875.567-601.321Z" transform="translate(-1862.35 606.103)"/></g><g transform="translate(45.921 23.618)"><path class="d" d="M1880.343-599.3a.978.978,0,0,1-.758-.359l-1.4-1.714a.979.979,0,0,1-.023-1.212l1.464-1.933a.98.98,0,0,1,1.372-.189.978.978,0,0,1,.189,1.372l-1,1.318.916,1.117a.979.979,0,0,1-.137,1.378A.975.975,0,0,1,1880.343-599.3Z" transform="translate(-1877.959 604.909)"/></g><g transform="translate(27.394 26.125)"><path class="d" d="M1854.2-581.063c-.03,0-.059,0-.089,0l-2.643-.239a.979.979,0,0,1-.89-.921l-.982-17.809a.98.98,0,0,1,.924-1.032.971.971,0,0,1,1.032.924l.935,16.963,1.8.163a.98.98,0,0,1,.888,1.064A.98.98,0,0,1,1854.2-581.063Z" transform="translate(-1849.593 601.07)"/></g><g transform="translate(13.818 28.297)"><path class="d" d="M1832.3-577.393a.978.978,0,0,1-.317-.053l-2.511-.858a.979.979,0,0,1-.646-1.106l3.259-17.536a.979.979,0,0,1,1.142-.784.979.979,0,0,1,.784,1.142l-3.1,16.7,1.709.584a.98.98,0,0,1,.61,1.244A.98.98,0,0,1,1832.3-577.393Z" transform="translate(-1828.806 597.745)"/></g><g transform="translate(0.745 0.744)"><path class="e" d="M1830.209-638.446s-2.339-2.456-3.86-1.052-1.52,1.988-1.52,1.988-1.988-2.221-3.391-.7a4,4,0,0,0-1.287,2.806s-2.456-1.287-3.392-.467a6.163,6.163,0,0,0-1.4,2.573,2.151,2.151,0,0,0-1.872.584,8.885,8.885,0,0,0-1.4,3.041s-1.051-.7-1.87.819.935,2.456.935,2.456-1.871,1.053-1.521,2.573a5.689,5.689,0,0,0,.935,2.222s-1.637.7-1.169,2.223a8.093,8.093,0,0,0,1.52,2.689s-2.339.7-2.1,2.223.818,1.637.818,1.637-.234.234,0,1.4a2.872,2.872,0,0,0,1.17,1.754s-2.106,1.637.234,2.339a8.1,8.1,0,0,0,3.509.468s-1.871,1.4.234,1.637a21.654,21.654,0,0,0,4.21,0s-.819,3.742.935,2.573,2.34-.935,2.34-.935.585,2.456,1.17,1.4,1.636.233,1.636.233,1.521,2.223,2.106,1.287,1.754,1.052,2.222-.118l.935-.585s3.392,1.87,3.743.467l.352-1.4s2.338,1.754,3.04.585a2.523,2.523,0,0,1,2.222-1.052s3.392,1.4,4.094-.7,2.222-1.169,2.222-1.169,3.508.35,2.573-.936-.234-.468-.234-.468l-.351-1.287s2.808-.35,1.989-2.1-1.053-2.34-1.053-2.34,1.287-.934.7-1.52a6.882,6.882,0,0,1-1.053-2.222s1.637-1.522.818-2.223a2.715,2.715,0,0,1-.935-1.521s1.987-1.287,1.052-2.1a3.343,3.343,0,0,1-1.052-1.989s1.754-1.053,1.052-1.871a4.807,4.807,0,0,1-.935-1.754s1.988-1.755.351-2.456a7.122,7.122,0,0,1-2.69-2.221s-.467-2.106-1.17-1.99a13.4,13.4,0,0,1-1.754.117s-.234-2.222-1.17-1.871a6,6,0,0,1-1.871.351s.468-2.573-1.17-2.339a7.068,7.068,0,0,0-2.69.937s1.285-1.287-.351-1.52a2.094,2.094,0,0,0-2.222.818s.234-.818-.233-1.169a1.99,1.99,0,0,0-1.989.351C1831.379-637.626,1830.911-639.965,1830.209-638.446Z" transform="translate(-1808.79 639.932)"/><g transform="translate(17.049 16.398)"><path class="f" d="M1838.357-591.9a.6.6,0,0,1-.084.1.112.112,0,0,1-.017.014.342.342,0,0,1-.091.06l-.016.007a.379.379,0,0,1-.1.026h-.008a.53.53,0,0,1-.111,0h-.008a.742.742,0,0,1-.117-.029l-.017,0a1.2,1.2,0,0,1-.119-.046.106.106,0,0,0-.02-.008l-.12-.059-.005,0c-.189-.655-.806-1.9-1.023-2.616a1.608,1.608,0,0,1,.329-1.46s.907-.828.433-1.065-1.144-1.538-1.144-1.538.552.355.711.473.709.867.748.2a4.365,4.365,0,0,1,.237-1.183,16,16,0,0,0-1.144-1.262,4.347,4.347,0,0,1-.788-1.342s1.143,1.184,1.38.355a2.849,2.849,0,0,1,1.1-1.381,3.242,3.242,0,0,0-1.064-1.419,1.272,1.272,0,0,1-.631-1.105,8.142,8.142,0,0,0,.946.632c.553.315.632-.434.67-.986s.2-1.38.2-1.38a10.886,10.886,0,0,1-1.972-.671c-.789-.394.079-1.458.079-1.458a5.522,5.522,0,0,0,.552.907c.2.2.749-.04.749-.513s.827-1.3.827-1.3l-.748-1.381s-.71.2-1.854.4a.982.982,0,0,1-1.222-.907,17.458,17.458,0,0,1,1.814-2.761,8.135,8.135,0,0,1,1.617-.2c.512.039,3.706.906,4.574,1.065s4.1,4.928,3.944,6.191a132.468,132.468,0,0,1-2.736,14.377c-.322-.187-.559-.357-.618-.4l-.005,0-.009-.007-.352,1.4c-.351,1.4-3.743-.467-3.743-.467l-.935.585a.951.951,0,0,1-.078.154A.125.125,0,0,0,1838.357-591.9Z" transform="translate(-1834.894 614.825)"/></g><g transform="translate(0 6.338)"><path class="f" d="M1823.426-598.823c-.585,1.053-1.17-1.4-1.17-1.4s-.585-.234-2.34.935-.935-2.573-.935-2.573a21.654,21.654,0,0,1-4.21,0c-2.105-.234-.234-1.637-.234-1.637a8.1,8.1,0,0,1-3.509-.468c-2.34-.7-.234-2.339-.234-2.339a2.872,2.872,0,0,1-1.17-1.754c-.234-1.169,0-1.4,0-1.4s-.585-.117-.818-1.637,2.1-2.222,2.1-2.222a8.094,8.094,0,0,1-1.52-2.69c-.468-1.522,1.169-2.223,1.169-2.223a5.688,5.688,0,0,1-.935-2.222c-.351-1.52,1.521-2.573,1.521-2.573s-1.754-.935-.935-2.456,1.87-.819,1.87-.819a8.884,8.884,0,0,1,1.4-3.041,2.151,2.151,0,0,1,1.872-.584s.03-.114.09-.3c1.157.227,1.994.406,1.994.406l-4.784,3.48s-2,.26-2,1.043,1.218,1.652,1.479,1.739a2.3,2.3,0,0,0,.609.087,1.768,1.768,0,0,0-1.3,2.088,3.943,3.943,0,0,0,1.13,2.262l1.218.087-2.349.7s-1.479,1.827-.87,2.61,1.827,2.086,2.175,1.826a3.964,3.964,0,0,1,.782-.434s-.87,1.566-1.391,1.3a2.161,2.161,0,0,0-.87-.261s-1.391.956-1.13,1.825,1.74,1.132,1.74,1.132.609.783-.087.87-1.479.174-1.479.174,0,1.477,1.044,1.477h1.479s-2.087,2.087-1.3,2.61a4.8,4.8,0,0,0,2.784.61,14.275,14.275,0,0,0,2.783-1.3s-2.348,2.782-.521,3.043a14.1,14.1,0,0,0,2.87.173l.783-1.652s-.957,3.653-.087,3.914,1.826-.609,1.826-.609l.945-1.887c-.1.193-.693,1.5.273,2.061a1.488,1.488,0,0,0,1.74,0s-.869,1.044.523,1.479,1.912,0,2-.435,2.086-2.348,2.957-2.087c.686.206,1.9,2.09,1.456,4.582a12.291,12.291,0,0,1-1.53-.686l-.935.585c-.468,1.17-1.637-.819-2.222.118s-2.106-1.287-2.106-1.287S1824.009-599.876,1823.426-598.823Z" transform="translate(-1808.79 630.228)"/><g transform="translate(14.117 27.283)"><path class="f" d="M1830.4-588.427l.012-.027Z" transform="translate(-1830.404 588.454)"/></g></g><g transform="translate(18.192 6.68)"><path class="g" d="M1843.73-597.356l.352-1.4s2.338,1.754,3.04.584a2.523,2.523,0,0,1,2.222-1.052s3.392,1.4,4.094-.7,2.222-1.169,2.222-1.169,3.435.534,2.715-.884a4.45,4.45,0,0,0-.322-.535l-.405-1.272s2.808-.35,1.989-2.105-1.052-2.339-1.052-2.339,1.287-.935.7-1.52a6.883,6.883,0,0,1-1.053-2.222s1.637-1.522.818-2.223a2.715,2.715,0,0,1-.935-1.52s1.987-1.287,1.052-2.1a3.345,3.345,0,0,1-1.052-1.989s1.754-1.053,1.052-1.871a4.806,4.806,0,0,1-.935-1.754s1.988-1.755.351-2.456a7.118,7.118,0,0,1-2.69-2.221,6.176,6.176,0,0,0-.595-1.591c-4.412,3.427-8.477,7.071-8.477,7.071s-6.706,3.149-7.618,4.516.958,3.1.958,3.1a3.078,3.078,0,0,0-.914.548c-.228.273-.547,1.505.547,1.78s.411,1.459.411,1.459l-.776.776c-.319.32-.227,1.095-.045,1.779a11.678,11.678,0,0,0,.369,1.16,4.028,4.028,0,0,0-1.4,1.228c-.7.922.834,2.149.834,2.149a2.537,2.537,0,0,0-.571,1.008c-.176.615.526,1.228.526,1.228a6.249,6.249,0,0,1-1.052.746c-.789.482-.072,2.152-.072,2.152s-2.434-.031-.818,1.625c.617-.063,1.472,1.1,1.854.138l.935-.584S1843.379-595.952,1843.73-597.356Z" transform="translate(-1836.643 629.704)"/></g><g transform="translate(36.535 9.887)"><path class="h" d="M1864.729-599.6a1.3,1.3,0,0,1,.942-.006c.879.261,1.758-.556,1.511-.988a29.191,29.191,0,0,1-.868-3.226l.929,1.221s1.4-.757,1.337-1.744-1.569-3.14-1.569-3.14l.931.465a1.491,1.491,0,0,0,.174-1.4,21.786,21.786,0,0,1-.931-2.5h.35c.348,0,.7-.756.291-1.4a7.688,7.688,0,0,1-.7-1.8l-.7-.7a5.849,5.849,0,0,0,1.337-.058c.524-.116.639-.7.291-1.338a9.776,9.776,0,0,1-.64-1.859l-.93-.581a5.122,5.122,0,0,0,1.512-.989c.639-.639-1.977-2.558-1.977-2.558l.007-2.009s.568-.278,1.24-.6a5.589,5.589,0,0,0,1.057.6c1.637.7-.351,2.456-.351,2.456a4.808,4.808,0,0,0,.935,1.754c.7.818-1.052,1.871-1.052,1.871a3.343,3.343,0,0,0,1.052,1.989c.935.818-1.052,2.1-1.052,2.1a2.714,2.714,0,0,0,.935,1.52c.819.7-.818,2.223-.818,2.223a6.881,6.881,0,0,0,1.053,2.222c.585.585-.7,1.52-.7,1.52s.234.585,1.053,2.339-1.989,2.1-1.989,2.1l.405,1.272a4.458,4.458,0,0,1,.321.535c.72,1.417-2.715.884-2.715.884A1.618,1.618,0,0,0,1864.729-599.6Z" transform="translate(-1864.729 624.794)"/></g><g transform="translate(3.387)"><path class="h" d="M1815.282-632.715a2.151,2.151,0,0,1,1.872-.584,6.164,6.164,0,0,1,1.4-2.573c.935-.82,3.392.467,3.392.467a4,4,0,0,1,1.287-2.806c1.4-1.52,3.391.7,3.391.7s0-.585,1.521-1.988,3.86,1.052,3.86,1.052c.7-1.519,1.17.82,1.4.469a1.99,1.99,0,0,1,1.989-.351c.467.351.233,1.169.233,1.169a2.094,2.094,0,0,1,2.222-.818c1.637.232.351,1.52.351,1.52a7.07,7.07,0,0,1,2.69-.937c1.61-.229,1.186,2.245,1.171,2.332a1.974,1.974,0,0,1,2.36-.448,1.232,1.232,0,0,1,.663,1.847c0,.026.006.047.008.065a1.828,1.828,0,0,1,1.7-.385c1.464.281,1.234,2.322,1.234,2.322a7.12,7.12,0,0,0,2.69,2.221c1.637.7-.351,2.456-.351,2.456a4.729,4.729,0,0,0,.5,1.143,3.411,3.411,0,0,1-2.2-1.144,1.125,1.125,0,0,0-1.266,1.179c0,1.3-2.279,0-2.279,0s-2.024-.236-1.012,1.532-3.544.707-3.544.707-2.025-.118-1.646,1.415-3.037.472-3.037.472-1.14-.354-1.772,1.415-2.912-.825-2.912-.825a9.132,9.132,0,0,0-2.531.943c-1.645.825-1.519-2.122-1.519-2.122s-1.392-.118-2.911-.118-.632-1.061-.632-1.061-1.393-.118-2.786-.354.507-2.121.507-2.121-.179-.021-.488-.048a27.641,27.641,0,0,0-3.69-.069c-2.153.118-1.393-2.712-1.393-2.712s-1.645,0-1.771-1.061c-.008-.063-.008-.13-.012-.194A7.678,7.678,0,0,1,1815.282-632.715Z" transform="translate(-1813.975 639.932)"/></g><g transform="translate(8.051 3.735)"><path class="i" d="M1834.609-634.127s8.989,3.657,10.932,5.028l1.829.915s1.142.914.114,1.6-10,4.548-12.628,5c0,0-1.2.6-3.945-.662s-9.374-5.143-9.374-5.143-1.257-.915.571-2.058,9.186-4.227,9.186-4.227A6.585,6.585,0,0,1,1834.609-634.127Z" transform="translate(-1821.116 634.212)"/></g><g transform="translate(9.63 4.517)"><path class="j" d="M1835.561-632.943s8.01,3.111,9.742,4.279l1.63.779s1.018.777.1,1.36-8.91,3.872-11.253,4.26c0,0-1.072.507-3.517-.563s-8.354-4.377-8.354-4.377-1.12-.779.51-1.752,8.186-3.6,8.186-3.6A6.131,6.131,0,0,1,1835.561-632.943Z" transform="translate(-1823.534 633.016)"/></g><g transform="translate(16.412 4.517)"><path class="k" d="M1833.918-631.618c1.3-.539,2.289-.935,2.289-.935a6.132,6.132,0,0,1,2.955-.391s8.01,3.111,9.742,4.279l1.63.779s1.018.777.1,1.36a56.672,56.672,0,0,1-5.4,2.322,16.925,16.925,0,0,1-8.858-2.39A5.787,5.787,0,0,1,1833.918-631.618Z" transform="translate(-1833.918 633.016)"/></g><g transform="translate(16.412 5.806)"><path class="l" d="M1833.918-630.934l.261-.108a11.657,11.657,0,0,0,.632,3.012c.406.94,5.16,3.534,6.712,3.865a28.273,28.273,0,0,0,4.81.215c-.359.143-.724.288-1.093.431a16.924,16.924,0,0,1-8.858-2.39A5.787,5.787,0,0,1,1833.918-630.934Z" transform="translate(-1833.918 631.042)"/></g><g transform="translate(9.63 6.304)"><path class="m" d="M1824.419-628.008c.854-.509,3.059-1.471,4.966-2.271a12.892,12.892,0,0,1,1.756,4.171c.119,1.351-.9,2.162-2.749,2.291-2.274-1.2-4.482-2.439-4.482-2.439S1822.79-627.036,1824.419-628.008Z" transform="translate(-1823.534 630.28)"/></g><g transform="translate(9.634 8.876)"><path class="n" d="M1830.839-623.5a3.11,3.11,0,0,1-2.445,1.052c-2.274-1.2-4.482-2.439-4.482-2.439s-.89-.624.087-1.451a2.111,2.111,0,0,0,.205,1.2,26.563,26.563,0,0,0,3.491,1.916c.7.34,2.667-.388,2.667-.388Z" transform="translate(-1823.541 626.342)"/></g><g transform="translate(9.63 6.304)"><path class="o" d="M1824.419-628.008c.854-.509,3.058-1.471,4.966-2.271a18.994,18.994,0,0,1,1.369,2.731c.032.414.053.7.053.7s-1.677-2.457-1.777-2.541a1.932,1.932,0,0,0-1.263.251,20.826,20.826,0,0,0-3.571,1.726,1.378,1.378,0,0,0-.524.9C1823.466-626.815,1823.347-627.368,1824.419-628.008Z" transform="translate(-1823.535 630.28)"/></g><g transform="translate(15.066 11.893)"><path class="p" d="M1831.857-620.545a5.227,5.227,0,0,0,.863-.321,5.894,5.894,0,0,1,3.27-.838,20.662,20.662,0,0,1,4.947,1.634,1.39,1.39,0,0,1,.607.884,21.021,21.021,0,0,1-2.876.837s-1.072.507-3.517-.563C1834.326-619.273,1833.108-619.888,1831.857-620.545Z" transform="translate(-1831.857 621.723)"/></g><g transform="translate(15.066 12.938)"><path class="q" d="M1831.857-619.989c.126-.035.265-.078.413-.133.574.241,1.305.618,1.848.92a10.135,10.135,0,0,0,3.588,1.212,14.87,14.87,0,0,0,2.337-.152,12.179,12.179,0,0,1-1.376.349s-1.072.507-3.517-.563C1834.326-618.718,1833.108-619.332,1831.857-619.989Z" transform="translate(-1831.857 620.122)"/></g><g transform="translate(16.412 4.517)"><path class="r" d="M1849.655-627.535c-.771-.385-10.785-5.118-11.445-5.118a29.277,29.277,0,0,0-4.277,1.518c-.01-.17-.016-.334-.015-.483,1.3-.539,2.289-.935,2.289-.935a6.132,6.132,0,0,1,2.955-.391s8.01,3.111,9.742,4.279l1.63.779s1.018.777.1,1.36a56.672,56.672,0,0,1-5.4,2.322c-.114,0-.227-.01-.342-.013,1.4-.75,3.407-1.828,3.931-2.107C1849.655-626.765,1850.426-627.149,1849.655-627.535Z" transform="translate(-1833.918 633.016)"/></g><g transform="translate(25.938 7.297)"><path class="s" d="M1849.206-628.3a11.777,11.777,0,0,0-.646,2.338,10.8,10.8,0,0,0,.05,2.486s.4-2.736.647-3.482.547-1.89.4-1.792A3.659,3.659,0,0,0,1849.206-628.3Z" transform="translate(-1848.504 628.759)"/></g><g transform="translate(22.977 6.099)"><path class="s" d="M1844.673-630.138a11.76,11.76,0,0,0-.647,2.337,10.76,10.76,0,0,0,.05,2.486s.4-2.735.646-3.482.548-1.889.4-1.79A3.545,3.545,0,0,0,1844.673-630.138Z" transform="translate(-1843.97 630.593)"/></g><g transform="translate(19.605 4.884)"><path class="s" d="M1839.509-632a11.768,11.768,0,0,0-.647,2.338,10.772,10.772,0,0,0,.05,2.488s.4-2.737.647-3.482.547-1.891.4-1.791A3.608,3.608,0,0,0,1839.509-632Z" transform="translate(-1838.807 632.453)"/></g><g transform="translate(30.373 9.651)"><path class="r" d="M1855.5-625.155s1.02.339.987.69-.7.549-.746.45.286-.329,0-.559S1855.039-625.167,1855.5-625.155Z" transform="translate(-1855.294 625.156)"/></g><g transform="translate(27.468 8.203)"><path class="r" d="M1851.041-627.372s.723.186.691.406-.494.186-.669.055S1850.69-627.274,1851.041-627.372Z" transform="translate(-1850.847 627.372)"/></g><g transform="translate(25.05 7.074)"><path class="r" d="M1847.475-629.1s.964.493.931.636.165.427-.208.241-.767-.427-.953-.515S1847.125-629.079,1847.475-629.1Z" transform="translate(-1847.143 629.101)"/></g><g transform="translate(22.055 5.888)"><path class="r" d="M1843.134-630.9s.986.229.887.439.011.339-.417.208-1.108-.461-1.041-.581S1843.134-630.9,1843.134-630.9Z" transform="translate(-1842.559 630.916)"/></g><g transform="translate(18.776 5.341)"><path class="r" d="M1838.76-631.754s-.022.34-.231.417-1.162.208-.965.066A2.532,2.532,0,0,1,1838.76-631.754Z" transform="translate(-1837.538 631.754)"/></g><g transform="translate(14.021 6.304)"><path class="t" d="M1833.066-626.016a19.3,19.3,0,0,0-1.784-4.082l.435-.182a12.9,12.9,0,0,1,1.755,4.171c.119,1.351-.9,2.162-2.749,2.291-.156-.082-.312-.166-.467-.248C1831.993-624.345,1833.13-625.193,1833.066-626.016Z" transform="translate(-1830.257 630.28)"/></g><g transform="translate(15.95 11.893)"><path class="u" d="M1835.309-621.345a17.069,17.069,0,0,0-2.1.469,5.848,5.848,0,0,1,3.249-.827,20.656,20.656,0,0,1,4.947,1.634,1.391,1.391,0,0,1,.608.884c-.215.074-.418.142-.623.209l-.125-.2c-.353-.555-.807-.807-1.918-1.263A9.7,9.7,0,0,0,1835.309-621.345Z" transform="translate(-1833.211 621.723)"/></g><g transform="translate(21.529 13.535)"><path class="u" d="M1841.886-619.208a9.214,9.214,0,0,1,1.761.745c.044.165.044.3-.492.388s-.865.015-.686-.149.419-.3.313-.418S1841.335-619.014,1841.886-619.208Z" transform="translate(-1841.754 619.208)"/></g><g transform="translate(18.076 12.52)"><path class="u" d="M1836.7-620.762a16.167,16.167,0,0,1,2.52.687c.18.193-.716-.12-1.1-.18s-.985-.314-1.253-.314S1836.218-620.762,1836.7-620.762Z" transform="translate(-1836.466 620.762)"/></g><g transform="translate(15.766 9.238)"><path class="o" d="M1833.052-625.773s.746,1.342.537,1.656-.359.358-.359.165.194-.18.075-.673S1832.709-625.907,1833.052-625.773Z" transform="translate(-1832.93 625.788)"/></g><g transform="translate(17.282 20.752)"><path class="v" d="M1835.772-608.156a2.422,2.422,0,0,0,.173,1.036c.229.69-.634-.058-.691-.575S1835.772-608.156,1835.772-608.156Z" transform="translate(-1835.25 608.158)"/></g><g transform="translate(3.145 13.984)"><path class="v" d="M1814.383-618.52s-1.439.69-.4,1.323,1.151.116,1.151-.057S1814.209-618,1814.383-618.52Z" transform="translate(-1813.605 618.52)"/></g><g transform="translate(2.686 10.991)"><path class="v" d="M1813.217-623.1s-.748.691.058.921.806-.115.806-.115Z" transform="translate(-1812.901 623.104)"/></g><g transform="translate(2.267 18.933)"><path class="v" d="M1813.053-610.941c-.167-.042-1.095.46-.692,1.151s.692.519.864-.172S1813.283-610.883,1813.053-610.941Z" transform="translate(-1812.261 610.944)"/></g><g transform="translate(2.119 24.291)"><path class="v" d="M1812.4-602.684s-.634.633-.231.921.864.058.864-.115S1812.8-602.972,1812.4-602.684Z" transform="translate(-1812.034 602.74)"/></g><g transform="translate(3.339 29.854)"><path class="v" d="M1815-594.145c-.576.287-1.613.806-.806.749a3,3,0,0,0,1.613-.749C1816.04-594.317,1815-594.145,1815-594.145Z" transform="translate(-1813.902 594.221)"/></g><g transform="translate(16.871 35.668)"><path class="v" d="M1835.659-584.9c-.237.276-.4.978-.749.518s-.4-.69-.057-.863S1836-585.3,1835.659-584.9Z" transform="translate(-1834.62 585.32)"/></g><g transform="translate(18.257 23.916)"><path class="v" d="M1837.838-602.609c-.173.691.057,1.555-.519.922s-.575-.461-.575-1.325S1837.838-602.609,1837.838-602.609Z" transform="translate(-1836.744 603.314)"/></g><g transform="translate(7.359 28.451)"><path class="f" d="M1820.058-596.37s-.053,2.069,1.114,2.6a4.506,4.506,0,0,0,1.962.477s-1.8-.742-2.069-1.537A4.729,4.729,0,0,0,1820.058-596.37Z" transform="translate(-1820.057 596.37)"/></g><g transform="translate(4.159 24.633)"><path class="f" d="M1815.388-602.216a1.385,1.385,0,0,0,.106,1.643c.69.744,1.91.213,1.91.213s-1.272-.159-1.537-.8S1815.388-602.216,1815.388-602.216Z" transform="translate(-1815.157 602.216)"/></g><g transform="translate(13.616 32.481)"><path class="f" d="M1832.555-590.2a1.135,1.135,0,0,1-1.326,1.113c-1.273-.159-1.591-.8-1.591-.8s1.431.532,1.962.212S1832.555-590.2,1832.555-590.2Z" transform="translate(-1829.638 590.199)"/></g><g transform="translate(11.534 28.822)"><path class="f" d="M1826.622-595.8a2.43,2.43,0,0,0,.637,1.645,2.372,2.372,0,0,0,1.59.423s-1.166,1.061-1.961-.053A1.893,1.893,0,0,1,1826.622-595.8Z" transform="translate(-1826.45 595.802)"/></g><g transform="translate(25.138 28.754)"><path class="w" d="M1848.212-594.92c-.469.074-.887-.082-.929-.349s.306-.544.775-.619.886.081.929.347S1848.682-595,1848.212-594.92Z" transform="translate(-1847.279 595.907)"/></g><g transform="translate(35.313 26.456)"><path class="w" d="M1863.812-598.433c-.466.1-.891-.033-.948-.3s.275-.561.74-.661.89.033.946.3S1864.274-598.533,1863.812-598.433Z" transform="translate(-1862.858 599.424)"/></g><g transform="translate(36.987 8.022)"><path class="h" d="M1865.421-627.446s.562-.53,1.9.125.406,2.15.406,2.15l-1.962-.9Z" transform="translate(-1865.421 627.649)"/></g></g><path class="d" d="M1827.054-640.327a4.863,4.863,0,0,1,2.759,1.486c.176-.38.336-.519.483-.519.4,0,.686,1.023.868,1.023a.065.065,0,0,0,.053-.036,2.087,2.087,0,0,1,1.413-.5.973.973,0,0,1,.576.146c.467.351.233,1.169.233,1.169a1.979,1.979,0,0,1,1.761-.852,3.26,3.26,0,0,1,.461.034c1.637.232.352,1.52.352,1.52a7.068,7.068,0,0,1,2.69-.937,1.59,1.59,0,0,1,.2-.014c.027,0,.054,0,.08,0a.48.48,0,0,1,.062.011.96.96,0,0,1,.175.033c.019.006.035.018.053.025a.785.785,0,0,1,.141.069.477.477,0,0,1,.041.034.949.949,0,0,1,.118.1c.01.011.018.026.027.037a1.077,1.077,0,0,1,.1.134c.006.012.012.025.018.037a1.478,1.478,0,0,1,.076.162c0,.012.007.023.011.035a1.721,1.721,0,0,1,.056.182c0,.01,0,.02.006.031.015.065.028.13.037.2,0,.008,0,.017,0,.025.009.069.016.138.021.205v.022c0,.069.007.138.007.2v.016c0,.068,0,.133,0,.2v.016c0,.061-.007.121-.011.176v.013c0,.054-.01.1-.014.149v.013c0,.043-.009.081-.014.112v.012c-.005.032-.008.055-.01.07v.007l0,.017a2.057,2.057,0,0,1,1.454-.661,2.162,2.162,0,0,1,.906.213,1.232,1.232,0,0,1,.664,1.847c0,.026.006.047.008.065a1.66,1.66,0,0,1,1.187-.436,2.738,2.738,0,0,1,.51.051c1.162.223,1.257,1.55,1.246,2.09a1.539,1.539,0,0,1,.23-.016,2.764,2.764,0,0,1,1.2.327,1.292,1.292,0,0,1,.577,1.793l.105.064c.035.021.073.039.108.059.054.029.107.06.163.089.095.048.191.094.291.136,1.637.7-.351,2.456-.351,2.456s0,.009,0,.018l0,.009c.008.031.025.087.051.164,0,0,0,.01.006.016.028.081.065.182.113.3l.006.014c.05.12.112.252.187.4l0,.008c.038.072.08.146.125.221h0a4.446,4.446,0,0,0,.438.611c.7.818-1.052,1.87-1.052,1.87a3.343,3.343,0,0,0,1.052,1.989c.935.818-1.052,2.1-1.052,2.1a2.714,2.714,0,0,0,.935,1.52c.819.7-.818,2.223-.818,2.223a6.881,6.881,0,0,0,1.053,2.222c.585.585-.7,1.52-.7,1.52s.234.585,1.053,2.339-1.989,2.105-1.989,2.105l.405,1.272a4.441,4.441,0,0,1,.321.535c.411.809-.53.982-1.415.982a9.626,9.626,0,0,1-1.3-.1l-.009,0-.005,0-.032-.017-.008,0c-.016-.008-.035-.017-.055-.026l-.006,0a1.822,1.822,0,0,0-.171-.067l-.008,0c-.033-.011-.069-.021-.106-.031l-.013,0c-.038-.01-.077-.018-.118-.025h-.008c-.044-.007-.089-.012-.135-.016h0c-.03,0-.062,0-.094,0-.483,0-1.084.263-1.455,1.377a1.8,1.8,0,0,1-1.906,1.161,6.625,6.625,0,0,1-2.188-.459s-.042,0-.115,0a2.451,2.451,0,0,0-2.107,1.055.834.834,0,0,1-.771.4,4.95,4.95,0,0,1-2.252-.975l0,0-.005,0-.009-.007-.352,1.4c-.095.383-.417.522-.835.522a8.261,8.261,0,0,1-2.908-.989l-.935.584a1.071,1.071,0,0,1-.069.14l-.016.023,0,.006a.629.629,0,0,1-.072.09.114.114,0,0,0-.014.014l-.009.007a.438.438,0,0,1-.071.052l-.01.006-.024.01a.03.03,0,0,0-.009,0h0a.283.283,0,0,1-.057.018l-.023.005-.023,0h-.07l-.023,0-.024,0h-.01l-.048-.01-.026-.007a.9.9,0,0,1-.094-.029l-.046-.018-.06-.026c-.036-.017-.072-.034-.108-.053h0a2.366,2.366,0,0,0-.9-.372l-.05,0h0a.485.485,0,0,0-.366.257.431.431,0,0,1-.377.229c-.69,0-1.729-1.517-1.729-1.517s-.529-.648-1.046-.648a.672.672,0,0,0-.591.415c-.1.186-.207.263-.306.263-.467,0-.863-1.666-.863-1.666a.48.48,0,0,0-.157-.019,4.4,4.4,0,0,0-2.182.954,1.094,1.094,0,0,1-.578.225c-.97,0-.357-2.8-.357-2.8a21.84,21.84,0,0,1-2.183.1,18.654,18.654,0,0,1-2.027-.1c-2.106-.234-.234-1.637-.234-1.637a3.247,3.247,0,0,1-.563.037,10.423,10.423,0,0,1-2.946-.5c-2.34-.7-.234-2.339-.234-2.339a2.872,2.872,0,0,1-1.17-1.754c-.234-1.169,0-1.4,0-1.4s-.585-.117-.818-1.637,2.1-2.223,2.1-2.223a8.094,8.094,0,0,1-1.52-2.69c-.468-1.522,1.169-2.223,1.169-2.223a5.691,5.691,0,0,1-.935-2.222c-.351-1.52,1.521-2.573,1.521-2.573s-1.754-.935-.935-2.456c.426-.791.915-.981,1.286-.981a1.145,1.145,0,0,1,.585.162s.035-.129.1-.332h0a12.438,12.438,0,0,1,.614-1.627c0-.009.008-.018.012-.026.035-.074.071-.147.108-.217l.012-.024a4.769,4.769,0,0,1,.253-.428l.031-.045c.034-.048.068-.1.1-.14.012-.016.023-.031.035-.044.046-.056.092-.108.138-.156a2.116,2.116,0,0,1,1.515-.615,1.734,1.734,0,0,1,.357.031s.017-.065.051-.172v0c.012-.036.023-.074.039-.118v0a5.6,5.6,0,0,1,1.313-2.278,1.322,1.322,0,0,1,.888-.274,6.753,6.753,0,0,1,2.5.741,4,4,0,0,1,1.287-2.806,1.512,1.512,0,0,1,1.144-.532,3.758,3.758,0,0,1,2.247,1.233s0-.585,1.52-1.988a1.577,1.577,0,0,1,1.1-.434m0-.744h0a2.326,2.326,0,0,0-1.6.631,9.427,9.427,0,0,0-1.237,1.341,3.536,3.536,0,0,0-2.026-.784,2.267,2.267,0,0,0-1.691.771,5.671,5.671,0,0,0-1.331,2.24,5.729,5.729,0,0,0-1.913-.413,2.025,2.025,0,0,0-1.377.457,5.941,5.941,0,0,0-1.446,2.362,2.849,2.849,0,0,0-1.866.83,2.723,2.723,0,0,0-.187.209l-.037.044-.01.016c-.044.054-.085.112-.134.182l-.013.017-.019.029a5.267,5.267,0,0,0-.292.494l-.015.026c-.041.079-.08.158-.119.239l-.014.03a12.346,12.346,0,0,0-.541,1.375h-.082a2.192,2.192,0,0,0-1.941,1.371,2.3,2.3,0,0,0-.214,1.779,2.623,2.623,0,0,0,.593,1.008,2.906,2.906,0,0,0-1.034,2.763,7.908,7.908,0,0,0,.644,1.818,2.412,2.412,0,0,0-.865,2.678,8.372,8.372,0,0,0,1.061,2.158,2.66,2.66,0,0,0-1.669,2.649,3.489,3.489,0,0,0,.713,1.811,4.708,4.708,0,0,0,.111,1.262,3.521,3.521,0,0,0,.822,1.634,2.007,2.007,0,0,0-.512,1.592c.125.669.667,1.152,1.61,1.434a13.123,13.123,0,0,0,2.257.482,1.179,1.179,0,0,0-.005.625c.158.578.7.923,1.623,1.025a19.1,19.1,0,0,0,2.11.109c.49,0,.932-.015,1.294-.035a3.352,3.352,0,0,0,.338,2.292,1.146,1.146,0,0,0,.908.437,1.792,1.792,0,0,0,.991-.351,6.378,6.378,0,0,1,1.382-.739c.517,1.6,1.174,1.6,1.408,1.6a1.088,1.088,0,0,0,.957-.645l0,0a1.625,1.625,0,0,1,.392.328c.394.57,1.361,1.809,2.32,1.809a1.157,1.157,0,0,0,.9-.436c.075.037.163.086.229.122s.137.076.2.11l.013.007c.047.023.093.046.139.067l.014.006.064.028c.026.01.051.021.079.031a1.661,1.661,0,0,0,.164.052l.044.01.1.02c.012,0,.024,0,.036,0h.011l.019,0c.027,0,.053.006.067.006l.065,0c.025,0,.05,0,.074,0a.481.481,0,0,0,.055,0,.5.5,0,0,0,.053-.008l.056-.01.016,0a1.151,1.151,0,0,0,.18-.056l.007,0a.739.739,0,0,0,.074-.033l.024-.012c.012-.006.024-.014.038-.022a1.121,1.121,0,0,0,.175-.128l.018-.015.016-.014.031-.029a1.319,1.319,0,0,0,.162-.2l.016-.027.012-.02a.1.1,0,0,0,.009-.015l.4-.251a7.622,7.622,0,0,0,2.873.878,1.474,1.474,0,0,0,1.557-1.086l.1-.406a4.056,4.056,0,0,0,1.8.554,1.573,1.573,0,0,0,1.408-.763,1.716,1.716,0,0,1,1.439-.695,7.231,7.231,0,0,0,2.333.462,2.506,2.506,0,0,0,2.612-1.669c.192-.576.445-.867.749-.867h.042a.557.557,0,0,1,.067.008h.01l.042.008.018,0,.066.02a.655.655,0,0,1,.093.037l.007,0h0l.025.014.007,0h0l.012.007a.761.761,0,0,0,.26.093,10.23,10.23,0,0,0,1.414.107c.7,0,1.67-.079,2.088-.76a1.282,1.282,0,0,0-.01-1.3,5.275,5.275,0,0,0-.309-.53l-.125-.393a2.882,2.882,0,0,0,1.71-1.208,1.86,1.86,0,0,0,0-1.759c-.409-.875-.67-1.458-.828-1.818a2.155,2.155,0,0,0,.695-1.273,1.228,1.228,0,0,0-.366-.98,4.9,4.9,0,0,1-.735-1.5,3.219,3.219,0,0,0,.948-1.952,1.367,1.367,0,0,0-.489-1.035,2.234,2.234,0,0,1-.541-.677,2.835,2.835,0,0,0,1.163-1.775,1.4,1.4,0,0,0-.5-1.17,2.5,2.5,0,0,1-.705-1.1,2.75,2.75,0,0,0,1.106-1.547,1.378,1.378,0,0,0-.326-1.134,3.8,3.8,0,0,1-.351-.486.225.225,0,0,0-.012-.023c-.037-.06-.07-.12-.106-.187l0-.007c-.055-.1-.108-.215-.156-.329,0-.009-.006-.017-.008-.02l-.008-.02a2.743,2.743,0,0,0,.867-2.087,1.632,1.632,0,0,0-1.079-1.251l-.095-.042a1.916,1.916,0,0,0-1.116-2.085,4,4,0,0,0-1.061-.36,2.287,2.287,0,0,0-1.806-2.1,3.429,3.429,0,0,0-.65-.065,2.732,2.732,0,0,0-.3.016,1.8,1.8,0,0,0-.063-.229,2.107,2.107,0,0,0-1.185-1.194,2.9,2.9,0,0,0-1.217-.281,2.534,2.534,0,0,0-.684.095v-.008c0-.01,0-.032,0-.042-.012-.076-.026-.156-.047-.248,0-.016-.006-.029-.01-.048a2.3,2.3,0,0,0-.073-.242.646.646,0,0,0-.021-.065,2.073,2.073,0,0,0-.107-.233c-.011-.024-.023-.048-.039-.076a1.633,1.633,0,0,0-.146-.209,1.021,1.021,0,0,0-.069-.087,1.616,1.616,0,0,0-.2-.178,1.014,1.014,0,0,0-.1-.079,1.345,1.345,0,0,0-.243-.125.815.815,0,0,0-.13-.055,1.689,1.689,0,0,0-.283-.061.981.981,0,0,0-.136-.019c-.042,0-.086,0-.131,0a2.22,2.22,0,0,0-.3.022,8.373,8.373,0,0,0-1.437.338,1.546,1.546,0,0,0-1.394-.922,4.172,4.172,0,0,0-.567-.042,3.134,3.134,0,0,0-1.191.225,1.393,1.393,0,0,0-.358-.394,1.672,1.672,0,0,0-1.021-.294,3.515,3.515,0,0,0-1.255.258,1.3,1.3,0,0,0-1.079-.749h0a.975.975,0,0,0-.57.181,4.591,4.591,0,0,0-2.671-1.148Z" transform="translate(-1807.649 641.071)"/><g transform="translate(3.124 10.514)"><path class="d" d="M1832.757-614.12a5.407,5.407,0,0,1-2.388-1.336,7.435,7.435,0,0,1-2.671.963c-.919-.012-1.26-1.56-1.369-2.273-.747-.033-2.775-.127-3.308-.214a.621.621,0,0,1-.51-.372.871.871,0,0,1,.039-.638c-.529-.061-1.417-.17-2.31-.3a.833.833,0,0,1-.757-.537,1.829,1.829,0,0,1,.5-1.466,8.34,8.34,0,0,1-4.512-.528,1.889,1.889,0,0,1-1.039-1.324,1.879,1.879,0,0,1,.215-1.135,4.038,4.038,0,0,1-2.126-1.147.327.327,0,0,1,.021-.46.328.328,0,0,1,.461.019,3.236,3.236,0,0,0,2.216.978.338.338,0,0,1,.3.191.328.328,0,0,1-.054.355,1.561,1.561,0,0,0-.392,1.1,1.285,1.285,0,0,0,.719.856c1.612.927,4.908.336,4.943.331a.326.326,0,0,1,.347.169.327.327,0,0,1-.058.383c-.5.5-1,1.236-.922,1.47.013.041.1.079.231.1,1.386.2,2.761.351,2.774.353a.328.328,0,0,1,.264.193.331.331,0,0,1-.036.326,1.054,1.054,0,0,0-.217.476c.612.064,3.481.181,3.51.182a.327.327,0,0,1,.312.291c.1.927.451,1.966.765,1.97h.01a8.173,8.173,0,0,0,2.53-.986.329.329,0,0,1,.366.033,6.872,6.872,0,0,0,2.127,1.331,3.3,3.3,0,0,0,.5-.683c.363-.573.775-1.225,1.351-1.286a3.67,3.67,0,0,1,1.2.18,2.8,2.8,0,0,0,1.6.121c.245-.108.327-.3.45-.633a1.4,1.4,0,0,1,1.168-1.089,11.716,11.716,0,0,1,1.695-.052,5.856,5.856,0,0,0,2.535-.261c.1-.1-.012-.417-.113-.7a1.486,1.486,0,0,1-.084-1.248,1.118,1.118,0,0,1,.83-.486,2.249,2.249,0,0,1,1.8.391c.322.2.453.285.766.119a1.069,1.069,0,0,0,.59-.729.83.83,0,0,1,.67-.678,3.28,3.28,0,0,1,.9.057c.738.106,1.353.166,1.423-.172a.325.325,0,0,1,.386-.253.325.325,0,0,1,.253.386c-.2.966-1.377.8-2.156.685a3.1,3.1,0,0,0-.7-.059c-.072.012-.082.014-.157.24a1.713,1.713,0,0,1-.9,1.1,1.248,1.248,0,0,1-1.421-.144,1.6,1.6,0,0,0-1.334-.3.583.583,0,0,0-.381.17c-.073.127.042.445.133.7.16.445.36,1-.051,1.392-.459.437-1.481.459-2.993.441a11.233,11.233,0,0,0-1.587.044c-.411.063-.5.263-.655.671a1.536,1.536,0,0,1-.8,1,3.2,3.2,0,0,1-2.023-.086,3.341,3.341,0,0,0-.973-.163c-.263.028-.614.582-.869.986a2.319,2.319,0,0,1-.82.942A.534.534,0,0,1,1832.757-614.12Z" transform="translate(-1812.433 624.972)"/></g><g transform="translate(18.673 19.507)"><path class="d" d="M1837.116-590.238a.328.328,0,0,1-.295-.185,4.4,4.4,0,0,1-.573-1.774c.071-.361.437-.419.68-.458a.914.914,0,0,0,.631-.271c.11-.145.089-.242-.046-.561a1.63,1.63,0,0,1-.174-.851c.057-.458.466-.709.794-.909.179-.11.425-.261.429-.357a.6.6,0,0,0-.156-.417,1.179,1.179,0,0,1-.259-.677.876.876,0,0,1,.347-.716c.1-.089.1-.1.1-.119a1.709,1.709,0,0,0-.2-.21,1.742,1.742,0,0,1-.682-1.574,3.061,3.061,0,0,1,1.376-1.9c.066-.052.145-.111.192-.152a6.363,6.363,0,0,0-.228-.9,6.042,6.042,0,0,1-.282-1.22,1.425,1.425,0,0,1,.54-.986,1.744,1.744,0,0,0,.639-1.2c0-.269-.048-.292-.437-.346-.353-.05-1.01-.142-1.052-.995a1.835,1.835,0,0,1,.979-1.667,7.028,7.028,0,0,1-1.08-2.09.326.326,0,0,1,.209-.411.326.326,0,0,1,.412.209,4.791,4.791,0,0,0,1.215,2.1.325.325,0,0,1,.157.319.328.328,0,0,1-.227.274c-.044.014-1.058.344-1.014,1.234.015.3.107.327.491.381.351.05,1,.141,1,1a2.351,2.351,0,0,1-.819,1.641c-.18.19-.366.387-.361.509a5.907,5.907,0,0,0,.255,1.062c.236.8.343,1.191.166,1.439a1.794,1.794,0,0,1-.36.319c-.391.3-1.047.8-1.123,1.458a1.122,1.122,0,0,0,.48,1.025,1.037,1.037,0,0,1,.406.622.754.754,0,0,1-.308.666c-.114.1-.135.13-.132.214a.563.563,0,0,0,.143.325,1.24,1.24,0,0,1,.272.815c-.018.445-.419.69-.741.888-.219.135-.469.287-.487.433a1.059,1.059,0,0,0,.129.518,1.1,1.1,0,0,1-.037,1.21,1.508,1.508,0,0,1-1.048.52c-.04.006-.089.014-.129.022a8.285,8.285,0,0,0,.51,1.283.327.327,0,0,1-.153.436A.331.331,0,0,1,1837.116-590.238Zm2.156-11.091Z" transform="translate(-1836.239 611.203)"/></g><g transform="translate(26.779 23.811)"><ellipse class="d" cx="0.66" cy="1.553" rx="0.66" ry="1.553" transform="translate(0 0.255) rotate(-11.13)"/></g><g transform="translate(34.756 22.529)"><ellipse class="d" cx="0.66" cy="1.553" rx="0.66" ry="1.553" transform="translate(0 0.255) rotate(-11.13)"/></g><g transform="translate(30.018 28.477)"><path class="d" d="M1854.584-595.976a1.047,1.047,0,0,1-.931-.457.326.326,0,0,1,.122-.445.328.328,0,0,1,.44.114c.019.026.162.2.577.113a.716.716,0,0,0,.555-.554.326.326,0,0,1,.381-.259.324.324,0,0,1,.261.376,1.378,1.378,0,0,1-1.07,1.079A1.733,1.733,0,0,1,1854.584-595.976Z" transform="translate(-1853.61 597.47)"/></g><g transform="translate(31.748 28.338)"><path class="d" d="M1857.435-596.424a1.4,1.4,0,0,1-1.125-.62.327.327,0,0,1,.1-.451.328.328,0,0,1,.451.1.713.713,0,0,0,.72.3c.426-.084.486-.3.491-.324a.329.329,0,0,1,.376-.26.319.319,0,0,1,.27.355,1.141,1.141,0,0,1-1.011.871A1.478,1.478,0,0,1,1857.435-596.424Z" transform="translate(-1856.26 597.683)"/></g><g transform="translate(13.894 29.01)"><path class="d" d="M1847.124-586.008a.98.98,0,0,1-.441-.105l-17.222-8.685a.98.98,0,0,1-.433-1.316.981.981,0,0,1,1.316-.434l17.222,8.685a.98.98,0,0,1,.433,1.316A.98.98,0,0,1,1847.124-586.008Z" transform="translate(-1828.923 596.653)"/></g><g transform="translate(29.206 35.573)"><path class="d" d="M1854.161-581.19a.98.98,0,0,1-.911-.62l-.814-2.061a.98.98,0,0,1,.349-1.162l1.985-1.393a.979.979,0,0,1,1.364.24.98.98,0,0,1-.239,1.365l-1.353.949.531,1.343a.98.98,0,0,1-.552,1.271A.982.982,0,0,1,1854.161-581.19Z" transform="translate(-1852.367 586.604)"/></g></g><g transform="translate(56.187 22.839)"><path class="d" d="M1894.657-614.239a.98.98,0,0,1-.954-.76.979.979,0,0,1,.735-1.174L1906.674-619a.98.98,0,0,1,1.175.735.979.979,0,0,1-.735,1.174l-12.236,2.822A.994.994,0,0,1,1894.657-614.239Z" transform="translate(-1893.677 619.021)"/></g><g transform="translate(56.764 23.618)"><path class="d" d="M1895.6-612.222a.975.975,0,0,1-.62-.222.98.98,0,0,1-.136-1.379l.916-1.117-1-1.317a.98.98,0,0,1,.189-1.373.979.979,0,0,1,1.373.189l1.464,1.933a.98.98,0,0,1-.023,1.213l-1.406,1.714A.979.979,0,0,1,1895.6-612.222Z" transform="translate(-1894.562 617.829)"/></g><g transform="translate(73.131 26.125)"><path class="d" d="M1920.6-593.981a.98.98,0,0,1-.974-.892.981.981,0,0,1,.888-1.065l1.8-.162.936-16.963a.97.97,0,0,1,1.033-.924.98.98,0,0,1,.924,1.032l-.982,17.809a.98.98,0,0,1-.89.922l-2.643.239C1920.659-593.983,1920.629-593.981,1920.6-593.981Z" transform="translate(-1919.621 613.989)"/></g><g transform="translate(87.072 28.297)"><path class="d" d="M1942.7-590.311a.981.981,0,0,1-.928-.664.98.98,0,0,1,.611-1.243l1.709-.584-3.1-16.7a.98.98,0,0,1,.784-1.142.976.976,0,0,1,1.142.784l3.26,17.535a.98.98,0,0,1-.647,1.106l-2.51.858A.98.98,0,0,1,1942.7-590.311Z" transform="translate(-1940.967 610.664)"/></g><g transform="translate(63.284)"><g transform="translate(0.744 0.744)"><path class="e" d="M1925.6-651.365s2.339-2.456,3.86-1.052,1.521,1.989,1.521,1.989,1.987-2.221,3.391-.7a4,4,0,0,1,1.287,2.806s2.456-1.287,3.392-.467a6.162,6.162,0,0,1,1.4,2.573,2.152,2.152,0,0,1,1.872.585,8.881,8.881,0,0,1,1.4,3.04s1.052-.7,1.871.82-.935,2.456-.935,2.456,1.871,1.054,1.52,2.573a5.694,5.694,0,0,1-.935,2.223s1.637.7,1.169,2.223a8.084,8.084,0,0,1-1.52,2.689s2.339.7,2.1,2.223-.818,1.637-.818,1.637.234.235,0,1.4a2.868,2.868,0,0,1-1.169,1.754s2.106,1.638-.234,2.339a8.1,8.1,0,0,1-3.509.468s1.871,1.4-.234,1.638a21.708,21.708,0,0,1-4.21,0s.819,3.742-.935,2.573-2.34-.935-2.34-.935-.585,2.456-1.17,1.4-1.636.233-1.636.233-1.521,2.223-2.106,1.287-1.754,1.053-2.222-.117l-.935-.585s-3.392,1.871-3.743.468l-.352-1.4s-2.338,1.754-3.039.585a2.523,2.523,0,0,0-2.222-1.052s-3.392,1.4-4.094-.7-2.222-1.169-2.222-1.169-3.508.35-2.573-.935.234-.468.234-.468l.351-1.287s-2.808-.35-1.989-2.1,1.053-2.339,1.053-2.339-1.287-.935-.7-1.52a6.873,6.873,0,0,0,1.053-2.222s-1.637-1.521-.818-2.223a2.716,2.716,0,0,0,.934-1.52s-1.987-1.287-1.052-2.1a3.343,3.343,0,0,0,1.052-1.989s-1.754-1.053-1.052-1.871a4.81,4.81,0,0,0,.935-1.755s-1.988-1.754-.351-2.456a7.122,7.122,0,0,0,2.69-2.221s.467-2.106,1.17-1.99a13.311,13.311,0,0,0,1.754.118s.234-2.222,1.17-1.871a6,6,0,0,0,1.871.351s-.467-2.574,1.17-2.339a7.06,7.06,0,0,1,2.69.936s-1.285-1.287.351-1.52a2.1,2.1,0,0,1,2.222.818s-.234-.818.233-1.169a1.992,1.992,0,0,1,1.989.351C1924.431-650.545,1924.9-652.884,1925.6-651.365Z" transform="translate(-1905.685 652.85)"/><g transform="translate(12.331 16.397)"><path class="f" d="M1933.056-604.824a.582.582,0,0,0,.084.1l.017.014a.384.384,0,0,0,.091.059l.016.006a.4.4,0,0,0,.1.026h.008a.578.578,0,0,0,.111,0h.009a.931.931,0,0,0,.117-.029.07.07,0,0,0,.017-.005,1.173,1.173,0,0,0,.119-.046l.02-.009.12-.059.005,0c.188-.655.806-1.9,1.023-2.616a1.609,1.609,0,0,0-.329-1.46s-.907-.827-.434-1.065,1.144-1.537,1.144-1.537-.553.355-.711.473-.709.867-.748.2a4.369,4.369,0,0,0-.237-1.182,15.9,15.9,0,0,1,1.143-1.262,4.355,4.355,0,0,0,.788-1.342s-1.143,1.184-1.38.355a2.848,2.848,0,0,0-1.1-1.38,3.246,3.246,0,0,1,1.064-1.419,1.271,1.271,0,0,0,.631-1.1,8.189,8.189,0,0,1-.946.631c-.552.315-.632-.434-.67-.986s-.2-1.381-.2-1.381a10.828,10.828,0,0,0,1.972-.671c.789-.393-.079-1.458-.079-1.458a5.491,5.491,0,0,1-.552.906c-.2.2-.749-.039-.749-.513s-.827-1.3-.827-1.3l.748-1.381s.709.2,1.854.395a.981.981,0,0,0,1.222-.907,17.452,17.452,0,0,0-1.814-2.761,8.142,8.142,0,0,0-1.617-.2c-.512.04-3.707.907-4.574,1.065s-4.1,4.929-3.944,6.192a132.492,132.492,0,0,0,2.736,14.376c.322-.187.559-.357.618-.4l.005,0,.009-.007.352,1.4c.351,1.4,3.743-.468,3.743-.468l.935.585a1.009,1.009,0,0,0,.078.154A.12.12,0,0,1,1933.056-604.824Z" transform="translate(-1924.565 627.744)"/></g><g transform="translate(18.173 6.337)"><path class="f" d="M1942.036-611.742c.584,1.053,1.17-1.4,1.17-1.4s.585-.234,2.34.935.935-2.573.935-2.573a21.709,21.709,0,0,0,4.21,0c2.106-.234.234-1.638.234-1.638a8.1,8.1,0,0,0,3.509-.468c2.34-.7.234-2.339.234-2.339a2.868,2.868,0,0,0,1.17-1.754c.235-1.169,0-1.4,0-1.4s.585-.117.818-1.637-2.1-2.223-2.1-2.223a8.084,8.084,0,0,0,1.52-2.689c.468-1.522-1.169-2.223-1.169-2.223a5.7,5.7,0,0,0,.935-2.223c.351-1.519-1.52-2.573-1.52-2.573s1.754-.935.935-2.456-1.871-.82-1.871-.82a8.88,8.88,0,0,0-1.4-3.04,2.152,2.152,0,0,0-1.872-.585s-.03-.114-.09-.3c-1.157.227-1.993.406-1.993.406l4.784,3.48s2,.261,2,1.044-1.217,1.652-1.479,1.739a2.284,2.284,0,0,1-.609.088,1.768,1.768,0,0,1,1.3,2.087,3.944,3.944,0,0,1-1.13,2.262l-1.218.088,2.349.695s1.479,1.827.87,2.61-1.827,2.087-2.175,1.826a4,4,0,0,0-.782-.434s.87,1.566,1.391,1.3a2.167,2.167,0,0,1,.87-.26s1.391.955,1.13,1.825-1.74,1.131-1.74,1.131-.609.783.087.87,1.479.175,1.479.175,0,1.477-1.044,1.477h-1.479s2.087,2.087,1.305,2.61a4.8,4.8,0,0,1-2.783.609,14.266,14.266,0,0,1-2.783-1.3s2.348,2.782.521,3.044a14.081,14.081,0,0,1-2.87.174l-.783-1.652s.957,3.652.087,3.914-1.826-.609-1.826-.609l-.945-1.886c.1.192.693,1.5-.273,2.061a1.49,1.49,0,0,1-1.74,0s.869,1.044-.522,1.478-1.912,0-2-.435-2.086-2.347-2.957-2.087c-.686.206-1.9,2.09-1.456,4.583a12.326,12.326,0,0,0,1.53-.687l.935.585c.468,1.17,1.637-.819,2.222.117s2.106-1.287,2.106-1.287S1941.452-612.794,1942.036-611.742Z" transform="translate(-1933.51 643.147)"/><g transform="translate(9.033 27.284)"><path class="f" d="M1947.352-601.345l-.012-.027Z" transform="translate(-1947.34 601.372)"/></g></g><g transform="translate(0 6.68)"><path class="g" d="M1921.741-610.274l-.352-1.4s-2.338,1.754-3.039.585a2.523,2.523,0,0,0-2.222-1.052s-3.392,1.4-4.094-.7-2.222-1.169-2.222-1.169-3.436.534-2.715-.883a4.447,4.447,0,0,1,.321-.536l.4-1.272s-2.808-.35-1.989-2.1,1.053-2.339,1.053-2.339-1.287-.935-.7-1.521a6.873,6.873,0,0,0,1.053-2.222s-1.637-1.521-.818-2.223a2.716,2.716,0,0,0,.934-1.52s-1.987-1.287-1.052-2.1a3.343,3.343,0,0,0,1.052-1.989s-1.754-1.053-1.052-1.871a4.811,4.811,0,0,0,.935-1.755s-1.988-1.754-.351-2.456a7.122,7.122,0,0,0,2.69-2.221,6.152,6.152,0,0,1,.594-1.59c4.412,3.428,8.477,7.071,8.477,7.071s6.706,3.148,7.618,4.516-.958,3.1-.958,3.1a3.074,3.074,0,0,1,.914.548c.228.273.547,1.5-.547,1.779s-.411,1.46-.411,1.46l.776.775c.319.32.227,1.1.045,1.78a11.7,11.7,0,0,1-.369,1.159,4.035,4.035,0,0,1,1.4,1.228c.7.921-.834,2.15-.834,2.15a2.534,2.534,0,0,1,.571,1.008c.176.614-.526,1.228-.526,1.228a6.314,6.314,0,0,0,1.052.746c.789.483.073,2.152.073,2.152s2.434-.031.818,1.626c-.617-.063-1.471,1.095-1.854.138l-.935-.585S1922.092-608.871,1921.741-610.274Z" transform="translate(-1905.685 642.622)"/></g><g transform="translate(0 9.887)"><path class="h" d="M1910.485-612.516a1.3,1.3,0,0,0-.942-.007c-.879.261-1.758-.556-1.511-.988a29.193,29.193,0,0,0,.868-3.226l-.93,1.221s-1.4-.756-1.337-1.744,1.569-3.14,1.569-3.14l-.931.465a1.49,1.49,0,0,1-.174-1.395,21.789,21.789,0,0,0,.931-2.5h-.349c-.348,0-.7-.756-.291-1.4a7.7,7.7,0,0,0,.7-1.8l.7-.7a5.9,5.9,0,0,1-1.337-.058c-.524-.116-.64-.7-.291-1.338a9.8,9.8,0,0,0,.64-1.86l.93-.581a5.134,5.134,0,0,1-1.512-.989c-.64-.639,1.977-2.557,1.977-2.557l-.007-2.009s-.568-.278-1.24-.6a5.6,5.6,0,0,1-1.057.6c-1.638.7.351,2.456.351,2.456a4.81,4.81,0,0,1-.935,1.755c-.7.818,1.052,1.87,1.052,1.87a3.343,3.343,0,0,1-1.052,1.989c-.935.818,1.052,2.1,1.052,2.1a2.716,2.716,0,0,1-.934,1.521c-.819.7.818,2.223.818,2.223a6.873,6.873,0,0,1-1.053,2.222c-.585.586.7,1.521.7,1.521s-.234.584-1.053,2.339,1.989,2.1,1.989,2.1l-.4,1.272a4.455,4.455,0,0,0-.321.536c-.721,1.417,2.715.883,2.715.883A1.623,1.623,0,0,1,1910.485-612.516Z" transform="translate(-1905.685 637.712)"/></g><g transform="translate(0.556)"><path class="h" d="M1942.62-645.633a2.152,2.152,0,0,0-1.872-.585,6.162,6.162,0,0,0-1.4-2.573c-.935-.82-3.392.467-3.392.467a4,4,0,0,0-1.287-2.806c-1.4-1.52-3.391.7-3.391.7s0-.585-1.52-1.989-3.86,1.052-3.86,1.052c-.7-1.519-1.17.82-1.4.469a1.992,1.992,0,0,0-1.989-.351c-.467.351-.233,1.169-.233,1.169a2.1,2.1,0,0,0-2.222-.818c-1.637.233-.351,1.52-.351,1.52a7.061,7.061,0,0,0-2.69-.936c-1.61-.23-1.186,2.245-1.171,2.332a1.974,1.974,0,0,0-2.36-.448,1.233,1.233,0,0,0-.664,1.848c0,.026-.006.047-.008.065a1.831,1.831,0,0,0-1.7-.385c-1.464.281-1.234,2.322-1.234,2.322a7.121,7.121,0,0,1-2.69,2.221c-1.637.7.351,2.456.351,2.456a4.714,4.714,0,0,1-.5,1.143,3.411,3.411,0,0,0,2.2-1.144,1.125,1.125,0,0,1,1.266,1.18c0,1.3,2.279,0,2.279,0s2.024-.236,1.012,1.532,3.544.707,3.544.707,2.025-.117,1.646,1.415,3.037.471,3.037.471,1.14-.354,1.772,1.415,2.912-.824,2.912-.824a9.1,9.1,0,0,1,2.531.943c1.645.825,1.519-2.122,1.519-2.122s1.392-.118,2.911-.118.632-1.061.632-1.061,1.393-.118,2.786-.354-.507-2.121-.507-2.121.179-.022.488-.048a27.518,27.518,0,0,1,3.689-.069c2.153.117,1.393-2.712,1.393-2.712s1.645,0,1.771-1.061c.008-.063.008-.129.013-.194A7.673,7.673,0,0,0,1942.62-645.633Z" transform="translate(-1906.536 652.85)"/></g><g transform="translate(6.488 3.736)"><path class="i" d="M1928.922-647.045s-8.989,3.656-10.932,5.028l-1.829.914s-1.142.914-.114,1.6,10,4.548,12.627,5.006c0,0,1.2.6,3.946-.662s9.374-5.143,9.374-5.143,1.257-.916-.572-2.059-9.186-4.226-9.186-4.226A6.576,6.576,0,0,0,1928.922-647.045Z" transform="translate(-1915.618 647.131)"/></g><g transform="translate(7.822 4.517)"><path class="j" d="M1929.517-645.862s-8.01,3.111-9.742,4.279l-1.63.779s-1.018.778-.1,1.36,8.91,3.871,11.253,4.259c0,0,1.072.507,3.517-.562s8.354-4.377,8.354-4.377,1.12-.78-.509-1.752-8.186-3.6-8.186-3.6A6.132,6.132,0,0,0,1929.517-645.862Z" transform="translate(-1917.661 645.935)"/></g><g transform="translate(7.822 4.517)"><path class="k" d="M1934.762-644.537c-1.3-.54-2.289-.935-2.289-.935a6.132,6.132,0,0,0-2.956-.391s-8.01,3.111-9.742,4.279l-1.63.779s-1.018.778-.1,1.36a56.965,56.965,0,0,0,5.4,2.321,16.925,16.925,0,0,0,8.858-2.391A5.786,5.786,0,0,0,1934.762-644.537Z" transform="translate(-1917.661 645.935)"/></g><g transform="translate(12.508 5.806)"><path class="l" d="M1937.251-643.852l-.261-.108a11.656,11.656,0,0,1-.632,3.011c-.406.94-5.16,3.533-6.712,3.865a28.331,28.331,0,0,1-4.81.214c.358.144.724.288,1.093.431a16.923,16.923,0,0,0,8.857-2.39A5.787,5.787,0,0,0,1937.251-643.852Z" transform="translate(-1924.836 643.96)"/></g><g transform="translate(24.089 6.303)"><path class="m" d="M1949.3-640.927c-.854-.509-3.058-1.472-4.966-2.272a12.9,12.9,0,0,0-1.755,4.171c-.119,1.351.9,2.163,2.749,2.291,2.274-1.2,4.482-2.439,4.482-2.439S1950.928-639.955,1949.3-640.927Z" transform="translate(-1942.568 643.199)"/></g><g transform="translate(24.403 8.876)"><path class="n" d="M1943.048-636.422a3.113,3.113,0,0,0,2.445,1.052c2.274-1.2,4.482-2.439,4.482-2.439s.89-.625-.087-1.451a2.111,2.111,0,0,1-.205,1.2,26.545,26.545,0,0,1-3.491,1.915c-.7.34-2.667-.387-2.667-.387Z" transform="translate(-1943.048 639.26)"/></g><g transform="translate(24.432 6.303)"><path class="o" d="M1949.481-640.927c-.854-.509-3.059-1.472-4.967-2.272a19.094,19.094,0,0,0-1.369,2.731c-.032.415-.053.7-.053.7s1.677-2.456,1.777-2.541a1.934,1.934,0,0,1,1.263.25,20.841,20.841,0,0,1,3.571,1.727,1.375,1.375,0,0,1,.524.9C1950.435-639.733,1950.553-640.287,1949.481-640.927Z" transform="translate(-1943.093 643.199)"/></g><g transform="translate(16.582 11.893)"><path class="p" d="M1940.761-633.463a5.25,5.25,0,0,1-.863-.322,5.9,5.9,0,0,0-3.27-.838,20.714,20.714,0,0,0-4.947,1.634,1.39,1.39,0,0,0-.607.885,21,21,0,0,0,2.876.836s1.072.507,3.517-.562C1938.292-632.191,1939.51-632.806,1940.761-633.463Z" transform="translate(-1931.074 634.641)"/></g><g transform="translate(18.082 12.938)"><path class="q" d="M1941.558-632.907c-.126-.035-.265-.078-.413-.133-.574.241-1.3.618-1.848.92a10.122,10.122,0,0,1-3.588,1.211,14.857,14.857,0,0,1-2.337-.151,12.177,12.177,0,0,0,1.376.348s1.072.507,3.517-.562C1939.088-631.636,1940.306-632.25,1941.558-632.907Z" transform="translate(-1933.371 633.04)"/></g><g transform="translate(7.822 4.517)"><path class="r" d="M1919.025-640.453c.771-.385,10.786-5.118,11.445-5.118a29.218,29.218,0,0,1,4.276,1.518c.01-.171.016-.334.015-.483-1.3-.54-2.289-.935-2.289-.935a6.132,6.132,0,0,0-2.956-.391s-8.01,3.111-9.742,4.279l-1.63.779s-1.018.778-.1,1.36a56.965,56.965,0,0,0,5.4,2.321c.114,0,.227-.01.342-.012-1.4-.751-3.407-1.828-3.931-2.108C1919.025-639.684,1918.255-640.069,1919.025-640.453Z" transform="translate(-1917.661 645.935)"/></g><g transform="translate(14.207 7.297)"><path class="s" d="M1927.925-641.223a11.788,11.788,0,0,1,.647,2.338,10.819,10.819,0,0,1-.05,2.487s-.4-2.737-.647-3.482-.547-1.891-.4-1.792A3.639,3.639,0,0,1,1927.925-641.223Z" transform="translate(-1927.436 641.677)"/></g><g transform="translate(17.168 6.099)"><path class="s" d="M1932.458-643.057a11.778,11.778,0,0,1,.647,2.338,10.771,10.771,0,0,1-.05,2.487s-.4-2.736-.645-3.482-.548-1.889-.4-1.79A3.554,3.554,0,0,1,1932.458-643.057Z" transform="translate(-1931.971 643.511)"/></g><g transform="translate(20.54 4.884)"><path class="s" d="M1937.622-644.918a11.752,11.752,0,0,1,.647,2.338,10.779,10.779,0,0,1-.05,2.488s-.4-2.738-.646-3.483-.547-1.89-.4-1.791A3.654,3.654,0,0,1,1937.622-644.918Z" transform="translate(-1937.134 645.372)"/></g><g transform="translate(9.769 9.65)"><path class="r" d="M1921.629-638.074s-1.02.34-.987.69.7.549.746.449-.285-.329,0-.559S1922.09-638.085,1921.629-638.074Z" transform="translate(-1920.642 638.074)"/></g><g transform="translate(12.981 8.203)"><path class="r" d="M1926.252-640.29s-.723.186-.691.406.494.186.669.055S1926.6-640.192,1926.252-640.29Z" transform="translate(-1925.56 640.29)"/></g><g transform="translate(14.998 7.073)"><path class="r" d="M1929.6-642.02s-.964.494-.931.636-.165.427.208.241.767-.427.954-.515S1929.954-642,1929.6-642.02Z" transform="translate(-1928.649 642.02)"/></g><g transform="translate(17.81 5.888)"><path class="r" d="M1933.849-643.823s-.986.23-.888.439-.011.34.417.208,1.108-.46,1.041-.581S1933.849-643.823,1933.849-643.823Z" transform="translate(-1932.954 643.835)"/></g><g transform="translate(21.337 5.341)"><path class="r" d="M1938.354-644.672s.022.34.231.416,1.162.209.964.067A2.525,2.525,0,0,0,1938.354-644.672Z" transform="translate(-1938.354 644.672)"/></g><g transform="translate(24.089 6.303)"><path class="t" d="M1942.984-638.934a19.3,19.3,0,0,1,1.784-4.082l-.435-.183a12.9,12.9,0,0,0-1.755,4.171c-.119,1.351.9,2.163,2.749,2.291.156-.082.312-.166.467-.247C1944.057-637.264,1942.92-638.112,1942.984-638.934Z" transform="translate(-1942.568 643.199)"/></g><g transform="translate(16.582 11.893)"><path class="u" d="M1937.779-634.264a17.2,17.2,0,0,1,2.1.47,5.848,5.848,0,0,0-3.249-.828,20.714,20.714,0,0,0-4.947,1.634,1.391,1.391,0,0,0-.607.885c.216.074.418.142.622.208.042-.066.084-.133.125-.2.353-.555.807-.807,1.918-1.262A9.7,9.7,0,0,1,1937.779-634.264Z" transform="translate(-1931.074 634.641)"/></g><g transform="translate(17.895 13.535)"><path class="u" d="M1934.862-632.126a9.219,9.219,0,0,0-1.761.745c-.045.165-.045.3.493.389s.865.014.686-.15-.419-.3-.313-.417S1935.413-631.933,1934.862-632.126Z" transform="translate(-1933.084 632.126)"/></g><g transform="translate(20.485 12.52)"><path class="u" d="M1939.594-633.68a16.169,16.169,0,0,0-2.52.687c-.18.193.716-.121,1.1-.18s.985-.313,1.253-.313S1940.072-633.68,1939.594-633.68Z" transform="translate(-1937.05 633.68)"/></g><g transform="translate(24.873 9.238)"><path class="o" d="M1944.341-638.691s-.746,1.342-.537,1.656.359.359.359.165-.194-.18-.075-.672S1944.685-638.825,1944.341-638.691Z" transform="translate(-1943.767 638.706)"/></g><g transform="translate(23.32 20.752)"><path class="v" d="M1941.6-621.075a2.416,2.416,0,0,1-.173,1.036c-.229.691.634-.057.691-.575S1941.6-621.075,1941.6-621.075Z" transform="translate(-1941.39 621.077)"/></g><g transform="translate(36.664 13.984)"><path class="v" d="M1962.57-631.439s1.439.69.4,1.323-1.151.116-1.151-.056S1962.743-630.921,1962.57-631.439Z" transform="translate(-1961.822 631.439)"/></g><g transform="translate(37.47 10.99)"><path class="v" d="M1963.919-636.023s.748.692-.058.921-.806-.114-.806-.114Z" transform="translate(-1963.055 636.023)"/></g><g transform="translate(38.02 18.932)"><path class="v" d="M1964.153-623.86c.167-.041,1.095.46.692,1.151s-.692.519-.864-.172S1963.923-623.8,1964.153-623.86Z" transform="translate(-1963.898 623.863)"/></g><g transform="translate(38.218 24.291)"><path class="v" d="M1964.834-615.6s.634.634.231.922-.863.057-.863-.115S1964.432-615.891,1964.834-615.6Z" transform="translate(-1964.201 615.658)"/></g><g transform="translate(36.054 29.854)"><path class="v" d="M1961.728-607.064c.576.287,1.613.807.806.749a3,3,0,0,1-1.613-.749C1960.692-607.236,1961.728-607.064,1961.728-607.064Z" transform="translate(-1960.888 607.14)"/></g><g transform="translate(23.342 35.668)"><path class="v" d="M1941.508-597.816c.237.276.4.978.749.518s.4-.691.057-.863S1941.163-598.219,1941.508-597.816Z" transform="translate(-1941.424 598.239)"/></g><g transform="translate(21.983 23.916)"><path class="v" d="M1939.344-615.528c.173.692-.057,1.555.519.922s.575-.461.575-1.325S1939.344-615.528,1939.344-615.528Z" transform="translate(-1939.344 616.232)"/></g><g transform="translate(30.9 28.451)"><path class="f" d="M1956.072-609.288s.053,2.068-1.114,2.6a4.493,4.493,0,0,1-1.962.477s1.8-.741,2.068-1.537A4.72,4.72,0,0,1,1956.072-609.288Z" transform="translate(-1952.996 609.288)"/></g><g transform="translate(34.93 24.633)"><path class="f" d="M1961.182-615.134a1.384,1.384,0,0,1-.106,1.643c-.689.744-1.91.214-1.91.214s1.272-.159,1.538-.8S1961.182-615.134,1961.182-615.134Z" transform="translate(-1959.167 615.134)"/></g><g transform="translate(24.802 32.481)"><path class="f" d="M1943.659-603.118a1.135,1.135,0,0,0,1.326,1.114c1.274-.159,1.591-.8,1.591-.8s-1.431.531-1.962.212S1943.659-603.118,1943.659-603.118Z" transform="translate(-1943.659 603.118)"/></g><g transform="translate(27.401 28.822)"><path class="f" d="M1949.866-608.72a2.426,2.426,0,0,1-.637,1.644,2.37,2.37,0,0,1-1.59.424s1.166,1.061,1.961-.053A1.893,1.893,0,0,0,1949.866-608.72Z" transform="translate(-1947.639 608.72)"/></g><g transform="translate(14.485 28.754)"><path class="w" d="M1928.642-607.839c.469.074.887-.082.929-.348s-.306-.544-.775-.619-.886.081-.929.347S1928.172-607.914,1928.642-607.839Z" transform="translate(-1927.863 608.825)"/></g><g transform="translate(4.323 26.456)"><path class="w" d="M1913.049-611.352c.466.1.891-.032.948-.3s-.275-.56-.74-.66-.89.032-.946.3S1912.586-611.452,1913.049-611.352Z" transform="translate(-1912.304 612.342)"/></g><g transform="translate(1.725 8.022)"><path class="h" d="M1910.949-640.365s-.562-.53-1.9.125-.406,2.15-.406,2.15l1.963-.9Z" transform="translate(-1908.325 640.567)"/></g></g><path class="d" d="M1927.964-653.246a1.581,1.581,0,0,1,1.1.434c1.52,1.4,1.52,1.989,1.52,1.989a3.758,3.758,0,0,1,2.247-1.234,1.51,1.51,0,0,1,1.144.532,4,4,0,0,1,1.287,2.806,6.753,6.753,0,0,1,2.5-.741,1.318,1.318,0,0,1,.887.274,5.6,5.6,0,0,1,1.313,2.277v0c.015.044.027.083.038.119v0c.034.108.051.172.051.172a1.736,1.736,0,0,1,.357-.031,2.118,2.118,0,0,1,1.515.616c.046.047.093.1.139.155l.035.044c.035.045.069.092.1.14l.031.046a4.734,4.734,0,0,1,.253.428c0,.008.008.015.012.024.037.071.073.144.108.217,0,.009.009.016.012.026a12.4,12.4,0,0,1,.614,1.627h0c.061.2.1.332.1.332a1.149,1.149,0,0,1,.584-.161c.371,0,.86.189,1.286.981.819,1.52-.935,2.456-.935,2.456s1.871,1.053,1.52,2.573a5.7,5.7,0,0,1-.935,2.222s1.637.7,1.169,2.223a8.083,8.083,0,0,1-1.521,2.689s2.34.7,2.105,2.223-.819,1.637-.819,1.637.235.235,0,1.4a2.868,2.868,0,0,1-1.169,1.754s2.106,1.638-.234,2.339a10.4,10.4,0,0,1-2.945.506,3.2,3.2,0,0,1-.563-.038s1.871,1.4-.234,1.638a18.657,18.657,0,0,1-2.027.1,21.84,21.84,0,0,1-2.183-.1s.613,2.8-.357,2.8a1.1,1.1,0,0,1-.578-.226,4.408,4.408,0,0,0-2.182-.954.465.465,0,0,0-.157.02s-.4,1.665-.863,1.665c-.1,0-.2-.076-.306-.263a.672.672,0,0,0-.59-.415c-.517,0-1.046.648-1.046.648s-1.038,1.517-1.729,1.517a.432.432,0,0,1-.378-.23.482.482,0,0,0-.367-.256h0l-.05,0a2.375,2.375,0,0,0-.9.371h0c-.037.019-.072.037-.108.053l-.06.026-.046.018a.746.746,0,0,1-.094.029l-.026.006-.048.01h-.01l-.024,0-.024,0h-.07l-.023,0-.023-.005a.411.411,0,0,1-.057-.018h0a.03.03,0,0,0-.009,0l-.023-.011-.01-.006a.4.4,0,0,1-.071-.052l-.009-.007-.014-.014a.591.591,0,0,1-.073-.091l0-.006-.016-.023a1.038,1.038,0,0,1-.069-.14l-.935-.585a8.258,8.258,0,0,1-2.908.99c-.418,0-.741-.14-.835-.522l-.352-1.4-.008.006-.005,0,0,0a4.951,4.951,0,0,1-2.252.974.835.835,0,0,1-.771-.4,2.451,2.451,0,0,0-2.107-1.055c-.073,0-.115,0-.115,0a6.624,6.624,0,0,1-2.188.458,1.8,1.8,0,0,1-1.906-1.161c-.371-1.114-.972-1.376-1.455-1.376-.032,0-.064,0-.094,0h0c-.046,0-.091.008-.135.015h-.008c-.041.008-.081.016-.118.025l-.013,0c-.037.01-.073.02-.106.031l-.008,0a1.713,1.713,0,0,0-.171.067l-.007,0-.055.026-.008,0-.032.018-.005,0-.008,0a9.563,9.563,0,0,1-1.3.1c-.884,0-1.826-.174-1.415-.982a4.445,4.445,0,0,1,.321-.536l.405-1.272s-2.808-.35-1.989-2.1,1.053-2.339,1.053-2.339-1.287-.935-.7-1.52a6.876,6.876,0,0,0,1.053-2.222s-1.637-1.521-.818-2.223a2.716,2.716,0,0,0,.934-1.52s-1.987-1.287-1.052-2.105a3.343,3.343,0,0,0,1.052-1.989s-1.754-1.053-1.052-1.87a4.464,4.464,0,0,0,.437-.612h0c.045-.074.087-.149.125-.221l0-.007c.074-.143.137-.276.187-.4l.006-.014c.048-.115.086-.216.113-.3,0-.005,0-.011.006-.016.026-.076.042-.133.051-.164l0-.008c0-.01,0-.019,0-.019s-1.988-1.754-.351-2.456c.1-.042.2-.088.29-.136.056-.028.109-.059.163-.088.035-.021.073-.039.108-.059l.105-.065a1.292,1.292,0,0,1,.577-1.793,2.763,2.763,0,0,1,1.2-.327,1.528,1.528,0,0,1,.23.017c-.01-.541.084-1.868,1.246-2.091a2.791,2.791,0,0,1,.51-.051,1.664,1.664,0,0,1,1.188.436c0-.018.005-.039.008-.065a1.233,1.233,0,0,1,.664-1.848,2.163,2.163,0,0,1,.906-.213,2.057,2.057,0,0,1,1.454.661l0-.016v-.007c0-.015,0-.038-.01-.07v-.012c-.005-.032-.01-.07-.014-.113v-.012c0-.045-.01-.095-.015-.15v-.013c0-.055-.008-.114-.01-.176v-.016c0-.063,0-.129,0-.2v-.017c0-.066,0-.135.006-.2v-.022c0-.068.012-.136.021-.206,0-.008,0-.016,0-.025.009-.067.022-.132.037-.2,0-.01,0-.02.006-.031a1.787,1.787,0,0,1,.056-.182c0-.011.007-.023.011-.035a1.532,1.532,0,0,1,.076-.162c.006-.011.011-.024.018-.036a1.027,1.027,0,0,1,.1-.134c.01-.012.018-.026.027-.038a.947.947,0,0,1,.117-.1c.015-.012.026-.024.041-.035a.783.783,0,0,1,.141-.069c.019-.008.035-.02.054-.026a.864.864,0,0,1,.175-.033.5.5,0,0,1,.062-.012c.026,0,.053,0,.08,0a1.478,1.478,0,0,1,.2.015,7.062,7.062,0,0,1,2.69.936s-1.285-1.287.351-1.52a3.249,3.249,0,0,1,.461-.034,1.979,1.979,0,0,1,1.761.852s-.234-.818.233-1.169a.977.977,0,0,1,.575-.146,2.086,2.086,0,0,1,1.414.5.066.066,0,0,0,.053.037c.182,0,.472-1.025.868-1.024.147,0,.307.139.483.519a4.863,4.863,0,0,1,2.759-1.486m0-.744h0a4.6,4.6,0,0,0-2.671,1.148.981.981,0,0,0-.57-.18h0a1.3,1.3,0,0,0-1.079.748,3.529,3.529,0,0,0-1.255-.257,1.667,1.667,0,0,0-1.021.294,1.4,1.4,0,0,0-.358.393,3.137,3.137,0,0,0-1.191-.225,4.159,4.159,0,0,0-.568.041,1.545,1.545,0,0,0-1.394.922,8.372,8.372,0,0,0-1.437-.337,2.121,2.121,0,0,0-.3-.022c-.045,0-.089,0-.131,0a.955.955,0,0,0-.136.02,1.663,1.663,0,0,0-.283.061.961.961,0,0,0-.13.055,1.366,1.366,0,0,0-.243.126,1.045,1.045,0,0,0-.1.079,1.536,1.536,0,0,0-.2.178,1.013,1.013,0,0,0-.069.087,1.672,1.672,0,0,0-.146.21.785.785,0,0,0-.039.076,2.11,2.11,0,0,0-.107.232c-.008.02-.016.044-.021.066a2.3,2.3,0,0,0-.073.242c0,.018-.007.033-.01.048-.021.092-.035.172-.047.248,0,.01,0,.033,0,.042v.008a2.533,2.533,0,0,0-.685-.094,2.9,2.9,0,0,0-1.217.281,2.107,2.107,0,0,0-1.186,1.194,1.847,1.847,0,0,0-.063.229,2.72,2.72,0,0,0-.3-.015,3.486,3.486,0,0,0-.65.064,2.287,2.287,0,0,0-1.806,2.1,3.974,3.974,0,0,0-1.06.36,1.915,1.915,0,0,0-1.116,2.084c-.032.016-.064.029-.095.042a1.631,1.631,0,0,0-1.079,1.251,2.743,2.743,0,0,0,.867,2.087l-.009.02s0,.012-.008.02c-.048.114-.1.225-.156.328l0,.007c-.037.068-.07.127-.107.187,0,.008-.008.016-.012.023a3.739,3.739,0,0,1-.351.487,1.378,1.378,0,0,0-.326,1.134,2.748,2.748,0,0,0,1.107,1.546,2.507,2.507,0,0,1-.705,1.1,1.4,1.4,0,0,0-.5,1.17,2.832,2.832,0,0,0,1.163,1.774,2.24,2.24,0,0,1-.541.677,1.369,1.369,0,0,0-.489,1.035,3.217,3.217,0,0,0,.948,1.953,4.9,4.9,0,0,1-.735,1.5,1.227,1.227,0,0,0-.366.98,2.155,2.155,0,0,0,.695,1.273c-.158.36-.419.942-.828,1.818a1.86,1.86,0,0,0,0,1.759,2.879,2.879,0,0,0,1.71,1.208l-.125.393a5.275,5.275,0,0,0-.309.529,1.282,1.282,0,0,0-.01,1.3c.418.681,1.391.76,2.087.76a10.218,10.218,0,0,0,1.414-.107.745.745,0,0,0,.26-.092l.012-.007h0l.007,0,.026-.013h0l.007,0a.636.636,0,0,1,.093-.037l.066-.019.018,0,.042-.009h.01a.458.458,0,0,1,.067-.007h.042c.3,0,.557.291.749.867a2.506,2.506,0,0,0,2.612,1.669,7.231,7.231,0,0,0,2.333-.462,1.717,1.717,0,0,1,1.439.7,1.574,1.574,0,0,0,1.408.763,4.05,4.05,0,0,0,1.8-.555l.1.406a1.474,1.474,0,0,0,1.557,1.086,7.624,7.624,0,0,0,2.873-.877l.4.25a.091.091,0,0,0,.009.016l.012.019.016.027a1.327,1.327,0,0,0,.162.2l.031.029.016.014.018.016a1.156,1.156,0,0,0,.175.128l.038.022.023.012a.746.746,0,0,0,.075.033l.006,0a1.1,1.1,0,0,0,.18.056l.016,0,.055.01a.424.424,0,0,0,.054.007.463.463,0,0,0,.055,0c.025,0,.05,0,.074,0l.065,0c.014,0,.04,0,.067-.006h.03l.036,0,.1-.02.044-.01c.057-.016.11-.033.164-.052l.079-.031.064-.028.014-.007c.046-.02.092-.043.139-.067,0,0,.008-.005.013-.007.068-.035.135-.072.2-.11s.154-.086.229-.123a1.157,1.157,0,0,0,.9.436c.959,0,1.926-1.238,2.32-1.808a1.627,1.627,0,0,1,.392-.328l0,0a1.088,1.088,0,0,0,.957.645c.234,0,.891,0,1.408-1.595a6.322,6.322,0,0,1,1.382.739,1.791,1.791,0,0,0,.991.351,1.148,1.148,0,0,0,.908-.437,3.351,3.351,0,0,0,.338-2.292c.361.019.8.035,1.294.035a19.121,19.121,0,0,0,2.11-.109c.919-.1,1.465-.447,1.623-1.025a1.178,1.178,0,0,0-.005-.625,13.006,13.006,0,0,0,2.257-.482c.943-.282,1.484-.765,1.61-1.434a2.008,2.008,0,0,0-.513-1.592,3.511,3.511,0,0,0,.822-1.634,4.7,4.7,0,0,0,.111-1.261,3.493,3.493,0,0,0,.713-1.812,2.659,2.659,0,0,0-1.669-2.648,8.385,8.385,0,0,0,1.061-2.158,2.413,2.413,0,0,0-.865-2.679,7.889,7.889,0,0,0,.644-1.818,2.9,2.9,0,0,0-1.035-2.763,2.628,2.628,0,0,0,.593-1.008,2.3,2.3,0,0,0-.214-1.778,2.193,2.193,0,0,0-1.941-1.372h-.082a12.276,12.276,0,0,0-.541-1.375l-.014-.03c-.038-.081-.078-.16-.119-.239l-.015-.026a5.12,5.12,0,0,0-.292-.494l-.019-.029-.013-.017c-.048-.07-.09-.128-.134-.182l-.01-.015-.036-.045c-.066-.08-.127-.149-.187-.209a2.845,2.845,0,0,0-1.866-.829,5.941,5.941,0,0,0-1.446-2.363,2.027,2.027,0,0,0-1.377-.457,5.744,5.744,0,0,0-1.913.413,5.676,5.676,0,0,0-1.331-2.24,2.269,2.269,0,0,0-1.691-.771,3.532,3.532,0,0,0-2.026.784,9.411,9.411,0,0,0-1.237-1.341,2.326,2.326,0,0,0-1.6-.631Z" transform="translate(-1904.545 653.99)"/></g><g transform="translate(64.753 10.514)"><path class="d" d="M1924.7-627.039a.535.535,0,0,1-.212-.039,2.326,2.326,0,0,1-.82-.943c-.255-.4-.605-.957-.868-.986a3.453,3.453,0,0,0-.974.164,3.2,3.2,0,0,1-2.022.086,1.536,1.536,0,0,1-.8-1c-.152-.408-.244-.607-.655-.671a11.33,11.33,0,0,0-1.587-.044c-1.5.02-2.534,0-2.992-.44-.411-.392-.213-.947-.052-1.392.092-.255.206-.573.133-.7a.584.584,0,0,0-.381-.17,1.6,1.6,0,0,0-1.334.3,1.247,1.247,0,0,1-1.421.143,1.71,1.71,0,0,1-.9-1.1c-.076-.227-.085-.229-.157-.241a3.153,3.153,0,0,0-.7.059c-.778.112-1.953.281-2.155-.685a.326.326,0,0,1,.252-.387.325.325,0,0,1,.387.253c.071.338.686.277,1.424.172a3.256,3.256,0,0,1,.9-.057.829.829,0,0,1,.67.678,1.073,1.073,0,0,0,.589.729c.315.166.446.083.765-.119a2.256,2.256,0,0,1,1.8-.39,1.111,1.111,0,0,1,.831.487,1.484,1.484,0,0,1-.084,1.247c-.1.281-.216.6-.112.7a5.86,5.86,0,0,0,2.534.26,11.822,11.822,0,0,1,1.7.052,1.4,1.4,0,0,1,1.167,1.088c.123.332.2.524.45.633a2.792,2.792,0,0,0,1.6-.121,3.668,3.668,0,0,1,1.205-.18c.576.062.988.713,1.351,1.287a2.8,2.8,0,0,0,.52.69,6.634,6.634,0,0,0,2.105-1.338.326.326,0,0,1,.366-.033,8.182,8.182,0,0,0,2.53.986h.01c.315,0,.664-1.044.766-1.971a.328.328,0,0,1,.312-.291c.029,0,2.9-.118,3.5-.218a1.036,1.036,0,0,0-.21-.441.327.327,0,0,1-.036-.325.326.326,0,0,1,.263-.193c.014,0,1.388-.151,2.774-.352.128-.019.219-.057.232-.1.078-.234-.423-.969-.923-1.47a.327.327,0,0,1-.058-.383.328.328,0,0,1,.348-.17c.034.006,3.33.6,4.943-.331a1.279,1.279,0,0,0,.718-.859,1.567,1.567,0,0,0-.391-1.1.327.327,0,0,1-.055-.355.331.331,0,0,1,.3-.191,3.254,3.254,0,0,0,2.217-.977.327.327,0,0,1,.461-.02.326.326,0,0,1,.02.46,4.035,4.035,0,0,1-2.126,1.148,1.87,1.87,0,0,1,.215,1.134,1.892,1.892,0,0,1-1.038,1.325,8.345,8.345,0,0,1-4.512.527,1.828,1.828,0,0,1,.5,1.466.835.835,0,0,1-.758.538c-.893.13-1.782.238-2.31.3a.871.871,0,0,1,.039.638.618.618,0,0,1-.509.372c-.534.088-2.562.182-3.308.214-.109.713-.451,2.261-1.37,2.273a7.44,7.44,0,0,1-2.671-.963A5.419,5.419,0,0,1,1924.7-627.039Z" transform="translate(-1906.794 637.891)"/></g><g transform="translate(83.08 19.508)"><path class="d" d="M1938.334-603.156a.32.32,0,0,1-.142-.033.327.327,0,0,1-.154-.436,7.923,7.923,0,0,0,.507-1.283l-.126-.022a1.5,1.5,0,0,1-1.048-.52,1.1,1.1,0,0,1-.038-1.209,1.057,1.057,0,0,0,.129-.518c-.018-.146-.268-.3-.487-.433-.323-.2-.723-.443-.741-.888a1.234,1.234,0,0,1,.272-.816.566.566,0,0,0,.143-.325c0-.083-.02-.11-.133-.213a.758.758,0,0,1-.307-.666,1.043,1.043,0,0,1,.406-.622,1.121,1.121,0,0,0,.48-1.024c-.075-.656-.731-1.159-1.124-1.459a1.8,1.8,0,0,1-.358-.318c-.178-.249-.072-.643.166-1.441a5.954,5.954,0,0,0,.255-1.061c.005-.122-.181-.318-.361-.508a2.353,2.353,0,0,1-.82-1.642c0-.856.649-.947,1-1,.385-.054.475-.078.491-.381.044-.891-.971-1.221-1.014-1.234a.328.328,0,0,1-.227-.274.327.327,0,0,1,.158-.319,4.789,4.789,0,0,0,1.215-2.1.326.326,0,0,1,.412-.209.327.327,0,0,1,.209.411,7.025,7.025,0,0,1-1.08,2.09,1.838,1.838,0,0,1,.98,1.667c-.043.853-.7.945-1.053.995-.388.055-.438.072-.437.346a1.74,1.74,0,0,0,.64,1.2,1.423,1.423,0,0,1,.541.986,6.037,6.037,0,0,1-.283,1.219,6.364,6.364,0,0,0-.228.9c.045.038.124.1.192.15a3.062,3.062,0,0,1,1.375,1.9,1.737,1.737,0,0,1-.682,1.575,1.193,1.193,0,0,0-.206.222c0,.011,0,.018.1.107a.877.877,0,0,1,.347.716,1.179,1.179,0,0,1-.259.677.6.6,0,0,0-.156.417c0,.1.25.248.429.357.328.2.737.451.793.91a1.629,1.629,0,0,1-.174.851c-.134.319-.156.416-.046.561a.913.913,0,0,0,.631.27c.243.039.609.1.68.458a4.41,4.41,0,0,1-.573,1.775A.328.328,0,0,1,1938.334-603.156Zm-2.156-11.092Z" transform="translate(-1934.854 624.121)"/></g><g transform="translate(77.435 23.811)"><ellipse class="d" cx="1.553" cy="0.66" rx="1.553" ry="0.66" transform="translate(0 3.047) rotate(-78.87)"/></g><g transform="translate(69.459 22.529)"><ellipse class="d" cx="1.553" cy="0.66" rx="1.553" ry="0.66" transform="translate(0 3.047) rotate(-78.87)"/></g><g transform="translate(73.708 28.475)"><path class="d" d="M1921.913-608.9a1.743,1.743,0,0,1-.334-.034,1.376,1.376,0,0,1-1.07-1.078.326.326,0,0,1,.264-.378.327.327,0,0,1,.378.264.714.714,0,0,0,.554.551c.425.085.564-.094.578-.115a.332.332,0,0,1,.447-.1.319.319,0,0,1,.114.431A1.05,1.05,0,0,1,1921.913-608.9Z" transform="translate(-1920.504 610.391)"/></g><g transform="translate(71.896 28.331)"><path class="d" d="M1919.019-609.347a1.426,1.426,0,0,1-.275-.027,1.143,1.143,0,0,1-1.011-.871.327.327,0,0,1,.283-.365.331.331,0,0,1,.364.272c.007.031.073.241.491.323a.716.716,0,0,0,.723-.3.329.329,0,0,1,.451-.1.326.326,0,0,1,.1.447A1.407,1.407,0,0,1,1919.019-609.347Z" transform="translate(-1917.731 610.612)"/></g><g transform="translate(36.114 42.217)"><path class="x" d="M1864.443-573.181s5.214,5.286,15.069,2.182a63.983,63.983,0,0,0,18.244-9.855s2.919-3.365,1.416-7l-27.5,6.61Z" transform="translate(-1863.464 588.831)"/><path class="d" d="M1872.972-569.554a14.066,14.066,0,0,1-9.747-3.459.98.98,0,0,1-.031-1.342l7.231-8.06a.978.978,0,0,1,.5-.3l27.5-6.61a.981.981,0,0,1,1.134.578c1.714,4.145-1.445,7.858-1.581,8.014a1,1,0,0,1-.125.121,64.274,64.274,0,0,1-18.565,10.027A20.97,20.97,0,0,1,1872.972-569.554Zm-7.641-4.249c1.653,1.2,6.144,3.625,13.365,1.35,9.065-2.855,16.988-8.948,17.848-9.623a6.725,6.725,0,0,0,1.448-5.129l-26.314,6.325Zm-1.409.1h0Z" transform="translate(-1862.943 589.351)"/></g><g transform="translate(34.359 32.705)"><path class="y" d="M1881.734-602.4s17.331,8.721,16.506,9.49-26.888,17.826-34.729,14.67S1876.331-603.273,1881.734-602.4Z" transform="translate(-1860.776 603.396)"/><path class="d" d="M1865.293-577.4a7.148,7.148,0,0,1-2.668-.446c-1.217-.489-3.1-1.863-2.073-5.562,2.14-7.679,15.938-21.278,20.818-20.474l.148.024.135.067c16.822,8.465,16.984,9.6,17.062,10.143a1.075,1.075,0,0,1-.329.939C1898.188-592.521,1875.8-577.4,1865.293-577.4Zm15.543-24.564c-3.589,0-16.336,11.694-18.4,19.083-.715,2.562.469,3.038.916,3.218,6.365,2.563,28.158-10.624,32.913-13.907-2.147-1.5-8.987-5.19-15.341-8.392C1880.9-601.963,1880.867-601.963,1880.836-601.963Z" transform="translate(-1860.256 603.914)"/></g><g transform="translate(53.693 27.423)"><path class="x" d="M1891.36-605.206l4.535-4.736a1.467,1.467,0,0,1,2.187-.161c1.4.984,12.4,6.727,12.4,6.727s2.513,1.067,1.8,1.885-4.351,5.077-4.351,5.077l-2.168-1.452,3.172-3.329-11.865-6.282-2.872,3.258Z" transform="translate(-1890.38 611.481)"/><path class="d" d="M1907.415-595.955a.975.975,0,0,1-.544-.166l-2.168-1.451a.98.98,0,0,1-.429-.707.979.979,0,0,1,.265-.783l2.279-2.393-10.038-5.315-2.362,2.679a.98.98,0,0,1-1.056.278l-2.843-.988a.981.981,0,0,1-.631-.7.979.979,0,0,1,.245-.907l4.5-4.695a2.4,2.4,0,0,1,1.442-.868,2.7,2.7,0,0,1,2.057.543c1.1.773,9.186,5.038,12.256,6.641.829.357,2.211,1.095,2.451,2.129a1.428,1.428,0,0,1-.327,1.284c-.708.818-4.347,5.071-4.347,5.072A.979.979,0,0,1,1907.415-595.955Zm-.656-2.6.479.32c.92-1.074,2.714-3.172,3.511-4.1a5.827,5.827,0,0,0-1.167-.664c-.024-.011-.048-.022-.071-.033-1.132-.591-11.1-5.8-12.512-6.794a.881.881,0,0,0-.585-.216.5.5,0,0,0-.232.133,1.01,1.01,0,0,1-.1.121l-3.48,3.634.78.271,2.437-2.765a.979.979,0,0,1,1.194-.218l11.865,6.281a.979.979,0,0,1,.508.709.979.979,0,0,1-.258.833Z" transform="translate(-1889.859 612.001)"/></g><g transform="translate(31.911 46.928)"><ellipse class="z" cx="4.53" cy="4.53" rx="4.53" ry="4.53" transform="translate(0.653 0.653)"/><path class="d" d="M1861.69-571.772a5.188,5.188,0,0,1-5.182-5.182,5.188,5.188,0,0,1,5.182-5.182,5.188,5.188,0,0,1,5.183,5.182A5.189,5.189,0,0,1,1861.69-571.772Zm0-9.059a3.881,3.881,0,0,0-3.876,3.876,3.881,3.881,0,0,0,3.876,3.876,3.881,3.881,0,0,0,3.877-3.876A3.881,3.881,0,0,0,1861.69-580.831Z" transform="translate(-1856.508 582.137)"/></g><g transform="translate(35.375 38.477)"><ellipse class="z" cx="4.53" cy="4.53" rx="4.53" ry="4.53" transform="translate(0.653 0.653)"/><path class="d" d="M1867-584.711a5.188,5.188,0,0,1-5.182-5.183,5.188,5.188,0,0,1,5.182-5.182,5.189,5.189,0,0,1,5.183,5.182A5.189,5.189,0,0,1,1867-584.711Zm0-9.059a3.881,3.881,0,0,0-3.876,3.876,3.881,3.881,0,0,0,3.876,3.877,3.881,3.881,0,0,0,3.876-3.877A3.881,3.881,0,0,0,1867-593.771Z" transform="translate(-1861.813 595.077)"/></g><g transform="translate(43.513 32.778)"><ellipse class="z" cx="4.53" cy="4.53" rx="4.53" ry="4.53" transform="translate(0.653 0.653)"/><path class="d" d="M1879.454-593.438a5.189,5.189,0,0,1-5.182-5.182,5.188,5.188,0,0,1,5.182-5.182,5.188,5.188,0,0,1,5.183,5.182A5.189,5.189,0,0,1,1879.454-593.438Zm0-9.059a3.881,3.881,0,0,0-3.876,3.876,3.881,3.881,0,0,0,3.876,3.876,3.882,3.882,0,0,0,3.877-3.876A3.881,3.881,0,0,0,1879.454-602.5Z" transform="translate(-1874.272 603.803)"/></g><g transform="translate(50.447 33.291)"><ellipse class="z" cx="4.53" cy="4.53" rx="4.53" ry="4.53" transform="translate(0.653 0.653)"/><path class="d" d="M1890.071-592.652a5.188,5.188,0,0,1-5.182-5.183,5.188,5.188,0,0,1,5.182-5.183,5.189,5.189,0,0,1,5.183,5.183A5.189,5.189,0,0,1,1890.071-592.652Zm0-9.059a3.881,3.881,0,0,0-3.875,3.876,3.881,3.881,0,0,0,3.875,3.877,3.882,3.882,0,0,0,3.877-3.877A3.881,3.881,0,0,0,1890.071-601.712Z" transform="translate(-1884.889 603.018)"/></g><g transform="translate(51.983 38.013)"><ellipse class="z" cx="4.53" cy="4.53" rx="4.53" ry="4.53" transform="translate(0.654 0.653)"/><path class="d" d="M1892.425-585.422a5.188,5.188,0,0,1-5.183-5.182,5.189,5.189,0,0,1,5.183-5.182,5.188,5.188,0,0,1,5.182,5.182A5.188,5.188,0,0,1,1892.425-585.422Zm0-9.059a3.882,3.882,0,0,0-3.877,3.876,3.881,3.881,0,0,0,3.877,3.876,3.881,3.881,0,0,0,3.876-3.876A3.881,3.881,0,0,0,1892.425-594.481Z" transform="translate(-1887.242 595.787)"/></g><g transform="translate(56.041 34.963)"><ellipse class="z" cx="4.53" cy="4.53" rx="4.53" ry="4.53" transform="translate(0.653 0.653)"/><path class="d" d="M1898.637-590.091a5.189,5.189,0,0,1-5.183-5.182,5.189,5.189,0,0,1,5.183-5.183,5.188,5.188,0,0,1,5.182,5.183A5.188,5.188,0,0,1,1898.637-590.091Zm0-9.059a3.881,3.881,0,0,0-3.877,3.877,3.881,3.881,0,0,0,3.877,3.876,3.881,3.881,0,0,0,3.876-3.876A3.881,3.881,0,0,0,1898.637-599.151Z" transform="translate(-1893.454 600.457)"/></g><g transform="translate(61.246 35.419)"><ellipse class="z" cx="4.53" cy="4.53" rx="4.53" ry="4.53" transform="translate(0.653 0.653)"/><path class="d" d="M1906.606-589.4a5.188,5.188,0,0,1-5.182-5.182,5.188,5.188,0,0,1,5.182-5.182,5.188,5.188,0,0,1,5.183,5.182A5.189,5.189,0,0,1,1906.606-589.4Zm0-9.059a3.881,3.881,0,0,0-3.876,3.876,3.881,3.881,0,0,0,3.876,3.876,3.881,3.881,0,0,0,3.877-3.876A3.881,3.881,0,0,0,1906.606-598.454Z" transform="translate(-1901.424 599.76)"/></g><g transform="translate(55.488 39.642)"><ellipse class="z" cx="4.53" cy="4.53" rx="4.53" ry="4.53" transform="translate(0.653 0.653)"/><path class="d" d="M1897.789-582.928a5.188,5.188,0,0,1-5.182-5.182,5.189,5.189,0,0,1,5.182-5.183,5.189,5.189,0,0,1,5.183,5.183A5.188,5.188,0,0,1,1897.789-582.928Zm0-9.059a3.881,3.881,0,0,0-3.876,3.876,3.881,3.881,0,0,0,3.876,3.876,3.881,3.881,0,0,0,3.877-3.876A3.881,3.881,0,0,0,1897.789-591.987Z" transform="translate(-1892.607 593.293)"/></g><g transform="translate(44.1 39.642)"><ellipse class="z" cx="4.53" cy="4.53" rx="4.53" ry="4.53" transform="translate(0.653 0.653)"/><path class="d" d="M1880.354-582.928a5.188,5.188,0,0,1-5.182-5.182,5.188,5.188,0,0,1,5.182-5.183,5.189,5.189,0,0,1,5.182,5.183A5.188,5.188,0,0,1,1880.354-582.928Zm0-9.059a3.881,3.881,0,0,0-3.876,3.876,3.881,3.881,0,0,0,3.876,3.876,3.88,3.88,0,0,0,3.876-3.876A3.88,3.88,0,0,0,1880.354-591.987Z" transform="translate(-1875.172 593.293)"/></g><g transform="translate(40.97 46.215)"><ellipse class="z" cx="4.53" cy="4.53" rx="4.53" ry="4.53" transform="translate(0.653 0.653)"/><path class="d" d="M1875.561-572.863a5.188,5.188,0,0,1-5.182-5.183,5.188,5.188,0,0,1,5.182-5.182,5.189,5.189,0,0,1,5.183,5.182A5.189,5.189,0,0,1,1875.561-572.863Zm0-9.059a3.881,3.881,0,0,0-3.875,3.876,3.881,3.881,0,0,0,3.875,3.877,3.881,3.881,0,0,0,3.877-3.877A3.881,3.881,0,0,0,1875.561-581.923Z" transform="translate(-1870.379 583.229)"/></g><g transform="translate(39.57 44.955)"><ellipse class="z" cx="4.53" cy="4.53" rx="4.53" ry="4.53" transform="translate(0.654 0.653)"/><path class="d" d="M1873.419-574.794a5.188,5.188,0,0,1-5.183-5.182,5.189,5.189,0,0,1,5.183-5.183,5.188,5.188,0,0,1,5.183,5.183A5.188,5.188,0,0,1,1873.419-574.794Zm0-9.059a3.881,3.881,0,0,0-3.877,3.876,3.881,3.881,0,0,0,3.877,3.876,3.881,3.881,0,0,0,3.876-3.876A3.881,3.881,0,0,0,1873.419-583.853Z" transform="translate(-1868.236 585.159)"/></g><g transform="translate(35.375 48.077)"><ellipse class="z" cx="4.53" cy="4.53" rx="4.53" ry="4.53" transform="translate(0.653 0.653)"/><path class="d" d="M1867-570.014a5.188,5.188,0,0,1-5.182-5.182,5.188,5.188,0,0,1,5.182-5.182,5.189,5.189,0,0,1,5.183,5.182A5.188,5.188,0,0,1,1867-570.014Zm0-9.059a3.881,3.881,0,0,0-3.876,3.876A3.881,3.881,0,0,0,1867-571.32a3.88,3.88,0,0,0,3.876-3.876A3.88,3.88,0,0,0,1867-579.073Z" transform="translate(-1861.813 580.379)"/></g><g transform="translate(50.097 45.668)"><path class="aa" d="M1893.276-578.666c-1.868,1.048-2.542,1.991-5.251,2.961-2.355.843-2.671-.331-2.671-2.833a4.529,4.529,0,0,1,4.529-4.529C1892.385-583.067,1895.458-579.889,1893.276-578.666Z" transform="translate(-1884.701 583.72)"/><path class="d" d="M1886.419-575.128a1.868,1.868,0,0,1-1.1-.319c-.892-.628-.967-1.985-.967-3.438a5.189,5.189,0,0,1,5.183-5.182,5.384,5.384,0,0,1,4.715,3.349,1.917,1.917,0,0,1-1,2.274h0a18.657,18.657,0,0,0-1.581,1.015,14.32,14.32,0,0,1-3.771,1.991A4.523,4.523,0,0,1,1886.419-575.128Zm3.117-7.633a3.881,3.881,0,0,0-3.876,3.876c0,.622,0,2.08.412,2.37.121.084.46.179,1.385-.153a13.015,13.015,0,0,0,3.466-1.835,19.956,19.956,0,0,1,1.686-1.081.633.633,0,0,0,.378-.805A4.1,4.1,0,0,0,1889.536-582.761Z" transform="translate(-1884.354 584.067)"/></g><g transform="translate(73.033 29.011)"><path class="d" d="M1920.451-598.926a.979.979,0,0,1-.875-.539.98.98,0,0,1,.433-1.315l17.222-8.685a.98.98,0,0,1,1.316.434.98.98,0,0,1-.433,1.316l-17.223,8.684A.969.969,0,0,1,1920.451-598.926Z" transform="translate(-1919.471 609.571)"/></g><g transform="translate(72.958 35.574)"><path class="d" d="M1921.507-594.107a.966.966,0,0,1-.359-.069.98.98,0,0,1-.552-1.271l.531-1.343-1.353-.949a.979.979,0,0,1-.239-1.365.981.981,0,0,1,1.364-.239l1.985,1.393a.98.98,0,0,1,.349,1.162l-.814,2.061A.981.981,0,0,1,1921.507-594.107Z" transform="translate(-1919.357 599.522)"/></g></g><path class="ab" d="M6.934,5.254,6.2,5.411a1.077,1.077,0,0,0-.574.52L5.248,7.009a1.027,1.027,0,0,1-.3.363,1.822,1.822,0,0,1-2.165.005A1.014,1.014,0,0,1,2.481,7L2.146,5.981a1.076,1.076,0,0,0-.557-.526l-.81-.2a1.065,1.065,0,0,1-.488-.4A1.824,1.824,0,0,1,.353,2.787a1.016,1.016,0,0,1,.382-.306l1.008-.328A1.075,1.075,0,0,0,2.27,1.6L2.477.777a1.067,1.067,0,0,1,.4-.485A1.823,1.823,0,0,1,4.936.348a.994.994,0,0,1,.314.4l.284.943a1.076,1.076,0,0,0,.542.535l.9.254a1.007,1.007,0,0,1,.411.321,1.822,1.822,0,0,1,.059,2.043A1.053,1.053,0,0,1,6.934,5.254Z" transform="translate(49.222 10.903) rotate(-20)"/><ellipse class="b" cx="2.172" cy="2.172" rx="2.172" ry="2.172" transform="translate(36.978 4.344)"/><ellipse class="b" cx="2.172" cy="2.172" rx="2.172" ry="2.172" transform="translate(112.243 31.437)"/><ellipse class="ac" cx="0.724" cy="0.724" rx="0.724" ry="0.724" transform="translate(110.795 42.358)"/><ellipse class="ac" cx="0.724" cy="0.724" rx="0.724" ry="0.724" transform="translate(0 45.43)"/></g></svg>