<svg id="Component_31_4" data-name="Component 31 – 4" xmlns="http://www.w3.org/2000/svg" xmlns:xlink="http://www.w3.org/1999/xlink" width="249" height="245" viewBox="0 0 249 245">
  <defs>
    <clipPath id="clip-path">
      <path id="Rectangle_16449" data-name="Rectangle 16449" d="M0,0H219a30,30,0,0,1,30,30V245a0,0,0,0,1,0,0H0a0,0,0,0,1,0,0V0A0,0,0,0,1,0,0Z" transform="translate(0)" fill="#fff" stroke="#707070" stroke-width="1"/>
    </clipPath>
  </defs>
  <g id="Mask_Group_23" data-name="Mask Group 23" opacity="0.2" clip-path="url(#clip-path)">
    <g id="Component_28_2" data-name="Component 28 – 2" transform="translate(29.93 -20.99)">
      <g id="Group_222" data-name="Group 222" transform="translate(17.634 0)">
        <g id="Group_80" data-name="Group 80" transform="translate(2.803 153.509)" opacity="0.25">
          <ellipse id="Ellipse_405" data-name="Ellipse 405" cx="196.836" cy="50.044" rx="196.836" ry="50.044" fill="#0950b5"/>
        </g>
        <g id="Group_81" data-name="Group 81" transform="translate(156.047 223.211)">
          <ellipse id="Ellipse_406" data-name="Ellipse 406" cx="9.987" cy="8.343" rx="9.987" ry="8.343" transform="translate(2.207 5.851) rotate(-11.13)" fill="#131313"/>
          <path id="Path_7498" data-name="Path 7498" d="M1884.052-539.186a14.25,14.25,0,0,1-6.857-1.713,11.434,11.434,0,0,1-5.851-7.754,11.456,11.456,0,0,1,2.484-9.4,14.706,14.706,0,0,1,8.61-5.061c7.4-1.454,14.457,2.651,15.735,9.166a11.463,11.463,0,0,1-2.489,9.4,14.686,14.686,0,0,1-8.607,5.061A15.6,15.6,0,0,1,1884.052-539.186Zm1.378-16.825a8.211,8.211,0,0,0-1.57.153,7.419,7.419,0,0,0-4.306,2.469,4.127,4.127,0,0,0-.978,3.309,4.113,4.113,0,0,0,2.158,2.7,7.419,7.419,0,0,0,4.919.648,7.427,7.427,0,0,0,4.306-2.469,4.13,4.13,0,0,0,.978-3.309C1890.53-554.6,1888.166-556.01,1885.43-556.01Z" transform="translate(-1871.144 563.402)" fill="#030504"/>
        </g>
        <g id="Group_82" data-name="Group 82" transform="translate(241.204 190.125)">
          <ellipse id="Ellipse_407" data-name="Ellipse 407" cx="9.987" cy="8.343" rx="9.987" ry="8.343" transform="translate(2.211 5.857) rotate(-11.13)" fill="#131313"/>
          <path id="Path_7499" data-name="Path 7499" d="M1918.741-552.612c-6.226,0-11.642-3.834-12.746-9.459-1.28-6.512,3.7-13,11.1-14.461a14.659,14.659,0,0,1,9.879,1.415,11.438,11.438,0,0,1,5.854,7.754,11.449,11.449,0,0,1-2.488,9.4,14.662,14.662,0,0,1-8.611,5.061A15.319,15.319,0,0,1,1918.741-552.612Zm1.354-16.824a8.244,8.244,0,0,0-1.58.155c-3.349.663-5.771,3.309-5.287,5.781s3.721,3.994,7.078,3.341a7.413,7.413,0,0,0,4.306-2.466,4.137,4.137,0,0,0,.981-3.312v0a4.127,4.127,0,0,0-2.158-2.693A7,7,0,0,0,1920.1-569.436Z" transform="translate(-1905.794 576.83)" fill="#030504"/>
        </g>
        <g id="Group_144" data-name="Group 144" transform="translate(0 31.833)">
          <g id="Group_83" data-name="Group 83" transform="translate(134.435 86.163)">
            <path id="Path_7500" data-name="Path 7500" d="M1912.082-588.062a3.561,3.561,0,0,1-.831-.1l-46.041-10.647a3.694,3.694,0,0,1-2.765-4.43,3.684,3.684,0,0,1,4.421-2.77l46.042,10.645a3.7,3.7,0,0,1,2.765,4.433A3.69,3.69,0,0,1,1912.082-588.062Z" transform="translate(-1862.35 606.103)" fill="#030504"/>
          </g>
          <g id="Group_84" data-name="Group 84" transform="translate(172.796 89.104)">
            <path id="Path_7501" data-name="Path 7501" d="M1886.932-583.76a3.676,3.676,0,0,1-2.854-1.353l-5.284-6.468a3.7,3.7,0,0,1-.086-4.573l5.509-7.291a3.681,3.681,0,0,1,5.164-.715,3.7,3.7,0,0,1,.71,5.177l-3.755,4.972,3.446,4.214a3.7,3.7,0,0,1-.516,5.2A3.664,3.664,0,0,1,1886.932-583.76Z" transform="translate(-1877.959 604.909)" fill="#030504"/>
          </g>
          <g id="Group_85" data-name="Group 85" transform="translate(103.082 98.563)">
            <path id="Path_7502" data-name="Path 7502" d="M1866.922-525.589c-.114,0-.224,0-.337-.015l-9.943-.9a3.691,3.691,0,0,1-3.349-3.477l-3.694-67.187a3.693,3.693,0,0,1,3.478-3.893,3.657,3.657,0,0,1,3.885,3.487l3.516,64,6.769.614a3.7,3.7,0,0,1,3.342,4.014A3.692,3.692,0,0,1,1866.922-525.589Z" transform="translate(-1849.593 601.07)" fill="#030504"/>
          </g>
          <g id="Group_86" data-name="Group 86" transform="translate(51.994 106.756)">
            <path id="Path_7503" data-name="Path 7503" d="M1841.938-520.961a3.668,3.668,0,0,1-1.192-.2L1831.3-524.4a3.7,3.7,0,0,1-2.43-4.172l12.263-66.156a3.686,3.686,0,0,1,4.3-2.957,3.694,3.694,0,0,1,2.952,4.307L1836.7-530.359l6.432,2.2a3.7,3.7,0,0,1,2.3,4.692A3.689,3.689,0,0,1,1841.938-520.961Z" transform="translate(-1828.806 597.745)" fill="#030504"/>
          </g>
          <g id="Group_135" data-name="Group 135">
            <g id="Group_133" data-name="Group 133" transform="translate(2.803 2.807)">
              <g id="Group_87" data-name="Group 87">
                <path id="Path_7504" data-name="Path 7504" d="M1889.389-634.327s-8.8-9.267-14.525-3.97-5.721,7.5-5.721,7.5-7.479-8.38-12.76-2.646-4.842,10.588-4.842,10.588-9.243-4.857-12.762-1.762-5.282,9.708-5.282,9.708a8.078,8.078,0,0,0-7.043,2.2c-3.079,3.09-5.282,11.473-5.282,11.473s-3.957-2.651-7.038,3.09,3.519,9.265,3.519,9.265-7.042,3.974-5.721,9.708,3.519,8.383,3.519,8.383-6.159,2.644-4.4,8.385a30.548,30.548,0,0,0,5.721,10.147s-8.8,2.649-7.921,8.385,3.08,6.175,3.08,6.175-.882.885,0,5.3a10.832,10.832,0,0,0,4.4,6.618s-7.925,6.177.88,8.826,13.2,1.764,13.2,1.764-7.042,5.3.881,6.178a81.283,81.283,0,0,0,15.842,0s-3.082,14.119,3.519,9.708,8.8-3.529,8.8-3.529,2.2,9.267,4.4,5.3,6.156.879,6.156.879,5.724,8.385,7.926,4.857,6.6,3.97,8.361-.443l3.519-2.205s12.765,7.057,14.085,1.762l1.324-5.293s8.8,6.616,11.438,2.205,8.361-3.97,8.361-3.97,12.765,5.3,15.4-2.649,8.361-4.41,8.361-4.41,13.2,1.321,9.683-3.531-.88-1.764-.88-1.764l-1.32-4.854s10.565-1.321,7.483-7.942-3.962-8.826-3.962-8.826,4.845-3.526,2.642-5.734-3.961-8.382-3.961-8.382,6.159-5.742,3.077-8.388a10.248,10.248,0,0,1-3.517-5.736s7.478-4.854,3.96-7.942a12.625,12.625,0,0,1-3.96-7.5s6.6-3.972,3.96-7.057a18.152,18.152,0,0,1-3.52-6.618s7.481-6.621,1.319-9.267a26.816,26.816,0,0,1-10.122-8.378s-1.757-7.946-4.4-7.508a50.228,50.228,0,0,1-6.6.441s-.881-8.382-4.4-7.059a22.524,22.524,0,0,1-7.042,1.323s1.76-9.709-4.4-8.826a26.554,26.554,0,0,0-10.123,3.533s4.837-4.857-1.322-5.734-8.361,3.087-8.361,3.087.88-3.087-.877-4.41-6.6,0-7.484,1.323S1892.03-640.058,1889.389-634.327Z" transform="translate(-1808.79 639.932)" fill="#ded8be"/>
              </g>
              <g id="Group_88" data-name="Group 88" transform="translate(64.155 61.863)">
                <path id="Path_7505" data-name="Path 7505" d="M1847.927-528.353a2.272,2.272,0,0,1-.317.377.47.47,0,0,1-.064.052,1.3,1.3,0,0,1-.344.224l-.059.025a1.413,1.413,0,0,1-.389.1l-.029,0a2,2,0,0,1-.417-.015l-.032,0a2.75,2.75,0,0,1-.44-.111.5.5,0,0,1-.064-.017,4.454,4.454,0,0,1-.447-.175.405.405,0,0,0-.076-.032c-.151-.074-.3-.145-.453-.224l-.02-.01c-.71-2.471-3.035-7.173-3.848-9.869a6.077,6.077,0,0,1,1.239-5.51s3.413-3.124,1.631-4.016-4.305-5.8-4.305-5.8,2.079,1.338,2.674,1.786,2.669,3.272,2.816.742a16.505,16.505,0,0,1,.893-4.463,60.443,60.443,0,0,0-4.3-4.76c-1.632-1.491-2.967-5.061-2.967-5.061s4.3,4.465,5.192,1.341,4.152-5.209,4.152-5.209-1.482-3.866-4-5.352a4.8,4.8,0,0,1-2.374-4.169,30.621,30.621,0,0,0,3.561,2.383c2.079,1.187,2.376-1.636,2.522-3.721s.742-5.207.742-5.207a40.892,40.892,0,0,1-7.419-2.531c-2.968-1.486.3-5.5.3-5.5a20.86,20.86,0,0,0,2.076,3.422c.74.744,2.82-.15,2.82-1.934s3.114-4.911,3.114-4.911l-2.816-5.209s-2.67.744-6.975,1.491a3.7,3.7,0,0,1-4.6-3.423s5.788-10.265,6.826-10.416a30.55,30.55,0,0,1,6.085-.744c1.927.148,13.947,3.42,17.211,4.019s15.431,18.594,14.841,23.356c-.577,4.6-5.165,36.145-10.294,54.241-1.212-.707-2.1-1.348-2.325-1.511l-.02-.015-.032-.025-1.325,5.293c-1.319,5.3-14.084-1.762-14.084-1.762L1848.257-529a3.59,3.59,0,0,1-.293.582A.485.485,0,0,0,1847.927-528.353Z" transform="translate(-1834.894 614.825)" fill="#cdc7ac"/>
              </g>
              <g id="Group_91" data-name="Group 91" transform="translate(0 23.91)">
                <g id="Group_89" data-name="Group 89">
                  <path id="Path_7506" data-name="Path 7506" d="M1863.864-511.746c-2.2,3.972-4.4-5.295-4.4-5.295s-2.2-.882-8.8,3.528-3.519-9.708-3.519-9.708a81.277,81.277,0,0,1-15.842,0c-7.923-.882-.881-6.177-.881-6.177s-4.4.884-13.2-1.765-.88-8.826-.88-8.826a10.833,10.833,0,0,1-4.4-6.618c-.882-4.411,0-5.3,0-5.3s-2.2-.441-3.08-6.175,7.921-8.385,7.921-8.385a30.55,30.55,0,0,1-5.721-10.147c-1.76-5.741,4.4-8.385,4.4-8.385s-2.2-2.649-3.519-8.382,5.721-9.708,5.721-9.708-6.6-3.526-3.519-9.265,7.038-3.09,7.038-3.09,2.2-8.383,5.282-11.473a8.078,8.078,0,0,1,7.043-2.2s.114-.431.339-1.114c4.356.855,7.5,1.533,7.5,1.533l-18,13.128s-7.53.981-7.53,3.935,4.581,6.234,5.563,6.562a8.648,8.648,0,0,0,2.293.328s-6.22,1.644-4.91,7.878,4.254,8.533,4.254,8.533l4.583.328-8.837,2.624s-5.564,6.894-3.274,9.846,6.874,7.87,8.183,6.889a14.93,14.93,0,0,1,2.942-1.639s-3.273,5.906-5.235,4.921a8.115,8.115,0,0,0-3.274-.983s-5.234,3.605-4.254,6.887,6.547,4.27,6.547,4.27,2.293,2.954-.327,3.282-5.564.658-5.564.658,0,5.574,3.927,5.574h5.564s-7.852,7.875-4.91,9.846,7.857,2.627,10.475,2.3,10.472-4.923,10.472-4.923-8.835,10.494-1.961,11.482a52.956,52.956,0,0,0,10.8.653l2.947-6.232s-3.6,13.781-.327,14.767,6.872-2.3,6.872-2.3l3.556-7.119c-.361.727-2.608,5.655,1.028,7.776,3.929,2.3,6.547,0,6.547,0s-3.268,3.94,1.966,5.579,7.2,0,7.528-1.641,7.849-8.858,11.125-7.875c2.581.776,7.167,7.885,5.478,17.287a46.15,46.15,0,0,1-5.756-2.589l-3.519,2.205c-1.76,4.413-6.162-3.09-8.361.443s-7.926-4.857-7.926-4.857S1866.061-515.717,1863.864-511.746Z" transform="translate(-1808.79 630.228)" fill="#cdc7ac"/>
                </g>
                <g id="Group_90" data-name="Group 90" transform="translate(53.12 102.932)">
                  <path id="Path_7507" data-name="Path 7507" d="M1830.4-588.353l.047-.1Z" transform="translate(-1830.404 588.454)" fill="#cdc7ac"/>
                </g>
              </g>
              <g id="Group_92" data-name="Group 92" transform="translate(68.454 25.201)">
                <path id="Path_7508" data-name="Path 7508" d="M1863.31-507.663l1.325-5.293s8.8,6.616,11.438,2.205,8.361-3.97,8.361-3.97,12.764,5.3,15.4-2.649,8.361-4.41,8.361-4.41,12.927,2.013,10.217-3.334a16.8,16.8,0,0,0-1.21-2.018l-1.524-4.8s10.566-1.321,7.483-7.941-3.96-8.826-3.96-8.826,4.843-3.526,2.641-5.734-3.961-8.383-3.961-8.383,6.158-5.741,3.076-8.388a10.253,10.253,0,0,1-3.516-5.736s7.479-4.854,3.96-7.941a12.631,12.631,0,0,1-3.96-7.5s6.6-3.972,3.96-7.057a18.157,18.157,0,0,1-3.519-6.618s7.48-6.621,1.32-9.267a26.808,26.808,0,0,1-10.123-8.377,23.326,23.326,0,0,0-2.238-6c-16.6,12.931-31.9,26.675-31.9,26.675s-25.234,11.879-28.666,17.039,3.606,11.7,3.606,11.7a11.563,11.563,0,0,0-3.438,2.067c-.857,1.03-2.059,5.68,2.06,6.714s1.546,5.5,1.546,5.5l-2.92,2.927c-1.2,1.207-.853,4.13-.169,6.712a44.3,44.3,0,0,0,1.388,4.376,15.17,15.17,0,0,0-5.281,4.633c-2.643,3.477,3.139,8.109,3.139,8.109a9.58,9.58,0,0,0-2.148,3.8c-.661,2.319,1.978,4.632,1.978,4.632a23.541,23.541,0,0,1-3.959,2.816c-2.969,1.818-.273,8.119-.273,8.119s-9.16-.119-3.077,6.13c2.322-.237,5.537,4.132,6.977.52l3.519-2.205S1861.991-502.368,1863.31-507.663Z" transform="translate(-1836.644 629.704)" fill="#e6e6d2"/>
              </g>
              <g id="Group_93" data-name="Group 93" transform="translate(137.478 37.3)">
                <path id="Path_7509" data-name="Path 7509" d="M1864.729-529.737a4.868,4.868,0,0,1,3.543-.022c3.308.986,6.616-2.1,5.687-3.726s-3.266-12.172-3.266-12.172l3.5,4.608s5.252-2.856,5.031-6.579-5.906-11.845-5.906-11.845l3.5,1.754s1.969-2.851.657-5.263a82.243,82.243,0,0,1-3.5-9.43h1.315c1.31,0,2.622-2.851,1.094-5.266a29.025,29.025,0,0,1-2.625-6.8l-2.628-2.629a21.951,21.951,0,0,0,5.031-.219c1.971-.439,2.406-2.632,1.1-5.046a36.926,36.926,0,0,1-2.409-7.015l-3.5-2.193a19.262,19.262,0,0,0,5.689-3.731c2.406-2.41-7.439-9.649-7.439-9.649l.027-7.579s2.138-1.05,4.665-2.257a21.007,21.007,0,0,0,3.977,2.282c6.161,2.646-1.32,9.267-1.32,9.267a18.16,18.16,0,0,0,3.519,6.618c2.639,3.085-3.959,7.057-3.959,7.057a12.628,12.628,0,0,0,3.959,7.5c3.519,3.087-3.959,7.941-3.959,7.941a10.248,10.248,0,0,0,3.517,5.736c3.082,2.647-3.077,8.388-3.077,8.388s1.757,6.172,3.962,8.383-2.642,5.734-2.642,5.734.88,2.208,3.961,8.826-7.483,7.941-7.483,7.941l1.523,4.8a16.818,16.818,0,0,1,1.21,2.018c2.71,5.347-10.217,3.334-10.217,3.334A6.082,6.082,0,0,0,1864.729-529.737Z" transform="translate(-1864.729 624.794)" fill="#f3fafa"/>
              </g>
              <g id="Group_94" data-name="Group 94" transform="translate(12.744)">
                <path id="Path_7510" data-name="Path 7510" d="M1818.9-612.705a8.078,8.078,0,0,1,7.043-2.2s1.76-6.623,5.281-9.708,12.763,1.762,12.763,1.762-.442-4.857,4.841-10.588,12.761,2.646,12.761,2.646,0-2.208,5.721-7.5,14.524,3.97,14.524,3.97c2.643-5.731,4.4,3.092,5.282,1.769s5.721-2.651,7.484-1.323.877,4.41.877,4.41,2.2-3.972,8.361-3.087,1.323,5.734,1.323,5.734a26.559,26.559,0,0,1,10.122-3.533c6.059-.865,4.464,8.472,4.408,8.8a7.416,7.416,0,0,1,8.879-1.69c4.186,1.936,3.4,5.147,2.5,6.968.01.1.022.178.03.247,1.012-.968,2.983-2.107,6.387-1.454,5.511,1.06,4.646,8.76,4.646,8.76a26.816,26.816,0,0,0,10.122,8.378c6.161,2.646-1.319,9.267-1.319,9.267a17.852,17.852,0,0,0,1.877,4.312c-4.432.084-8.278-4.314-8.278-4.314s-4.763-.444-4.763,4.45-8.575,0-8.575,0-7.616-.889-3.809,5.781-13.335,2.666-13.335,2.666-7.621-.443-6.193,5.337-11.428,1.779-11.428,1.779-4.289-1.335-6.667,5.337-10.959-3.112-10.959-3.112-3.335.444-9.526,3.556-5.716-8.005-5.716-8.005-5.237-.443-10.954-.443-2.379-4-2.379-4-5.242-.446-10.484-1.336,1.909-8,1.909-8-.673-.081-1.836-.182a103.737,103.737,0,0,0-13.884-.261c-8.1.443-5.242-10.231-5.242-10.231s-6.191,0-6.665-4c-.03-.239-.03-.49-.048-.732C1814.718-604.946,1816.551-610.357,1818.9-612.705Z" transform="translate(-1813.975 639.932)" fill="#f3fafa"/>
              </g>
              <g id="Group_95" data-name="Group 95" transform="translate(30.294 14.093)">
                <path id="Path_7511" data-name="Path 7511" d="M1871.889-633.891s33.824,13.8,41.135,18.97l6.884,3.452s4.3,3.447.428,6.034-37.624,17.16-47.516,18.882c0,0-4.527,2.247-14.845-2.5s-35.272-19.4-35.272-19.4-4.729-3.452,2.15-7.764,34.567-15.947,34.567-15.947S1866.727-635.182,1871.889-633.891Z" transform="translate(-1821.116 634.212)" fill="#1e3216"/>
              </g>
              <g id="Group_96" data-name="Group 96" transform="translate(36.237 17.042)">
                <path id="Path_7512" data-name="Path 7512" d="M1868.789-632.743s30.14,11.739,36.66,16.142l6.134,2.939s3.832,2.932.379,5.13-33.529,14.607-42.345,16.071c0,0-4.033,1.912-13.235-2.124s-31.436-16.511-31.436-16.511-4.214-2.939,1.918-6.609,30.8-13.565,30.8-13.565S1864.188-633.84,1868.789-632.743Z" transform="translate(-1823.534 633.016)" fill="#4b1414"/>
              </g>
              <g id="Group_97" data-name="Group 97" transform="translate(61.756 17.042)">
                <path id="Path_7513" data-name="Path 7513" d="M1833.918-627.744c4.9-2.035,8.613-3.526,8.613-3.526s6.521-2.57,11.121-1.473c0,0,30.14,11.739,36.66,16.142l6.134,2.939s3.831,2.932.378,5.13c-1.794,1.151-10.823,5.064-20.3,8.76-12.023-.1-24.417-3.161-33.33-9.018C1835.159-614.066,1833.9-622.725,1833.918-627.744Z" transform="translate(-1833.918 633.016)" fill="#f77a16"/>
              </g>
              <g id="Group_98" data-name="Group 98" transform="translate(61.756 21.905)">
                <path id="Path_7514" data-name="Path 7514" d="M1833.918-630.633c.338-.138.656-.274.982-.409.283,3.3,1.139,8.481,2.379,11.361,1.529,3.548,19.418,13.333,25.255,14.582,4.593.983,14.212.892,18.1.811-1.35.54-2.727,1.087-4.115,1.626-12.023-.1-24.417-3.161-33.33-9.018C1835.159-616.955,1833.9-625.614,1833.918-630.633Z" transform="translate(-1833.918 631.042)" fill="#d15815"/>
              </g>
              <g id="Group_99" data-name="Group 99" transform="translate(36.237 23.782)">
                <path id="Path_7515" data-name="Path 7515" d="M1826.864-621.71c3.215-1.919,11.51-5.551,18.688-8.57,1.413,2.341,6.146,10.529,6.606,15.738.448,5.1-3.379,8.156-10.344,8.642-8.557-4.542-16.867-9.2-16.867-9.2S1820.732-618.041,1826.864-621.71Z" transform="translate(-1823.534 630.28)" fill="#c9da82"/>
              </g>
              <g id="Group_100" data-name="Group 100" transform="translate(36.254 33.486)">
                <path id="Path_7516" data-name="Path 7516" d="M1851-615.636c-1.582,2.282-4.741,3.662-9.2,3.97-8.557-4.541-16.866-9.2-16.866-9.2s-3.348-2.355.326-5.475c-.049,1.274-.034,3.587.772,4.529,1.1,1.281,10.489,5.946,13.136,7.227s10.035-1.464,10.035-1.464Z" transform="translate(-1823.542 626.342)" fill="#9fbe78"/>
              </g>
              <g id="Group_101" data-name="Group 101" transform="translate(36.238 23.782)">
                <path id="Path_7517" data-name="Path 7517" d="M1826.863-621.71c3.215-1.919,11.509-5.551,18.688-8.57a71.712,71.712,0,0,1,5.15,10.3c.12,1.562.2,2.644.2,2.644s-6.311-9.27-6.688-9.588-2.628-.121-4.753.946-10.249,3.881-13.436,6.512a5.2,5.2,0,0,0-1.973,3.413C1823.275-617.206,1822.828-619.3,1826.863-621.71Z" transform="translate(-1823.535 630.28)" fill="#ebe995"/>
              </g>
              <g id="Group_102" data-name="Group 102" transform="translate(56.691 44.868)">
                <path id="Path_7518" data-name="Path 7518" d="M1831.857-617.279a19.666,19.666,0,0,0,3.248-1.213c3.313-1.584,7.1-3.639,12.3-3.161s15.3,4.581,18.614,6.165a5.245,5.245,0,0,1,2.286,3.336,78.9,78.9,0,0,1-10.823,3.156s-4.033,1.912-13.234-2.124C1841.149-612.481,1836.565-614.8,1831.857-617.279Z" transform="translate(-1831.857 621.723)" fill="#a43637"/>
              </g>
              <g id="Group_103" data-name="Group 103" transform="translate(56.691 48.812)">
                <path id="Path_7519" data-name="Path 7519" d="M1831.857-619.622c.473-.131,1-.3,1.555-.5,2.16.909,4.911,2.331,6.955,3.472,3.287,1.831,9.214,4.295,13.5,4.571a55.784,55.784,0,0,0,8.792-.574,45.735,45.735,0,0,1-5.178,1.316s-4.033,1.912-13.234-2.124C1841.149-614.824,1836.565-617.143,1831.857-619.622Z" transform="translate(-1831.857 620.122)" fill="#8c1f2d"/>
              </g>
              <g id="Group_104" data-name="Group 104" transform="translate(61.756 17.042)">
                <path id="Path_7520" data-name="Path 7520" d="M1893.135-612.339c-2.9-1.454-40.585-19.308-43.067-19.308-1.973,0-12.04,4.059-16.092,5.727-.039-.643-.059-1.259-.057-1.824,4.9-2.035,8.613-3.526,8.613-3.526s6.521-2.57,11.121-1.473c0,0,30.14,11.739,36.66,16.142l6.134,2.939s3.832,2.932.378,5.13c-1.794,1.151-10.823,5.064-20.3,8.76-.428,0-.855-.039-1.286-.049,5.259-2.831,12.821-6.9,14.792-7.949C1893.135-609.434,1896.035-610.885,1893.135-612.339Z" transform="translate(-1833.918 633.016)" fill="#fd992f"/>
              </g>
              <g id="Group_105" data-name="Group 105" transform="translate(97.603 27.53)">
                <path id="Path_7521" data-name="Path 7521" d="M1851.146-627.044a44.531,44.531,0,0,0-2.433,8.821,40.834,40.834,0,0,0,.187,9.381s1.5-10.322,2.436-13.136,2.059-7.131,1.5-6.759A13.758,13.758,0,0,0,1851.146-627.044Z" transform="translate(-1848.504 628.759)" fill="#ffb155"/>
              </g>
              <g id="Group_106" data-name="Group 106" transform="translate(86.46 23.011)">
                <path id="Path_7522" data-name="Path 7522" d="M1846.615-628.878a44.433,44.433,0,0,0-2.436,8.819,40.7,40.7,0,0,0,.189,9.381s1.5-10.319,2.429-13.138,2.062-7.126,1.5-6.754A13.346,13.346,0,0,0,1846.615-628.878Z" transform="translate(-1843.97 630.593)" fill="#ffb155"/>
              </g>
              <g id="Group_107" data-name="Group 107" transform="translate(73.771 18.427)">
                <path id="Path_7523" data-name="Path 7523" d="M1841.449-630.742a44.468,44.468,0,0,0-2.433,8.821,40.748,40.748,0,0,0,.187,9.386s1.5-10.327,2.433-13.138,2.059-7.133,1.5-6.756A13.6,13.6,0,0,0,1841.449-630.742Z" transform="translate(-1838.807 632.454)" fill="#ffb155"/>
              </g>
              <g id="Group_108" data-name="Group 108" transform="translate(114.291 36.409)">
                <path id="Path_7524" data-name="Path 7524" d="M1856.068-625.155s3.838,1.279,3.713,2.6-2.639,2.07-2.807,1.7,1.074-1.242,0-2.11S1854.335-625.2,1856.068-625.155Z" transform="translate(-1855.294 625.156)" fill="#fd992f"/>
              </g>
              <g id="Group_109" data-name="Group 109" transform="translate(103.36 30.948)">
                <path id="Path_7525" data-name="Path 7525" d="M1851.578-627.372s2.72.7,2.6,1.53-1.858.7-2.519.207S1850.258-627,1851.578-627.372Z" transform="translate(-1850.847 627.372)" fill="#fd992f"/>
              </g>
              <g id="Group_110" data-name="Group 110" transform="translate(94.259 26.687)">
                <path id="Path_7526" data-name="Path 7526" d="M1848.394-629.1s3.627,1.86,3.5,2.4.62,1.612-.781.909-2.888-1.612-3.588-1.944S1847.074-629.017,1848.394-629.1Z" transform="translate(-1847.143 629.101)" fill="#fd992f"/>
              </g>
              <g id="Group_111" data-name="Group 111" transform="translate(82.993 22.215)">
                <path id="Path_7527" data-name="Path 7527" d="M1844.722-630.869s3.711.865,3.34,1.656.042,1.279-1.568.783-4.168-1.737-3.918-2.193S1844.722-630.869,1844.722-630.869Z" transform="translate(-1842.559 630.916)" fill="#fd992f"/>
              </g>
              <g id="Group_112" data-name="Group 112" transform="translate(70.653 20.15)">
                <path id="Path_7528" data-name="Path 7528" d="M1842.136-631.754s-.083,1.284-.868,1.572-4.372.786-3.629.249A9.512,9.512,0,0,1,1842.136-631.754Z" transform="translate(-1837.538 631.754)" fill="#fd992f"/>
              </g>
              <g id="Group_113" data-name="Group 113" transform="translate(52.759 23.782)">
                <path id="Path_7529" data-name="Path 7529" d="M1840.827-614.192c-.251-3.216-5.348-12.87-6.712-15.4.548-.229,1.1-.464,1.637-.688,1.413,2.341,6.147,10.529,6.606,15.738.447,5.1-3.38,8.156-10.344,8.642-.588-.308-1.175-.626-1.758-.934C1836.79-607.889,1841.068-611.088,1840.827-614.192Z" transform="translate(-1830.257 630.28)" fill="#2e6234"/>
              </g>
              <g id="Group_114" data-name="Group 114" transform="translate(60.019 44.867)">
                <path id="Path_7530" data-name="Path 7530" d="M1841.1-620.3a64.079,64.079,0,0,0-7.894,1.769c3.291-1.577,7.059-3.6,12.224-3.122,5.208.471,15.3,4.58,18.614,6.165a5.249,5.249,0,0,1,2.286,3.336c-.811.281-1.573.537-2.343.788-.16-.251-.317-.5-.472-.747-1.329-2.095-3.037-3.046-7.217-4.763S1845.381-620.868,1841.1-620.3Z" transform="translate(-1833.211 621.723)" fill="#cc4e4b"/>
              </g>
              <g id="Group_115" data-name="Group 115" transform="translate(81.013 51.064)">
                <path id="Path_7531" data-name="Path 7531" d="M1842.251-619.208s6.451,2.2,6.626,2.811.167,1.131-1.854,1.463-3.254.057-2.582-.562,1.575-1.123,1.179-1.577S1840.18-618.476,1842.251-619.208Z" transform="translate(-1841.754 619.208)" fill="#cc4e4b"/>
              </g>
              <g id="Group_116" data-name="Group 116" transform="translate(68.018 47.235)">
                <path id="Path_7532" data-name="Path 7532" d="M1837.331-620.762s8.813,1.86,9.484,2.592-2.693-.454-4.15-.678-3.707-1.183-4.714-1.183S1835.533-620.762,1837.331-620.762Z" transform="translate(-1836.466 620.762)" fill="#cc4e4b"/>
              </g>
              <g id="Group_117" data-name="Group 117" transform="translate(59.328 34.85)">
                <path id="Path_7533" data-name="Path 7533" d="M1833.389-625.731s2.806,5.064,2.021,6.249-1.349,1.35-1.349.621.729-.68.282-2.538S1832.1-626.236,1833.389-625.731Z" transform="translate(-1832.93 625.788)" fill="#ebe995"/>
              </g>
              <g id="Group_118" data-name="Group 118" transform="translate(65.029 78.292)">
                <path id="Path_7534" data-name="Path 7534" d="M1837.214-608.151a9.172,9.172,0,0,0,.651,3.908c.863,2.6-2.383-.217-2.6-2.171S1837.214-608.151,1837.214-608.151Z" transform="translate(-1835.25 608.158)" fill="#e8e2c6"/>
              </g>
              <g id="Group_119" data-name="Group 119" transform="translate(11.834 52.759)">
                <path id="Path_7535" data-name="Path 7535" d="M1816.532-618.52s-5.414,2.6-1.517,4.992,4.331.436,4.331-.214S1815.88-616.566,1816.532-618.52Z" transform="translate(-1813.605 618.52)" fill="#e8e2c6"/>
              </g>
              <g id="Group_120" data-name="Group 120" transform="translate(10.105 41.464)">
                <path id="Path_7536" data-name="Path 7536" d="M1814.09-623.1s-2.814,2.607.218,3.475,3.033-.434,3.033-.434Z" transform="translate(-1812.902 623.104)" fill="#e8e2c6"/>
              </g>
              <g id="Group_121" data-name="Group 121" transform="translate(8.531 71.427)">
                <path id="Path_7537" data-name="Path 7537" d="M1815.242-610.935c-.629-.158-4.119,1.737-2.6,4.342s2.6,1.956,3.251-.648S1816.108-610.715,1815.242-610.935Z" transform="translate(-1812.261 610.944)" fill="#e8e2c6"/>
              </g>
              <g id="Group_122" data-name="Group 122" transform="translate(7.974 91.642)">
                <path id="Path_7538" data-name="Path 7538" d="M1813.408-602.531s-2.386,2.39-.868,3.474,3.249.217,3.249-.433S1814.919-603.618,1813.408-602.531Z" transform="translate(-1812.034 602.74)" fill="#e8e2c6"/>
              </g>
              <g id="Group_123" data-name="Group 123" transform="translate(12.564 112.632)">
                <path id="Path_7539" data-name="Path 7539" d="M1818.048-593.932c-2.165,1.082-6.069,3.041-3.033,2.824s5.2-2.176,6.068-2.824S1818.048-593.932,1818.048-593.932Z" transform="translate(-1813.902 594.221)" fill="#e8e2c6"/>
              </g>
              <g id="Group_124" data-name="Group 124" transform="translate(63.483 134.564)">
                <path id="Path_7540" data-name="Path 7540" d="M1838.527-583.725c-.892,1.042-1.519,3.691-2.817,1.954s-1.516-2.6-.216-3.255S1839.825-585.245,1838.527-583.725Z" transform="translate(-1834.621 585.32)" fill="#e8e2c6"/>
              </g>
              <g id="Group_125" data-name="Group 125" transform="translate(68.701 90.227)">
                <path id="Path_7541" data-name="Path 7541" d="M1840.861-600.655c-.651,2.607.216,5.867-1.952,3.477s-2.165-1.74-2.165-5S1840.861-600.655,1840.861-600.655Z" transform="translate(-1836.744 603.314)" fill="#e8e2c6"/>
              </g>
              <g id="Group_126" data-name="Group 126" transform="translate(27.692 107.337)">
                <path id="Path_7542" data-name="Path 7542" d="M1820.059-596.37s-.2,7.806,4.19,9.8a16.922,16.922,0,0,0,7.383,1.8s-6.788-2.8-7.783-5.8A17.836,17.836,0,0,0,1820.059-596.37Z" transform="translate(-1820.058 596.37)" fill="#cdc7ac"/>
              </g>
              <g id="Group_127" data-name="Group 127" transform="translate(15.65 92.932)">
                <path id="Path_7543" data-name="Path 7543" d="M1816.024-602.216s-2.192,3.4.4,6.2,7.186.8,7.186.8-4.787-.6-5.785-3S1816.024-602.216,1816.024-602.216Z" transform="translate(-1815.157 602.216)" fill="#cdc7ac"/>
              </g>
              <g id="Group_128" data-name="Group 128" transform="translate(51.237 122.543)">
                <path id="Path_7544" data-name="Path 7544" d="M1840.614-590.2s-.2,4.8-4.989,4.2-5.987-3-5.987-3,5.385,2.006,7.383.8S1840.614-590.2,1840.614-590.2Z" transform="translate(-1829.638 590.199)" fill="#cdc7ac"/>
              </g>
              <g id="Group_129" data-name="Group 129" transform="translate(43.402 108.737)">
                <path id="Path_7545" data-name="Path 7545" d="M1827.1-595.8s.005,4.2,2.4,6.2,5.982,1.6,5.982,1.6-4.387,4-7.38-.2S1827.1-595.8,1827.1-595.8Z" transform="translate(-1826.45 595.802)" fill="#cdc7ac"/>
              </g>
              <g id="Group_130" data-name="Group 130" transform="translate(94.594 108.479)">
                <path id="Path_7546" data-name="Path 7546" d="M1850.79-592.185c-1.765.281-3.338-.308-3.5-1.316s1.151-2.052,2.918-2.336,3.335.306,3.494,1.311S1852.557-592.471,1850.79-592.185Z" transform="translate(-1847.279 595.907)" fill="#e94153" fill-rule="evenodd"/>
              </g>
              <g id="Group_131" data-name="Group 131" transform="translate(132.878 99.812)">
                <path id="Path_7547" data-name="Path 7547" d="M1866.447-595.686c-1.752.38-3.353-.123-3.566-1.119s1.035-2.116,2.785-2.494,3.349.123,3.561,1.118S1868.189-596.063,1866.447-595.686Z" transform="translate(-1862.858 599.424)" fill="#e94153" fill-rule="evenodd"/>
              </g>
              <g id="Group_132" data-name="Group 132" transform="translate(139.179 30.266)">
                <path id="Path_7548" data-name="Path 7548" d="M1865.421-626.886s2.113-2,7.152.473,1.526,8.111,1.526,8.111l-7.385-3.41Z" transform="translate(-1865.421 627.649)" fill="#f3fafa"/>
              </g>
            </g>
            <g id="Group_134" data-name="Group 134">
              <path id="Path_7549" data-name="Path 7549" d="M1880.67-638.265c5.057,0,10.381,5.606,10.381,5.606.661-1.432,1.263-1.956,1.816-1.956,1.492,0,2.58,3.861,3.267,3.861a.245.245,0,0,0,.2-.136c.625-.936,3.226-1.875,5.319-1.875a3.655,3.655,0,0,1,2.166.552c1.757,1.323.876,4.411.876,4.411s1.782-3.216,6.626-3.216a12.223,12.223,0,0,1,1.735.128c6.159.877,1.323,5.734,1.323,5.734a26.561,26.561,0,0,1,10.123-3.534,5.968,5.968,0,0,1,.755-.054c.1,0,.2,0,.3.012a1.814,1.814,0,0,1,.234.042,3.608,3.608,0,0,1,.659.126c.071.024.13.066.2.1a2.953,2.953,0,0,1,.531.261,1.784,1.784,0,0,1,.154.128,3.567,3.567,0,0,1,.443.387c.036.042.066.1.1.14a4.026,4.026,0,0,1,.362.505c.024.047.044.094.066.138a5.515,5.515,0,0,1,.285.611c.017.044.027.086.042.131a6.422,6.422,0,0,1,.209.687c.007.039.012.076.022.116.057.244.105.49.141.744.007.029.009.064.014.094.032.259.061.52.079.774l0,.081c.014.261.025.52.025.771v.062c0,.256,0,.5-.007.739l-.005.059c-.011.232-.025.456-.04.665l0,.049c-.017.2-.037.394-.054.562l-.005.049c-.017.163-.034.305-.053.424l-.005.047c-.02.121-.031.209-.037.263l0,.025-.009.064a7.731,7.731,0,0,1,5.471-2.494,8.12,8.12,0,0,1,3.408.8c4.186,1.937,3.4,5.147,2.5,6.968.01.1.022.178.03.247a6.238,6.238,0,0,1,4.468-1.646,10.268,10.268,0,0,1,1.919.192c4.372.84,4.728,5.847,4.689,7.885a5.771,5.771,0,0,1,.865-.061,10.379,10.379,0,0,1,4.529,1.234c3.495,1.708,2.88,4.938,2.172,6.766.133.079.263.163.4.242s.276.148.408.224c.2.111.4.227.615.335.356.18.72.355,1.094.512,6.161,2.646-1.32,9.267-1.32,9.267a.713.713,0,0,1,.018.069l.01.034c.032.116.093.33.191.618.008.017.013.04.022.059.1.306.246.688.425,1.121l.022.054c.189.451.423.951.7,1.49l.016.03c.144.271.3.552.47.835h0a16.808,16.808,0,0,0,1.646,2.306c2.64,3.085-3.96,7.057-3.96,7.057a12.626,12.626,0,0,0,3.96,7.5c3.519,3.087-3.96,7.941-3.96,7.941a10.246,10.246,0,0,0,3.517,5.736c3.082,2.646-3.077,8.388-3.077,8.388s1.758,6.172,3.962,8.382-2.642,5.734-2.642,5.734.88,2.208,3.962,8.826-7.484,7.942-7.484,7.942l1.524,4.8a16.693,16.693,0,0,1,1.21,2.018c1.548,3.053-2,3.706-5.323,3.706a36.151,36.151,0,0,1-4.893-.372l-.032-.018-.02-.015c-.03-.015-.074-.037-.12-.064l-.03-.015c-.059-.032-.13-.064-.207-.1l-.024-.012a6.885,6.885,0,0,0-.642-.253l-.029-.007c-.126-.042-.261-.079-.4-.116l-.049-.012c-.142-.037-.291-.067-.445-.094l-.029,0c-.166-.025-.335-.047-.507-.059h0c-.113-.01-.233-.015-.354-.015-1.819,0-4.08.993-5.475,5.194-1.128,3.4-4.124,4.379-7.172,4.379a24.872,24.872,0,0,1-8.232-1.73s-.157-.012-.433-.012c-1.382,0-5.727.3-7.928,3.982a3.137,3.137,0,0,1-2.9,1.52c-3.354,0-7.9-3.255-8.474-3.679l-.012-.007-.02-.015-.033-.025-1.324,5.293c-.357,1.444-1.571,1.971-3.144,1.971-4.19,0-10.941-3.733-10.941-3.733l-3.519,2.205a3.976,3.976,0,0,1-.259.53l-.058.089-.01.022a2.354,2.354,0,0,1-.272.34.436.436,0,0,0-.052.054l-.035.025a1.658,1.658,0,0,1-.268.2l-.037.022c-.032.015-.059.024-.089.039a.107.107,0,0,0-.034.01h0a1.055,1.055,0,0,1-.213.066c-.028.005-.056.015-.086.019a.676.676,0,0,1-.087.013h0l-.029,0h0c-.047,0-.1,0-.143,0-.029,0-.059,0-.086,0s-.059,0-.088-.01-.062,0-.091-.008h-.005l-.031,0h0c-.059-.01-.12-.022-.182-.037-.034-.01-.069-.015-.1-.025a3.3,3.3,0,0,1-.354-.111l-.172-.067c-.074-.032-.15-.069-.226-.1-.135-.064-.271-.128-.408-.2h0c-1.131-.581-2.328-1.4-3.37-1.4-.063,0-.125,0-.187.01l0,0a1.822,1.822,0,0,0-1.379.968,1.624,1.624,0,0,1-1.42.865c-2.6,0-6.506-5.722-6.506-5.722s-1.991-2.444-3.934-2.444a2.53,2.53,0,0,0-2.222,1.565c-.391.7-.778.99-1.153.99-1.756,0-3.249-6.286-3.249-6.286a1.8,1.8,0,0,0-.592-.071c-1.028,0-3.5.448-8.211,3.6a4.114,4.114,0,0,1-2.175.85c-3.652,0-1.344-10.558-1.344-10.558a82.006,82.006,0,0,1-8.213.394,70.011,70.011,0,0,1-7.629-.394c-7.923-.882-.882-6.178-.882-6.178a12.18,12.18,0,0,1-2.119.141,39.123,39.123,0,0,1-11.084-1.9c-8.806-2.649-.88-8.826-.88-8.826a10.836,10.836,0,0,1-4.4-6.618c-.882-4.411,0-5.3,0-5.3s-2.2-.441-3.079-6.175,7.92-8.385,7.92-8.385a30.57,30.57,0,0,1-5.721-10.147c-1.759-5.741,4.4-8.385,4.4-8.385s-2.2-2.649-3.52-8.382,5.721-9.708,5.721-9.708-6.6-3.526-3.519-9.265c1.6-2.984,3.443-3.7,4.839-3.7a4.3,4.3,0,0,1,2.2.611s.13-.485.361-1.254v0a46.916,46.916,0,0,1,2.31-6.138c.014-.035.032-.067.047-.1.133-.281.267-.554.407-.821.016-.032.033-.062.047-.091a17.893,17.893,0,0,1,.951-1.614l.117-.17c.128-.183.255-.362.387-.53.046-.059.088-.116.132-.168.172-.212.347-.409.521-.589a7.95,7.95,0,0,1,5.7-2.321,6.5,6.5,0,0,1,1.343.118s.063-.244.192-.65v-.01c.044-.135.088-.281.145-.446l0-.008c.666-2.018,2.313-6.288,4.942-8.595a4.963,4.963,0,0,1,3.34-1.033c4.1,0,9.423,2.795,9.423,2.795s-.442-4.857,4.841-10.588a5.684,5.684,0,0,1,4.306-2.006c4.3,0,8.455,4.652,8.455,4.652s0-2.208,5.721-7.5a5.924,5.924,0,0,1,4.143-1.636m0-2.806h0a8.741,8.741,0,0,0-6.038,2.38,35.509,35.509,0,0,0-4.655,5.058,13.289,13.289,0,0,0-7.626-2.956,8.521,8.521,0,0,0-6.363,2.91,21.4,21.4,0,0,0-5.008,8.452,21.511,21.511,0,0,0-7.2-1.557,7.606,7.606,0,0,0-5.183,1.725c-2.733,2.4-4.5,6.308-5.441,8.912a10.708,10.708,0,0,0-7.021,3.13,10.217,10.217,0,0,0-.7.788c-.045.052-.089.111-.138.168l-.036.059c-.165.2-.323.424-.5.685l-.05.064-.071.111a19.776,19.776,0,0,0-1.1,1.865l-.056.1c-.153.3-.3.6-.448.9l-.053.113a46.542,46.542,0,0,0-2.035,5.189c-.1,0-.2,0-.307,0-2.064,0-5.006.894-7.3,5.172a8.685,8.685,0,0,0-.8,6.71,9.908,9.908,0,0,0,2.232,3.8c-2.6,2.429-4.891,6.088-3.893,10.425a29.911,29.911,0,0,0,2.423,6.859,9.114,9.114,0,0,0-3.254,10.1,31.634,31.634,0,0,0,3.994,8.141c-3.531,1.917-7.011,5.243-6.281,9.994.545,3.546,1.621,5.62,2.683,6.832a17.794,17.794,0,0,0,.418,4.761,13.288,13.288,0,0,0,3.094,6.165,7.58,7.58,0,0,0-1.929,6c.471,2.523,2.509,4.347,6.057,5.411a49.264,49.264,0,0,0,8.491,1.819,4.453,4.453,0,0,0-.02,2.358c.594,2.181,2.649,3.482,6.107,3.866a71.746,71.746,0,0,0,7.938.411c1.843,0,3.509-.056,4.868-.13-.341,3-.327,6.66,1.271,8.649a4.308,4.308,0,0,0,3.419,1.649,6.737,6.737,0,0,0,3.728-1.326,23.989,23.989,0,0,1,5.2-2.789c1.946,6.02,4.419,6.02,5.3,6.02a4.091,4.091,0,0,0,3.6-2.434l.007-.017a6.121,6.121,0,0,1,1.475,1.237c1.484,2.151,5.121,6.825,8.732,6.825a4.349,4.349,0,0,0,3.4-1.646c.283.141.612.323.863.461s.514.286.769.414c.019.007.032.02.05.027.176.089.351.175.523.254l.054.022c.093.044.186.084.241.106.1.039.192.079.3.116a6.275,6.275,0,0,0,.616.2c.068.015.133.034.167.039.126.029.249.054.374.076.045,0,.089.015.135.017l.042,0,.072.007c.1.012.2.022.253.022.079,0,.162.007.243.007s.187,0,.28-.01a1.815,1.815,0,0,0,.207-.015,1.85,1.85,0,0,0,.2-.03c.069-.01.142-.025.209-.037l.062-.015a4.347,4.347,0,0,0,.678-.212l.025-.01a2.776,2.776,0,0,0,.28-.125c.032-.015.06-.03.089-.044s.091-.054.142-.084a4.211,4.211,0,0,0,.658-.483l.067-.057.059-.054c.04-.035.086-.082.116-.111a5.011,5.011,0,0,0,.61-.754c.019-.03.042-.069.061-.1s.035-.059.044-.074a.452.452,0,0,0,.035-.057l1.506-.946c2.418,1.2,7.191,3.312,10.811,3.312,3.032,0,5.22-1.533,5.859-4.1l.384-1.533a15.231,15.231,0,0,0,6.763,2.09,5.918,5.918,0,0,0,5.3-2.878c1.4-2.338,4.365-2.6,5.417-2.622a27.143,27.143,0,0,0,8.778,1.742c4.987,0,8.48-2.238,9.829-6.3.722-2.173,1.673-3.27,2.819-3.27.057,0,.108,0,.16,0a2.078,2.078,0,0,1,.253.029l.039,0,.16.032.069.015c.079.024.155.044.248.074a2.454,2.454,0,0,1,.348.138l.028.013h.007l.1.052.025.007h0l.044.027a2.848,2.848,0,0,0,.98.35,38.383,38.383,0,0,0,5.321.4c2.62,0,6.282-.3,7.854-2.868a4.845,4.845,0,0,0-.037-4.913,20.071,20.071,0,0,0-1.162-2l-.469-1.481c2.266-.709,5.058-2.055,6.434-4.556a7.034,7.034,0,0,0-.009-6.638c-1.539-3.3-2.522-5.5-3.117-6.86a8.137,8.137,0,0,0,2.615-4.8,4.642,4.642,0,0,0-1.377-3.7c-.924-.927-2.027-3.492-2.765-5.645,1.489-1.666,3.62-4.551,3.566-7.365a5.163,5.163,0,0,0-1.839-3.9,8.428,8.428,0,0,1-2.034-2.555c1.831-1.493,4.181-3.923,4.377-6.695a5.272,5.272,0,0,0-1.882-4.413,9.431,9.431,0,0,1-2.655-4.162c1.617-1.259,3.762-3.351,4.163-5.835a5.206,5.206,0,0,0-1.226-4.278,14.283,14.283,0,0,1-1.32-1.833c-.015-.03-.027-.059-.044-.086-.138-.227-.264-.453-.4-.707l-.012-.027c-.207-.392-.406-.811-.588-1.239-.015-.035-.025-.064-.032-.077l-.032-.076c1.583-1.737,3.757-4.771,3.264-7.873a6.156,6.156,0,0,0-4.06-4.719c-.116-.049-.237-.1-.357-.158a7.232,7.232,0,0,0-4.2-7.865,15.019,15.019,0,0,0-3.991-1.358c-.644-4.324-3.073-7.217-6.8-7.931a12.88,12.88,0,0,0-2.445-.244,10.28,10.28,0,0,0-1.124.059,6.819,6.819,0,0,0-.238-.865,7.941,7.941,0,0,0-4.46-4.5,10.883,10.883,0,0,0-4.581-1.062,9.518,9.518,0,0,0-2.576.357l0-.03c0-.037-.009-.121-.015-.158-.044-.288-.1-.589-.177-.934-.012-.059-.022-.111-.04-.182a8.585,8.585,0,0,0-.275-.914,2.526,2.526,0,0,0-.081-.246,7.79,7.79,0,0,0-.4-.879,3.129,3.129,0,0,0-.148-.286,6.117,6.117,0,0,0-.55-.789,3.8,3.8,0,0,0-.26-.328,6.076,6.076,0,0,0-.736-.673,3.788,3.788,0,0,0-.388-.3,5.079,5.079,0,0,0-.914-.473,3.073,3.073,0,0,0-.49-.207,6.268,6.268,0,0,0-1.064-.232,3.65,3.65,0,0,0-.511-.071c-.158-.01-.322-.017-.492-.017a8.369,8.369,0,0,0-1.148.084,31.427,31.427,0,0,0-5.406,1.274c-.494-1.346-1.809-2.986-5.245-3.477a15.656,15.656,0,0,0-2.135-.158,11.771,11.771,0,0,0-4.48.85,5.241,5.241,0,0,0-1.347-1.486,6.277,6.277,0,0,0-3.841-1.109,13.2,13.2,0,0,0-4.723.973c-.845-1.382-2.069-2.826-4.06-2.826h0a3.664,3.664,0,0,0-2.145.682c-2.35-1.9-6.123-4.329-10.052-4.329Z" transform="translate(-1807.649 641.071)" fill="#030504"/>
            </g>
          </g>
          <g id="Group_136" data-name="Group 136" transform="translate(11.757 39.667)">
            <path id="Path_7550" data-name="Path 7550" d="M1888.912-584.029c-2.2,0-5.909-2.558-8.988-5.039-1.988,1.059-7.171,3.711-10.052,3.632-3.458-.044-4.743-5.884-5.153-8.575-2.812-.123-10.441-.478-12.448-.805a2.34,2.34,0,0,1-1.917-1.4,3.3,3.3,0,0,1,.148-2.407c-1.99-.232-5.33-.643-8.693-1.134a3.135,3.135,0,0,1-2.848-2.025c-.555-1.673.6-3.821,1.868-5.529-4.409.466-12.173.779-16.978-1.991-2.283-1.316-3.6-3-3.909-5a7.109,7.109,0,0,1,.811-4.28,15.2,15.2,0,0,1-8-4.327,1.237,1.237,0,0,1,.079-1.737,1.231,1.231,0,0,1,1.736.071c.034.039,3.625,3.866,8.339,3.688a1.272,1.272,0,0,1,1.145.72,1.239,1.239,0,0,1-.2,1.338c-.019.02-1.811,2.052-1.475,4.159a4.847,4.847,0,0,0,2.7,3.228c6.068,3.5,18.469,1.269,18.6,1.249a1.227,1.227,0,0,1,1.307.638,1.236,1.236,0,0,1-.219,1.444c-1.88,1.89-3.765,4.664-3.469,5.547.049.153.39.3.869.367,5.216.761,10.389,1.323,10.438,1.33a1.232,1.232,0,0,1,.993.727,1.249,1.249,0,0,1-.135,1.23,3.986,3.986,0,0,0-.816,1.8c2.3.241,13.1.682,13.21.687a1.232,1.232,0,0,1,1.173,1.1c.383,3.5,1.7,7.417,2.88,7.431h.039c2.339,0,7.655-2.681,9.519-3.721a1.234,1.234,0,0,1,1.378.126c3.357,2.762,7.169,5.1,8,5.022a12.4,12.4,0,0,0,1.873-2.577c1.366-2.163,2.915-4.62,5.082-4.852a13.777,13.777,0,0,1,4.532.678c2.1.535,4.475,1.138,6.008.458.922-.409,1.229-1.136,1.693-2.388.571-1.533,1.354-3.634,4.395-4.107a44,44,0,0,1,6.377-.195c3.559.042,8.4.1,9.539-.983.388-.372-.045-1.572-.426-2.632-.545-1.518-1.162-3.238-.317-4.709a4.2,4.2,0,0,1,3.124-1.836,8.449,8.449,0,0,1,6.771,1.474c1.209.761,1.706,1.077,2.88.448a4.029,4.029,0,0,0,2.22-2.75,3.13,3.13,0,0,1,2.521-2.557,12.3,12.3,0,0,1,3.387.214c2.777.4,5.089.626,5.355-.648a1.222,1.222,0,0,1,1.455-.954,1.227,1.227,0,0,1,.951,1.456c-.762,3.644-5.183,3-8.112,2.585a11.648,11.648,0,0,0-2.632-.222c-.27.044-.307.052-.592.907a6.462,6.462,0,0,1-3.4,4.144c-2.43,1.3-4.05.279-5.348-.542a6,6,0,0,0-5.021-1.128,2.2,2.2,0,0,0-1.433.641c-.275.478.157,1.678.5,2.642.6,1.68,1.354,3.77-.194,5.251-1.727,1.648-5.572,1.732-11.261,1.663a42.044,42.044,0,0,0-5.972.168c-1.548.239-1.892.993-2.465,2.533a5.793,5.793,0,0,1-3,3.778c-2.308,1.03-5.125.31-7.612-.323a12.538,12.538,0,0,0-3.662-.616c-.99.106-2.31,2.2-3.268,3.721-1.042,1.651-1.94,3.075-3.088,3.555A2,2,0,0,1,1888.912-584.029Z" transform="translate(-1812.433 624.973)" fill="#030504"/>
          </g>
          <g id="Group_137" data-name="Group 137" transform="translate(70.264 73.596)">
            <path id="Path_7551" data-name="Path 7551" d="M1839.537-532.108a1.235,1.235,0,0,1-1.109-.7c-1.121-2.341-2.406-5.4-2.158-6.695.265-1.36,1.644-1.582,2.559-1.727a3.434,3.434,0,0,0,2.376-1.023c.415-.547.334-.912-.172-2.117a6.152,6.152,0,0,1-.656-3.211c.214-1.727,1.751-2.673,2.988-3.43.674-.416,1.6-.983,1.613-1.348a2.259,2.259,0,0,0-.585-1.575,4.453,4.453,0,0,1-.976-2.555,3.309,3.309,0,0,1,1.305-2.7c.373-.338.371-.36.361-.449a6.479,6.479,0,0,0-.768-.793c-1.164-1.1-2.924-2.767-2.565-5.938.4-3.511,3.509-5.894,5.178-7.175.247-.195.545-.419.722-.574a24.12,24.12,0,0,0-.858-3.405,22.881,22.881,0,0,1-1.062-4.6c-.063-1.505,1-2.629,2.033-3.718,1.177-1.244,2.4-2.53,2.406-4.509,0-1.015-.179-1.1-1.645-1.306-1.327-.19-3.8-.537-3.956-3.753a6.926,6.926,0,0,1,3.684-6.288c-2.315-2.666-3.861-7.269-4.063-7.885a1.23,1.23,0,0,1,.787-1.552,1.224,1.224,0,0,1,1.55.788c.811,2.489,2.77,6.843,4.571,7.922a1.227,1.227,0,0,1,.59,1.2,1.238,1.238,0,0,1-.853,1.032c-.164.052-3.981,1.3-3.814,4.654.058,1.143.4,1.235,1.847,1.437,1.319.187,3.777.532,3.76,3.76-.015,2.954-1.786,4.827-3.081,6.192-.676.717-1.377,1.459-1.357,1.919a22.323,22.323,0,0,0,.961,4.007c.89,3.006,1.29,4.494.625,5.431a6.78,6.78,0,0,1-1.354,1.2c-1.472,1.131-3.942,3.028-4.225,5.5-.224,1.946.809,2.922,1.806,3.866a3.914,3.914,0,0,1,1.529,2.348,2.848,2.848,0,0,1-1.157,2.511c-.428.387-.508.49-.5.806a2.124,2.124,0,0,0,.538,1.224,4.683,4.683,0,0,1,1.023,3.075c-.066,1.678-1.578,2.6-2.789,3.349-.826.508-1.765,1.084-1.831,1.634a4,4,0,0,0,.484,1.954c.5,1.193,1.184,2.824-.14,4.566a5.668,5.668,0,0,1-3.944,1.961c-.15.022-.335.052-.487.081a31.351,31.351,0,0,0,1.917,4.842,1.236,1.236,0,0,1-.575,1.643A1.246,1.246,0,0,1,1839.537-532.108Zm8.115-41.844Z" transform="translate(-1836.239 611.203)" fill="#030504"/>
          </g>
          <g id="Group_138" data-name="Group 138" transform="translate(100.769 89.833)">
            <ellipse id="Ellipse_408" data-name="Ellipse 408" cx="2.482" cy="5.857" rx="2.482" ry="5.857" transform="translate(0 0.958) rotate(-11.13)" fill="#030504"/>
          </g>
          <g id="Group_139" data-name="Group 139" transform="translate(130.783 84.998)">
            <ellipse id="Ellipse_409" data-name="Ellipse 409" cx="2.482" cy="5.857" rx="2.482" ry="5.857" transform="translate(0 0.958) rotate(-11.13)" fill="#030504"/>
          </g>
          <g id="Group_140" data-name="Group 140" transform="translate(112.955 107.435)">
            <path id="Path_7552" data-name="Path 7552" d="M1857.276-591.833a3.935,3.935,0,0,1-3.5-1.722,1.232,1.232,0,0,1,.459-1.681,1.23,1.23,0,0,1,1.656.429c.072.1.61.742,2.171.426a2.7,2.7,0,0,0,2.087-2.09,1.226,1.226,0,0,1,1.433-.978,1.223,1.223,0,0,1,.983,1.417,5.193,5.193,0,0,1-4.028,4.071A6.5,6.5,0,0,1,1857.276-591.833Z" transform="translate(-1853.61 597.47)" fill="#030504"/>
          </g>
          <g id="Group_141" data-name="Group 141" transform="translate(119.466 106.91)">
            <path id="Path_7553" data-name="Path 7553" d="M1860.682-592.936a5.282,5.282,0,0,1-4.232-2.341,1.235,1.235,0,0,1,.384-1.7,1.234,1.234,0,0,1,1.7.384,2.682,2.682,0,0,0,2.71,1.133c1.605-.315,1.829-1.131,1.848-1.224a1.238,1.238,0,0,1,1.416-.981,1.2,1.2,0,0,1,1.015,1.34c-.12.966-1.061,2.742-3.8,3.285A5.548,5.548,0,0,1,1860.682-592.936Z" transform="translate(-1856.26 597.683)" fill="#030504"/>
          </g>
          <g id="Group_142" data-name="Group 142" transform="translate(52.283 109.448)">
            <path id="Path_7554" data-name="Path 7554" d="M1897.412-556.493a3.683,3.683,0,0,1-1.659-.4l-64.8-32.767a3.7,3.7,0,0,1-1.63-4.965,3.686,3.686,0,0,1,4.952-1.636l64.806,32.767a3.7,3.7,0,0,1,1.629,4.965A3.686,3.686,0,0,1,1897.412-556.493Z" transform="translate(-1828.923 596.653)" fill="#030504"/>
          </g>
          <g id="Group_143" data-name="Group 143" transform="translate(109.901 134.207)">
            <path id="Path_7555" data-name="Path 7555" d="M1859.116-566.177a3.689,3.689,0,0,1-3.429-2.341l-3.062-7.777a3.7,3.7,0,0,1,1.312-4.383l7.469-5.256a3.678,3.678,0,0,1,5.134.9,3.7,3.7,0,0,1-.9,5.15l-5.092,3.58,2,5.069a3.7,3.7,0,0,1-2.077,4.795A3.691,3.691,0,0,1,1859.116-566.177Z" transform="translate(-1852.367 586.604)" fill="#030504"/>
          </g>
        </g>
        <g id="Group_145" data-name="Group 145" transform="translate(211.425 86.165)">
          <path id="Path_7556" data-name="Path 7556" d="M1897.363-600.979a3.691,3.691,0,0,1-3.591-2.868,3.7,3.7,0,0,1,2.765-4.431l46.044-10.647a3.686,3.686,0,0,1,4.42,2.772,3.694,3.694,0,0,1-2.765,4.43l-46.043,10.647A3.728,3.728,0,0,1,1897.363-600.979Z" transform="translate(-1893.678 619.021)" fill="#030504"/>
        </g>
        <g id="Group_146" data-name="Group 146" transform="translate(213.599 89.102)">
          <path id="Path_7557" data-name="Path 7557" d="M1898.469-596.676a3.663,3.663,0,0,1-2.335-.838,3.705,3.705,0,0,1-.514-5.2l3.448-4.214-3.757-4.97a3.7,3.7,0,0,1,.71-5.179,3.679,3.679,0,0,1,5.166.715l5.51,7.294a3.706,3.706,0,0,1-.086,4.576l-5.289,6.465A3.678,3.678,0,0,1,1898.469-596.676Z" transform="translate(-1894.562 617.829)" fill="#030504"/>
        </g>
        <g id="Group_147" data-name="Group 147" transform="translate(275.185 98.563)">
          <path id="Path_7558" data-name="Path 7558" d="M1923.3-538.506a3.691,3.691,0,0,1-3.667-3.364,3.7,3.7,0,0,1,3.34-4.016l6.769-.611,3.521-64a3.655,3.655,0,0,1,3.886-3.487,3.694,3.694,0,0,1,3.478,3.893l-3.7,67.187a3.692,3.692,0,0,1-3.35,3.479l-9.944.9Q1923.469-538.506,1923.3-538.506Z" transform="translate(-1919.621 613.989)" fill="#030504"/>
        </g>
        <g id="Group_148" data-name="Group 148" transform="translate(327.645 106.756)">
          <path id="Path_7559" data-name="Path 7559" d="M1947.471-533.877a3.693,3.693,0,0,1-3.491-2.5,3.7,3.7,0,0,1,2.3-4.691l6.431-2.2-11.683-63.015a3.7,3.7,0,0,1,2.949-4.31,3.676,3.676,0,0,1,4.3,2.959l12.268,66.154a3.7,3.7,0,0,1-2.436,4.172l-9.447,3.235A3.675,3.675,0,0,1,1947.471-533.877Z" transform="translate(-1940.967 610.664)" fill="#030504"/>
        </g>
        <g id="Group_197" data-name="Group 197" transform="translate(238.134)">
          <g id="Group_195" data-name="Group 195" transform="translate(2.801 2.808)">
            <g id="Group_149" data-name="Group 149">
              <path id="Path_7560" data-name="Path 7560" d="M1980.626-647.246s8.8-9.265,14.524-3.97,5.721,7.5,5.721,7.5,7.479-8.38,12.76-2.646,4.842,10.588,4.842,10.588,9.243-4.857,12.763-1.762,5.281,9.706,5.281,9.706a8.084,8.084,0,0,1,7.043,2.205c3.079,3.09,5.281,11.47,5.281,11.47s3.958-2.649,7.039,3.092-3.52,9.265-3.52,9.265,7.042,3.975,5.721,9.706-3.519,8.385-3.519,8.385,6.159,2.644,4.4,8.385a30.511,30.511,0,0,1-5.721,10.145s8.8,2.649,7.921,8.385-3.08,6.175-3.08,6.175.883.887,0,5.3a10.819,10.819,0,0,1-4.4,6.616s7.925,6.18-.879,8.826-13.2,1.764-13.2,1.764,7.041,5.3-.882,6.18a81.484,81.484,0,0,1-15.842,0s3.083,14.117-3.519,9.706-8.8-3.526-8.8-3.526-2.2,9.265-4.4,5.293-6.157.88-6.157.88-5.723,8.388-7.926,4.857-6.6,3.972-8.36-.441l-3.52-2.208s-12.765,7.057-14.083,1.764l-1.326-5.3s-8.8,6.618-11.437,2.208-8.361-3.969-8.361-3.969-12.766,5.293-15.4-2.651-8.361-4.411-8.361-4.411-13.2,1.321-9.683-3.529.88-1.764.88-1.764l1.32-4.857s-10.566-1.321-7.483-7.939,3.962-8.826,3.962-8.826-4.845-3.526-2.643-5.736,3.962-8.383,3.962-8.383-6.159-5.739-3.076-8.385a10.257,10.257,0,0,0,3.517-5.736s-7.479-4.854-3.959-7.942a12.629,12.629,0,0,0,3.959-7.5s-6.6-3.972-3.959-7.057A18.167,18.167,0,0,0,1911.53-604s-7.481-6.618-1.319-9.267a26.819,26.819,0,0,0,10.122-8.378s1.758-7.946,4.4-7.508a49.959,49.959,0,0,0,6.6.444s.882-8.383,4.4-7.06a22.52,22.52,0,0,0,7.04,1.323s-1.759-9.711,4.4-8.826a26.525,26.525,0,0,1,10.123,3.531s-4.836-4.854,1.322-5.734,8.361,3.087,8.361,3.087-.879-3.087.878-4.411,6.6,0,7.483,1.323S1977.984-652.978,1980.626-647.246Z" transform="translate(-1905.685 652.851)" fill="#ded8be"/>
            </g>
            <g id="Group_150" data-name="Group 150" transform="translate(46.402 61.863)">
              <path id="Path_7561" data-name="Path 7561" d="M1956.516-541.272a2.151,2.151,0,0,0,.316.38c.02.015.04.034.065.052a1.443,1.443,0,0,0,.344.224l.059.024a1.515,1.515,0,0,0,.389.1l.03,0a2.157,2.157,0,0,0,.417-.015l.032,0a3.533,3.533,0,0,0,.44-.111.272.272,0,0,0,.063-.02,4.374,4.374,0,0,0,.448-.173.77.77,0,0,1,.076-.034c.15-.072.3-.145.453-.224l.02-.01c.709-2.472,3.034-7.173,3.848-9.868a6.081,6.081,0,0,0-1.238-5.51s-3.414-3.122-1.632-4.016,4.306-5.8,4.306-5.8-2.079,1.338-2.674,1.784-2.669,3.272-2.816.742a16.527,16.527,0,0,0-.893-4.46,60.034,60.034,0,0,1,4.3-4.76c1.632-1.493,2.967-5.064,2.967-5.064s-4.3,4.467-5.194,1.34-4.151-5.206-4.151-5.206,1.482-3.866,4-5.354a4.8,4.8,0,0,0,2.374-4.166,30.848,30.848,0,0,1-3.561,2.38c-2.079,1.19-2.376-1.636-2.521-3.718s-.742-5.209-.742-5.209a40.673,40.673,0,0,0,7.419-2.531c2.969-1.483-.3-5.5-.3-5.5a20.741,20.741,0,0,1-2.077,3.42c-.74.744-2.819-.148-2.819-1.934s-3.113-4.909-3.113-4.909l2.816-5.209s2.669.741,6.975,1.488a3.7,3.7,0,0,0,4.6-3.42s-5.787-10.265-6.824-10.415a30.573,30.573,0,0,0-6.085-.747c-1.927.151-13.947,3.423-17.211,4.019s-15.432,18.6-14.842,23.359c.578,4.6,5.166,36.145,10.294,54.238,1.212-.707,2.1-1.348,2.325-1.511l.02-.015.032-.025,1.325,5.3c1.319,5.293,14.084-1.764,14.084-1.764l3.519,2.208a3.879,3.879,0,0,0,.292.581A.529.529,0,0,1,1956.516-541.272Z" transform="translate(-1924.566 627.744)" fill="#cdc7ac"/>
            </g>
            <g id="Group_153" data-name="Group 153" transform="translate(68.384 23.909)">
              <g id="Group_151" data-name="Group 151">
                <path id="Path_7562" data-name="Path 7562" d="M1965.592-524.665c2.2,3.972,4.4-5.293,4.4-5.293s2.2-.884,8.8,3.526,3.519-9.706,3.519-9.706a81.486,81.486,0,0,0,15.842,0c7.923-.885.882-6.18.882-6.18s4.4.885,13.2-1.764.88-8.826.88-8.826a10.819,10.819,0,0,0,4.4-6.616c.882-4.411,0-5.3,0-5.3s2.2-.441,3.079-6.175-7.92-8.385-7.92-8.385a30.513,30.513,0,0,0,5.721-10.145c1.76-5.741-4.4-8.385-4.4-8.385s2.2-2.651,3.519-8.385S2011.8-616,2011.8-616s6.6-3.529,3.52-9.265-7.039-3.092-7.039-3.092-2.2-8.38-5.282-11.47a8.082,8.082,0,0,0-7.043-2.205s-.114-.431-.34-1.114c-4.354.857-7.5,1.532-7.5,1.532l18,13.128s7.53.983,7.53,3.938-4.581,6.231-5.564,6.559a8.575,8.575,0,0,1-2.293.33s6.22,1.644,4.91,7.875-4.253,8.533-4.253,8.533l-4.584.33,8.837,2.622s5.565,6.894,3.274,9.846-6.873,7.873-8.184,6.89a15.042,15.042,0,0,0-2.942-1.639s3.274,5.909,5.235,4.921a8.134,8.134,0,0,1,3.274-.981s5.235,3.6,4.254,6.887-6.547,4.268-6.547,4.268-2.293,2.954.327,3.282,5.564.66,5.564.66,0,5.574-3.927,5.574h-5.564s7.852,7.875,4.911,9.846-7.857,2.624-10.474,2.3-10.472-4.923-10.472-4.923,8.835,10.5,1.961,11.482a52.86,52.86,0,0,1-10.8.655l-2.947-6.231s3.6,13.779.327,14.767-6.871-2.3-6.871-2.3l-3.557-7.116c.361.724,2.608,5.653-1.027,7.776-3.93,2.294-6.547,0-6.547,0s3.268,3.938-1.966,5.576-7.2,0-7.528-1.641-7.849-8.855-11.125-7.875c-2.58.778-7.166,7.885-5.478,17.29a46.305,46.305,0,0,0,5.756-2.592l3.519,2.208c1.76,4.413,6.161-3.09,8.361.441s7.926-4.857,7.926-4.857S1963.4-528.634,1965.592-524.665Z" transform="translate(-1933.51 643.147)" fill="#cdc7ac"/>
              </g>
              <g id="Group_152" data-name="Group 152" transform="translate(33.989 102.934)">
                <path id="Path_7563" data-name="Path 7563" d="M1947.387-601.271l-.047-.1Z" transform="translate(-1947.34 601.372)" fill="#cdc7ac"/>
              </g>
            </g>
            <g id="Group_154" data-name="Group 154" transform="translate(0 25.203)">
              <path id="Path_7564" data-name="Path 7564" d="M1966.1-520.582l-1.326-5.295s-8.8,6.618-11.437,2.208-8.361-3.97-8.361-3.97-12.766,5.292-15.4-2.651-8.361-4.41-8.361-4.41-12.927,2.015-10.216-3.331a16.828,16.828,0,0,1,1.209-2.02l1.524-4.8s-10.566-1.321-7.483-7.939,3.962-8.826,3.962-8.826-4.845-3.526-2.643-5.736,3.962-8.382,3.962-8.382-6.159-5.739-3.076-8.385a10.257,10.257,0,0,0,3.517-5.736s-7.479-4.854-3.959-7.942a12.629,12.629,0,0,0,3.959-7.5s-6.6-3.972-3.959-7.057a18.168,18.168,0,0,0,3.519-6.621s-7.481-6.619-1.319-9.267a26.822,26.822,0,0,0,10.122-8.378,23.253,23.253,0,0,1,2.237-6c16.6,12.931,31.9,26.676,31.9,26.676s25.234,11.876,28.665,17.039-3.6,11.7-3.6,11.7a11.559,11.559,0,0,1,3.438,2.067c.858,1.03,2.06,5.677-2.06,6.712s-1.545,5.507-1.545,5.507,1.718,1.722,2.92,2.925.853,4.132.169,6.715a44.341,44.341,0,0,1-1.388,4.373,15.19,15.19,0,0,1,5.281,4.635c2.641,3.474-3.138,8.109-3.138,8.109a9.565,9.565,0,0,1,2.148,3.8c.661,2.316-1.979,4.632-1.979,4.632a23.727,23.727,0,0,0,3.959,2.814c2.969,1.821.273,8.119.273,8.119s9.16-.118,3.076,6.133c-2.322-.236-5.537,4.13-6.976.52l-3.52-2.208S1967.424-515.289,1966.1-520.582Z" transform="translate(-1905.685 642.622)" fill="#e6e6d2"/>
            </g>
            <g id="Group_155" data-name="Group 155" transform="translate(0 37.301)">
              <path id="Path_7565" data-name="Path 7565" d="M1923.747-542.655a4.876,4.876,0,0,0-3.543-.025c-3.308.985-6.616-2.1-5.688-3.726s3.267-12.17,3.267-12.17l-3.5,4.605s-5.252-2.853-5.03-6.579,5.906-11.844,5.906-11.844l-3.5,1.754s-1.969-2.851-.657-5.261a82.264,82.264,0,0,0,3.5-9.432h-1.314c-1.311,0-2.622-2.851-1.093-5.263a29.079,29.079,0,0,0,2.624-6.8l2.628-2.629a22.109,22.109,0,0,1-5.031-.219c-1.972-.438-2.407-2.634-1.1-5.046a37.048,37.048,0,0,0,2.409-7.018l3.5-2.19a19.316,19.316,0,0,1-5.689-3.731c-2.407-2.412,7.439-9.649,7.439-9.649l-.027-7.58s-2.139-1.049-4.665-2.257a21.037,21.037,0,0,1-3.976,2.279c-6.162,2.649,1.319,9.267,1.319,9.267a18.167,18.167,0,0,1-3.519,6.621c-2.64,3.085,3.959,7.057,3.959,7.057a12.629,12.629,0,0,1-3.959,7.5c-3.519,3.087,3.959,7.941,3.959,7.941a10.257,10.257,0,0,1-3.517,5.736c-3.083,2.647,3.076,8.385,3.076,8.385s-1.757,6.175-3.962,8.383,2.643,5.736,2.643,5.736-.88,2.205-3.962,8.826,7.483,7.939,7.483,7.939l-1.524,4.8A16.831,16.831,0,0,0,1911-545.22c-2.711,5.347,10.216,3.331,10.216,3.331A6.1,6.1,0,0,1,1923.747-542.655Z" transform="translate(-1905.685 637.712)" fill="#f3fafa"/>
            </g>
            <g id="Group_156" data-name="Group 156" transform="translate(2.092)">
              <path id="Path_7566" data-name="Path 7566" d="M2042.32-625.622a8.082,8.082,0,0,0-7.043-2.205s-1.76-6.621-5.282-9.706-12.763,1.762-12.763,1.762.442-4.857-4.842-10.588-12.76,2.646-12.76,2.646,0-2.208-5.721-7.5-14.524,3.97-14.524,3.97c-2.642-5.731-4.4,3.092-5.282,1.769s-5.722-2.649-7.484-1.323-.878,4.411-.878,4.411-2.2-3.969-8.36-3.087-1.322,5.734-1.322,5.734a26.536,26.536,0,0,0-10.123-3.531c-6.058-.867-4.463,8.469-4.407,8.8a7.416,7.416,0,0,0-8.879-1.69c-4.186,1.939-3.4,5.147-2.5,6.971-.009.1-.022.177-.029.244-1.013-.966-2.983-2.1-6.387-1.454-5.51,1.06-4.645,8.76-4.645,8.76a26.815,26.815,0,0,1-10.122,8.378c-6.162,2.649,1.319,9.267,1.319,9.267a17.8,17.8,0,0,1-1.878,4.312c4.432.084,8.278-4.314,8.278-4.314s4.763-.441,4.763,4.452,8.575,0,8.575,0,7.616-.89,3.81,5.78,13.335,2.666,13.335,2.666,7.622-.443,6.193,5.337,11.428,1.776,11.428,1.776,4.289-1.336,6.669,5.337,10.959-3.11,10.959-3.11,3.334.441,9.525,3.556,5.716-8.006,5.716-8.006,5.237-.446,10.954-.446,2.379-4,2.379-4,5.243-.444,10.484-1.335-1.909-8-1.909-8,.672-.081,1.835-.18a103.266,103.266,0,0,1,13.883-.261c8.1.441,5.243-10.233,5.243-10.233s6.191,0,6.664-4c.03-.239.03-.488.047-.732C2046.5-617.865,2044.665-623.274,2042.32-625.622Z" transform="translate(-1906.536 652.851)" fill="#f3fafa"/>
            </g>
            <g id="Group_157" data-name="Group 157" transform="translate(24.412 14.094)">
              <path id="Path_7567" data-name="Path 7567" d="M1965.68-646.809s-33.824,13.794-41.136,18.97l-6.883,3.45s-4.3,3.45-.428,6.034,37.623,17.16,47.516,18.885c0,0,4.527,2.247,14.847-2.5s35.272-19.4,35.272-19.4,4.729-3.455-2.151-7.766-34.566-15.945-34.566-15.945S1970.841-648.1,1965.68-646.809Z" transform="translate(-1915.618 647.131)" fill="#1e3216"/>
            </g>
            <g id="Group_158" data-name="Group 158" transform="translate(29.434 17.041)">
              <path id="Path_7568" data-name="Path 7568" d="M1962.276-645.662s-30.14,11.739-36.66,16.142l-6.135,2.94s-3.832,2.935-.378,5.133,33.528,14.6,42.344,16.068c0,0,4.033,1.912,13.235-2.121s31.435-16.512,31.435-16.512,4.215-2.942-1.916-6.608-30.8-13.567-30.8-13.567S1966.877-646.759,1962.276-645.662Z" transform="translate(-1917.661 645.935)" fill="#4b1414"/>
            </g>
            <g id="Group_159" data-name="Group 159" transform="translate(29.434 17.041)">
              <path id="Path_7569" data-name="Path 7569" d="M1982.011-640.661c-4.9-2.037-8.614-3.529-8.614-3.529s-6.52-2.57-11.121-1.473c0,0-30.14,11.739-36.66,16.142l-6.135,2.94s-3.832,2.935-.378,5.133c1.793,1.148,10.823,5.061,20.3,8.757,12.023-.1,24.417-3.161,33.33-9.019C1980.77-626.985,1982.029-635.641,1982.011-640.661Z" transform="translate(-1917.661 645.935)" fill="#f77a16"/>
            </g>
            <g id="Group_160" data-name="Group 160" transform="translate(47.067 21.906)">
              <path id="Path_7570" data-name="Path 7570" d="M1971.554-643.551c-.339-.141-.657-.276-.984-.409-.282,3.3-1.137,8.479-2.379,11.362-1.529,3.546-19.418,13.33-25.255,14.582-4.593.981-14.212.89-18.1.808,1.348.542,2.724,1.087,4.114,1.626,12.023-.1,24.416-3.161,33.33-9.019C1970.312-629.876,1971.57-638.532,1971.554-643.551Z" transform="translate(-1924.836 643.96)" fill="#d15815"/>
            </g>
            <g id="Group_161" data-name="Group 161" transform="translate(90.645 23.781)">
              <path id="Path_7571" data-name="Path 7571" d="M1967.9-634.627c-3.214-1.92-11.509-5.552-18.688-8.572-1.413,2.343-6.146,10.531-6.605,15.738-.447,5.1,3.379,8.158,10.344,8.644,8.557-4.543,16.867-9.2,16.867-9.2S1974.029-630.96,1967.9-634.627Z" transform="translate(-1942.568 643.199)" fill="#c9da82"/>
            </g>
            <g id="Group_162" data-name="Group 162" transform="translate(91.825 33.487)">
              <path id="Path_7572" data-name="Path 7572" d="M1943.048-628.554c1.583,2.279,4.741,3.661,9.2,3.969,8.558-4.544,16.867-9.2,16.867-9.2s3.348-2.358-.327-5.475c.05,1.271.035,3.588-.771,4.529-1.1,1.279-10.489,5.946-13.136,7.225s-10.034-1.461-10.034-1.461Z" transform="translate(-1943.048 639.26)" fill="#9fbe78"/>
            </g>
            <g id="Group_163" data-name="Group 163" transform="translate(91.936 23.781)">
              <path id="Path_7573" data-name="Path 7573" d="M1967.131-634.627c-3.214-1.92-11.509-5.552-18.687-8.572a72,72,0,0,0-5.152,10.3c-.12,1.565-.2,2.644-.2,2.644s6.311-9.267,6.688-9.585,2.628-.12,4.753.944,10.249,3.883,13.436,6.515a5.188,5.188,0,0,1,1.974,3.413C1970.719-630.123,1971.167-632.215,1967.131-634.627Z" transform="translate(-1943.093 643.199)" fill="#ebe995"/>
            </g>
            <g id="Group_164" data-name="Group 164" transform="translate(62.397 44.867)">
              <path id="Path_7574" data-name="Path 7574" d="M1967.526-630.2a19.735,19.735,0,0,1-3.249-1.215c-3.312-1.582-7.1-3.637-12.3-3.161s-15.3,4.583-18.614,6.165a5.244,5.244,0,0,0-2.285,3.339,78.823,78.823,0,0,0,10.823,3.154s4.033,1.912,13.235-2.121C1958.233-625.4,1962.817-627.717,1967.526-630.2Z" transform="translate(-1931.075 634.641)" fill="#a43637"/>
            </g>
            <g id="Group_165" data-name="Group 165" transform="translate(68.043 48.813)">
              <path id="Path_7575" data-name="Path 7575" d="M1964.178-632.54c-.474-.131-1-.3-1.556-.5-2.16.909-4.91,2.331-6.955,3.472-3.286,1.831-9.214,4.295-13.5,4.568a55.769,55.769,0,0,1-8.793-.572,45.638,45.638,0,0,0,5.178,1.313s4.033,1.912,13.235-2.121C1954.885-627.742,1959.468-630.061,1964.178-632.54Z" transform="translate(-1933.372 633.04)" fill="#8c1f2d"/>
            </g>
            <g id="Group_166" data-name="Group 166" transform="translate(29.434 17.041)">
              <path id="Path_7576" data-name="Path 7576" d="M1922.795-625.255c2.9-1.454,40.585-19.308,43.068-19.308,1.973,0,12.04,4.056,16.092,5.726.04-.645.059-1.261.056-1.823-4.9-2.037-8.614-3.529-8.614-3.529s-6.52-2.57-11.121-1.473c0,0-30.14,11.739-36.66,16.142l-6.135,2.94s-3.832,2.935-.378,5.133c1.793,1.148,10.823,5.061,20.3,8.757.428,0,.855-.037,1.285-.047-5.259-2.833-12.821-6.9-14.792-7.951C1922.795-622.353,1919.895-623.8,1922.795-625.255Z" transform="translate(-1917.661 645.935)" fill="#fd992f"/>
            </g>
            <g id="Group_167" data-name="Group 167" transform="translate(53.458 27.531)">
              <path id="Path_7577" data-name="Path 7577" d="M1929.273-639.964a44.572,44.572,0,0,1,2.433,8.821,40.932,40.932,0,0,1-.187,9.383s-1.5-10.324-2.435-13.136-2.06-7.133-1.5-6.759A13.732,13.732,0,0,1,1929.273-639.964Z" transform="translate(-1927.437 641.677)" fill="#ffb155"/>
            </g>
            <g id="Group_168" data-name="Group 168" transform="translate(64.602 23.012)">
              <path id="Path_7578" data-name="Path 7578" d="M1933.8-641.8a44.511,44.511,0,0,1,2.436,8.819,40.718,40.718,0,0,1-.19,9.383s-1.5-10.322-2.428-13.138-2.062-7.129-1.5-6.754A13.384,13.384,0,0,1,1933.8-641.8Z" transform="translate(-1931.971 643.511)" fill="#ffb155"/>
            </g>
            <g id="Group_169" data-name="Group 169" transform="translate(77.29 18.426)">
              <path id="Path_7579" data-name="Path 7579" d="M1938.97-643.659a44.436,44.436,0,0,1,2.433,8.821,40.79,40.79,0,0,1-.187,9.385s-1.5-10.329-2.433-13.141-2.059-7.131-1.5-6.756A13.788,13.788,0,0,1,1938.97-643.659Z" transform="translate(-1937.134 645.372)" fill="#ffb155"/>
            </g>
            <g id="Group_170" data-name="Group 170" transform="translate(36.759 36.408)">
              <path id="Path_7580" data-name="Path 7580" d="M1924.359-638.074s-3.838,1.281-3.714,2.6,2.64,2.07,2.807,1.7-1.074-1.24,0-2.109S1926.091-638.115,1924.359-638.074Z" transform="translate(-1920.642 638.075)" fill="#fd992f"/>
            </g>
            <g id="Group_171" data-name="Group 171" transform="translate(48.845 30.949)">
              <path id="Path_7581" data-name="Path 7581" d="M1928.163-640.29s-2.72.7-2.6,1.53,1.858.7,2.519.207S1929.483-639.921,1928.163-640.29Z" transform="translate(-1925.56 640.29)" fill="#fd992f"/>
            </g>
            <g id="Group_172" data-name="Group 172" transform="translate(56.437 26.686)">
              <path id="Path_7582" data-name="Path 7582" d="M1932.242-642.02s-3.627,1.863-3.5,2.4-.62,1.612.781.909,2.888-1.611,3.589-1.944S1933.563-641.936,1932.242-642.02Z" transform="translate(-1928.649 642.02)" fill="#fd992f"/>
            </g>
            <g id="Group_173" data-name="Group 173" transform="translate(67.019 22.214)">
              <path id="Path_7583" data-name="Path 7583" d="M1936.32-643.788s-3.711.868-3.34,1.656-.042,1.281,1.568.784,4.168-1.737,3.917-2.19S1936.32-643.788,1936.32-643.788Z" transform="translate(-1932.954 643.835)" fill="#fd992f"/>
            </g>
            <g id="Group_174" data-name="Group 174" transform="translate(80.289 20.152)">
              <path id="Path_7584" data-name="Path 7584" d="M1938.354-644.672s.083,1.281.868,1.57,4.372.788,3.63.251A9.488,9.488,0,0,0,1938.354-644.672Z" transform="translate(-1938.354 644.672)" fill="#fd992f"/>
            </g>
            <g id="Group_175" data-name="Group 175" transform="translate(90.645 23.781)">
              <path id="Path_7585" data-name="Path 7585" d="M1944.134-627.109c.251-3.215,5.348-12.87,6.713-15.4-.548-.229-1.1-.466-1.638-.69-1.413,2.343-6.146,10.531-6.605,15.738-.447,5.1,3.379,8.158,10.344,8.644.587-.308,1.174-.625,1.757-.934C1948.172-620.808,1943.893-624.007,1944.134-627.109Z" transform="translate(-1942.568 643.199)" fill="#2e6234"/>
            </g>
            <g id="Group_176" data-name="Group 176" transform="translate(62.397 44.867)">
              <path id="Path_7586" data-name="Path 7586" d="M1956.3-633.219a64.651,64.651,0,0,1,7.894,1.772c-3.291-1.58-7.059-3.6-12.224-3.124-5.208.473-15.3,4.583-18.614,6.165a5.245,5.245,0,0,0-2.285,3.339c.81.281,1.572.537,2.341.786.161-.249.318-.5.472-.746,1.33-2.092,3.038-3.045,7.219-4.76S1952.028-633.786,1956.3-633.219Z" transform="translate(-1931.075 634.641)" fill="#cc4e4b"/>
            </g>
            <g id="Group_177" data-name="Group 177" transform="translate(67.337 51.065)">
              <path id="Path_7587" data-name="Path 7587" d="M1939.776-632.126s-6.451,2.193-6.625,2.809-.168,1.131,1.853,1.466,3.253.054,2.582-.564-1.575-1.124-1.18-1.575S1941.848-631.4,1939.776-632.126Z" transform="translate(-1933.084 632.126)" fill="#cc4e4b"/>
            </g>
            <g id="Group_178" data-name="Group 178" transform="translate(77.084 47.236)">
              <path id="Path_7588" data-name="Path 7588" d="M1946.622-633.68s-8.813,1.86-9.484,2.592,2.693-.456,4.151-.68,3.706-1.18,4.713-1.18S1948.421-633.68,1946.622-633.68Z" transform="translate(-1937.05 633.68)" fill="#cc4e4b"/>
            </g>
            <g id="Group_179" data-name="Group 179" transform="translate(93.593 34.852)">
              <path id="Path_7589" data-name="Path 7589" d="M1945.927-638.649s-2.807,5.063-2.02,6.246,1.349,1.353,1.349.621-.731-.677-.283-2.535S1947.22-639.155,1945.927-638.649Z" transform="translate(-1943.767 638.706)" fill="#ebe995"/>
            </g>
            <g id="Group_180" data-name="Group 180" transform="translate(87.75 78.29)">
              <path id="Path_7590" data-name="Path 7590" d="M1942.187-621.07a9.141,9.141,0,0,1-.651,3.908c-.863,2.607,2.384-.217,2.6-2.171S1942.187-621.07,1942.187-621.07Z" transform="translate(-1941.39 621.077)" fill="#e8e2c6"/>
            </g>
            <g id="Group_181" data-name="Group 181" transform="translate(137.965 52.758)">
              <path id="Path_7591" data-name="Path 7591" d="M1964.636-631.439s5.414,2.6,1.516,4.992-4.33.436-4.33-.212S1965.287-629.485,1964.636-631.439Z" transform="translate(-1961.822 631.439)" fill="#e8e2c6"/>
            </g>
            <g id="Group_182" data-name="Group 182" transform="translate(140.995 41.463)">
              <path id="Path_7592" data-name="Path 7592" d="M1966.306-636.023s2.814,2.609-.218,3.474-3.032-.431-3.032-.431Z" transform="translate(-1963.055 636.023)" fill="#e8e2c6"/>
            </g>
            <g id="Group_183" data-name="Group 183" transform="translate(143.067 71.426)">
              <path id="Path_7593" data-name="Path 7593" d="M1964.859-623.854c.629-.155,4.119,1.737,2.6,4.344s-2.6,1.957-3.252-.651S1963.994-623.634,1964.859-623.854Z" transform="translate(-1963.898 623.863)" fill="#e8e2c6"/>
            </g>
            <g id="Group_184" data-name="Group 184" transform="translate(143.811 91.642)">
              <path id="Path_7594" data-name="Path 7594" d="M1966.582-615.45s2.387,2.39.867,3.476-3.248.215-3.248-.434S1965.071-616.535,1966.582-615.45Z" transform="translate(-1964.201 615.658)" fill="#e8e2c6"/>
            </g>
            <g id="Group_185" data-name="Group 185" transform="translate(135.67 112.631)">
              <path id="Path_7595" data-name="Path 7595" d="M1964.048-606.851c2.166,1.084,6.068,3.043,3.033,2.826s-5.2-2.176-6.068-2.826S1964.048-606.851,1964.048-606.851Z" transform="translate(-1960.888 607.14)" fill="#e8e2c6"/>
            </g>
            <g id="Group_186" data-name="Group 186" transform="translate(87.835 134.564)">
              <path id="Path_7596" data-name="Path 7596" d="M1941.74-596.643c.892,1.042,1.52,3.691,2.817,1.954s1.517-2.607.216-3.257S1940.443-598.163,1941.74-596.643Z" transform="translate(-1941.424 598.239)" fill="#e8e2c6"/>
            </g>
            <g id="Group_187" data-name="Group 187" transform="translate(82.722 90.227)">
              <path id="Path_7597" data-name="Path 7597" d="M1939.344-613.575c.651,2.609-.216,5.867,1.951,3.477s2.166-1.74,2.166-5S1939.344-613.575,1939.344-613.575Z" transform="translate(-1939.344 616.233)" fill="#e8e2c6"/>
            </g>
            <g id="Group_188" data-name="Group 188" transform="translate(116.274 107.339)">
              <path id="Path_7598" data-name="Path 7598" d="M1964.569-609.288s.2,7.8-4.19,9.8a16.871,16.871,0,0,1-7.383,1.8s6.788-2.8,7.783-5.8A17.817,17.817,0,0,1,1964.569-609.288Z" transform="translate(-1952.996 609.288)" fill="#cdc7ac"/>
            </g>
            <g id="Group_189" data-name="Group 189" transform="translate(131.44 92.934)">
              <path id="Path_7599" data-name="Path 7599" d="M1966.751-615.134s2.192,3.4-.4,6.2-7.186.806-7.186.806,4.787-.6,5.785-3S1966.751-615.134,1966.751-615.134Z" transform="translate(-1959.167 615.134)" fill="#cdc7ac"/>
            </g>
            <g id="Group_190" data-name="Group 190" transform="translate(93.327 122.542)">
              <path id="Path_7600" data-name="Path 7600" d="M1943.659-603.118s.2,4.8,4.989,4.2,5.987-3,5.987-3-5.385,2-7.383.8S1943.659-603.118,1943.659-603.118Z" transform="translate(-1943.659 603.118)" fill="#cdc7ac"/>
            </g>
            <g id="Group_191" data-name="Group 191" transform="translate(103.108 108.738)">
              <path id="Path_7601" data-name="Path 7601" d="M1956.019-608.72s0,4.2-2.4,6.2-5.981,1.6-5.981,1.6,4.386,4,7.38-.2S1956.019-608.72,1956.019-608.72Z" transform="translate(-1947.639 608.72)" fill="#cdc7ac"/>
            </g>
            <g id="Group_192" data-name="Group 192" transform="translate(54.507 108.48)">
              <path id="Path_7602" data-name="Path 7602" d="M1930.791-605.1c1.765.281,3.338-.308,3.5-1.313s-1.15-2.052-2.916-2.336-3.336.306-3.495,1.311S1929.025-605.388,1930.791-605.1Z" transform="translate(-1927.864 608.825)" fill="#e94153" fill-rule="evenodd"/>
            </g>
            <g id="Group_193" data-name="Group 193" transform="translate(16.269 99.812)">
              <path id="Path_7603" data-name="Path 7603" d="M1915.107-608.606c1.753.382,3.353-.121,3.567-1.119s-1.035-2.114-2.785-2.491-3.35.121-3.561,1.119S1913.365-608.983,1915.107-608.606Z" transform="translate(-1912.304 612.343)" fill="#e94153" fill-rule="evenodd"/>
            </g>
            <g id="Group_194" data-name="Group 194" transform="translate(6.489 30.266)">
              <path id="Path_7604" data-name="Path 7604" d="M1918.2-639.8s-2.113-2-7.152.471-1.527,8.112-1.527,8.112l7.386-3.41Z" transform="translate(-1908.325 640.567)" fill="#f3fafa"/>
            </g>
          </g>
          <g id="Group_196" data-name="Group 196">
            <path id="Path_7605" data-name="Path 7605" d="M1992.668-651.183a5.939,5.939,0,0,1,4.144,1.636c5.721,5.3,5.721,7.5,5.721,7.5s4.151-4.654,8.454-4.654a5.679,5.679,0,0,1,4.306,2.008c5.284,5.731,4.842,10.588,4.842,10.588s5.318-2.794,9.423-2.794a4.953,4.953,0,0,1,3.339,1.032c2.63,2.3,4.276,6.577,4.942,8.592l0,.007c.056.165.1.313.145.448v.01c.128.406.192.648.192.648a6.5,6.5,0,0,1,1.342-.118,7.957,7.957,0,0,1,5.7,2.323c.174.178.349.375.521.587.044.054.085.111.132.168.131.17.259.347.386.53.04.059.079.113.118.172a17.856,17.856,0,0,1,.952,1.614c.014.03.032.057.046.089.141.266.275.542.408.82.015.032.032.061.047.1a46.911,46.911,0,0,1,2.31,6.138v0c.231.771.362,1.254.362,1.254a4.316,4.316,0,0,1,2.2-.608c1.4,0,3.235.715,4.84,3.7,3.081,5.736-3.52,9.265-3.52,9.265s7.042,3.974,5.721,9.706-3.518,8.385-3.518,8.385,6.159,2.644,4.4,8.385a30.5,30.5,0,0,1-5.72,10.144s8.8,2.649,7.921,8.385-3.08,6.175-3.08,6.175.883.887,0,5.3a10.816,10.816,0,0,1-4.4,6.616s7.926,6.18-.88,8.826a39.052,39.052,0,0,1-11.083,1.907,12,12,0,0,1-2.119-.143s7.041,5.295-.882,6.18a70.022,70.022,0,0,1-7.629.394,81.926,81.926,0,0,1-8.214-.394s2.308,10.558-1.344,10.558a4.12,4.12,0,0,1-2.175-.853c-4.713-3.149-7.183-3.6-8.211-3.6a1.74,1.74,0,0,0-.592.074s-1.492,6.283-3.249,6.283c-.374,0-.762-.288-1.153-.991a2.528,2.528,0,0,0-2.221-1.565c-1.945,0-3.935,2.444-3.935,2.444s-3.907,5.724-6.5,5.724a1.625,1.625,0,0,1-1.421-.867,1.814,1.814,0,0,0-1.379-.966l0,0c-.062,0-.124-.01-.188-.01-1.041,0-2.238.82-3.369,1.4h0c-.138.071-.272.138-.408.2-.077.032-.153.066-.226.1-.057.024-.115.046-.172.066a2.787,2.787,0,0,1-.354.111c-.03.01-.064.015-.1.025-.061.015-.123.03-.181.039h0l-.032.005h0c-.03,0-.064,0-.091.007s-.059.007-.088.01-.057,0-.087,0c-.047,0-.095,0-.142-.005h0l-.031,0h0a.771.771,0,0,1-.086-.012c-.03-.005-.059-.015-.086-.02a1.533,1.533,0,0,1-.214-.067h0a.116.116,0,0,0-.035-.01c-.029-.015-.056-.024-.088-.042l-.036-.022a1.472,1.472,0,0,1-.268-.2l-.035-.025c-.014-.017-.032-.032-.052-.051a2.256,2.256,0,0,1-.273-.342l-.01-.023-.059-.088a3.924,3.924,0,0,1-.258-.528l-3.52-2.208s-6.751,3.736-10.941,3.736c-1.573,0-2.787-.527-3.143-1.971l-1.324-5.295-.032.025-.02.015-.012.01c-.575.424-5.119,3.677-8.474,3.677a3.139,3.139,0,0,1-2.9-1.518c-2.2-3.679-6.547-3.982-7.929-3.982-.275,0-.432.012-.432.012a24.878,24.878,0,0,1-8.233,1.73c-3.047,0-6.043-.978-7.171-4.381-1.4-4.2-3.657-5.192-5.476-5.192-.121,0-.24.005-.354.015h0c-.172.012-.341.032-.506.056l-.03.005c-.155.03-.3.059-.445.094l-.049.012c-.138.04-.273.074-.4.116l-.029.01a6.423,6.423,0,0,0-.642.251l-.025.012c-.076.035-.147.069-.206.1l-.031.015c-.046.027-.091.052-.12.067l-.02.012-.031.017a35.89,35.89,0,0,1-4.894.375c-3.327,0-6.871-.655-5.323-3.706a16.831,16.831,0,0,1,1.209-2.021l1.524-4.8s-10.566-1.321-7.483-7.939,3.961-8.826,3.961-8.826-4.844-3.526-2.642-5.736,3.962-8.383,3.962-8.383-6.159-5.738-3.077-8.385a10.256,10.256,0,0,0,3.517-5.736s-7.479-4.854-3.959-7.942a12.626,12.626,0,0,0,3.959-7.5s-6.6-3.972-3.959-7.057a16.8,16.8,0,0,0,1.646-2.309h0c.169-.281.326-.562.469-.835l.017-.027c.281-.539.514-1.04.7-1.493l.022-.051c.179-.434.322-.816.425-1.121.011-.02.014-.042.023-.061.1-.286.159-.5.191-.619l.01-.032c.007-.037.017-.071.017-.071s-7.481-6.618-1.32-9.267c.374-.158.737-.331,1.093-.513.212-.106.411-.222.615-.333.133-.079.275-.148.408-.224s.264-.165.4-.244c-.708-1.828-1.322-5.056,2.173-6.766a10.379,10.379,0,0,1,4.529-1.234,5.731,5.731,0,0,1,.865.064c-.039-2.04.317-7.047,4.688-7.887a10.5,10.5,0,0,1,1.92-.192,6.249,6.249,0,0,1,4.468,1.646c.007-.067.02-.146.03-.244-.9-1.824-1.688-5.032,2.5-6.971a8.12,8.12,0,0,1,3.408-.8,7.731,7.731,0,0,1,5.471,2.494l-.01-.062,0-.025c-.005-.057-.017-.145-.037-.266l0-.044c-.02-.121-.037-.264-.055-.427l0-.047c-.018-.17-.037-.357-.054-.564l0-.049c-.015-.208-.029-.432-.039-.663l-.005-.059c-.007-.237-.007-.486-.007-.739v-.064c0-.249.01-.51.024-.769l.005-.081c.018-.256.046-.515.079-.776,0-.029.007-.061.015-.093.035-.251.083-.5.14-.744.01-.037.015-.076.022-.116a6.882,6.882,0,0,1,.209-.687c.015-.042.025-.086.042-.131a5.748,5.748,0,0,1,.285-.611c.022-.042.042-.091.066-.136a3.9,3.9,0,0,1,.362-.505c.037-.047.066-.1.1-.143a3.556,3.556,0,0,1,.442-.385,1.963,1.963,0,0,1,.155-.13,2.922,2.922,0,0,1,.531-.259c.071-.029.129-.074.2-.1a3.236,3.236,0,0,1,.658-.125,1.9,1.9,0,0,1,.233-.045c.1-.007.2-.012.3-.012a5.553,5.553,0,0,1,.754.057,26.524,26.524,0,0,1,10.123,3.531s-4.836-4.854,1.322-5.734a12.227,12.227,0,0,1,1.736-.128c4.844,0,6.625,3.215,6.625,3.215s-.879-3.087.877-4.411a3.669,3.669,0,0,1,2.165-.552c2.094,0,4.7.939,5.319,1.875a.248.248,0,0,0,.2.138c.686,0,1.775-3.866,3.267-3.864.553,0,1.156.525,1.816,1.957,0,0,5.323-5.606,10.381-5.606m0-2.807h0c-3.929,0-7.7,2.432-10.052,4.329a3.683,3.683,0,0,0-2.146-.68h0c-1.99,0-3.214,1.444-4.06,2.823a13.257,13.257,0,0,0-4.725-.97,6.261,6.261,0,0,0-3.84,1.108,5.256,5.256,0,0,0-1.346,1.483,11.783,11.783,0,0,0-4.481-.847,15.575,15.575,0,0,0-2.135.155c-3.437.49-4.751,2.131-5.245,3.477a31.422,31.422,0,0,0-5.408-1.271,7.955,7.955,0,0,0-1.147-.084c-.169,0-.334.007-.492.015a3.588,3.588,0,0,0-.51.074,6.263,6.263,0,0,0-1.065.229,3.666,3.666,0,0,0-.488.207,5.148,5.148,0,0,0-.915.476,3.973,3.973,0,0,0-.388.3,5.779,5.779,0,0,0-.734.67,3.767,3.767,0,0,0-.261.328,6.3,6.3,0,0,0-.55.791,2.829,2.829,0,0,0-.147.286,7.863,7.863,0,0,0-.4.877,2.428,2.428,0,0,0-.081.249,8.792,8.792,0,0,0-.276.914c-.017.069-.027.123-.039.18-.079.348-.133.648-.177.934,0,.039-.012.123-.014.158l-.005.029a9.5,9.5,0,0,0-2.576-.355,10.878,10.878,0,0,0-4.581,1.06,7.936,7.936,0,0,0-4.46,4.5,6.837,6.837,0,0,0-.239.865,10.23,10.23,0,0,0-1.123-.057,13.088,13.088,0,0,0-2.445.242c-3.723.714-6.151,3.607-6.8,7.934a14.921,14.921,0,0,0-3.991,1.357,7.23,7.23,0,0,0-4.2,7.863c-.12.059-.24.109-.356.16a6.151,6.151,0,0,0-4.06,4.719c-.494,3.1,1.68,6.135,3.263,7.872l-.032.074c-.006.012-.016.044-.031.076-.182.429-.382.847-.588,1.239l-.012.027c-.137.257-.263.481-.4.707-.018.03-.031.059-.045.086a14.162,14.162,0,0,1-1.319,1.836,5.207,5.207,0,0,0-1.227,4.278c.4,2.484,2.546,4.573,4.164,5.832a9.464,9.464,0,0,1-2.655,4.164,5.271,5.271,0,0,0-1.883,4.413c.2,2.772,2.546,5.2,4.377,6.692a8.445,8.445,0,0,1-2.035,2.555,5.17,5.17,0,0,0-1.839,3.9c-.054,2.816,2.077,5.7,3.567,7.367-.737,2.154-1.842,4.719-2.765,5.645a4.638,4.638,0,0,0-1.376,3.7,8.136,8.136,0,0,0,2.614,4.8c-.6,1.358-1.578,3.556-3.116,6.858a7.035,7.035,0,0,0-.009,6.638c1.375,2.5,4.168,3.849,6.434,4.556l-.469,1.483a19.925,19.925,0,0,0-1.163,2,4.849,4.849,0,0,0-.037,4.913c1.573,2.57,5.236,2.868,7.855,2.868a38.391,38.391,0,0,0,5.321-.4,2.8,2.8,0,0,0,.98-.347l.044-.027h0l.025-.01.1-.049h.007l.028-.012a2.336,2.336,0,0,1,.349-.14c.094-.03.169-.049.248-.071l.07-.015.159-.035.039-.005a1.737,1.737,0,0,1,.253-.027c.052,0,.1,0,.16,0,1.145,0,2.1,1.1,2.818,3.27,1.35,4.058,4.842,6.3,9.829,6.3a27.151,27.151,0,0,0,8.779-1.742c1.052.02,4.013.286,5.416,2.624a5.919,5.919,0,0,0,5.3,2.878,15.209,15.209,0,0,0,6.763-2.092l.383,1.533c.639,2.565,2.826,4.1,5.859,4.1,3.62,0,8.393-2.109,10.812-3.309l1.506.944a.287.287,0,0,0,.035.059c.009.015.023.042.044.072s.042.071.062.1a5.017,5.017,0,0,0,.609.757c.03.027.077.077.117.111l.058.052.067.059a4.358,4.358,0,0,0,.658.483c.052.03.1.059.143.081.029.017.056.032.088.047a2.773,2.773,0,0,0,.281.123l.025.01a4.088,4.088,0,0,0,.678.212l.062.015c.066.015.14.029.208.039a1.549,1.549,0,0,0,.2.027,1.821,1.821,0,0,0,.206.015c.094.007.187.01.28.01s.165,0,.244-.007c.051,0,.152-.01.252-.022l.071,0,.042,0c.048,0,.092-.013.136-.017.125-.022.249-.049.373-.077.034,0,.1-.024.167-.039.214-.059.416-.123.617-.2.106-.039.2-.076.3-.116.054-.025.147-.061.24-.106l.054-.025c.172-.076.346-.162.524-.251.017-.007.029-.02.049-.027.256-.131.508-.271.769-.414s.58-.323.863-.463a4.35,4.35,0,0,0,3.405,1.646c3.61,0,7.246-4.672,8.731-6.823a6.133,6.133,0,0,1,1.474-1.237l.008.017a4.092,4.092,0,0,0,3.6,2.432c.879,0,3.352,0,5.3-6.017a23.775,23.775,0,0,1,5.2,2.789,6.731,6.731,0,0,0,3.728,1.325,4.316,4.316,0,0,0,3.418-1.648c1.6-1.991,1.612-5.645,1.271-8.649,1.359.071,3.025.13,4.868.13a71.791,71.791,0,0,0,7.939-.411c3.457-.387,5.512-1.688,6.107-3.869a4.455,4.455,0,0,0-.021-2.358,48.824,48.824,0,0,0,8.492-1.818c3.549-1.064,5.586-2.888,6.058-5.409a7.588,7.588,0,0,0-1.929-6.008,13.265,13.265,0,0,0,3.095-6.165,17.8,17.8,0,0,0,.417-4.758c1.062-1.215,2.138-3.287,2.684-6.835.73-4.751-2.749-8.075-6.281-9.991a31.668,31.668,0,0,0,3.993-8.141,9.118,9.118,0,0,0-3.254-10.105,29.816,29.816,0,0,0,2.423-6.86c1-4.336-1.3-7.993-3.893-10.423a9.924,9.924,0,0,0,2.232-3.8,8.687,8.687,0,0,0-.8-6.709c-2.3-4.278-5.24-5.174-7.3-5.174-.1,0-.206,0-.307.005a46.2,46.2,0,0,0-2.035-5.187c-.01-.025-.041-.089-.054-.113-.145-.306-.295-.6-.447-.9l-.057-.1a19.237,19.237,0,0,0-1.1-1.865l-.072-.111-.05-.064c-.182-.263-.339-.483-.5-.688l-.037-.057c-.049-.059-.093-.116-.137-.17-.248-.3-.477-.562-.7-.789a10.691,10.691,0,0,0-7.021-3.127c-.941-2.6-2.708-6.52-5.442-8.915a7.611,7.611,0,0,0-5.182-1.725,21.562,21.562,0,0,0-7.2,1.557,21.431,21.431,0,0,0-5.009-8.452,8.528,8.528,0,0,0-6.363-2.908,13.272,13.272,0,0,0-7.626,2.957,35.5,35.5,0,0,0-4.654-5.061,8.743,8.743,0,0,0-6.039-2.38Z" transform="translate(-1904.546 653.99)" fill="#030504"/>
          </g>
        </g>
        <g id="Group_198" data-name="Group 198" transform="translate(243.662 39.668)">
          <path id="Path_7606" data-name="Path 7606" d="M1974.175-596.949a2,2,0,0,1-.8-.145c-1.148-.483-2.044-1.907-3.086-3.558-.961-1.525-2.278-3.612-3.266-3.72a12.977,12.977,0,0,0-3.665.618c-2.482.631-5.3,1.35-7.609.323a5.792,5.792,0,0,1-3-3.78c-.573-1.54-.917-2.292-2.464-2.533a42.509,42.509,0,0,0-5.973-.168c-5.659.074-9.535-.012-11.258-1.661-1.547-1.481-.8-3.573-.2-5.251.346-.963.777-2.163.5-2.642a2.2,2.2,0,0,0-1.433-.643,6.015,6.015,0,0,0-5.021,1.131c-1.3.82-2.909,1.843-5.347.54a6.45,6.45,0,0,1-3.4-4.142c-.285-.858-.319-.862-.592-.909a11.825,11.825,0,0,0-2.635.222c-2.926.422-7.35,1.059-8.109-2.583a1.23,1.23,0,0,1,.949-1.458,1.223,1.223,0,0,1,1.455.956c.267,1.274,2.58,1.045,5.357.648a12.218,12.218,0,0,1,3.386-.214,3.125,3.125,0,0,1,2.521,2.558,4.045,4.045,0,0,0,2.218,2.75c1.184.626,1.678.313,2.88-.451a8.476,8.476,0,0,1,6.771-1.471,4.181,4.181,0,0,1,3.126,1.836c.846,1.468.229,3.188-.317,4.706-.378,1.06-.811,2.262-.423,2.634,1.134,1.082,6,1.025,9.536.981a44.418,44.418,0,0,1,6.38.2c3.038.473,3.82,2.573,4.393,4.105.464,1.252.771,1.978,1.695,2.39,1.527.682,3.908.076,6-.458a13.774,13.774,0,0,1,4.534-.68c2.167.234,3.716,2.688,5.082,4.854a10.54,10.54,0,0,0,1.956,2.6c.961.064,4.576-2.294,7.921-5.049a1.224,1.224,0,0,1,1.379-.123c1.86,1.037,7.179,3.721,9.518,3.721h.036c1.185-.017,2.5-3.938,2.883-7.434a1.235,1.235,0,0,1,1.173-1.1c.111,0,10.9-.446,13.183-.82a3.909,3.909,0,0,0-.79-1.663,1.238,1.238,0,0,1-.135-1.227,1.227,1.227,0,0,1,.99-.729c.052-.005,5.222-.569,10.438-1.328.482-.072.824-.214.875-.367.293-.885-1.593-3.657-3.473-5.546a1.237,1.237,0,0,1-.218-1.444,1.233,1.233,0,0,1,1.307-.641c.13.022,12.531,2.25,18.6-1.247a4.824,4.824,0,0,0,2.7-3.243c.33-2.092-1.455-4.122-1.472-4.142a1.239,1.239,0,0,1-.209-1.34,1.245,1.245,0,0,1,1.145-.722c4.7.18,8.3-3.649,8.341-3.686a1.228,1.228,0,0,1,1.735-.074,1.232,1.232,0,0,1,.076,1.737,15.171,15.171,0,0,1-8,4.329,7.067,7.067,0,0,1,.811,4.28c-.312,2-1.626,3.681-3.907,5-4.805,2.77-12.583,2.454-16.978,1.989,1.269,1.708,2.423,3.859,1.87,5.529a3.142,3.142,0,0,1-2.85,2.028c-3.363.49-6.7.9-8.693,1.131a3.3,3.3,0,0,1,.145,2.407,2.326,2.326,0,0,1-1.915,1.4c-2.007.33-9.638.685-12.447.808-.411,2.691-1.7,8.531-5.154,8.575-2.909.069-8.061-2.572-10.052-3.632C1980.081-599.506,1976.37-596.949,1974.175-596.949Z" transform="translate(-1906.794 637.891)" fill="#030504"/>
        </g>
        <g id="Group_199" data-name="Group 199" transform="translate(312.622 73.598)">
          <path id="Path_7607" data-name="Path 7607" d="M1947.948-545.026a1.2,1.2,0,0,1-.533-.123,1.236,1.236,0,0,1-.578-1.643,29.915,29.915,0,0,0,1.907-4.842c-.153-.03-.327-.059-.474-.082a5.64,5.64,0,0,1-3.944-1.961c-1.322-1.742-.639-3.373-.143-4.563a3.991,3.991,0,0,0,.487-1.954c-.069-.552-1.008-1.126-1.831-1.634-1.214-.747-2.721-1.671-2.789-3.349a4.666,4.666,0,0,1,1.022-3.078,2.13,2.13,0,0,0,.538-1.224c.008-.313-.073-.416-.5-.8a2.861,2.861,0,0,1-1.156-2.513,3.933,3.933,0,0,1,1.529-2.348c1-.944,2.03-1.92,1.806-3.864-.282-2.474-2.752-4.371-4.229-5.5a6.767,6.767,0,0,1-1.347-1.2c-.671-.939-.27-2.427.624-5.438a22.52,22.52,0,0,0,.961-4c.019-.461-.681-1.2-1.36-1.917-1.294-1.365-3.069-3.237-3.084-6.195-.014-3.228,2.443-3.573,3.762-3.758,1.448-.2,1.79-.3,1.849-1.436.165-3.361-3.654-4.605-3.817-4.657a1.239,1.239,0,0,1-.855-1.033,1.236,1.236,0,0,1,.593-1.2c1.8-1.079,3.759-5.431,4.57-7.922a1.228,1.228,0,0,1,1.551-.788,1.234,1.234,0,0,1,.787,1.552c-.2.619-1.748,5.219-4.063,7.885a6.938,6.938,0,0,1,3.686,6.288c-.162,3.218-2.634,3.565-3.962,3.753-1.46.207-1.647.271-1.644,1.306.009,1.981,1.228,3.267,2.408,4.509,1.032,1.089,2.1,2.215,2.035,3.72a22.878,22.878,0,0,1-1.064,4.6,24.02,24.02,0,0,0-.858,3.413c.169.143.467.375.722.567,1.669,1.281,4.774,3.667,5.176,7.178.364,3.174-1.4,4.84-2.566,5.941a4.48,4.48,0,0,0-.774.838c0,.042,0,.066.369.4a3.314,3.314,0,0,1,1.307,2.7,4.457,4.457,0,0,1-.976,2.555,2.258,2.258,0,0,0-.585,1.575c.015.365.939.934,1.615,1.348,1.236.759,2.772,1.7,2.985,3.432a6.163,6.163,0,0,1-.656,3.21c-.5,1.205-.587,1.57-.172,2.117a3.431,3.431,0,0,0,2.376,1.02c.915.148,2.29.367,2.559,1.727.245,1.291-1.037,4.356-2.158,6.7A1.233,1.233,0,0,1,1947.948-545.026Zm-8.115-41.847Z" transform="translate(-1934.854 624.121)" fill="#030504"/>
        </g>
        <g id="Group_200" data-name="Group 200" transform="translate(291.383 89.833)">
          <ellipse id="Ellipse_410" data-name="Ellipse 410" cx="5.857" cy="2.482" rx="5.857" ry="2.482" transform="translate(0 11.494) rotate(-78.87)" fill="#030504"/>
        </g>
        <g id="Group_201" data-name="Group 201" transform="translate(261.368 84.998)">
          <ellipse id="Ellipse_411" data-name="Ellipse 411" cx="5.857" cy="2.482" rx="5.857" ry="2.482" transform="translate(0 11.494) rotate(-78.87)" fill="#030504"/>
        </g>
        <g id="Group_202" data-name="Group 202" transform="translate(277.356 107.43)">
          <path id="Path_7608" data-name="Path 7608" d="M1925.807-604.749a6.529,6.529,0,0,1-1.258-.128,5.186,5.186,0,0,1-4.026-4.068,1.23,1.23,0,0,1,.995-1.426,1.23,1.23,0,0,1,1.423,1,2.691,2.691,0,0,0,2.084,2.08c1.6.32,2.122-.355,2.175-.434a1.246,1.246,0,0,1,1.681-.367,1.2,1.2,0,0,1,.431,1.626A3.949,3.949,0,0,1,1925.807-604.749Z" transform="translate(-1920.504 610.391)" fill="#030504"/>
        </g>
        <g id="Group_203" data-name="Group 203" transform="translate(270.54 106.883)">
          <path id="Path_7609" data-name="Path 7609" d="M1922.58-605.839a5.358,5.358,0,0,1-1.034-.1c-2.74-.54-3.681-2.319-3.8-3.284a1.234,1.234,0,0,1,1.065-1.377,1.247,1.247,0,0,1,1.368,1.025c.027.118.273.909,1.848,1.22a2.69,2.69,0,0,0,2.721-1.146,1.235,1.235,0,0,1,1.7-.36,1.232,1.232,0,0,1,.377,1.688A5.294,5.294,0,0,1,1922.58-605.839Z" transform="translate(-1917.731 610.612)" fill="#030504"/>
        </g>
        <g id="Group_204" data-name="Group 204" transform="translate(135.893 159.272)">
          <path id="Path_7610" data-name="Path 7610" d="M1864.443-532.5s19.62,19.944,56.7,8.232,68.651-37.18,68.651-37.18,10.983-12.695,5.328-26.4l-103.471,24.936Z" transform="translate(-1860.757 591.547)" fill="#575659" fill-rule="evenodd"/>
          <path id="Path_7611" data-name="Path 7611" d="M1900.682-514.664c-23.495,0-36.009-12.372-36.678-13.049a3.7,3.7,0,0,1-.118-5.063l27.209-30.409a3.682,3.682,0,0,1,1.882-1.126L1996.45-589.25a3.688,3.688,0,0,1,4.267,2.181c6.451,15.637-5.439,29.647-5.95,30.236a3.8,3.8,0,0,1-.472.456c-1.313,1.059-32.542,26.045-69.859,37.828A78.732,78.732,0,0,1,1900.682-514.664ZM1871.93-530.7c6.219,4.539,23.119,13.676,50.293,5.094,34.11-10.77,63.926-33.76,67.162-36.3,1.175-1.491,7.454-10,5.449-19.35L1895.816-557.4Zm-5.3.387h0Z" transform="translate(-1862.943 589.351)" fill="#030504"/>
        </g>
        <g id="Group_205" data-name="Group 205" transform="translate(129.289 123.388)">
          <path id="Path_7612" data-name="Path 7612" d="M1936.931-602.324s65.216,32.9,62.11,35.8-101.179,67.25-130.683,55.347S1916.6-605.636,1936.931-602.324Z" transform="translate(-1858.069 606.1)" fill="#bdbdbd" fill-rule="evenodd"/>
          <path id="Path_7613" data-name="Path 7613" d="M1879.212-503.879a26.832,26.832,0,0,1-10.039-1.681c-4.579-1.845-11.676-7.03-7.8-20.984,8.054-28.969,59.974-80.275,78.337-77.242l.558.091.509.254c63.3,31.936,63.908,36.211,64.2,38.266a4.063,4.063,0,0,1-1.239,3.543C2002.991-560.929,1918.745-503.879,1879.212-503.879Zm58.487-92.674c-13.507,0-61.47,44.118-69.22,72-2.688,9.667,1.767,11.463,3.446,12.14,23.952,9.669,105.955-40.08,123.847-52.467-8.078-5.665-33.817-19.582-57.727-31.66C1937.932-596.551,1937.814-596.553,1937.7-596.553Z" transform="translate(-1860.256 603.914)" fill="#030504"/>
        </g>
        <g id="Group_206" data-name="Group 206" transform="translate(202.042 103.461)">
          <path id="Path_7614" data-name="Path 7614" d="M1891.36-590.521l17.065-17.867s2.976-4.322,8.23-.609,46.666,25.377,46.666,25.377,9.455,4.024,6.786,7.113-16.373,19.153-16.373,19.153l-8.159-5.478,11.935-12.559-44.648-23.7L1902.053-586.8Z" transform="translate(-1887.672 614.196)" fill="#575659" fill-rule="evenodd"/>
          <path id="Path_7615" data-name="Path 7615" d="M1955.92-551.462a3.661,3.661,0,0,1-2.047-.626l-8.16-5.475a3.7,3.7,0,0,1-1.615-2.666,3.7,3.7,0,0,1,1-2.954l8.574-9.028-37.774-20.052-8.886,10.108a3.681,3.681,0,0,1-3.974,1.047l-10.7-3.728a3.7,3.7,0,0,1-2.374-2.624,3.7,3.7,0,0,1,.921-3.422L1907.8-608.6a9.042,9.042,0,0,1,5.425-3.275,10.119,10.119,0,0,1,7.741,2.048c4.129,2.917,34.567,19.007,46.12,25.054,3.121,1.345,8.321,4.13,9.223,8.033a5.4,5.4,0,0,1-1.231,4.844c-2.666,3.085-16.358,19.133-16.358,19.136A3.681,3.681,0,0,1,1955.92-551.462Zm-2.47-9.8,1.8,1.207c3.46-4.053,10.214-11.968,13.212-15.459a21.909,21.909,0,0,0-4.391-2.506c-.091-.04-.182-.082-.268-.126-4.259-2.23-41.779-21.888-47.081-25.633a3.309,3.309,0,0,0-2.2-.813,1.879,1.879,0,0,0-.875.5,3.767,3.767,0,0,1-.371.456l-13.1,13.71,2.934,1.023,9.169-10.43a3.677,3.677,0,0,1,4.493-.823l44.646,23.7a3.691,3.691,0,0,1,1.912,2.674,3.7,3.7,0,0,1-.971,3.144Z" transform="translate(-1889.859 612.001)" fill="#030504"/>
        </g>
        <g id="Group_207" data-name="Group 207" transform="translate(120.077 177.047)">
          <ellipse id="Ellipse_412" data-name="Ellipse 412" cx="17.044" cy="17.089" rx="17.044" ry="17.089" transform="translate(2.458 2.464)" fill="#e4a20e"/>
          <path id="Path_7616" data-name="Path 7616" d="M1876.009-543.033a19.548,19.548,0,0,1-19.5-19.552,19.547,19.547,0,0,1,19.5-19.552,19.549,19.549,0,0,1,19.5,19.552A19.55,19.55,0,0,1,1876.009-543.033Zm0-34.176a14.623,14.623,0,0,0-14.586,14.624,14.622,14.622,0,0,0,14.586,14.624,14.622,14.622,0,0,0,14.589-14.624A14.622,14.622,0,0,0,1876.009-577.209Z" transform="translate(-1856.508 582.137)" fill="#030504"/>
        </g>
        <g id="Group_208" data-name="Group 208" transform="translate(133.114 145.163)">
          <ellipse id="Ellipse_413" data-name="Ellipse 413" cx="17.044" cy="17.089" rx="17.044" ry="17.089" transform="translate(2.456 2.465)" fill="#e4a20e"/>
          <path id="Path_7617" data-name="Path 7617" d="M1881.314-555.971a19.549,19.549,0,0,1-19.5-19.554,19.548,19.548,0,0,1,19.5-19.552,19.55,19.55,0,0,1,19.5,19.552A19.551,19.551,0,0,1,1881.314-555.971Zm0-34.178a14.623,14.623,0,0,0-14.586,14.624,14.624,14.624,0,0,0,14.586,14.626,14.623,14.623,0,0,0,14.586-14.626A14.622,14.622,0,0,0,1881.314-590.149Z" transform="translate(-1861.813 595.077)" fill="#030504"/>
        </g>
        <g id="Group_209" data-name="Group 209" transform="translate(163.734 123.662)">
          <ellipse id="Ellipse_414" data-name="Ellipse 414" cx="17.044" cy="17.089" rx="17.044" ry="17.089" transform="translate(2.458 2.463)" fill="#e4a20e"/>
          <path id="Path_7618" data-name="Path 7618" d="M1893.774-564.7a19.55,19.55,0,0,1-19.5-19.552,19.548,19.548,0,0,1,19.5-19.552,19.549,19.549,0,0,1,19.5,19.552A19.55,19.55,0,0,1,1893.774-564.7Zm0-34.176a14.622,14.622,0,0,0-14.587,14.624,14.624,14.624,0,0,0,14.587,14.624,14.625,14.625,0,0,0,14.588-14.624A14.624,14.624,0,0,0,1893.774-598.875Z" transform="translate(-1874.272 603.803)" fill="#030504"/>
        </g>
        <g id="Group_210" data-name="Group 210" transform="translate(189.827 125.596)">
          <ellipse id="Ellipse_415" data-name="Ellipse 415" cx="17.044" cy="17.089" rx="17.044" ry="17.089" transform="translate(2.456 2.465)" fill="#e4a20e"/>
          <path id="Path_7619" data-name="Path 7619" d="M1904.388-563.911a19.549,19.549,0,0,1-19.5-19.555,19.548,19.548,0,0,1,19.5-19.552,19.551,19.551,0,0,1,19.5,19.552A19.551,19.551,0,0,1,1904.388-563.911Zm0-34.179a14.621,14.621,0,0,0-14.583,14.624,14.622,14.622,0,0,0,14.583,14.626,14.625,14.625,0,0,0,14.588-14.626A14.624,14.624,0,0,0,1904.388-598.09Z" transform="translate(-1884.889 603.018)" fill="#030504"/>
        </g>
        <g id="Group_211" data-name="Group 211" transform="translate(195.609 143.414)">
          <ellipse id="Ellipse_416" data-name="Ellipse 416" cx="17.044" cy="17.089" rx="17.044" ry="17.089" transform="translate(2.459 2.465)" fill="#e4a20e"/>
          <path id="Path_7620" data-name="Path 7620" d="M1906.746-556.683a19.549,19.549,0,0,1-19.5-19.552,19.55,19.55,0,0,1,19.5-19.552,19.549,19.549,0,0,1,19.5,19.552A19.548,19.548,0,0,1,1906.746-556.683Zm0-34.176a14.624,14.624,0,0,0-14.589,14.624,14.623,14.623,0,0,0,14.589,14.624,14.622,14.622,0,0,0,14.586-14.624A14.624,14.624,0,0,0,1906.746-590.859Z" transform="translate(-1887.242 595.787)" fill="#030504"/>
        </g>
        <g id="Group_212" data-name="Group 212" transform="translate(210.876 131.907)">
          <ellipse id="Ellipse_417" data-name="Ellipse 417" cx="17.044" cy="17.089" rx="17.044" ry="17.089" transform="translate(2.459 2.465)" fill="#e4a20e"/>
          <path id="Path_7621" data-name="Path 7621" d="M1912.959-561.351a19.551,19.551,0,0,1-19.5-19.552,19.551,19.551,0,0,1,19.5-19.554,19.549,19.549,0,0,1,19.5,19.554A19.548,19.548,0,0,1,1912.959-561.351Zm0-34.178A14.624,14.624,0,0,0,1898.37-580.9a14.624,14.624,0,0,0,14.589,14.624,14.624,14.624,0,0,0,14.585-14.624A14.624,14.624,0,0,0,1912.959-595.529Z" transform="translate(-1893.454 600.457)" fill="#030504"/>
        </g>
        <g id="Group_213" data-name="Group 213" transform="translate(230.464 133.624)">
          <ellipse id="Ellipse_418" data-name="Ellipse 418" cx="17.044" cy="17.089" rx="17.044" ry="17.089" transform="translate(2.459 2.463)" fill="#e4a20e"/>
          <path id="Path_7622" data-name="Path 7622" d="M1920.925-560.656a19.548,19.548,0,0,1-19.5-19.552,19.547,19.547,0,0,1,19.5-19.552,19.549,19.549,0,0,1,19.5,19.552A19.55,19.55,0,0,1,1920.925-560.656Zm0-34.176a14.622,14.622,0,0,0-14.586,14.624,14.623,14.623,0,0,0,14.586,14.624,14.624,14.624,0,0,0,14.589-14.624A14.623,14.623,0,0,0,1920.925-594.832Z" transform="translate(-1901.424 599.76)" fill="#030504"/>
        </g>
        <g id="Group_214" data-name="Group 214" transform="translate(208.795 149.559)">
          <ellipse id="Ellipse_419" data-name="Ellipse 419" cx="17.044" cy="17.089" rx="17.044" ry="17.089" transform="translate(2.458 2.463)" fill="#e4a20e"/>
          <path id="Path_7623" data-name="Path 7623" d="M1912.108-554.189a19.549,19.549,0,0,1-19.5-19.552,19.55,19.55,0,0,1,19.5-19.552,19.551,19.551,0,0,1,19.5,19.552A19.549,19.549,0,0,1,1912.108-554.189Zm0-34.176a14.622,14.622,0,0,0-14.586,14.624,14.622,14.622,0,0,0,14.586,14.624,14.624,14.624,0,0,0,14.589-14.624A14.624,14.624,0,0,0,1912.108-588.365Z" transform="translate(-1892.607 593.293)" fill="#030504"/>
        </g>
        <g id="Group_215" data-name="Group 215" transform="translate(165.946 149.559)">
          <ellipse id="Ellipse_420" data-name="Ellipse 420" cx="17.044" cy="17.089" rx="17.044" ry="17.089" transform="translate(2.457 2.463)" fill="#e4a20e"/>
          <path id="Path_7624" data-name="Path 7624" d="M1894.673-554.189a19.546,19.546,0,0,1-19.5-19.552,19.548,19.548,0,0,1,19.5-19.552,19.55,19.55,0,0,1,19.5,19.552A19.548,19.548,0,0,1,1894.673-554.189Zm0-34.176a14.622,14.622,0,0,0-14.586,14.624,14.622,14.622,0,0,0,14.586,14.624,14.62,14.62,0,0,0,14.586-14.624A14.62,14.62,0,0,0,1894.673-588.365Z" transform="translate(-1875.172 593.293)" fill="#030504"/>
        </g>
        <g id="Group_216" data-name="Group 216" transform="translate(154.167 174.357)">
          <ellipse id="Ellipse_421" data-name="Ellipse 421" cx="17.044" cy="17.089" rx="17.044" ry="17.089" transform="translate(2.457 2.464)" fill="#e4a20e"/>
          <path id="Path_7625" data-name="Path 7625" d="M1889.878-544.122a19.548,19.548,0,0,1-19.5-19.555,19.547,19.547,0,0,1,19.5-19.552,19.551,19.551,0,0,1,19.5,19.552A19.552,19.552,0,0,1,1889.878-544.122Zm0-34.179a14.621,14.621,0,0,0-14.583,14.624,14.622,14.622,0,0,0,14.583,14.627,14.625,14.625,0,0,0,14.589-14.627A14.624,14.624,0,0,0,1889.878-578.3Z" transform="translate(-1870.379 583.229)" fill="#030504"/>
        </g>
        <g id="Group_217" data-name="Group 217" transform="translate(148.9 169.601)">
          <ellipse id="Ellipse_422" data-name="Ellipse 422" cx="17.044" cy="17.089" rx="17.044" ry="17.089" transform="translate(2.459 2.464)" fill="#e4a20e"/>
          <path id="Path_7626" data-name="Path 7626" d="M1887.74-546.055a19.549,19.549,0,0,1-19.5-19.552,19.551,19.551,0,0,1,19.5-19.552,19.549,19.549,0,0,1,19.5,19.552A19.547,19.547,0,0,1,1887.74-546.055Zm0-34.176a14.623,14.623,0,0,0-14.589,14.624,14.622,14.622,0,0,0,14.589,14.624,14.622,14.622,0,0,0,14.587-14.624A14.622,14.622,0,0,0,1887.74-580.231Z" transform="translate(-1868.236 585.159)" fill="#030504"/>
        </g>
        <g id="Group_218" data-name="Group 218" transform="translate(133.114 181.379)">
          <ellipse id="Ellipse_423" data-name="Ellipse 423" cx="17.044" cy="17.089" rx="17.044" ry="17.089" transform="translate(2.456 2.464)" fill="#e4a20e"/>
          <path id="Path_7627" data-name="Path 7627" d="M1881.314-541.275a19.547,19.547,0,0,1-19.5-19.552,19.548,19.548,0,0,1,19.5-19.552,19.551,19.551,0,0,1,19.5,19.552A19.549,19.549,0,0,1,1881.314-541.275Zm0-34.176a14.622,14.622,0,0,0-14.586,14.624,14.622,14.622,0,0,0,14.586,14.624,14.621,14.621,0,0,0,14.586-14.624A14.62,14.62,0,0,0,1881.314-575.451Z" transform="translate(-1861.813 580.379)" fill="#030504"/>
        </g>
        <g id="Group_219" data-name="Group 219" transform="translate(188.512 172.292)">
          <path id="Path_7628" data-name="Path 7628" d="M1915.165-566.464c-7.032,3.952-9.567,7.51-19.761,11.172-8.863,3.181-10.05-1.25-10.05-10.687a17.066,17.066,0,0,1,17.044-17.088C1911.813-583.067,1923.376-571.077,1915.165-566.464Z" transform="translate(-1882.896 585.531)" fill="#e4a20e" fill-rule="evenodd"/>
          <path id="Path_7629" data-name="Path 7629" d="M1892.125-550.342a7.019,7.019,0,0,1-4.134-1.2c-3.357-2.37-3.638-7.488-3.638-12.971a19.551,19.551,0,0,1,19.5-19.552c7.292,0,16.081,6.259,17.742,12.635a7.241,7.241,0,0,1-3.77,8.58h0a70.2,70.2,0,0,0-5.948,3.829,53.839,53.839,0,0,1-14.19,7.513A16.984,16.984,0,0,1,1892.125-550.342Zm11.73-28.8a14.621,14.621,0,0,0-14.586,14.624c0,2.348,0,7.846,1.551,8.942.457.318,1.732.675,5.213-.577a48.945,48.945,0,0,0,13.043-6.921,75.014,75.014,0,0,1,6.345-4.078,2.389,2.389,0,0,0,1.421-3.038C1915.822-574.1,1909.341-579.139,1903.856-579.139Z" transform="translate(-1884.354 584.067)" fill="#030504"/>
        </g>
        <g id="Group_220" data-name="Group 220" transform="translate(274.816 109.45)">
          <path id="Path_7630" data-name="Path 7630" d="M1923.16-569.411a3.683,3.683,0,0,1-3.293-2.035,3.7,3.7,0,0,1,1.629-4.962l64.805-32.767a3.686,3.686,0,0,1,4.952,1.636,3.7,3.7,0,0,1-1.629,4.965l-64.808,32.764A3.639,3.639,0,0,1,1923.16-569.411Z" transform="translate(-1919.471 609.571)" fill="#030504"/>
        </g>
        <g id="Group_221" data-name="Group 221" transform="translate(274.536 134.212)">
          <path id="Path_7631" data-name="Path 7631" d="M1927.448-579.1a3.625,3.625,0,0,1-1.352-.261,3.7,3.7,0,0,1-2.077-4.795l2-5.069-5.09-3.58a3.7,3.7,0,0,1-.9-5.15,3.685,3.685,0,0,1,5.134-.9l7.469,5.256a3.7,3.7,0,0,1,1.312,4.384l-3.064,7.776A3.692,3.692,0,0,1,1927.448-579.1Z" transform="translate(-1919.357 599.522)" fill="#030504"/>
        </g>
      </g>
      <path id="Path_7632" data-name="Path 7632" d="M26.1,19.807l-2.756.592a4.065,4.065,0,0,0-2.163,1.963l-1.431,4.067A3.88,3.88,0,0,1,18.627,27.8a6.846,6.846,0,0,1-8.149.026A3.812,3.812,0,0,1,9.329,26.4L8.073,22.561a4.046,4.046,0,0,0-2.1-1.981l-3.049-.754a4,4,0,0,1-1.836-1.509,6.89,6.89,0,0,1,.241-7.794A3.836,3.836,0,0,1,2.769,9.368l3.795-1.24a4.061,4.061,0,0,0,1.986-2.1l.782-3.1a4.034,4.034,0,0,1,1.5-1.831,6.849,6.849,0,0,1,7.756.207,3.737,3.737,0,0,1,1.182,1.5l1.065,3.557a4.044,4.044,0,0,0,2.04,2.016l3.384.956a3.781,3.781,0,0,1,1.547,1.208,6.882,6.882,0,0,1,.217,7.706A3.976,3.976,0,0,1,26.1,19.807Z" transform="translate(185.203 41.125) rotate(-20)" fill="#357ce1" fill-rule="evenodd"/>
      <ellipse id="Ellipse_424" data-name="Ellipse 424" cx="8.174" cy="8.195" rx="8.174" ry="8.195" transform="translate(139.146 16.39)" fill="#0950b5"/>
      <ellipse id="Ellipse_427" data-name="Ellipse 427" cx="8.174" cy="8.195" rx="8.174" ry="8.195" transform="translate(422.36 118.603)" fill="#0950b5"/>
      <ellipse id="Ellipse_426" data-name="Ellipse 426" cx="2.725" cy="2.732" rx="2.725" ry="2.732" transform="translate(416.911 159.803)" fill="#0950b5" opacity="0.5"/>
      <ellipse id="Ellipse_428" data-name="Ellipse 428" cx="2.725" cy="2.732" rx="2.725" ry="2.732" transform="translate(0 171.396)" fill="#0950b5" opacity="0.5"/>
    </g>
  </g>
</svg>
