<svg xmlns="http://www.w3.org/2000/svg" width="203.27" height="40.472" viewBox="0 0 203.27 40.472"><defs><style>.a{fill:#357ce1;}.b{fill:#1a1818;}.c{fill:#fff;}.d{fill:#a6be2e;}.e{fill:#f26711;}.f{fill:#c6c6c6;}</style></defs><g transform="translate(0 2.729)"><path class="a" d="M1650.975,241.706l-.076-14.031-6.807,11.421h-3.328l-6.77-11.042v13.652h-6.92V215.233h6.164l9.3,15.278,9.076-15.278h6.164l.076,26.473Z" transform="translate(-1627.074 -211.3)"/><path class="a" d="M1742.158,233.434q2.685,2.326,2.685,7.129v11.383h-6.693V249.3q-1.552,2.988-6.051,2.988a9.475,9.475,0,0,1-4.122-.832,6.1,6.1,0,0,1-2.629-2.251,5.959,5.959,0,0,1-.888-3.233,5.246,5.246,0,0,1,2.231-4.519q2.231-1.607,6.882-1.607h4.084q-.189-3.252-4.349-3.252a9.976,9.976,0,0,0-2.988.473,7.964,7.964,0,0,0-2.571,1.3l-2.42-4.879a13.4,13.4,0,0,1,4.141-1.759,19.692,19.692,0,0,1,4.9-.624Q1739.473,231.108,1742.158,233.434Zm-5.862,13.709a3.371,3.371,0,0,0,1.361-1.778v-1.778h-3.1q-3.139,0-3.139,2.08a1.828,1.828,0,0,0,.718,1.512,3.1,3.1,0,0,0,1.967.567A3.979,3.979,0,0,0,1736.3,247.143Z" transform="translate(-1689.894 -221.54)"/><path class="a" d="M1803.976,231.633l-2.118,2.156v5.03h-7.185V210.758h7.185v14.711l7.337-7.148h8.509l-8.509,8.774,9.228,11.724h-8.7Z" transform="translate(-1735.186 -208.413)"/><path class="a" d="M1866.524,210.694a3.667,3.667,0,0,1,0-5.445,4.546,4.546,0,0,1,3.177-1.1,4.708,4.708,0,0,1,3.177,1.04,3.358,3.358,0,0,1,1.21,2.666,3.668,3.668,0,0,1-1.21,2.818,5.115,5.115,0,0,1-6.353.019Zm-.417,3.366h7.185v20.5h-7.185Z" transform="translate(-1780.754 -204.151)"/><path class="a" d="M1901.129,240.478a15.321,15.321,0,0,1-4.917-2.118l2.458-5.521a15.884,15.884,0,0,0,4.122,1.891,15.685,15.685,0,0,0,4.614.718q4.312,0,4.312-2.156a1.785,1.785,0,0,0-1.229-1.683,22.625,22.625,0,0,0-3.952-1.153,37.692,37.692,0,0,1-4.992-1.381,8.393,8.393,0,0,1-3.441-2.364,6.381,6.381,0,0,1-1.438-4.387,7.59,7.59,0,0,1,1.324-4.368,8.853,8.853,0,0,1,3.952-3.082,16.265,16.265,0,0,1,6.448-1.134,22.751,22.751,0,0,1,5.143.586,15.751,15.751,0,0,1,4.462,1.72l-2.307,5.559a15.412,15.412,0,0,0-7.337-2.042,6.153,6.153,0,0,0-3.252.662,1.984,1.984,0,0,0-1.021,1.721,1.705,1.705,0,0,0,1.21,1.588,21.856,21.856,0,0,0,3.9,1.1,36.524,36.524,0,0,1,5.011,1.38,8.651,8.651,0,0,1,3.441,2.345,6.262,6.262,0,0,1,1.456,4.368,7.449,7.449,0,0,1-1.323,4.311,9.028,9.028,0,0,1-3.971,3.082,16.071,16.071,0,0,1-6.429,1.153A24.448,24.448,0,0,1,1901.129,240.478Z" transform="translate(-1800.685 -210.337)"/><path class="a" d="M1997.907,232.067l-7.3,20.5h-6.958l-3.858-11.156-4.009,11.156h-6.958l-7.3-20.5h6.808l4.2,12.4,4.349-12.4h6.126l4.236,12.518,4.349-12.518Z" transform="translate(-1842.817 -222.159)"/><path class="a" d="M2082.576,233.434q2.685,2.326,2.685,7.129v11.383h-6.693V249.3q-1.552,2.988-6.051,2.988a9.477,9.477,0,0,1-4.122-.832,6.1,6.1,0,0,1-2.628-2.251,5.961,5.961,0,0,1-.888-3.233,5.247,5.247,0,0,1,2.231-4.519q2.231-1.607,6.882-1.607h4.085q-.19-3.252-4.349-3.252a9.977,9.977,0,0,0-2.988.473,7.964,7.964,0,0,0-2.571,1.3l-2.42-4.879a13.4,13.4,0,0,1,4.141-1.759,19.686,19.686,0,0,1,4.9-.624Q2079.891,231.108,2082.576,233.434Zm-5.862,13.709a3.372,3.372,0,0,0,1.362-1.778v-1.778h-3.1q-3.14,0-3.139,2.08a1.828,1.828,0,0,0,.719,1.512,3.093,3.093,0,0,0,1.967.567A3.976,3.976,0,0,0,2076.714,247.143Z" transform="translate(-1909.486 -221.54)"/><path class="a" d="M2153.074,232.413a9.508,9.508,0,0,1,3.63,3.706,12.254,12.254,0,0,1,0,11.156,9.5,9.5,0,0,1-3.63,3.706,10.084,10.084,0,0,1-5.086,1.305,7.64,7.64,0,0,1-5.71-2.156v9.152h-7.186V231.448h6.845v2.042q2-2.382,6.051-2.383A10.088,10.088,0,0,1,2153.074,232.413Zm-3.5,12.858a5.881,5.881,0,0,0,0-7.148,4.337,4.337,0,0,0-6.2,0,5.879,5.879,0,0,0,0,7.148,4.337,4.337,0,0,0,6.2,0Z" transform="translate(-1954.778 -221.54)"/></g><g transform="translate(83.689)"><g transform="translate(0 0)"><rect class="b" width="10.515" height="10.515" rx="5.258"/></g><g transform="translate(0.692 0.692)"><rect class="c" width="9.131" height="9.131" rx="4.565"/></g><g transform="translate(2.047 2.604)"><g transform="translate(0.226 0.226)"><path class="d" d="M1871.5,209.29a4,4,0,0,1-1.235-.191,1.343,1.343,0,0,1-.939-.833,2.254,2.254,0,0,1,.436-1.8,1.767,1.767,0,0,0,.256-.685,1.42,1.42,0,0,1,.762-1.129,1.892,1.892,0,0,1,.882-.212,2.22,2.22,0,0,1,.941.212l.034.018.026.028c1.136,1.2.472,4.119.443,4.243l-.052.224-.2-.049c-.03,0-.1.019-.156.032A5.459,5.459,0,0,1,1871.5,209.29Z" transform="translate(-1869.264 -204.435)"/></g><path class="b" d="M1871.254,204.25a1.993,1.993,0,0,1,.837.186c1.066,1.13.387,4.036.387,4.036l-.017,0a7.507,7.507,0,0,1-1.368.181,3.76,3.76,0,0,1-1.165-.18c-1.292-.42-.84-1.647-.387-2.293s.129-1.324.936-1.744a1.67,1.67,0,0,1,.777-.186m0-.453a2.118,2.118,0,0,0-.986.237,1.627,1.627,0,0,0-.878,1.282,1.58,1.58,0,0,1-.22.6,2.475,2.475,0,0,0-.465,2.006,1.558,1.558,0,0,0,1.084.977,4.219,4.219,0,0,0,1.305.2,5.645,5.645,0,0,0,1.249-.153l.1-.022.372.093.1-.448a10.024,10.024,0,0,0,.217-1.678,3.743,3.743,0,0,0-.716-2.772l-.052-.056-.068-.035a2.428,2.428,0,0,0-1.046-.237Z" transform="translate(-1868.627 -203.797)"/></g><g transform="translate(4.491 2.3)"><path class="e" d="M1877.793,203.658a2.45,2.45,0,0,0-1.615,1.97,3.834,3.834,0,0,0-.014.8l.081,1.56a.488.488,0,0,0,.213.44,2.728,2.728,0,0,0,.865.593,1.421,1.421,0,0,0,1.8-1.065,2.257,2.257,0,0,1,.07-.408,1.747,1.747,0,0,1,.24-.39,2.247,2.247,0,0,0,.062-2.4A1.237,1.237,0,0,0,1877.793,203.658Z" transform="translate(-1875.924 -203.355)"/><path class="b" d="M1877.316,208.9a1.435,1.435,0,0,1-.481-.082,2.925,2.925,0,0,1-.94-.638.7.7,0,0,1-.288-.6l-.081-1.56a4.024,4.024,0,0,1,.017-.845,2.656,2.656,0,0,1,1.778-2.153h0a1.567,1.567,0,0,1,1.358.146,1.654,1.654,0,0,1,.619,1.092,2.486,2.486,0,0,1-.094,2.608c-.02.029-.041.058-.062.087a1.079,1.079,0,0,0-.151.25,1.068,1.068,0,0,0-.041.228c-.005.047-.011.094-.018.14a1.569,1.569,0,0,1-.773,1.085A1.659,1.659,0,0,1,1877.316,208.9Zm.583-5.506a1.735,1.735,0,0,0-.458.069h0a2.223,2.223,0,0,0-1.451,1.787,3.63,3.63,0,0,0-.011.751l.081,1.56a.281.281,0,0,0,.137.284,2.542,2.542,0,0,0,.79.548,1.194,1.194,0,0,0,1.5-.887c.006-.039.011-.079.015-.119a1.149,1.149,0,0,1,.276-.694c.019-.026.038-.052.056-.078a2.019,2.019,0,0,0,.055-2.155l-.028-.046,0-.054a1.24,1.24,0,0,0-.437-.817A.887.887,0,0,0,1877.9,203.4Z" transform="translate(-1875.512 -202.943)"/></g><g transform="translate(2.437 0.985)"><path class="f" d="M1870.71,199.238a.4.4,0,0,1,.272.13.2.2,0,0,1,0,.275.342.342,0,0,1-.248.04.786.786,0,0,0-.577.166c-.088.079-.173.2-.29.179a.183.183,0,0,1-.144-.183.3.3,0,0,1,.113-.219,3.373,3.373,0,0,1,.871-.388Z" transform="translate(-1869.726 -199.237)"/></g><g transform="translate(4.374 1.412)"><path class="f" d="M1875.412,201a.232.232,0,0,1-.171-.034.117.117,0,0,1-.041-.154.2.2,0,0,1,.133-.057.455.455,0,0,0,.3-.176c.038-.057.069-.135.136-.142a.107.107,0,0,1,.107.082.174.174,0,0,1-.032.139.5.5,0,0,1-.1.1A.51.51,0,0,1,1875.412,201Z" transform="translate(-1875.185 -200.441)"/></g><g transform="translate(8.806 4.659)"><path class="f" d="M1887.9,210.151a.233.233,0,0,1-.171-.034.116.116,0,0,1-.041-.154.2.2,0,0,1,.133-.058.45.45,0,0,0,.3-.176c.038-.057.069-.134.137-.142a.107.107,0,0,1,.107.082.175.175,0,0,1-.032.139,1.935,1.935,0,0,1-.432.343Z" transform="translate(-1887.671 -209.587)"/></g><g transform="translate(1.178 4.659)"><path class="f" d="M1866.4,209.64a.233.233,0,0,1,.167-.051.117.117,0,0,1,.109.116c-.006.049-.052.082-.09.114a.452.452,0,0,0-.18.3c-.006.068,0,.151-.053.19a.106.106,0,0,1-.133-.021.172.172,0,0,1-.038-.137.491.491,0,0,1,.044-.139A.51.51,0,0,1,1866.4,209.64Z" transform="translate(-1866.18 -209.587)"/></g><g transform="translate(2.93 8.737)"><path class="f" d="M1871.335,221.131a.232.232,0,0,1,.167-.051.117.117,0,0,1,.109.116c-.006.049-.052.083-.09.114a.455.455,0,0,0-.18.3c-.006.068,0,.151-.053.19a.107.107,0,0,1-.133-.021.174.174,0,0,1-.038-.137.5.5,0,0,1,.044-.14A.509.509,0,0,1,1871.335,221.131Z" transform="translate(-1871.115 -221.078)"/></g><g transform="translate(7.178 1.435)"><path class="f" d="M1883.758,200.744a.232.232,0,0,1,.045.169.116.116,0,0,1-.12.1c-.049-.008-.081-.054-.11-.094a.454.454,0,0,0-.289-.192c-.068-.009-.151,0-.187-.06a.106.106,0,0,1,.026-.132.173.173,0,0,1,.139-.032.5.5,0,0,1,.138.049A.51.51,0,0,1,1883.758,200.744Z" transform="translate(-1883.082 -200.504)"/></g><g transform="translate(1.213 2.141)"><path class="f" d="M1866.952,202.733a.231.231,0,0,1,.045.169.116.116,0,0,1-.12.1c-.049-.008-.081-.054-.111-.094a.455.455,0,0,0-.29-.192c-.067-.009-.151,0-.187-.06a.106.106,0,0,1,.027-.132.173.173,0,0,1,.139-.032.516.516,0,0,1,.138.049A.509.509,0,0,1,1866.952,202.733Z" transform="translate(-1866.276 -202.493)"/></g><g transform="translate(6.455 8.955)"><path class="f" d="M1881.721,221.932a.232.232,0,0,1,.045.168.117.117,0,0,1-.12.1c-.049-.008-.081-.055-.111-.094a.453.453,0,0,0-.29-.192c-.067-.009-.151,0-.187-.061a.106.106,0,0,1,.027-.132.174.174,0,0,1,.139-.032.529.529,0,0,1,.138.049A.511.511,0,0,1,1881.721,221.932Z" transform="translate(-1881.045 -221.692)"/></g><g transform="translate(8.711 6.275)"><path class="f" d="M1888.078,214.382a.233.233,0,0,1,.045.169.116.116,0,0,1-.12.1c-.049-.008-.081-.054-.111-.094a.453.453,0,0,0-.29-.192c-.067-.009-.151,0-.187-.061a.106.106,0,0,1,.027-.132.174.174,0,0,1,.139-.033.516.516,0,0,1,.138.049A.509.509,0,0,1,1888.078,214.382Z" transform="translate(-1887.402 -214.141)"/></g><g transform="translate(1.788 3.28)"><path class="f" d="M1868.573,205.943a.233.233,0,0,1,.045.169.116.116,0,0,1-.12.1c-.049-.008-.081-.055-.111-.094a.452.452,0,0,0-.289-.192c-.068-.009-.151,0-.188-.061a.107.107,0,0,1,.027-.132.175.175,0,0,1,.139-.032.525.525,0,0,1,.138.049A.512.512,0,0,1,1868.573,205.943Z" transform="translate(-1867.897 -205.703)"/></g><g transform="translate(8.701 2.398)"><path class="f" d="M1887.861,204.407a.4.4,0,0,1-.273.127.2.2,0,0,1-.214-.174.341.341,0,0,1,.127-.216.787.787,0,0,0,.24-.551c-.005-.118-.041-.258.047-.338a.184.184,0,0,1,.233.006.3.3,0,0,1,.1.226,3.336,3.336,0,0,1-.256.919Z" transform="translate(-1887.373 -203.218)"/></g><g transform="translate(4.234 8.284)"><path class="f" d="M1875.276,220.991a.4.4,0,0,1-.274.127.2.2,0,0,1-.214-.174.344.344,0,0,1,.127-.216.784.784,0,0,0,.24-.551c0-.118-.04-.258.047-.338a.184.184,0,0,1,.233.006.3.3,0,0,1,.1.226,3.4,3.4,0,0,1-.256.919Z" transform="translate(-1874.788 -219.801)"/></g><g transform="translate(8.04 7.356)"><path class="f" d="M1886.1,217.229a.4.4,0,0,1,.3-.023.2.2,0,0,1,.14.238c-.03.081-.118.12-.2.158a.786.786,0,0,0-.418.431c-.037.112-.053.256-.163.3a.184.184,0,0,1-.216-.087.3.3,0,0,1-.011-.246,3.378,3.378,0,0,1,.563-.77Z" transform="translate(-1885.512 -217.187)"/></g><g transform="translate(0.919 7.251)"><path class="f" d="M1866.637,217.165a.4.4,0,0,1,.121.276.2.2,0,0,1-.177.211c-.086,0-.152-.071-.214-.132a.787.787,0,0,0-.546-.251c-.118,0-.259.035-.336-.054a.184.184,0,0,1,.011-.233.3.3,0,0,1,.228-.092,3.373,3.373,0,0,1,.913.274Z" transform="translate(-1865.448 -216.891)"/></g></g></svg>