<svg xmlns="http://www.w3.org/2000/svg" width="191.34" height="146.049" viewBox="0 0 191.34 146.049"><defs><style>.a,.b,.r{fill:none;stroke:#030504;stroke-linecap:round;stroke-linejoin:round;}.a,.b{stroke-width:3px;}.b,.i,.k,.l,.n,.o,.p,.r,.s{fill-rule:evenodd;}.c{fill:#ede7d5;}.d{fill:#ded8be;}.e{fill:#cdc7ac;}.f{fill:#e8e2c6;}.g{fill:#d2ccb0;}.h{fill:#f3fafa;}.i{fill:#e94153;}.j{fill:#e5dfc4;}.k{fill:#c3c094;}.l{fill:#ed6313;}.m{fill:#fd9834;}.n{fill:#fa8f41;opacity:0.6;mix-blend-mode:screen;}.n,.o,.p{isolation:isolate;}.o{fill:#d24b13;}.o,.p,.u{opacity:0.5;}.o,.p{mix-blend-mode:multiply;}.p{fill:#bd3a12;}.q{fill:#030504;}.s{fill:#357ce1;}.t,.u{fill:#0950b5;}</style></defs><g transform="translate(14.968 20.021)"><line class="a" x1="19.969" y1="6.829" transform="translate(0 76.712)"/><path class="b" d="M1699.031-316.1l2.118,4.858-4.627,3.5" transform="translate(-1696.522 389.536)"/><path class="b" d="M1741.273-312.25l26.02,43.2,4.781-2.358" transform="translate(-1671.378 391.699)"/><path class="b" d="M1733.738-302.149l-8.093,28.285-5.283-.715" transform="translate(-1683.127 397.374)"/><g transform="translate(9.551 1.864)"><path class="c" d="M1781.513-347.7c1.962-5.228,6.54.656,6.54.656,5.012-4.631,9.388,4.334,9.388,4.334,5.229-3.63,6.735,7.211,6.735,7.211,4.141-1.307,4.576,4.359,4.576,4.359a32.43,32.43,0,0,1,5.01,3.05c3.052,2.18-2.833,5.012-2.833,5.012s1.745-.436,5.012,2.835-.436,3.92-.436,3.92l.873,3.05c.87,3.05-3.7,3.05-3.7,3.05a7.945,7.945,0,0,1,2.4,3.486c1.088,2.615-3.922,3.267-3.922,3.267s2.179,1.528,1.526,5.012-6.318,1.962-6.318,1.962.653,1.524.216,5.012-6.536-.219-6.536-.219-1.09-.217-.436,4.358-5.228,2.4-5.228,2.4,1.087.87.87,4.141-5.448,2.177-5.448,2.177c2.615,3.271-6.755,5.665-6.755,5.665a3.937,3.937,0,0,0-3.268,3.7c-.217,3.269-7.189,1.526-7.189,1.526s-4.14,1.309-5.012,4.359-5.665-.653-5.665-.653a12.909,12.909,0,0,1-5.229,1.524,3.764,3.764,0,0,1-3.923-2.4,18.11,18.11,0,0,1-3.922,1.745c-2.179.653-4.575-2.616-4.575-2.616s-.436,3.052-4.142,2.4-2.4-5.665-2.4-5.665a11.417,11.417,0,0,1-4.793,4.139c-3.486,1.743-5.229-5.229-5.229-5.229s-.871,1.524-5.012,4.141-5.446-6.974-5.446-6.974-2.616,2.4-7.844.653,0-8.28,0-8.28-1.092,3.052-3.923.22,2.178-8.281,2.178-8.281c-4.14-2.615.872-7.844.872-7.844-4.139-5.885,2.833-12.418,2.833-12.418s-2.833-6.538,0-6.755a22.817,22.817,0,0,1,5.229.217s-.873-6.974,3.267-5.665,5.014-.219,5.014-.219-.872-3.049,1.524-3.922a6.3,6.3,0,0,1,4.574.217s-.436-5.882,1.089-6.1,3.271,1.526,3.271,1.526,1.307-3.269,3.267-3.05a13.522,13.522,0,0,1,3.486.872s.873-2.616,1.962-2.616a21.486,21.486,0,0,0,4.358-1.306s.655-3.7,2.18-3.7,3.485.217,3.485.217.873-3.267,3.487-3.047,4.794.217,4.794.217.217-4.141,3.05-3.052a19.508,19.508,0,0,0,6.1,1.09s-2.179-4.359,1.09-3.488a39.313,39.313,0,0,0,5.228,1.09s-.87-2.4.653-3.486S1781.513-347.7,1781.513-347.7Z" transform="translate(-1701.532 368.571)"/><path class="d" d="M1797.331-329.6s5.885-2.832,2.833-5.012a32.43,32.43,0,0,0-5.01-3.05s-.016-.173-.058-.439c-1.409.476-1.673,1.256-1.673,1.256a2.05,2.05,0,0,1-1.929-1.287c-.8-1.446-1.446,2.251-1.446,2.251a3.691,3.691,0,0,1-2.091,0c-1.284-.322-1.123,3.052-1.123,3.052s-.644,1.77-3.216.645-2.732,4.339-2.732,4.339a3.736,3.736,0,0,1-3.536-1.445c-1.768-1.931-3.053,3.533-3.053,3.533a2.2,2.2,0,0,1-2.733-.159c-1.607-1.126-4.341,4.017-4.341,4.017a2.413,2.413,0,0,1-3.053,0c-1.446-1.284-1.015,3.374-1.015,3.374s-.845,4.161-3.419,2.875-2.911,3.185-2.911,3.185-1.655-.593-2.3,2.462-7.394.8-7.394.8l-12.216.644s-6.268,17.037-6.107,23.467c.1,3.783,1.917,9.4,3.725,14.666a3.173,3.173,0,0,0,2.7.745,18.11,18.11,0,0,0,3.922-1.745,3.764,3.764,0,0,0,3.923,2.4,12.909,12.909,0,0,0,5.229-1.524s4.8,3.7,5.665.653,5.012-4.359,5.012-4.359,6.972,1.743,7.189-1.526a3.937,3.937,0,0,1,3.268-3.7s9.37-2.394,6.755-5.665c0,0,5.231,1.09,5.448-2.177s-.87-4.141-.87-4.141,5.882,2.179,5.228-2.4.436-4.358.436-4.358,6.1,3.7,6.536.219-.216-5.012-.216-5.012,5.665,1.524,6.318-1.962-1.526-5.012-1.526-5.012,5.01-.653,3.922-3.267a7.945,7.945,0,0,0-2.4-3.486s4.575,0,3.7-3.05l-.873-3.05s3.7-.653.436-3.92S1797.331-329.6,1797.331-329.6Z" transform="translate(-1687.933 375.102)"/><path class="e" d="M1752.328-305.452s.664,3.014,2.494,2.327a12.182,12.182,0,0,0,4.418-2.83,8.4,8.4,0,0,0,1.21-1.943s.25,2.611-3,4.386S1751.87-301.1,1752.328-305.452Z" transform="translate(-1674.75 392.281)"/><path class="e" d="M1758.584-313.739a6.34,6.34,0,0,1-3.213,3.107c-2.362,1.012-3.581.061-3.581.061a2.041,2.041,0,0,0,2.413,1.445C1756.166-309.442,1759.86-311.869,1758.584-313.739Z" transform="translate(-1675.02 388.999)"/><path class="e" d="M1760.677-318.374s-1.42,2.091-3.008,2.491a5.516,5.516,0,0,1-3.008-.137,2.346,2.346,0,0,0,3.581.644C1760.637-316.929,1760.738-317.249,1760.677-318.374Z" transform="translate(-1673.406 386.395)"/><path class="e" d="M1776.149-335.263s-.778,1.879-2.17,2.165a10.75,10.75,0,0,1-3.965-.531s.081,1.965,1.757,2.044,2.579.083,3.6-.736S1778.4-334.979,1776.149-335.263Z" transform="translate(-1664.78 376.905)"/><g transform="translate(105.926 36.996)"><path class="f" d="M1778.166-326.016c-.162-.561-.293-1.017-.4-1.392.2,1.034.2,2.219-.7,2.516a3.711,3.711,0,0,1-3.174-.222,11.2,11.2,0,0,1-1.281-1.613s.3,2.846,1.848,3.761C1774.462-322.966,1779.036-322.966,1778.166-326.016Z" transform="translate(-1769.245 344.323)"/><path class="f" d="M1776.891-320.472a4.222,4.222,0,0,1-3.562,1.114,15.609,15.609,0,0,1-2.285-.948s2.06,2.062,3.844,1.673a20.96,20.96,0,0,0,2.678-.811,1.545,1.545,0,0,0,.174-1.634,7.945,7.945,0,0,0-2.4-3.486S1777.449-321.087,1776.891-320.472Z" transform="translate(-1770.127 345.921)"/><path class="f" d="M1774.8-327.052l2.23,1s3.7-.653.436-3.92c-2.126-2.127-3.6-2.685-4.376-2.813,1.232.814,5.353,3.652,4.831,4.839C1777.305-326.549,1774.8-327.052,1774.8-327.052Z" transform="translate(-1768.979 341.304)"/><path class="f" d="M1771.986-336.629s4.345,1.726,4.012,3.23a11.894,11.894,0,0,1-1.784,3.455l.053.034c1.2-.647,5.1-2.98,2.494-4.839a32.43,32.43,0,0,0-5.01-3.05s-.016-.173-.058-.439a3.481,3.481,0,0,0-1.237.687Z" transform="translate(-1770.457 338.238)"/></g><path class="e" d="M1785.807-303.906c.438-3.488-.216-5.012-.216-5.012s5.665,1.524,6.318-1.962-1.526-5.012-1.526-5.012,5.01-.653,3.922-3.267a7.945,7.945,0,0,0-2.4-3.486s2.441,0,3.414-1.2a21.908,21.908,0,0,0-1.047-4.134s-.062,2.488-1.431,2.735-4.164-2.486-4.164-2.486a4.988,4.988,0,0,0,.5,1.926,22.827,22.827,0,0,0,2.176,3.111,12.526,12.526,0,0,1,2.1,4.141c.486,2.09-6.453,1.2-6.453,1.2a12.053,12.053,0,0,1,2.611,2.426c.87,1.243.373,1.368-.747,3.544s-7.459.682-7.459.682l3.171,1.618s.311.186.311,2.051-1.556,3.233-4.042,2.051a4.721,4.721,0,0,1-2.733-3.48,5.135,5.135,0,0,0-.064,1.306c.064.684.438,3.046.438,3.6a15.231,15.231,0,0,1-1.431,4.478c-.932,1.99-5.409-1.056-5.409-1.056a28.1,28.1,0,0,1,1.865,3.855,3.6,3.6,0,0,1-2.051,4.289c-1.865.931-6.84-1.431-6.84-1.431s2.363,1.988,2.612,2.983-2.424,3.294-5.595,3.981a8.562,8.562,0,0,1-5.409-.5,6.243,6.243,0,0,1,1.429,1.8c.248.745.187,1.554-1.554,3.046s-6.961-.995-6.961-.995l-7.586-1.056s.932,4.971,1.243,5.595c.169.333,1.176,2.188,2.123,3.933a1.543,1.543,0,0,0,1.88-1.174c.872-3.05,5.012-4.359,5.012-4.359s6.972,1.743,7.189-1.526a3.937,3.937,0,0,1,3.268-3.7s9.37-2.394,6.755-5.665c0,0,5.231,1.09,5.448-2.177s-.87-4.141-.87-4.141,5.882,2.179,5.228-2.4.436-4.358.436-4.358S1785.373-300.42,1785.807-303.906Z" transform="translate(-1680.767 380.998)"/><path class="g" d="M1753.469-284.52a8.78,8.78,0,0,0-3.269-6.305,5.41,5.41,0,0,0,1.646-1.579c1.028-1.3.892-4.32.412-6.034a34.841,34.841,0,0,0-2.95-5.626,22.286,22.286,0,0,0,.2-4.251c-.136-2.057-3.22-3.634-3.22-3.634s1.849-3.016,1.849-5.076a3.157,3.157,0,0,0-.562-1.962,15.029,15.029,0,0,1-5.262-.747l-1.753.091a70.269,70.269,0,0,0-2.229,7.008,16.349,16.349,0,0,0-.687,5.212c-.069,1.1-.273,7.612-.273,14.677,0,4.647,1.451,9.254,2.779,12.9a12.463,12.463,0,0,0,3.338-1.242s4.8,3.7,5.665.653C1749.8-282.7,1752.25-284,1753.469-284.52Z" transform="translate(-1683.118 385.63)"/><path class="h" d="M1769.37-292.177a23.985,23.985,0,0,0-3.863-7.1s3.511-6.079-2.1-7.092c0,0,5.265-8.448.7-8.109s-4.565-3.041-4.565-3.041-3.509-3.38-5.615-1.351c0,0-2.457-7.434-5.616-3.38l-5.618,2.029s0-5.745-3.863-3.716a22.23,22.23,0,0,1-7.369,2.365s2.455-6.082-2.108-3.378a41.227,41.227,0,0,0-7.022,5.068s1.056-5.745-1.754-4.055-3.161-.676-3.161-.676a5.257,5.257,0,0,0-.89-4.581,13.554,13.554,0,0,0,.061,2,22.817,22.817,0,0,0-5.229-.217c-2.833.217,0,6.755,0,6.755s-6.972,6.533-2.833,12.418c0,0-5.012,5.229-.872,7.844,0,0-5.01,5.448-2.178,8.281,1.552,1.551,2.577,1.334,3.191.823-1.225,1.916-3.194,5.929.733,7.236,5.227,1.743,7.844-.653,7.844-.653s1.306,9.588,5.446,6.974,5.012-4.141,5.012-4.141,1.743,6.972,5.229,5.229a11.417,11.417,0,0,0,4.793-4.139s-1.307,5.012,2.4,5.665,4.142-2.4,4.142-2.4,2.4,3.269,4.575,2.616a18.112,18.112,0,0,0,3.922-1.745,3.764,3.764,0,0,0,3.923,2.4,12.909,12.909,0,0,0,5.229-1.524,13.543,13.543,0,0,0,1.913,1.195c4.358,2.441,5.084-1.94,4.592-4.617-1.054-5.745-2.9-6.9-2.9-6.9S1771.127-287.446,1769.37-292.177Z" transform="translate(-1701.532 380.317)"/><path class="i" d="M1734.361-302.051c1.192,0,2.163-.551,2.163-1.228s-.971-1.228-2.163-1.228-2.163.553-2.163,1.228S1733.169-302.051,1734.361-302.051Z" transform="translate(-1686.027 394.187)"/><path class="i" d="M1716.089-303.425c1.193,0,2.163-.551,2.163-1.228s-.97-1.229-2.163-1.229-2.163.551-2.163,1.229S1714.9-303.425,1716.089-303.425Z" transform="translate(-1696.294 393.413)"/><path class="e" d="M1748.486-304.027s.323,3.291,2.324,3.614,3.228-.194,3.939-.967a7.362,7.362,0,0,0,1.162-1.873s-1.034,3.678-2.969,3.873S1748.164-298.734,1748.486-304.027Z" transform="translate(-1676.89 394.456)"/><path class="e" d="M1773.519-321.615s.6,1.568-1.927,2.652a4.973,4.973,0,0,1-4.341,0s3.616-.362,4.52-1.084,1.265-1.568,1.085-1.929a10.755,10.755,0,0,1-.423-1.086S1773.58-322.639,1773.519-321.615Z" transform="translate(-1666.332 383.761)"/><path class="e" d="M1756.955-309.025a2.418,2.418,0,0,0,2.432,1.218c1.653-.262,4.17.084,5.214-2.346s.7-3.217.7-3.217,1.3,2.957-.522,4.693S1758.259-305.287,1756.955-309.025Z" transform="translate(-1672.118 389.206)"/><path class="e" d="M1766.951-322.358s3.06,1.481,2.468,4.147-4.737,3.652-4.737,3.652,3.453-1.281,3.258-3.553A16.809,16.809,0,0,0,1766.951-322.358Z" transform="translate(-1667.776 384.156)"/><path class="e" d="M1771.674-331.881a3.828,3.828,0,0,0,1.162,2.279c1.012.861,2.886,1.874,3.8,1.821l.911-.05s-.506,1.417-3.239,0A4.374,4.374,0,0,1,1771.674-331.881Z" transform="translate(-1663.855 378.805)"/><path class="e" d="M1766.338-318.207a2.373,2.373,0,0,1,.881,2.586c-.519,1.606-3.466,4.864-5.277,4.141s.776-.415,2.016-1.552,2.332-3.984,1.916-4.915S1765.512-319.138,1766.338-318.207Z" transform="translate(-1669.666 386.162)"/><path class="e" d="M1763.187-324.548s.682,1.546-.036,2.479a5.049,5.049,0,0,1-2.046,1.4s2.443.323,2.8-1.474S1764.087-324.115,1763.187-324.548Z" transform="translate(-1669.786 382.926)"/><path class="e" d="M1770.964-328.3s.681,1.548-.037,2.479a5.078,5.078,0,0,1-2.045,1.4s2.44.323,2.8-1.473S1771.862-327.867,1770.964-328.3Z" transform="translate(-1665.416 380.817)"/><path class="f" d="M1763.992-318.156a1.338,1.338,0,0,1,.069,1.284c-.3.85-1.09,2.008-1.126,1.507s.623-1.492.519-1.976S1763.491-318.64,1763.992-318.156Z" transform="translate(-1668.759 386.434)"/><path class="f" d="M1770.53-322.878s1.007,1.029.351,1.588-2.035.845-1.849.447.96-.258,1.031-.867S1770.366-323.16,1770.53-322.878Z" transform="translate(-1665.341 383.832)"/><path class="f" d="M1770.456-327.738a.849.849,0,0,1-.3,1.193c-.75.536-.937.4-.7,0A9.81,9.81,0,0,1,1770.456-327.738Z" transform="translate(-1665.151 381.133)"/><path class="j" d="M1774.379-335.447a.867.867,0,0,1-.281,1.357c-.912.654-2.669.867-2.644.586s1.217-.211,1.754-.7l.54-.49S1774.284-335.916,1774.379-335.447Z" transform="translate(-1663.971 376.741)"/><path class="f" d="M1776.421-330.16a.856.856,0,0,1-1.078.818c-1.078-.116-2.085-.469-1.615-.679s1.217.187,1.568,0S1776.374-330.746,1776.421-330.16Z" transform="translate(-1662.759 379.623)"/><path class="f" d="M1749.341-303.285s.481,1.32,1.381,1.081,1.919-.72.839-1.14a7.145,7.145,0,0,1-1.8-1.018S1749.28-304.363,1749.341-303.285Z" transform="translate(-1676.399 394.267)"/><path class="f" d="M1745.326-314.251a5.521,5.521,0,0,1,1.178,2.5c0,1.031,1.176-.539.686-1.815S1745.18-315.429,1745.326-314.251Z" transform="translate(-1678.657 388.353)"/><path class="j" d="M1762.582-324.236s0,2.057-1.128,2.254-.1-.587-.049-1.226S1762.533-325.267,1762.582-324.236Z" transform="translate(-1669.885 382.896)"/><path class="k" d="M1803.238-336.3a19.622,19.622,0,0,0-1.7-5.56c-3.962-.654-8.094-1.634-9.637-3.253-1.7-1.785-8.337-2.977-15.27-3.552a4.925,4.925,0,0,0,.245,1.473,39.313,39.313,0,0,1-5.228-1.09c-3.269-.872-1.09,3.488-1.09,3.488a19.508,19.508,0,0,1-6.1-1.09c-2.833-1.089-3.05,3.052-3.05,3.052s-2.182,0-4.794-.217-3.487,3.047-3.487,3.047-1.96-.217-3.485-.217-2.18,3.7-2.18,3.7a21.486,21.486,0,0,1-4.358,1.306c-1.089,0-1.962,2.616-1.962,2.616a13.522,13.522,0,0,0-3.486-.872c-1.96-.219-3.267,3.05-3.267,3.05s-1.743-1.741-3.271-1.526-1.089,6.1-1.089,6.1a6.3,6.3,0,0,0-4.574-.217c-2.4.873-1.524,3.922-1.524,3.922s-.872,1.526-5.014.219-3.267,5.665-3.267,5.665a22.817,22.817,0,0,0-5.229-.217c-2.833.217,0,6.755,0,6.755s-4.562,4.278-4.111,9.028c3.861,1.212,12.234,3.208,24.629,2.761,17.577-.634,27.553.633,36.895-3.8s24.7-16.153,32.936-21.535l10.368-6.783a27.758,27.758,0,0,0-3.319-1.9S1807.378-337.607,1803.238-336.3Z" transform="translate(-1700.594 369.375)"/><path class="l" d="M1809.394-322.757s8.559-5.818,9.587-15.789-7.7-18.408-27.715-22.753c0,0-38.159-4.556-62.646,10.913s-25.982,36-25.982,45.516,8.661,12.493,25.982,11.9,30.62,2.035,42.862-5.7S1809.394-322.757,1809.394-322.757Z" transform="translate(-1702.637 361.925)"/><g transform="translate(0.013 0)"><path class="m" d="M1789.118-323.765c-1.464-8.793-13.48-21.1-28.428-24.326-11.11-2.4-37.108,1.523-49.73,3.691a49.773,49.773,0,0,0-4,5.79c18.781-6.235,40.78-8.437,52.855-5.671,14.066,3.225,22.859,15.241,24.032,25.793.1.937.156,1.938.172,2.98l5.484-3.483A28.49,28.49,0,0,0,1789.118-323.765Z" transform="translate(-1700.223 369.276)"/><path class="m" d="M1771.422-360.09c-1.552-.431-3.178-.836-4.9-1.209a133.073,133.073,0,0,0-19.862-.469,66.2,66.2,0,0,1,17.134,2.7c13.7,4.551,21.305,17.352,21.466,27.967a44.788,44.788,0,0,1-.883,8.52l.273-.173a25.548,25.548,0,0,0,6.03-6.308,29.875,29.875,0,0,0,.333-6.788C1790.494-343.387,1782.666-354.156,1771.422-360.09Z" transform="translate(-1677.912 361.925)"/><path class="m" d="M1747.909-338.146c-9.4-2.027-29.474.467-43.07,2.6-.487,1.414-.887,2.794-1.218,4.141,16.286-4.086,33.316-5.242,43.409-2.928a31.6,31.6,0,0,1,23.536,22.944c.122-.075.242-.142.362-.219,1.542-.973,3.292-2.082,5.179-3.278C1773.9-323.58,1762.263-335.049,1747.909-338.146Z" transform="translate(-1702.097 374.864)"/><path class="m" d="M1743.18-329.7c-8.8-1.9-26.936.166-40.373,2.182-.1,1.331-.144,2.56-.163,3.67,15.1-3.353,30.338-4.18,39.657-2.043a31.761,31.761,0,0,1,19.5,13.666,34.034,34.034,0,0,0,5.629-1.962A42.643,42.643,0,0,0,1743.18-329.7Z" transform="translate(-1702.645 379.608)"/><path class="m" d="M1796.373-321.139a32.217,32.217,0,0,0,.217-11.07c-1.467-8.793-13.48-21.1-28.429-24.326-9.822-2.118-31.282.7-44.846,2.877-.365.22-.725.44-1.082.665a67.755,67.755,0,0,0-8.229,6.08c18.872-6.346,41.115-8.6,53.278-5.813,14.068,3.225,22.861,15.241,24.032,25.791a45.925,45.925,0,0,1-.111,9.084C1793.08-319.044,1794.826-320.153,1796.373-321.139Z" transform="translate(-1696.263 364.531)"/></g><path class="n" d="M1818.951-341.821c-1.04-8.525-9.906-15.617-27.686-19.478,0,0-38.159-4.556-62.646,10.913s-25.982,36-25.982,45.516a9.6,9.6,0,0,0,3.491,7.967c-4.187-13.045-.723-32.615,13.613-44.655,16.382-13.763,48.714-23.156,73.4-17.7C1809.814-355.565,1816.416-347,1818.951-341.821Z" transform="translate(-1702.637 361.925)"/><path class="o" d="M1817.253-337.429c.608-5.324-.167-12.242-6.413-17.191,0,0,4.806,9.176-5.026,17.915s-25.557,14.853-37.355,21.846-18.13,9.612-33.422,10.049-26,.654-28.4-2.187a10.477,10.477,0,0,1-2.621-5.243s-2.983,4.228,4.3,12.828c4.325,2,10.944,2.644,19.873,2.338,17.318-.6,30.62,2.035,42.862-5.7s37.913-24.086,37.913-24.086A25.289,25.289,0,0,0,1817.253-337.429Z" transform="translate(-1702.203 366.029)"/><path class="p" d="M1811.643-339.194c-2.346,5.2-13.579,11.9-26.153,20.621s-35.373,15.088-51.8,15.759a115.947,115.947,0,0,1-28.748-2.636,30.049,30.049,0,0,0,2.515,3.4c4.325,2,10.944,2.644,19.873,2.338,17.318-.6,30.62,2.035,42.862-5.7S1808.1-329.5,1808.1-329.5a25.669,25.669,0,0,0,7.352-8.536,59.025,59.025,0,0,0-1.128-11.889A34.545,34.545,0,0,1,1811.643-339.194Z" transform="translate(-1701.344 368.668)"/><path class="k" d="M1733.4-293.783" transform="translate(-1685.352 400.211)"/></g><path class="q" d="M1779.331-361.253c.152,0,.3,0,.448,0,.167,0,.33,0,.494,0,.144,0,.289,0,.433,0l.476.009c.139,0,.276,0,.414,0l.477.011.387.009c.159,0,.315.009.472.012.12,0,.242,0,.361.009.166,0,.325.011.486.017l.315.009c.178.006.352.014.523.022l.244.009c.18,0,.354.014.528.02l.22.013q.714.033,1.363.07l.234.014c.136.008.27.016.4.025.08,0,.155.009.229.013.122.009.244.016.359.025l.234.016c.111.008.22.014.326.023.067,0,.133.009.2.016.109.006.217.016.319.022.064.006.123.009.184.014.1.009.189.016.28.022.061.006.122.011.183.016.087.009.172.016.255.02l.148.014.237.022.137.011c.066.009.13.013.191.019s.1.008.142.014.1.009.147.013l.119.014.131.012.1.011.081.008.092.009.07.009a.288.288,0,0,1,.054.006l.1.011c.591.128,1.171.262,1.745.4l.567.139c.019,0,.036.009.054.013.084.022.169.044.251.063.273.069.55.136.82.206.216.055.43.114.644.172.333.086.662.176.987.267l.665.192c.306.089.609.18.909.269.222.067.443.136.661.2.289.091.575.184.859.276.216.07.43.141.64.214.281.1.556.194.829.291.2.072.409.145.611.22.276.1.545.206.815.309.186.073.378.144.564.219.317.127.626.258.937.387.267.114.533.228.795.347s.528.231.784.35c.2.1.4.192.6.287s.4.191.592.287.409.209.611.315c.173.092.348.183.518.275.2.111.4.223.6.336.158.089.314.178.465.269.2.119.4.237.6.358.137.084.275.17.409.258q.3.19.594.383c.117.077.232.158.346.237.2.137.4.276.6.419.084.059.162.12.242.18a24.124,24.124,0,0,1,2.768,2.376c.03.031.061.059.089.089.186.189.362.381.536.572.042.045.084.091.123.139.17.186.331.378.489.569l.113.141q.237.293.455.59l.087.119c.149.211.3.42.433.631.014.019.027.041.039.059a14.287,14.287,0,0,1,2.115,5.243l.006.033c.045.256.086.512.116.77l0,.009h0a14.624,14.624,0,0,1,.031,3.277,19.8,19.8,0,0,1-1.8,6.388l-.048.1c-.176.372-.359.732-.553,1.085l-.054.1c-.387.706-.8,1.37-1.228,1.993-.023.033-.047.069-.072.1-.1.144-.2.287-.3.428-.016.02-.031.041-.047.062-.1.134-.194.264-.292.394l-.022.031-.169.214c-.01.012-.019.027-.028.037-.152.2-.3.383-.456.565-.013.016-.022.03-.034.042-.217.261-.429.506-.642.742l-.073.083c-.117.13-.233.256-.35.378l0,0c-.167.18-.329.348-.492.512l-.009.009c-.123.125-.245.245-.364.364a.647.647,0,0,0-.067.064q-.283.269-.543.509c-.019.016-.034.03-.052.047l-.375.334c.25.136.547.3.877.5l.01.006c.4.237.856.515,1.36.843l.025.014c.515.336,1.079.717,1.691,1.153a3.093,3.093,0,0,1,.376.32l.055.056a1.874,1.874,0,0,1,.239.314.564.564,0,0,1,.034.063,1.424,1.424,0,0,1,.131.319.36.36,0,0,1,.006.039,1.279,1.279,0,0,1,.031.306v.048a1.378,1.378,0,0,1-.053.315l-.019.07a1.958,1.958,0,0,1-.124.306c-.009.022-.022.041-.033.061a2.625,2.625,0,0,1-.175.287l-.023.034c-.072.1-.153.2-.236.3-.021.022-.041.045-.062.067-.081.094-.17.183-.262.275a.727.727,0,0,0-.072.067c-.1.087-.2.177-.3.261l-.042.034c-.1.08-.2.156-.294.231l-.07.053c-.1.075-.206.15-.309.222l-.078.055c-.1.07-.206.137-.308.2a.393.393,0,0,0-.045.031c-.1.061-.2.122-.288.177a.174.174,0,0,1-.028.016c-.1.061-.194.112-.28.162-.011.008-.022.011-.033.019-.345.2-.578.306-.578.306a1.254,1.254,0,0,1,.225-.016,2.271,2.271,0,0,1,.412.037h0a4.039,4.039,0,0,1,.686.187c.026.009.053.02.081.033.1.037.209.083.322.134l.145.069q.159.08.337.178c.05.025.1.052.144.08.166.1.336.2.517.326.042.027.087.061.126.089.147.1.3.211.453.331.069.053.137.108.208.167.145.114.3.242.448.375.069.061.137.117.209.184.223.2.455.417.7.659,3.267,3.267-.436,3.92-.436,3.92s0,0,.475,1.662v0l.066.231c.094.326.2.706.333,1.16a1.927,1.927,0,0,1-.29,1.851h0l0,0c-.851,1.037-2.8,1.176-3.288,1.193h-.037l-.058,0h-.028a7.945,7.945,0,0,1,2.4,3.486,1.977,1.977,0,0,1,.136.473c0,.025,0,.048,0,.073a1.691,1.691,0,0,1,0,.356c0,.012-.008.028-.009.042a1.612,1.612,0,0,1-.1.345l0,0c-.676,1.549-3.952,1.976-3.952,1.976s2.179,1.528,1.526,5.012c-.35,1.857-2.123,2.294-3.7,2.294a11.314,11.314,0,0,1-2.615-.333s.653,1.524.216,5.012a1.577,1.577,0,0,1-1.771,1.495c-1.944,0-4.765-1.713-4.765-1.713l-.023,0c-.153,0-1.009.18-.412,4.359.336,2.344-1.045,2.913-2.471,2.913a9.232,9.232,0,0,1-2.757-.515s1.087.87.87,4.141c-.13,1.962-2.065,2.354-3.591,2.354a10.042,10.042,0,0,1-1.857-.177c2.615,3.271-6.755,5.665-6.755,5.665a3.937,3.937,0,0,0-3.268,3.7c-.1,1.584-1.792,1.991-3.5,1.991a17.419,17.419,0,0,1-3.685-.465s-.278.089-.7.27c-.141.059-.3.134-.469.214l-.066.033c-.177.086-.364.181-.558.292l-.022.011c-.175.1-.356.211-.539.33-.044.028-.086.055-.128.084-.2.13-.389.269-.58.42l-.044.036c-.17.137-.339.289-.5.445-.044.045-.091.089-.136.134-.123.128-.24.265-.353.406-.184,1.553-.878,2.928-2.426,2.928a4.524,4.524,0,0,1-2.06-.614c-.055-.027-.106-.052-.158-.078l-.027-.011c-.025-.014-.052-.03-.08-.042a13.713,13.713,0,0,1-1.267-.753l-.009-.008c-.084-.053-.156-.1-.222-.152a.167.167,0,0,1-.022-.014c-.063-.044-.116-.08-.159-.114l-.02-.016-.135-.1-.055.031-.008,0a12.664,12.664,0,0,1-3.272,1.206l0,0a13.026,13.026,0,0,1-1.891.283c-.124.008-.242.013-.358.013a3.745,3.745,0,0,1-3.566-2.41,18.11,18.11,0,0,1-3.922,1.745,2.044,2.044,0,0,1-.383.072c-.044,0-.088,0-.131,0s-.084,0-.126,0-.084,0-.128,0-.1-.009-.153-.017a2.221,2.221,0,0,1-.227-.044,1.641,1.641,0,0,1-.167-.041,1.992,1.992,0,0,1-.2-.07c-.059-.022-.117-.041-.175-.064s-.119-.056-.178-.086-.13-.061-.194-.094l-.014-.009a9.131,9.131,0,0,1-2.494-2.266,3.022,3.022,0,0,1-3.153,2.49,5.624,5.624,0,0,1-.989-.092c-3.7-.653-2.4-5.665-2.4-5.665a11.417,11.417,0,0,1-4.793,4.139,2.46,2.46,0,0,1-1.1.28c-2.754,0-4.131-5.509-4.131-5.509s-.871,1.524-5.012,4.141a2.578,2.578,0,0,1-1.37.451c-3.066,0-4.076-7.425-4.076-7.425a6.477,6.477,0,0,1-4.22,1.29,11.388,11.388,0,0,1-3.623-.637,4.453,4.453,0,0,1-.6-.244c-.047-.025-.092-.044-.137-.07a3.976,3.976,0,0,1-.475-.289l-.008-.008a3.1,3.1,0,0,1-.369-.334c-.03-.031-.056-.061-.084-.094a2.766,2.766,0,0,1-.273-.37l-.006-.013a2.776,2.776,0,0,1-.186-.4l-.038-.108a2.894,2.894,0,0,1-.108-.428v-.019a3.271,3.271,0,0,1-.039-.433c0-.042,0-.081,0-.123a4,4,0,0,1,.023-.453l0-.028c.019-.148.042-.3.073-.445l.026-.128c.034-.151.073-.3.119-.458l.012-.036c.045-.145.094-.289.147-.43.016-.045.031-.086.047-.128.056-.147.115-.294.179-.434a.421.421,0,0,1,.021-.047c.059-.134.122-.264.184-.39l.063-.123c.066-.131.134-.259.2-.384l.031-.052c.064-.117.128-.226.192-.334.022-.036.041-.07.061-.106l.2-.325,0,0h0a1.57,1.57,0,0,1-.234.166l-.043.023a2.106,2.106,0,0,1-.225.1l-.083.025a1.475,1.475,0,0,1-.225.045c-.037.006-.075.009-.114.013h-.067c-.055,0-.109,0-.166-.008s-.094-.011-.142-.017a2.349,2.349,0,0,1-.248-.066c-.055-.017-.106-.03-.163-.053-.091-.037-.184-.086-.28-.134-.058-.03-.113-.055-.17-.091-.108-.066-.222-.147-.336-.233-.052-.037-.1-.069-.156-.112a6.512,6.512,0,0,1-.539-.483c-2.832-2.833,2.178-8.281,2.178-8.281-4.14-2.615.872-7.844.872-7.844a6.914,6.914,0,0,1-1.306-4.237v-.058a7.879,7.879,0,0,1,.073-.822l.009-.067c.021-.136.042-.27.069-.4a12.149,12.149,0,0,1-2.344-1.47l0,0a9.419,9.419,0,0,1-.815-.733v0a8.848,8.848,0,0,1-.708-.807v0a8.658,8.658,0,0,1-.567-.831l-.047-.078a8.47,8.47,0,0,1-.47-.915l-.014-.03c-.126-.294-.238-.6-.337-.909-.017-.059-.037-.119-.055-.18-.1-.326-.183-.662-.25-1.014a.5.5,0,0,1-.009-.059c-.061-.32-.106-.656-.141-1-.009-.091-.017-.183-.023-.275-.03-.369-.05-.742-.05-1.129a56.036,56.036,0,0,1,1.537-13.6v-.009a47.449,47.449,0,0,1,5.208-12.782h0v0q.4-.68.839-1.367c.024-.036.045-.075.072-.112.287-.451.587-.9.9-1.351.025-.034.048-.069.073-.1.317-.458.646-.918.986-1.376.014-.02.03-.039.045-.061.35-.469.71-.94,1.088-1.412l0,0a55.458,55.458,0,0,1,7-7.256h0l.006-.006q.9-.775,1.857-1.546h0c.614-.5,1.25-.982,1.9-1.47l.091-.069c.6-.444,1.221-.884,1.854-1.32.092-.066.177-.13.27-.192q1.089-.745,2.248-1.477c.358-.225.717-.445,1.082-.665h0c13.063-7.817,29.685-10.213,42.365-10.746l.438-.019c.2-.006.4-.012.592-.02.161,0,.326-.013.487-.017q.288-.009.573-.014c.162-.006.323-.011.484-.012.186-.006.368-.009.553-.016l.486-.009c.177,0,.353,0,.528-.006s.326,0,.49-.006.334,0,.5,0,.33,0,.49,0h.971m40.29,20.1v0m-40.29-21.966H1778.1l-.245,0-.172,0-.344,0-.494,0-.532.009-.242,0-.245.006c-.2,0-.383.008-.57.011l-.484.011-.587.02c-.115,0-.244.008-.372.011l-.118.006-.6.02c-.142,0-.3.011-.447.019-12.186.509-29.588,2.838-43.24,11.01-.376.223-.748.451-1.121.686-.775.492-1.55,1-2.3,1.515-.069.047-.125.091-.183.13l-.1.073c-.732.506-1.337.939-1.9,1.348l-.081.064c-.7.522-1.36,1.031-1.968,1.518l-.025.02c-.637.512-1.267,1.037-1.869,1.56l-.027.02h0a57.873,57.873,0,0,0-7.234,7.5h0l-.021.025c-.387.486-.762.97-1.113,1.446h0l-.045.058c-.358.484-.7.965-1.023,1.431l-.072.106c-.345.5-.651.957-.934,1.4l-.042.069-.028.045c-.333.522-.617.986-.876,1.424l-.014.023a49.564,49.564,0,0,0-5.391,13.232l-.008.038a57.787,57.787,0,0,0-1.59,14.044c0,.4.017.806.053,1.276.008.1.019.2.028.3.044.437.1.812.159,1.157l.011.069c.077.394.172.783.3,1.2.023.08.047.151.07.222.12.378.25.729.392,1.059l.017.042a10.759,10.759,0,0,0,.578,1.126.738.738,0,0,0,.041.066,10.854,10.854,0,0,0,.678,1l.031.042h0a11.266,11.266,0,0,0,.854.973,11.6,11.6,0,0,0,.943.857l.028.022h0a13.121,13.121,0,0,0,1.513,1.054l-.009.194v.092a8.7,8.7,0,0,0,.9,4.086c-.989,1.314-2.346,3.591-2.063,5.9a4.811,4.811,0,0,0,.92,2.3c-1.973,2.711-3.652,6.725-.953,9.426a9.124,9.124,0,0,0,.688.617,2.553,2.553,0,0,0,.206.152c.162.122.317.231.5.342.059.033.119.067.178.1-.058.161-.112.32-.162.481-.009.028-.019.056-.027.084-.056.19-.1.384-.15.578-.011.034-.022.1-.034.156-.041.2-.073.4-.1.592,0,.019,0,.037-.008.055h0c-.02.208-.033.422-.033.658l0,.156a5.46,5.46,0,0,0,.052.647c0,.027.01.052.013.078h0a4.74,4.74,0,0,0,.173.7c.022.066.041.114.058.166a4.5,4.5,0,0,0,.3.648c.016.027.03.056.045.081a4.519,4.519,0,0,0,.464.636c.059.067.1.116.148.164a5.118,5.118,0,0,0,.55.5l.063.047a5.5,5.5,0,0,0,.715.444c.055.028.125.066.2.1a7.275,7.275,0,0,0,.82.337,13.369,13.369,0,0,0,4.212.729,9.888,9.888,0,0,0,2.855-.406c.708,2.821,2.248,6.541,5.441,6.541a4.414,4.414,0,0,0,2.365-.739,32.8,32.8,0,0,0,3.271-2.327c.922,1.909,2.476,3.983,4.878,3.983a4.288,4.288,0,0,0,1.932-.476,16.01,16.01,0,0,0,2.287-1.39,5.038,5.038,0,0,0,.489.982,4.713,4.713,0,0,0,3.257,2.1,7.591,7.591,0,0,0,1.312.119,4.953,4.953,0,0,0,3.517-1.3,8.319,8.319,0,0,0,1.193.822l.03.017a.2.2,0,0,0,.044.025c.073.039.148.075.222.112l.039.017c.1.047.175.083.256.12s.175.069.264.1.209.075.322.108a2.913,2.913,0,0,0,.284.072,3.757,3.757,0,0,0,.386.07c.078.011.161.022.247.031.1.006.194.009.284.009.069,0,.139,0,.208,0s.151,0,.236-.012a4.1,4.1,0,0,0,.726-.142,19.27,19.27,0,0,0,2.746-1.073,5.524,5.524,0,0,0,4.212,1.816c.158,0,.322-.006.489-.019a14.272,14.272,0,0,0,2.168-.323l.012,0a15.335,15.335,0,0,0,2.761-.9c.378.239.757.459,1.135.654l.045.023.03.016.008,0h0a.255.255,0,0,0,.036.019l.008,0c.052.025.1.05.158.078a6.343,6.343,0,0,0,2.894.807c2.135,0,3.7-1.5,4.181-3.962l0,0,.037-.036c.124-.119.245-.228.361-.322a.316.316,0,0,0,.036-.03l.028-.022c.12-.094.258-.2.433-.312l.1-.066c.153-.1.3-.189.448-.272.178-.1.333-.18.478-.25a.221.221,0,0,0,.038-.02c.161-.075.293-.136.412-.189.037-.014.07-.03.1-.044a18.612,18.612,0,0,0,3.547.39c4.62,0,5.292-2.608,5.366-3.731a2.028,2.028,0,0,1,1.671-1.982c.067-.009.133-.022.2-.037,1.715-.44,7.4-2.113,8.437-5.228.025-.07.045-.141.064-.211,4.481-.153,5.037-3.152,5.1-4.089a12.707,12.707,0,0,0,0-1.88h.03a4.328,4.328,0,0,0,3.45-1.37,4.413,4.413,0,0,0,.867-3.677c-.077-.545-.126-1-.156-1.376a9.593,9.593,0,0,0,3.511.861,3.418,3.418,0,0,0,3.622-3.127,18.769,18.769,0,0,0,.155-3.053c.13,0,.259.006.394.006,4.351,0,5.321-2.666,5.535-3.814a7.642,7.642,0,0,0-.334-4.251,4.869,4.869,0,0,0,2.611-2.276l.028-.061a3.147,3.147,0,0,0,.211-.689,1.8,1.8,0,0,0,.034-.181,3.2,3.2,0,0,0,.014-.712,1.93,1.93,0,0,0-.019-.245,3.934,3.934,0,0,0-.262-.928,14.222,14.222,0,0,0-.793-1.617,4.419,4.419,0,0,0,1.5-1.121l.044-.05h0a3.805,3.805,0,0,0,.633-3.541l-.12-.423-.214-.743-.06-.211c-.012-.042-.025-.084-.034-.127a3.318,3.318,0,0,0,1.268-1.69c.45-1.431-.139-2.974-1.751-4.586-.237-.236-.479-.467-.765-.723-.045-.044-.1-.092-.159-.144l-.062-.053c-.186-.159-.351-.3-.515-.431-.1-.08-.17-.139-.242-.192-.175-.136-.348-.262-.515-.378l-.031-.022-.052-.039.009-.009c.139-.134.258-.253.37-.378.033-.036.059-.067.089-.1.126-.144.236-.281.337-.417l.023-.037.034-.05c.1-.144.191-.3.272-.444.022-.044.041-.08.058-.112a3.66,3.66,0,0,0,.234-.586,1.1,1.1,0,0,0,.045-.159,3.276,3.276,0,0,0,.111-.69c0-.042,0-.1,0-.148a3.279,3.279,0,0,0-.065-.647.5.5,0,0,0-.019-.092.531.531,0,0,0-.016-.067,3.236,3.236,0,0,0-.3-.74c-.016-.031-.039-.072-.064-.117a3.844,3.844,0,0,0-.481-.637,1.215,1.215,0,0,0-.1-.1,4.624,4.624,0,0,0-.611-.52c-.586-.42-1.178-.823-1.76-1.2l-.045-.027-.183-.12q.1-.1.2-.211l.028-.033c.114-.122.234-.25.35-.378l.08-.089c.225-.251.456-.515.686-.795a.088.088,0,0,0,.022-.025l.016-.019c.159-.194.319-.391.476-.594l.053-.069.045-.056.12-.151.03-.042c.1-.137.209-.28.314-.422l.048-.066.326-.461.058-.086q.746-1.085,1.344-2.173l.025-.042.034-.066c.206-.376.407-.773.6-1.174l.039-.086a21.739,21.739,0,0,0,1.979-7.014,16.632,16.632,0,0,0-.03-3.645.709.709,0,0,0-.009-.078c-.038-.286-.08-.572-.13-.853,0-.011-.011-.058-.014-.069a16.147,16.147,0,0,0-2.377-5.891l-.052-.08c-.145-.223-.306-.454-.473-.687l-.023-.031-.076-.106c-.156-.212-.323-.428-.5-.645l-.066-.083-.056-.07c-.181-.216-.359-.428-.545-.636-.023-.028-.059-.069-.1-.111l-.034-.037c-.189-.209-.383-.417-.586-.625l-.061-.061-.037-.034a26.1,26.1,0,0,0-2.98-2.561l-.058-.044c-.069-.052-.136-.1-.206-.152-.2-.147-.416-.3-.633-.442l-.031-.025c-.114-.078-.227-.156-.342-.231-.2-.131-.408-.266-.62-.4l-.056-.037c-.123-.08-.25-.156-.378-.236-.211-.128-.422-.255-.634-.38-.159-.1-.323-.187-.491-.283-.2-.114-.415-.234-.632-.353l-.419-.22-.119-.062-.087-.045c-.184-.1-.367-.194-.556-.287-.15-.076-.3-.15-.458-.223l-.155-.075-.2-.1c-.141-.069-.281-.136-.428-.2-.24-.112-.487-.222-.732-.33l-.081-.036c-.275-.122-.55-.244-.833-.361-.317-.134-.639-.27-.968-.4-.145-.059-.3-.119-.448-.173l-.137-.053c-.273-.1-.553-.216-.84-.319-.166-.061-.34-.125-.517-.186l-.108-.041c-.284-.1-.567-.2-.856-.3-.217-.073-.437-.145-.659-.219-.289-.1-.584-.191-.881-.284l-.678-.209c-.308-.094-.618-.184-.934-.276-.223-.064-.45-.131-.676-.2-.337-.094-.675-.184-1.01-.275l-.236-.062c-.142-.037-.283-.078-.428-.112-.2-.053-.409-.1-.615-.156l-.215-.053-.137-.033-.125-.031-.061-.016-.244-.061-.326-.078c-.587-.139-1.181-.275-1.785-.406-.055-.013-.112-.022-.167-.03l-.1-.011c-.031,0-.064-.008-.1-.009l-.052-.008-.128-.013-.067-.006-.1-.012-.141-.014-.1-.008-.161-.017-.05,0-.086-.008-.216-.022-.083-.006-.05,0-.151-.014-.089-.008-.158-.014-.176-.016-.081-.006-.186-.016-.292-.022-.1-.008-.073-.006-.145-.011-.2-.014-.043,0-.142-.013-.134-.009-.208-.016-.237-.016-.364-.023-.24-.014-.206-.014-.175-.013-.239-.011c-.45-.027-.911-.052-1.393-.073l-.116-.006-.1,0-.4-.019-.137-.008-.189,0-.071,0-.521-.02-.2-.006-.125,0-.22-.008-.272-.009-.192,0-.17,0-.256-.006-.22-.006-.4-.008-.247-.006-.228,0-.236,0-.2,0-.231,0-.247,0-.439,0-.5,0-.447,0Z" transform="translate(-1693.756 363.118)"/><path class="r" d="M1705.941-308.269s40.012,5.566,54.832.086c15.3-6.468,50.547-29.847,50.547-29.847" transform="translate(-1691.23 377.214)"/><path class="r" d="M1744.091-319.734s2.772,1.451-1.84,8.056c0,0,5.3.156,2.1,7.092,0,0,4.194,5.048,4.194,8.635s-4.194,4.544-4.194,4.544,2.944,3.314,3.681,9.9" transform="translate(-1670.828 387.494)"/><ellipse class="q" cx="3.713" cy="1.577" rx="3.713" ry="1.577" transform="matrix(0.054, -0.999, 0.999, 0.054, 33.114, 85.843)"/><ellipse class="q" cx="3.713" cy="1.577" rx="3.713" ry="1.577" transform="matrix(0.054, -0.999, 0.999, 0.054, 52.356, 87.566)"/><path class="r" d="M1721.28-303.619s.29,1.059,1.974,1.151a2.522,2.522,0,0,0,2.362-1.412" transform="translate(-1682.611 396.402)"/><path class="r" d="M1728.337-303.151s-.4,1.021-2.086.929a2.518,2.518,0,0,1-2.195-1.659" transform="translate(-1681.051 396.402)"/><ellipse class="e" cx="3.159" cy="4.416" rx="3.159" ry="4.416" transform="translate(91.247 74.039) rotate(-12.029)"/><line class="a" y1="15.58" x2="14.236" transform="translate(96.036 61.484)"/><path class="b" d="M1764.682-325.02l.762,4.8,4.961.737" transform="translate(-1658.225 384.524)"/></g><path class="s" d="M14.957,11.334l-1.579.337a2.321,2.321,0,0,0-1.238,1.121l-.819,2.326a2.215,2.215,0,0,1-.64.784,3.929,3.929,0,0,1-4.67.011,2.186,2.186,0,0,1-.659-.818L4.63,12.9a2.322,2.322,0,0,0-1.2-1.134L1.68,11.334a2.3,2.3,0,0,1-1.053-.864A3.934,3.934,0,0,1,.762,6.013a2.191,2.191,0,0,1,.823-.661l2.174-.708A2.319,2.319,0,0,0,4.9,3.447l.447-1.771A2.3,2.3,0,0,1,6.2.629a3.932,3.932,0,0,1,4.445.122,2.143,2.143,0,0,1,.678.861l.612,2.035A2.321,2.321,0,0,0,13.108,4.8l1.94.548a2.17,2.17,0,0,1,.887.692,3.931,3.931,0,0,1,.128,4.408A2.273,2.273,0,0,1,14.957,11.334Z" transform="matrix(0.978, -0.208, 0.208, 0.978, 154.291, 108.074)"/><path class="s" d="M14.957,11.334l-1.579.337a2.322,2.322,0,0,0-1.239,1.121l-.818,2.326a2.215,2.215,0,0,1-.64.784,3.929,3.929,0,0,1-4.67.011,2.186,2.186,0,0,1-.659-.818L4.63,12.9a2.322,2.322,0,0,0-1.2-1.134L1.68,11.334a2.3,2.3,0,0,1-1.053-.864A3.934,3.934,0,0,1,.762,6.013a2.192,2.192,0,0,1,.823-.661l2.174-.708A2.319,2.319,0,0,0,4.9,3.447l.447-1.771A2.3,2.3,0,0,1,6.2.629a3.932,3.932,0,0,1,4.445.122,2.143,2.143,0,0,1,.678.861l.612,2.035A2.321,2.321,0,0,0,13.108,4.8l1.94.548a2.172,2.172,0,0,1,.887.692,3.93,3.93,0,0,1,.128,4.408A2.272,2.272,0,0,1,14.957,11.334Z" transform="translate(13.181 24.627) rotate(-20)"/><ellipse class="t" cx="4.686" cy="4.686" rx="4.686" ry="4.686" transform="translate(181.969 122.524)"/><ellipse class="t" cx="4.686" cy="4.686" rx="4.686" ry="4.686" transform="translate(45.489)"/><ellipse class="t" cx="3.124" cy="3.124" rx="3.124" ry="3.124" transform="translate(159.77 141.406) rotate(-42)"/><ellipse class="t" cx="3.124" cy="3.124" rx="3.124" ry="3.124" transform="translate(10.557 131.39) rotate(-42)"/><ellipse class="u" cx="1.562" cy="1.562" rx="1.562" ry="1.562" transform="translate(142.804 130.333)"/><ellipse class="u" cx="1.562" cy="1.562" rx="1.562" ry="1.562" transform="translate(39.242 31.91)"/><ellipse class="u" cx="1.562" cy="1.562" rx="1.562" ry="1.562" transform="translate(0 24.349) rotate(-42)"/></svg>