<svg xmlns="http://www.w3.org/2000/svg" width="190.705" height="129.755" viewBox="0 0 190.705 129.755"><defs><style>.a,.g{fill:#fff;}.a,.aa,.ab,.c,.d,.e{stroke:#030504;}.a,.aa,.ab,.c,.d{stroke-linecap:round;stroke-linejoin:round;}.a,.aa,.ab,.ac,.b,.d,.e,.g,.h,.j,.l,.m,.n,.p,.r,.s,.t{fill-rule:evenodd;}.b{fill:#e93434;stroke:#040504;}.b,.e,.x{stroke-miterlimit:10;}.aa,.c,.d,.x{fill:none;}.c,.d{stroke-width:3px;}.e{fill:#24272c;}.f{fill:#0e1014;}.h{fill:#223914;}.i{fill:#9fbe3b;}.j{fill:#e94153;}.k{fill:#1a1818;}.l{fill:#ed6313;}.m{fill:#d24b13;}.n{fill:#f98d3f;}.o{fill:#fd9834;}.p{fill:#d96126;}.q{fill:#67903f;}.r{fill:#eac833;}.s{fill:#ffdd49;}.t{fill:#857906;}.u{fill:#ffc777;}.v{fill:#ffb45a;}.w{fill:#cacf4a;}.x{stroke:#0e1014;}.y{fill:#d3d3d2;}.z{fill:#030504;}.ab{fill:#e72344;}.ac{fill:#357ce1;}.ad,.ae{fill:#0950b5;}.ae{opacity:0.5;}</style></defs><g transform="translate(10.688 12.573)"><path class="a" d="M1847.646-327.4c.782-10.877-8.6-20.417-20.962-21.309s-23.019,7.2-23.8,18.072,8.6,20.417,20.957,21.307a24.828,24.828,0,0,0,10.093-1.349l10.95,8.6-5.634-11.3A18.715,18.715,0,0,0,1847.646-327.4Z" transform="translate(-1802.835 348.775)"/><path class="b" d="M1820.932-338.523a8.461,8.461,0,0,1,4.047-4.133c7.131-3.269,12.19,3.13,10.542,10.335-1.315,5.757-7.758,12.315-10.285,14.7-3.263-1.2-11.77-4.682-15.258-9.448-4.358-5.965-2.238-13.844,5.605-13.66A8.474,8.474,0,0,1,1820.932-338.523Z" transform="translate(-1800.074 351.72)"/><g transform="translate(-2094.521 296.555)"><line class="c" y1="22.642" x2="19.757" transform="translate(2251.483 -271.95)"/><path class="d" d="M2237.641-277.88l.637,4.009,4.145.616" transform="translate(30.412 4.275)"/><path class="d" d="M2209.161-238.109l11.976,9.921-6.748,8.358,2.784,3.476" transform="translate(21.734 16.393)"/><path class="d" d="M2184.62-244.271l.485,42.123-3.433,6.22" transform="translate(13.358 14.516)"/><g transform="translate(2146.474 -291.91)"><path class="e" d="M2158.637-213.085l0-.009v-.007l-12.4-47.251,101.371-26.6,12.411,47.3-.005,0c1.51,6.188-19.828,17.119-47.755,24.446s-51.881,8.28-53.6,2.148l-.005,0Z" transform="translate(-2143.913 293.422)"/><path class="f" d="M2159.524-269.512c3.092,11.783,10.316,39.315,11.854,45.178,1.969,7.507,12.752,6.462,26.037,4.76,7.528-.967,23.965-5.069,36.8-8.444a213.378,213.378,0,0,1-23.336,7.507c-23.543,6.176-44.263,7.823-51.221,4.514l-12.978-49.469c-.08-.214-.139-.42-.2-.626Z" transform="translate(-2143.838 298.735)"/><path class="g" d="M2146.163-259.415c1.621,6.184,25.631,5.24,53.622-2.1s49.371-18.312,47.749-24.493-25.63-5.24-53.622,2.107S2144.542-265.593,2146.163-259.415Z" transform="translate(-2143.962 292.463)"/><path class="h" d="M2163.24-267.171c.912,3.469,14.391,2.942,30.106-1.181s27.721-10.281,26.811-13.752-14.39-2.942-30.106,1.182S2162.331-270.642,2163.24-267.171Z" transform="translate(-2138.747 294.199)"/><path class="i" d="M2212.453-282.1c.6,2.295-4.445,5.764-12.476,9.044a12.683,12.683,0,0,1-4.411-.313c-8.477-2.245-6.992-6.963-6.992-6.963a3.6,3.6,0,0,1,1.452-2.355C2202.236-285.108,2211.7-284.991,2212.453-282.1Z" transform="translate(-2131.043 294.2)"/><g transform="translate(41.33 58.835)"><path class="j" d="M2182.969-241.812c3.429-.9,5.965-2.639,5.64-3.871s-3.383-1.5-6.812-.6-5.962,2.641-5.636,3.872S2179.543-240.912,2182.969-241.812Z" transform="translate(-2176.133 246.816)"/></g><g transform="translate(83.892 45.443)"><path class="j" d="M2215.592-252.075c3.43-.9,5.965-2.641,5.64-3.872s-3.382-1.5-6.812-.6-5.961,2.639-5.636,3.871S2212.165-251.175,2215.592-252.075Z" transform="translate(-2208.755 257.08)"/></g><path class="k" d="M2234.315-289.73c7.932,0,13.059,1.341,13.778,4.082.018.072.018.146.031.217l.024-.005,12.411,47.3-.005,0c1.51,6.188-19.828,17.119-47.755,24.446-15.566,4.086-29.9,6.191-39.835,6.191-7.889,0-13.007-1.329-13.77-4.043l-.005,0-.009-.035,0-.01,0-.008-12.4-47.25.026-.007c-.026-.069-.062-.132-.082-.2-1.619-6.179,19.76-17.146,47.75-24.491,15.567-4.084,29.907-6.19,39.844-6.19m0-2.18c-10.507,0-25.232,2.282-40.4,6.26-18.26,4.791-52.063,16.63-49.3,27.165.01.039.021.073.033.107s.014.061.022.091l12.388,47.216c.007.03.014.056.022.085l0,.013a2.034,2.034,0,0,0,.064.2c1.177,3.669,6.354,5.455,15.817,5.455,10.507,0,25.227-2.283,40.388-6.26,18.063-4.74,51.452-16.416,49.365-26.87a1.941,1.941,0,0,0-.049-.243l-12.41-47.3c-.009-.033-.019-.065-.029-.1s-.018-.072-.026-.111c-1.009-3.841-6.2-5.709-15.887-5.709Z" transform="translate(-2144.456 291.91)"/><path class="l" d="M2184.914-281.118c.113-.022.219-.046.333-.069,15.943-3.238,16.163,7.839,16.158,8.621-3.331,1.216-7.043,2.378-10.991,3.416-2.814.737-5.555,1.361-8.167,1.864-2.865-1.4-4.047-3.8-5.6-4.641-2.026-1.091-3.283-3.716-3.828-5.1A113.392,113.392,0,0,1,2184.914-281.118Z" transform="translate(-2135.813 294.997)"/><path class="m" d="M2172.819-277.946c.667-.271,1.355-.539,2.062-.808a4.2,4.2,0,0,0-.35,1.233c.008.693,2.829,2.857,5.336,4.976s5.628,2.943,10.734,1.907a65.91,65.91,0,0,0,10.2-3.109l.569-.441c.034.355.037.605.037.7-3.331,1.216-7.043,2.378-10.991,3.416-2.814.737-5.555,1.361-8.167,1.864-2.865-1.4-4.047-3.8-5.6-4.641C2174.621-273.938,2173.364-276.563,2172.819-277.946Z" transform="translate(-2135.813 295.919)"/><path class="n" d="M2182.22-281.118c.113-.022.219-.046.333-.069,15.943-3.238,16.163,7.839,16.157,8.621-.48.174-.985.346-1.482.518.385-3.584-.767-6-3.249-7.683-2.112-1.438-9.167-1.348-12.32-1.225C2181.845-281.012,2182.031-281.064,2182.22-281.118Z" transform="translate(-2133.12 294.997)"/><g transform="translate(38.995 13.226)"><path class="o" d="M2186.576-277.89c3.787-2.539,7.218-3.762,11.891-.1a8.562,8.562,0,0,1,.433.762c-.539-.415-.967-.749-.967-.749a9.07,9.07,0,0,0-7.642-1.126c-3.04.968-9.1,6.306-12.328,9.3-.129-.124-.256-.251-.374-.372A85.436,85.436,0,0,1,2186.576-277.89Z" transform="translate(-2173.355 282.224)"/><path class="o" d="M2188.949-275.327c3.519-1.842,6.661-2.719,10.221-.176.038.218.069.419.088.6a8.908,8.908,0,0,0-6.484-1.229c-2.938.6-8.941,4.739-12.589,7.412a.047.047,0,0,1-.025.005c-.181-.087-.335-.189-.5-.283A81.608,81.608,0,0,1,2188.949-275.327Z" transform="translate(-2172.724 283.202)"/><path class="o" d="M2190.512-281.061a9.822,9.822,0,0,1,1.1.538C2191.206-280.717,2190.816-280.91,2190.512-281.061Z" transform="translate(-2169.417 281.989)"/><path class="o" d="M2182.837-278.777a16.532,16.532,0,0,1,3.572-2.786,23.142,23.142,0,0,1,3.412-.206,8.861,8.861,0,0,0-3.481,1.053c-2.469,1.343-6.585,6.308-9.411,9.963-.136-.14-.272-.275-.4-.4A74.528,74.528,0,0,1,2182.837-278.777Z" transform="translate(-2173.679 281.773)"/><path class="o" d="M2178.508-279.778c.411-.137.826-.274,1.247-.41-1.753,2.071-3.579,4.556-5.03,6.624-.135-.141-.26-.286-.382-.437C2175.6-275.855,2177.107-277.993,2178.508-279.778Z" transform="translate(-2174.344 282.255)"/></g><g transform="translate(38.995 19.976)"><path class="p" d="M2176.929-272.9c-.136-.14-.272-.275-.4-.4.343-.458.706-.938,1.075-1.423.153.128.308.256.459.381C2177.665-273.847,2177.287-273.366,2176.929-272.9Z" transform="translate(-2173.679 277.17)"/><path class="p" d="M2177.963-271.847c-.129-.124-.256-.251-.374-.372.44-.42.946-.9,1.477-1.389.157.11.314.219.475.322C2178.969-272.77,2178.434-272.28,2177.963-271.847Z" transform="translate(-2173.355 277.51)"/><path class="p" d="M2180.161-270.158c-.181-.087-.335-.189-.5-.283.761-.581,1.643-1.238,2.565-1.911.275.053.562.091.854.127-1.046.724-2.037,1.435-2.894,2.063A.047.047,0,0,1,2180.161-270.158Z" transform="translate(-2172.724 277.893)"/><path class="p" d="M2174.726-274.658c-.135-.141-.26-.286-.382-.437.329-.487.676-.992,1.032-1.5.144.129.292.261.449.4C2175.442-275.67,2175.072-275.152,2174.726-274.658Z" transform="translate(-2174.344 276.599)"/></g><path class="q" d="M2196.326-273.2c5.4-1.387,13.929-6.089,13.766-7.95-.177-2.043-4.671-2.012-7.224-1.988a103.219,103.219,0,0,0-14.119,1.935,3.942,3.942,0,0,1,1.194-1.491c12.209-2.418,21.668-2.3,22.427.587.6,2.295-4.445,5.764-12.476,9.044A13.089,13.089,0,0,1,2196.326-273.2Z" transform="translate(-2130.959 294.2)"/><path class="r" d="M2163.24-269.4c-.513-1.96,3.091-4.774,9.155-7.6a6.782,6.782,0,0,1,5.209,1.323c2.887,2.281,7.036,5.262,4.9,7.442C2171.86-266.441,2163.932-266.769,2163.24-269.4Z" transform="translate(-2138.747 296.431)"/><path class="s" d="M2170.283-277a6.782,6.782,0,0,1,5.209,1.323c2.887,2.281,7.036,5.262,4.9,7.442-.206.035-.406.064-.611.1a2.841,2.841,0,0,0,.483-1.887c-.28-1.289-3.542-4-5.33-5.518-1.143-.969-3.36-1.283-4.814-1.384C2170.177-276.947,2170.228-276.974,2170.283-277Z" transform="translate(-2136.634 296.431)"/><path class="t" d="M2168.709-275.766c.333-.181.678-.361,1.036-.545,1.03.137,2.471.35,3.915.638,2.7.536,3.593,1.423,5.075,4.058s-1.181,3.268-5.064,3.5-6.225.318-7.455-2.117-.288-3.606,3.157-4.248,5.758,1.907,5.945,3.37-4.051,1.589-5.135,1.217-1.365-2.2-1.365-2.2a4.561,4.561,0,0,0,1.653,1.8c.976.467,2.989-.125,3.973-.384s-.2-2.249-2.284-2.953a7.04,7.04,0,0,0-5.437.573c-.887.625-.367,2.857.74,3.815s8.085.508,10.174-.042.594-3.242-1.01-4.6C2175.237-275.062,2170.068-275.633,2168.709-275.766Z" transform="translate(-2137.983 296.663)"/><path class="u" d="M2196.644-274.9c.042.231.069.475.09.72a9.7,9.7,0,0,1,1.383.706c-.019-.18-.051-.381-.088-.6A9.626,9.626,0,0,0,2196.644-274.9Zm-13.235-6.114c.469-.005.96-.008,1.467,0a8.972,8.972,0,0,1,2.848-.751,23.144,23.144,0,0,0-3.412.206C2184.008-281.4,2183.707-281.213,2183.409-281.015Zm10.967,2a7.866,7.866,0,0,1,.906.964,6.809,6.809,0,0,1,.878.519s.428.334.967.749a8.562,8.562,0,0,0-.433-.762A13.02,13.02,0,0,0,2194.376-279.012Z" transform="translate(-2132.587 294.999)"/><path class="n" d="M2192.262-278.678a4.071,4.071,0,0,1,.711,1.35c0,.4-.853.119-1,.051s-.382-.09-.588-.878S2191.2-279.262,2192.262-278.678Z" transform="translate(-2130.187 295.85)"/><path class="n" d="M2193.164-275.763s.424,1.215.113,1.632-1.11.9-1.174.5-.035-1.421-.115-1.8S2191.944-276.241,2193.164-275.763Z" transform="translate(-2129.979 296.766)"/><path class="n" d="M2185.5-280.943a26.3,26.3,0,0,1,3.5.294c.072.166-.547.228-1.061.363a7.44,7.44,0,0,1-2.025-.2c-.536-.059-1.15-.036-1.106-.248S2185.5-280.943,2185.5-280.943Z" transform="translate(-2132.16 295.252)"/><path class="n" d="M2181.672-280.888s1.255-.1,1.2.065a1.138,1.138,0,0,1-.738.518c-.393.116-.611-.08-1.027-.211S2181.036-280.892,2181.672-280.888Z" transform="translate(-2133.343 295.259)"/><path class="v" d="M2192.241-276.834s.681.086.791.234.244.382-.141.339-.7-.1-.728-.2S2191.855-276.825,2192.241-276.834Z" transform="translate(-2129.957 296.504)"/><path class="v" d="M2191.156-279.86s.715.418.646.56-.692-.262-1-.287a2.915,2.915,0,0,1-.937-.521S2190.973-280.077,2191.156-279.86Z" transform="translate(-2130.619 295.506)"/><path class="v" d="M2183.9-280.91a1.424,1.424,0,0,1-.518.4c-.231.063-.753.181-.386-.127l.361-.311A4.886,4.886,0,0,1,2183.9-280.91Z" transform="translate(-2132.751 295.251)"/><path class="w" d="M2197.579-282.8s4.894-.493,6.125.116.887,1.009-.351,1.024-.768-.561-2.834-.471-4.123.091-4.186-.143S2197.579-282.8,2197.579-282.8Z" transform="translate(-2128.649 294.628)"/><path class="s" d="M2173.445-274.377s2.175,1.422,1.712,2.292-.736-.183-1.249-.932S2172.845-274.222,2173.445-274.377Z" transform="translate(-2135.702 297.252)"/><path class="s" d="M2171.035-273.9s1.425.763,1.476,1.528-.718.457-1.243-.184a5.823,5.823,0,0,0-1.121-1.082C2169.885-273.842,2170.66-274.075,2171.035-273.9Z" transform="translate(-2136.644 297.378)"/><path class="s" d="M2167.782-272.672a6.237,6.237,0,0,0,.624.675c.441.424-.611.4-.845.19S2167.419-273.024,2167.782-272.672Z" transform="translate(-2137.455 297.749)"/><path class="s" d="M2165.55-273.171a1.872,1.872,0,0,0,.41,1.444c.57.809-.25.993-.616.162S2164.969-273.108,2165.55-273.171Z" transform="translate(-2138.169 297.62)"/><path class="k" d="M2234.062-289.79c7.928,0,13.059,1.341,13.778,4.084,1.623,6.182-19.755,17.148-47.749,24.493-15.569,4.084-29.9,6.187-39.84,6.187-7.93,0-13.063-1.339-13.782-4.084-1.621-6.178,19.757-17.144,47.748-24.489,15.572-4.085,29.907-6.191,39.845-6.191m0-1.306c-10.437,0-25.081,2.271-40.176,6.23-13.625,3.578-26.143,8.117-35.246,12.785-9.9,5.079-14.418,9.553-13.436,13.3.88,3.36,5.944,5.061,15.047,5.061,10.435,0,25.076-2.273,40.173-6.23,13.626-3.576,26.145-8.117,35.244-12.786,9.9-5.079,14.423-9.554,13.437-13.305-.88-3.357-5.942-5.058-15.044-5.058Z" transform="translate(-2144.268 292.158)"/></g><path class="x" d="M2163.225-267.886s-.649-4.518,19.92-11,33.554-6.542,36.478-4.013-6.886,9.38-20.67,12.9S2164.356-261.677,2163.225-267.886Z" transform="translate(7.736 2.272)"/><path class="y" d="M2220.646-287.658a3.75,3.75,0,0,0-3.6,0c-1.861,1.056,4.65,1.965,3.6,3.254s.958,2.14,2.325.708C2224.715-285.521,2220.646-287.658,2220.646-287.658Z" transform="translate(24.033 1.153)"/><path class="y" d="M2156.326-270.2a3.75,3.75,0,0,0-3.6,0c-1.861,1.055,4.65,1.966,3.6,3.255s.958,2.138,2.325.707C2160.4-268.064,2156.326-270.2,2156.326-270.2Z" transform="translate(4.435 6.472)"/><path class="y" d="M2162.142-276.662a2.28,2.28,0,0,0-1.641,1.393c-.448,1.191,2.864-.92,2.876.061s1.247.585,1.327-.583C2164.806-277.281,2162.142-276.662,2162.142-276.662Z" transform="translate(6.894 4.607)"/><path class="y" d="M2160.878-266.6a2.276,2.276,0,0,0-1.641,1.393c-.448,1.19,2.864-.92,2.875.06s1.247.586,1.327-.583C2163.542-267.215,2160.878-266.6,2160.878-266.6Z" transform="translate(6.509 7.675)"/><path class="y" d="M2169.649-266.566l-1.584-.247a1.267,1.267,0,0,0-.249.988,5.884,5.884,0,0,0,5.112-.359c.317-.185.655-.488.583-.848-.077-.391-.572-.524-.971-.513a3.7,3.7,0,0,0-1.949.633" transform="translate(9.13 7.424)"/><path class="y" d="M2211.978-285.985l-1.583-.247a1.261,1.261,0,0,0-.249.986,5.879,5.879,0,0,0,5.111-.357c.317-.185.655-.488.583-.848-.077-.391-.571-.524-.971-.513a3.7,3.7,0,0,0-1.949.633" transform="translate(22.028 1.507)"/><path class="y" d="M2159.372-271.424l-1.584-.245a1.263,1.263,0,0,0-.25.986,5.884,5.884,0,0,0,5.112-.357c.317-.185.655-.488.583-.848-.077-.393-.571-.526-.97-.513a3.7,3.7,0,0,0-1.949.632" transform="translate(5.999 5.944)"/><path class="y" d="M2203.521-275.5l-1.583-.245a1.262,1.262,0,0,0-.25.986,5.884,5.884,0,0,0,5.112-.358c.318-.185.656-.488.584-.848-.078-.393-.573-.526-.972-.513a3.685,3.685,0,0,0-1.948.633" transform="translate(19.451 4.702)"/><path class="y" d="M2211.012-280.262l-1.584-.247a1.266,1.266,0,0,0-.25.988,5.883,5.883,0,0,0,5.113-.359c.317-.185.655-.488.583-.848-.078-.391-.573-.525-.972-.513a3.7,3.7,0,0,0-1.948.633" transform="translate(21.734 3.251)"/><path class="y" d="M2193.747-272.243l-1.584-.247a1.264,1.264,0,0,0-.25.986,5.883,5.883,0,0,0,5.113-.357c.317-.185.655-.488.583-.848-.078-.391-.573-.524-.972-.513a3.7,3.7,0,0,0-1.948.633" transform="translate(16.473 5.694)"/><path class="y" d="M2195.991-286.692l-1.584-.247a1.262,1.262,0,0,0-.25.986,5.882,5.882,0,0,0,5.113-.357c.317-.185.655-.488.583-.848-.079-.391-.573-.526-.972-.513a3.7,3.7,0,0,0-1.948.633" transform="translate(17.156 1.291)"/><path class="y" d="M2208.565-287.479l1.6.143a1.266,1.266,0,0,0,.185-1,5.881,5.881,0,0,0-5.078.688c-.3.2-.622.528-.527.883.1.386.6.487,1,.449a3.7,3.7,0,0,0,1.9-.757" transform="translate(20.382 1)"/><path class="y" d="M2181.166-282.221l1.6.143a1.265,1.265,0,0,0,.186-1,5.882,5.882,0,0,0-5.078.688c-.3.2-.622.528-.527.883.1.386.6.487,1,.449a3.7,3.7,0,0,0,1.9-.757" transform="translate(12.033 2.602)"/><path class="y" d="M2188.092-269.175l1.6.144a1.266,1.266,0,0,0,.185-1,5.884,5.884,0,0,0-5.078.688c-.305.206-.623.53-.529.885.1.386.605.487,1,.449a3.708,3.708,0,0,0,1.9-.757" transform="translate(14.144 6.577)"/><path class="y" d="M2215.221-282.73l1.6.143a1.268,1.268,0,0,0,.185-1,5.885,5.885,0,0,0-5.078.688c-.3.206-.622.53-.527.885.1.386.6.487,1,.449a3.711,3.711,0,0,0,1.9-.757" transform="translate(22.41 2.447)"/><ellipse class="z" cx="1.318" cy="3.102" rx="1.318" ry="3.102" transform="translate(2220.593 -251.519) rotate(-7.401)"/><path class="aa" d="M2194-249.6s.5.771,1.861.421a2.106,2.106,0,0,0,1.528-1.717" transform="translate(17.115 12.496)"/><path class="aa" d="M2200.193-251.277s-.065.915-1.43,1.264a2.1,2.1,0,0,1-2.165-.771" transform="translate(17.906 12.381)"/><line class="c" x1="29.962" y1="2.307" transform="translate(2137.833 -231.332)"/><path class="d" d="M2138.277-241.223l2.834-2.906-1.983-3.691" transform="translate(0.135 13.434)"/><path class="ab" d="M2200.276-250.662s1.016,4.525-1.309,4.68-4.239-3.181-4.239-3.181l2.885-.39Z" transform="translate(17.336 12.568)"/><path class="aa" d="M2183.262-252.318s2.948-4.186,7.434-2.093a4.11,4.11,0,0,0-3.048,2.234" transform="translate(13.842 11.248)"/></g></g><path class="ac" d="M14.957,11.334l-1.579.337a2.322,2.322,0,0,0-1.239,1.121l-.818,2.326a2.215,2.215,0,0,1-.64.784,3.929,3.929,0,0,1-4.67.011,2.186,2.186,0,0,1-.659-.818L4.63,12.9a2.322,2.322,0,0,0-1.2-1.134L1.68,11.334a2.3,2.3,0,0,1-1.053-.864A3.934,3.934,0,0,1,.762,6.013a2.192,2.192,0,0,1,.823-.661l2.174-.708A2.319,2.319,0,0,0,4.9,3.447l.447-1.771A2.3,2.3,0,0,1,6.2.629a3.932,3.932,0,0,1,4.445.122,2.143,2.143,0,0,1,.678.861l.612,2.035A2.321,2.321,0,0,0,13.108,4.8l1.94.548a2.172,2.172,0,0,1,.887.692,3.93,3.93,0,0,1,.128,4.408A2.272,2.272,0,0,1,14.957,11.334Z" transform="translate(0 110.154) rotate(-20)"/><path class="ac" d="M14.957,11.334l-1.579.337a2.322,2.322,0,0,0-1.239,1.121l-.818,2.326a2.215,2.215,0,0,1-.64.784,3.929,3.929,0,0,1-4.67.011,2.186,2.186,0,0,1-.659-.818L4.63,12.9a2.322,2.322,0,0,0-1.2-1.134L1.68,11.334a2.3,2.3,0,0,1-1.053-.864A3.934,3.934,0,0,1,.762,6.013a2.192,2.192,0,0,1,.823-.661l2.174-.708A2.319,2.319,0,0,0,4.9,3.447l.447-1.771A2.3,2.3,0,0,1,6.2.629a3.932,3.932,0,0,1,4.445.122,2.143,2.143,0,0,1,.678.861l.612,2.035A2.321,2.321,0,0,0,13.108,4.8l1.94.548a2.172,2.172,0,0,1,.887.692,3.93,3.93,0,0,1,.128,4.408A2.272,2.272,0,0,1,14.957,11.334Z" transform="translate(98.805 0) rotate(25)"/><ellipse class="ad" cx="4.686" cy="4.686" rx="4.686" ry="4.686" transform="translate(43.241 97.245)"/><ellipse class="ae" cx="1.562" cy="1.562" rx="1.562" ry="1.562" transform="translate(33.87 122.624)"/><ellipse class="ae" cx="1.562" cy="1.562" rx="1.562" ry="1.562" transform="translate(185.877 57.028)"/></svg>