<svg xmlns="http://www.w3.org/2000/svg" width="299.283" height="120" viewBox="0 0 299.283 120"><defs><style>.a{fill:#431b0f;}.b{fill:#030504;}.c{fill:#a9421e;}.d{fill:#d7844f;}.e{fill:#ba6e44;}.f{fill:#191d21;}.g{fill:#0c0d0d;}.h{fill:#fff;}.i{fill:#ee5116;}.j{fill:#f46e14;}.k{fill:#a1b225;}.l{fill:#7c8828;}.m{fill:#596023;}.n{fill:#c9c9c9;}.o{fill:#e12741;}.p{fill:#89bb2a;}.q{fill:#636464;}.r{fill:#a6a6a7;}</style></defs><g transform="translate(-1790.44 1677.525)"><g transform="translate(1812.54 -1600.793)"><g transform="translate(0 0)"><g transform="translate(6.381)"><path class="a" d="M1944.6-1305.462l-20.9,24.084-.311-18.365,17.119-23.812S1944.412-1305.654,1944.6-1305.462Z" transform="translate(-1922.85 1324.1)"/><path class="b" d="M1921.753-1282.786a.536.536,0,0,1-.186-.033.545.545,0,0,1-.359-.5l-.311-18.365a.551.551,0,0,1,.1-.328l17.119-23.812a.545.545,0,0,1,.554-.215.545.545,0,0,1,.423.418c1.485,6.819,3.772,17.16,4.043,17.962a.546.546,0,0,1-.074.6l-20.9,24.084A.546.546,0,0,1,1921.753-1282.786Zm.237-18.739.284,16.759,19.77-22.784c-.226-.787-.718-2.893-2.043-8.867-.68-3.063-1.355-6.143-1.712-7.779Zm21.048-6.276h0Zm0,0h0Z" transform="translate(-1920.896 1326.054)"/></g><g transform="translate(0 28.481)"><rect class="c" width="6.848" height="13.696" transform="translate(7.394 14.241) rotate(-180)"/><path class="b" d="M1899.061-1180.812h-6.848a.546.546,0,0,1-.546-.546v-13.7a.546.546,0,0,1,.546-.546h6.848a.546.546,0,0,1,.546.546v13.7A.546.546,0,0,1,1899.061-1180.812Zm-6.3-1.091h5.756v-12.6h-5.756Z" transform="translate(-1891.668 1195.599)"/></g></g><g transform="translate(226.203 0)"><path class="a" d="M2930.287-1305.462l20.9,24.084.312-18.365-17.119-23.812S2930.479-1305.654,2930.287-1305.462Z" transform="translate(-2929.741 1324.1)"/><path class="b" d="M2949.231-1282.787a.546.546,0,0,1-.413-.188l-20.9-24.084a.546.546,0,0,1-.074-.6c.272-.8,2.558-11.143,4.043-17.962a.547.547,0,0,1,.423-.419.545.545,0,0,1,.554.216l17.12,23.812a.545.545,0,0,1,.1.328l-.312,18.365a.546.546,0,0,1-.359.5A.542.542,0,0,1,2949.231-1282.787Zm-20.292-24.763,19.77,22.784.284-16.759-16.3-22.67c-.357,1.636-1.032,4.716-1.712,7.779C2929.657-1310.444,2929.166-1308.338,2928.939-1307.55Zm-.994-.251h0Zm0,0h0Z" transform="translate(-2927.787 1326.055)"/></g><g transform="translate(246.945 28.481)"><rect class="c" width="6.848" height="13.696" transform="translate(0.546 0.546)"/><path class="b" d="M3030.19-1180.812h-6.848a.546.546,0,0,1-.546-.546v-13.7a.546.546,0,0,1,.546-.546h6.848a.546.546,0,0,1,.546.546v13.7A.546.546,0,0,1,3030.19-1180.812Zm-6.3-1.091h5.756v-12.6h-5.756Z" transform="translate(-3022.797 1195.599)"/></g></g><g transform="translate(1790.44 -1605.112)"><g transform="translate(0.546 0.546)"><path class="d" d="M2091.131-1318.163H1792.94l21.832-25.174H2069.3Z" transform="translate(-1792.94 1343.337)"/></g><g transform="translate(0 0)"><path class="b" d="M2089.177-1319.571H1790.986a.546.546,0,0,1-.5-.319.545.545,0,0,1,.084-.584l21.832-25.174a.546.546,0,0,1,.412-.188h254.528a.547.547,0,0,1,.412.188l21.832,25.174a.544.544,0,0,1,.084.584A.546.546,0,0,1,2089.177-1319.571Zm-297-1.092h295.8l-20.885-24.082H1813.067Z" transform="translate(-1790.44 1345.836)"/></g></g><g transform="translate(1790.44 -1580.561)"><rect class="d" width="298.191" height="8.093" transform="translate(0.546 0.546)"/><path class="b" d="M2089.177-1224.2H1790.985a.546.546,0,0,1-.546-.546v-8.093a.546.546,0,0,1,.546-.546h298.191a.546.546,0,0,1,.546.546v8.093A.546.546,0,0,1,2089.177-1224.2Zm-297.645-1.092h297.1v-7h-297.1Z" transform="translate(-1790.44 1233.381)"/></g><g transform="translate(1845.302 -1598.691)"><ellipse class="e" cx="42.41" cy="8.21" rx="42.41" ry="8.21" transform="translate(0 0)"/></g><g transform="translate(1948.018 -1600.558)"><ellipse class="e" cx="45.522" cy="8.21" rx="45.522" ry="8.21" transform="translate(0 0)"/></g><g transform="translate(1955.825 -1670.713)"><g transform="translate(0 0)"><g transform="translate(0 3.47)"><path class="f" d="M2629.2-1604.183l-3.949,34.846s-1.116,7.079-7.321,10.239-16.125,6.839-31.9,5.052-27.458-8.332-33.149-15.242c-1.54-2.994-2.6-3.741-2.365-7.682s4.041-35.671,4.041-35.671,1.813-16.919,36.8-15.147a66.735,66.735,0,0,1,25.216,6.93C2630.745-1613.392,2629.2-1604.183,2629.2-1604.183Z" transform="translate(-2549.937 1628.466)"/><path class="b" d="M2592.172-1554.988a72.351,72.351,0,0,1-8.155-.477,63.094,63.094,0,0,1-20.533-5.752,38.68,38.68,0,0,1-12.976-9.686.533.533,0,0,1-.063-.1c-.31-.6-.606-1.123-.868-1.582a9.371,9.371,0,0,1-1.558-6.383c.236-3.912,3.89-34.406,4.045-35.7.019-.175.533-4.491,5.473-8.593,6.515-5.41,17.248-7.777,31.9-7.034a67.907,67.907,0,0,1,25.442,6.992c7.462,3.931,10.576,8.372,11.874,11.406a11.384,11.384,0,0,1,1.037,5.826l-3.947,34.834,0,.023c-.048.3-1.232,7.391-7.613,10.64A50.659,50.659,0,0,1,2592.172-1554.988Zm-40.785-16.564c6.455,7.8,18.693,13.409,32.752,15,15.97,1.81,25.676-1.985,31.589-5,5.771-2.939,6.977-9.533,7.028-9.828l3.947-34.832c0-.009,0-.018,0-.027h0a10.5,10.5,0,0,0-.995-5.31c-1.238-2.85-4.213-7.036-11.346-10.794a66.741,66.741,0,0,0-24.984-6.867c-17.824-.9-26.734,3.155-31.071,6.719-4.651,3.821-5.16,7.9-5.165,7.943-.039.322-3.805,31.763-4.04,35.644a8.31,8.31,0,0,0,1.417,5.776C2550.785-1572.667,2551.077-1572.153,2551.388-1571.553Zm71.91.254h0Z" transform="translate(-2547.985 1630.428)"/></g><g transform="translate(2.839)"><ellipse class="g" cx="19.013" cy="37.274" rx="19.013" ry="37.274" transform="matrix(0.113, -0.994, 0.994, 0.113, 0, 37.784)"/><path class="b" d="M2611.662-1591.928a73.064,73.064,0,0,1-8.215-.471c-9.977-1.13-19.14-4.181-25.8-8.588-6.771-4.48-10.172-9.844-9.575-15.1s5.111-9.728,12.712-12.579c7.479-2.805,17.093-3.727,27.069-2.6s19.14,4.18,25.8,8.588c6.771,4.48,10.171,9.844,9.575,15.1s-5.111,9.728-12.712,12.579A54.415,54.415,0,0,1,2611.662-1591.928Zm-43.05-24.1.542.061c-.547,4.832,2.682,9.83,9.093,14.072,6.52,4.314,15.513,7.3,25.322,8.414,20.122,2.28,37.427-4.1,38.574-14.214.548-4.832-2.682-9.829-9.093-14.071-6.521-4.314-15.513-7.3-25.322-8.414-20.123-2.28-37.428,4.1-38.574,14.214Z" transform="translate(-2566.472 1634.922)"/></g><g transform="translate(5.925 5.945)"><path class="h" d="M2648.463-1593.516s.012-5.637-2.458-7.327-3.314-1.863-3.86-3.257-.433-2.4-2.3-3.236-3.452-1.331-4.637-1.935-7.021-3.693-11.049-4.776-8.64-2.545-11.244-2.37-7.116-.1-9.144-.175-9.7,1.955-12.586,2.568-7.537,4.314-9.2,5.144-3.1,3.173-3.833,4.108-2.831,9.782,12.182,17.591c9.167,4.8,22.3,7.476,34.291,6.314C2637.4-1582.105,2646.214-1586.8,2648.463-1593.516Z" transform="translate(-2577.082 1617.14)"/><path class="b" d="M2616.964-1582c-10.1,0-20.725-2.4-28.832-6.646-9.191-4.781-12.017-9.919-12.768-13.388-.577-2.664.027-4.535.41-5.024.133-.169.292-.391.478-.647a11.564,11.564,0,0,1,3.541-3.612c.492-.246,1.306-.788,2.248-1.417,2.109-1.406,5-3.332,7.08-3.774.769-.163,1.87-.425,3.145-.728,3.571-.85,8.025-1.905,9.574-1.851.407.015.913.037,1.484.063,2.21.1,5.549.25,7.6.112,2.261-.151,5.873.852,9.365,1.822.694.193,1.383.385,2.056.566a65.535,65.535,0,0,1,10.816,4.643l.339.174c.6.309,1.324.589,2.158.914.734.287,1.567.611,2.454,1.01a3.682,3.682,0,0,1,2.312,2.743c.079.254.161.518.269.792.342.871.806,1.165,2.046,1.95.434.275.974.618,1.614,1.055,2.679,1.832,2.7,7.537,2.7,7.779a.53.53,0,0,1-.028.172c-1.149,3.432-4,6.437-8.231,8.687a43.856,43.856,0,0,1-16.064,4.332C2620.841-1582.094,2618.912-1582,2616.964-1582Zm-15.265-36c-1.515,0-5.935,1.051-9.181,1.824-1.282.3-2.389.568-3.171.734-1.877.4-4.665,2.257-6.7,3.614a27.71,27.71,0,0,1-2.365,1.485,10.813,10.813,0,0,0-3.144,3.274c-.192.266-.358.5-.5.682a6.424,6.424,0,0,0-.2,4.12c.7,3.24,3.39,8.065,12.206,12.651,9.5,4.97,22.52,7.366,33.986,6.254,12.407-1.2,21.12-5.759,23.338-12.2-.013-1.557-.428-5.561-2.222-6.787-.623-.427-1.133-.749-1.582-1.034-1.335-.846-2.005-1.27-2.477-2.473-.122-.311-.215-.606-.295-.867a2.635,2.635,0,0,0-1.717-2.071c-.862-.388-1.681-.707-2.4-.988-.861-.336-1.6-.626-2.257-.959l-.344-.177a64.72,64.72,0,0,0-10.6-4.559c-.676-.182-1.369-.374-2.066-.568-3.4-.946-6.922-1.926-9-1.785-2.113.142-5.49-.011-7.725-.111-.568-.026-1.07-.048-1.474-.063Zm44.807,22.532h0Z" transform="translate(-2575.125 1619.093)"/></g><g transform="translate(37.404 14.382)"><path class="i" d="M2729.015-1558.636a29.328,29.328,0,0,0,16.028-2.985c8.533-4.178,2.154-8.416-.457-10.341s-12.64-6.491-21.447-5.946c-2.428.239-.781,4.627-.781,4.627l5.241,12.769S2728.252-1558.722,2729.015-1558.636Z" transform="translate(-2721.267 1578.496)"/><path class="b" d="M2729.767-1559.874a19.294,19.294,0,0,1-2.778-.17c-1.01-.128-1.674-1.737-1.854-2.229l-5.233-12.749c-.122-.324-1.111-3.072-.21-4.519a1.84,1.84,0,0,1,1.443-.859c8.955-.555,19.1,4.04,21.824,6.049l.319.234c1.824,1.333,4.878,3.564,4.64,6.261-.156,1.779-1.656,3.341-4.586,4.775A31.15,31.15,0,0,1,2729.767-1559.874Zm-7.076-19.482q-.739,0-1.469.044a.731.731,0,0,0-.6.347c-.467.749-.064,2.571.3,3.544l5.234,12.753c.275.745.753,1.5.974,1.541l.023,0a29.079,29.079,0,0,0,15.7-2.936c2.522-1.234,3.86-2.543,3.979-3.891.184-2.083-2.559-4.086-4.2-5.283l-.323-.237C2739.827-1575.3,2730.953-1579.356,2722.691-1579.356Z" transform="translate(-2719.316 1580.446)"/></g><g transform="translate(42.481 27.208)"><path class="j" d="M2761.723-1515.154a19.175,19.175,0,0,0-7.547-1.5,34.568,34.568,0,0,0-8.711,1.392l-.4-1.01s3.535-3.394,10.421-2.87,8.277,3,8.277,3Z" transform="translate(-2744.521 1519.741)"/><path class="b" d="M2759.769-1516.564a.547.547,0,0,1-.232-.052h0a18.822,18.822,0,0,0-7.311-1.446,34.208,34.208,0,0,0-8.551,1.368.546.546,0,0,1-.669-.32l-.4-1.01a.547.547,0,0,1,.13-.6c.152-.145,3.79-3.555,10.84-3.021,7.1.539,8.649,3.161,8.712,3.272a.546.546,0,0,1,.046.431.546.546,0,0,1-.283.328l-2.041.99A.542.542,0,0,1,2759.769-1516.564Zm-7.437-2.59a19.94,19.94,0,0,1,7.426,1.443l1.161-.564c-.776-.676-2.8-1.926-7.427-2.277a14.085,14.085,0,0,0-9.727,2.491l.072.182a34.34,34.34,0,0,1,8.382-1.275Z" transform="translate(-2742.567 1521.697)"/></g><g transform="translate(40.108 21.35)"><path class="j" d="M2758.805-1540.508a41.778,41.778,0,0,0-12.934-2.752c-8.163-.6-11.173,1.563-11.173,1.563l-.5-1.278s3.085-3.959,12.284-2.852,12.452,4.176,12.452,4.176S2759.293-1540.839,2758.805-1540.508Z" transform="translate(-2733.654 1546.569)"/><path class="b" d="M2756.852-1541.921a.548.548,0,0,1-.223-.048,41.786,41.786,0,0,0-12.752-2.705c-7.8-.578-10.788,1.444-10.816,1.464a.55.55,0,0,1-.473.076.547.547,0,0,1-.352-.323l-.5-1.278a.545.545,0,0,1,.078-.534c.134-.172,3.381-4.189,12.779-3.058,9.27,1.115,12.623,4.19,12.761,4.321a.537.537,0,0,1,.124.177,1.461,1.461,0,0,1-.322,1.815A.545.545,0,0,1,2756.852-1541.921Zm-15.7-3.95c.863,0,1.8.033,2.81.108a44.708,44.708,0,0,1,12.586,2.579.884.884,0,0,0-.026-.1c-.574-.468-3.993-2.986-12.053-3.956-7.479-.9-10.775,1.659-11.584,2.434l.144.372C2734.081-1544.954,2736.6-1545.87,2741.147-1545.87Z" transform="translate(-2731.7 1548.527)"/></g><g transform="translate(38.904 17.223)"><path class="j" d="M2751.371-1560.662c.111.157-8.158-2.339-13.529-2.048a20.7,20.7,0,0,0-8.676,2.232l-.484-1.405s3.126-3.183,9.413-3.049,7.378.708,7.378.708S2750.485-1561.92,2751.371-1560.662Z" transform="translate(-2728.136 1565.481)"/><path class="b" d="M2727.212-1561.885a.533.533,0,0,1-.19-.035.544.544,0,0,1-.326-.334l-.484-1.405a.547.547,0,0,1,.127-.56c.135-.137,3.369-3.347,9.813-3.212,5.938.126,7.366.651,7.6.757h0c.527.242,5.172,2.4,6.117,3.744h0a.552.552,0,0,1,.005.626c-.22.322-.557.244-.854.177-.179-.041-.436-.1-.758-.184-2.252-.555-8.235-2.03-12.339-1.807a20.4,20.4,0,0,0-8.431,2.158A.547.547,0,0,1,2727.212-1561.885Zm.151-1.785.159.464a22.377,22.377,0,0,1,8.337-2c3.575-.195,8.281.792,11.191,1.481-1.2-.711-2.691-1.464-3.759-1.954l-.026-.013c-.03-.012-1.245-.52-7.136-.645A13.257,13.257,0,0,0,2727.363-1563.67Z" transform="translate(-2726.182 1567.435)"/></g><g transform="translate(37.293 14.4)"><path class="j" d="M2731.765-1576.965s-4.151.88-6.671,1.559a10.124,10.124,0,0,0-3.227,1.242s-.787-1.568-.518-2.245c0,0,2.819-1.61,4.858-1.443S2731.765-1576.965,2731.765-1576.965Z" transform="translate(-2720.75 1578.41)"/><path class="b" d="M2719.921-1575.575a.554.554,0,0,1-.123-.014.546.546,0,0,1-.365-.284c-.211-.42-.872-1.852-.537-2.692a.544.544,0,0,1,.236-.272c.121-.069,2.983-1.692,5.173-1.513,2.048.167,5.478.866,5.624.9a.545.545,0,0,1,.436.533.545.545,0,0,1-.432.536c-.042.009-4.166.885-6.643,1.552a10.377,10.377,0,0,0-3.035,1.147A.561.561,0,0,1,2719.921-1575.575Zm-.032-2.43a3.809,3.809,0,0,0,.287,1.113,15.894,15.894,0,0,1,2.83-.995c1.189-.32,2.75-.687,4.066-.986-.976-.164-2.041-.323-2.855-.389A9.689,9.689,0,0,0,2719.89-1578Z" transform="translate(-2718.804 1580.363)"/></g><g transform="translate(20.353 15.212)"><path class="k" d="M2662.74-1565.941l-19.031-2.864s1.46-3.243,8.131-4.223,8.293-1.118,8.293-1.118S2664.257-1565.7,2662.74-1565.941Z" transform="translate(-2643.164 1574.692)"/><path class="b" d="M2660.846-1567.345a.994.994,0,0,1-.142-.011l-19.03-2.864a.549.549,0,0,1-.4-.278.546.546,0,0,1-.018-.485c.065-.144,1.662-3.527,8.549-4.539,6.611-.972,8.259-1.116,8.326-1.122a.547.547,0,0,1,.537.3c.008.018.9,1.841,1.692,3.75,1.582,3.8,1.4,4.538,1.115,4.931A.763.763,0,0,1,2660.846-1567.345Zm.024-1.09h0Zm-18.167-2.734,17.877,2.69c-.074-1.025-1.377-4.238-2.725-7.039-.785.087-2.963.351-7.89,1.075C2645.526-1573.789,2643.505-1572.1,2642.7-1571.168Z" transform="translate(-2641.21 1576.646)"/></g><g transform="translate(20.343 20.327)"><path class="l" d="M2662.706-1547.625l-.637,1.085-18.4-2.728.292-1.446Z" transform="translate(-2643.12 1551.26)"/><path class="b" d="M2660.115-1547.947a.571.571,0,0,1-.08-.006l-18.4-2.729a.547.547,0,0,1-.367-.226.546.546,0,0,1-.088-.422l.292-1.446a.547.547,0,0,1,.624-.43l18.749,3.089a.546.546,0,0,1,.405.307.545.545,0,0,1-.024.508l-.637,1.085A.544.544,0,0,1,2660.115-1547.947Zm-17.754-3.73,17.469,2.59.048-.082-17.443-2.875Z" transform="translate(-2641.167 1553.213)"/></g><g transform="translate(19.187 14.117)"><path class="m" d="M2639.527-1571.505a8.29,8.29,0,0,1-1.156-.581l.341-1.312s1.656-5.535,16.666-5.764l.583,1.095s-1.969.206-4.59.595c-4.368.647-10.453,1.926-11.551,4.521C2639.819-1572.951,2639.554-1571.566,2639.527-1571.505Z" transform="translate(-2637.825 1579.707)"/><path class="b" d="M2637.564-1572.9c-.179,0-.471-.126-1.417-.665a.545.545,0,0,1-.258-.612l.342-1.312c.078-.26,1.951-5.94,17.184-6.172a.541.541,0,0,1,.49.289l.583,1.1a.542.542,0,0,1,0,.513.544.544,0,0,1-.425.286c-.019,0-1.989.21-4.567.592-8.138,1.206-10.541,2.909-11.107,4.145a9.758,9.758,0,0,1-.322,1.512.557.557,0,0,1-.333.293A.524.524,0,0,1,2637.564-1572.9Zm.131-1.08h0Zm-.644-.329.13.07c.046-.235.1-.508.148-.766a.6.6,0,0,1,.033-.111c.934-2.207,4.851-3.793,11.974-4.848,1.613-.239,2.991-.411,3.811-.507l-.049-.091c-13.755.286-15.737,5.152-15.817,5.368Z" transform="translate(-2635.871 1581.661)"/></g><g transform="translate(31.499 7.416)"><path class="n" d="M2695.674-1612.355a2.324,2.324,0,0,1,1.122.18.8.8,0,0,1,.423.955l-2.7.271a1.726,1.726,0,0,0-.885.256,3.1,3.1,0,0,1-.462.388.7.7,0,0,1-.906-.631,1.13,1.13,0,0,1,.71-1.006,3.323,3.323,0,0,1,1.28-.216" transform="translate(-2692.268 1612.355)"/></g><g transform="translate(20.343 21.773)"><path class="k" d="M2665.293-1534.631l-3.224-6.731-18.4-2.729s.8,3.113,7.615,6.007A50.629,50.629,0,0,0,2665.293-1534.631Z" transform="translate(-2643.121 1544.636)"/><path class="b" d="M2663.339-1536.039l-.042,0a51.677,51.677,0,0,1-14.185-3.494c-6.977-2.965-7.893-6.235-7.929-6.373a.549.549,0,0,1,.123-.5.55.55,0,0,1,.486-.175l18.4,2.729a.548.548,0,0,1,.413.3l3.224,6.731a.544.544,0,0,1-.042.545A.545.545,0,0,1,2663.339-1536.039Zm-20.65-9.309c.723,1.06,2.535,2.975,6.851,4.808a50.244,50.244,0,0,0,12.885,3.31l-2.677-5.589Z" transform="translate(-2641.166 1546.59)"/></g><g transform="translate(19.697 21.773)"><path class="m" d="M2662.98-1534.631l-.18,1.587a33.725,33.725,0,0,1-13.274-2.6c-7.508-2.973-8.819-6.722-8.819-6.722l.646-1.727s.873,3.156,8.848,6.468A53.139,53.139,0,0,0,2662.98-1534.631Z" transform="translate(-2640.161 1544.636)"/><path class="b" d="M2660.129-1534.434a35.753,35.753,0,0,1-12.758-2.653c-7.652-3.03-9.077-6.887-9.134-7.05a.548.548,0,0,1,0-.371l.646-1.727a.545.545,0,0,1,.535-.354.545.545,0,0,1,.5.4c.007.022,1,2.982,8.532,6.11a52.937,52.937,0,0,0,12.623,2.952.543.543,0,0,1,.371.2.545.545,0,0,1,.118.4l-.18,1.588a.547.547,0,0,1-.508.483C2660.834-1534.45,2660.574-1534.434,2660.129-1534.434Zm-20.788-9.9c.361.729,2.179,3.756,8.431,6.232a34.749,34.749,0,0,0,12.585,2.573l.064-.573a51.748,51.748,0,0,1-12.384-2.969c-5.338-2.217-7.6-4.406-8.537-5.688Z" transform="translate(-2638.207 1546.59)"/></g><g transform="translate(11.351 24.921)"><path class="n" d="M2601.614-1532.037a.925.925,0,0,1,1.079.861,3.23,3.23,0,0,0-.048.765c.081.327.438.545.473.88a.628.628,0,0,1-.341.583,1.21,1.21,0,0,1-.7.112,2.357,2.357,0,0,1-1.813-1.176,2.358,2.358,0,0,1-.052-2.161" transform="translate(-2599.977 1532.173)"/></g><g transform="translate(38.5 7.871)"><path class="n" d="M2725.97-1610.135a.925.925,0,0,1,1.079.86,3.284,3.284,0,0,0-.048.766c.081.327.438.545.473.88a.627.627,0,0,1-.341.583,1.213,1.213,0,0,1-.7.112,2.356,2.356,0,0,1-1.813-1.177,2.358,2.358,0,0,1-.052-2.161" transform="translate(-2724.334 1610.271)"/></g><g transform="translate(9.469 20.446)"><path class="n" d="M2593.966-1552.479c.318-.028.738.013.811.324.064.272-.21.494-.448.639a6.181,6.181,0,0,1-1.745.828c-.446.105-1.032.037-1.19-.393a.894.894,0,0,1,.378-.934,3.919,3.919,0,0,1,2.048-.653" transform="translate(-2591.358 1552.668)"/></g><g transform="translate(72.917 29.019)"><path class="n" d="M2882.208-1510.91a.534.534,0,0,1-.217-.405c-.114-.78.666-2.87,1.582-1.772C2884.221-1512.308,2883.248-1510.315,2882.208-1510.91Z" transform="translate(-2881.98 1513.4)"/></g><g transform="translate(60.683 15.607)"><path class="n" d="M2829.231-1573.6a1.592,1.592,0,0,1,.6.972,1.959,1.959,0,0,1-1.168-.223,11.46,11.46,0,0,1-2.625-1.6.222.222,0,0,1-.089-.114c-.024-.111.116-.182.228-.205A3.36,3.36,0,0,1,2829.231-1573.6Z" transform="translate(-2825.944 1574.834)"/></g><g transform="translate(54.096 12.272)"><path class="n" d="M2798.23-1590.024a2.661,2.661,0,0,1,1.7.122c.2.087.43.282.347.487-.066.164-.278.2-.454.207l-.961.052a1.431,1.431,0,0,0-.568.109,3.328,3.328,0,0,0-.353.247,1.949,1.949,0,0,1-1.6.15c-.274-.075-.591-.257-.565-.539a.6.6,0,0,1,.3-.4,2.591,2.591,0,0,1,.957-.406" transform="translate(-2795.774 1590.11)"/></g><g transform="translate(50.351 39.101)"><path class="n" d="M2781.076-1467.134a2.659,2.659,0,0,1,1.7.121c.2.086.431.281.348.487-.066.163-.278.2-.454.207l-.962.051a1.423,1.423,0,0,0-.566.109,3.118,3.118,0,0,0-.353.247,1.953,1.953,0,0,1-1.6.151c-.274-.075-.592-.257-.564-.54a.6.6,0,0,1,.3-.395,2.609,2.609,0,0,1,.958-.406" transform="translate(-2778.62 1467.22)"/></g><g transform="translate(18.546 11.252)"><path class="n" d="M2634.849-1594.683a1.329,1.329,0,0,1,.622-.091.535.535,0,0,1,.455.385.632.632,0,0,1-.287.58c-.476.37-1.206.44-1.492.97a.9.9,0,0,1-.16.262.425.425,0,0,1-.338.085.91.91,0,0,1-.7-1.071,1.406,1.406,0,0,1,.946-.99" transform="translate(-2632.936 1594.783)"/></g><g transform="translate(62.387 36.268)"><path class="n" d="M2835.658-1480.1a1.332,1.332,0,0,1,.622-.091.535.535,0,0,1,.455.385.634.634,0,0,1-.287.58c-.476.37-1.207.44-1.492.97a.937.937,0,0,1-.159.263.429.429,0,0,1-.339.085.909.909,0,0,1-.7-1.071,1.406,1.406,0,0,1,.946-.99" transform="translate(-2833.746 1480.196)"/></g><g transform="translate(27.932 35.981)"><path class="n" d="M2678.123-1481.459a3.337,3.337,0,0,0-1.267.018,1.247,1.247,0,0,0-.909.81.371.371,0,0,0-.007.208c.061.185.308.212.5.2a5.6,5.6,0,0,1,2.637.151c.453.2,3.365,1.822,2.4.035C2680.926-1481.069,2679.141-1481.333,2678.123-1481.459Z" transform="translate(-2675.928 1481.511)"/></g><g transform="translate(42.98 38.274)"><path class="n" d="M2745.523-1469.59a1.121,1.121,0,0,1-.666-.765.642.642,0,0,1,.934-.574c.2.127.306.356.485.507a1.162,1.162,0,0,0,.7.235c.61.032,3.609-1.223,2.84.526C2749.209-1468.288,2746.448-1469.077,2745.523-1469.59Z" transform="translate(-2744.854 1471.008)"/></g><g transform="translate(71.145 24.795)"><path class="n" d="M2874.422-1531.735c-.254-.125-.52-.3-.554-.555-.044-.324.441-.58.757-.4.163.093.254.258.4.368a1.075,1.075,0,0,0,.573.176c.5.03,2.94-.831,2.331.409C2877.455-1530.761,2875.186-1531.358,2874.422-1531.735Z" transform="translate(-2873.866 1532.748)"/></g><g transform="translate(23.194 33.065)"><path class="n" d="M2656.471-1494.862a.65.65,0,0,1,.551.3.576.576,0,0,1-.326.689c-.819.433-1.051.188-1.3,1.1-.123.456-.126,1.249-.735.774C2653.332-1493.035,2655.332-1494.978,2656.471-1494.862Z" transform="translate(-2654.223 1494.867)"/></g><g transform="translate(15.042 31.351)"><path class="n" d="M2618.1-1502.707a2.883,2.883,0,0,0-.385-.01.806.806,0,0,0-.752.381C2616.108-1500.505,2622.543-1502.321,2618.1-1502.707Z" transform="translate(-2616.885 1502.72)"/></g><g transform="translate(67.939 34.393)"><path class="n" d="M2860.4-1488.771a2.84,2.84,0,0,0-.385-.01.808.808,0,0,0-.753.381C2858.4-1486.569,2864.839-1488.385,2860.4-1488.771Z" transform="translate(-2859.18 1488.784)"/></g></g><g transform="translate(44.185 51.322)"><ellipse class="b" cx="2.957" cy="1.245" rx="2.957" ry="1.245" transform="translate(0 5.851) rotate(-81.6)"/></g><g transform="translate(30.827 49.641)"><ellipse class="b" cx="2.957" cy="1.245" rx="2.957" ry="1.245" transform="translate(0 5.851) rotate(-81.6)"/></g><g transform="translate(34.657 62.337)"><path class="o" d="M2709.28-1357.536s-.5,4.2,2.006,4.592c2.56.4,2.917-3.965,2.917-3.965a2.911,2.911,0,0,1-2.29-1.385A3.367,3.367,0,0,1,2709.28-1357.536Z" transform="translate(-2708.692 1358.838)"/><path class="b" d="M2709.656-1354.322a2.709,2.709,0,0,1-.412-.033c-2.995-.466-2.488-5-2.465-5.2a.55.55,0,0,1,.22-.376.547.547,0,0,1,.426-.095,2.839,2.839,0,0,0,2.168-.63.547.547,0,0,1,.465-.126.548.548,0,0,1,.384.29,2.381,2.381,0,0,0,1.834,1.085.551.551,0,0,1,.38.188.55.55,0,0,1,.133.4c-.01.116-.249,2.849-1.692,3.986A2.278,2.278,0,0,1,2709.656-1354.322Zm-1.826-4.569c-.031,1.031.083,3.225,1.582,3.458a1.241,1.241,0,0,0,1.008-.252,4.768,4.768,0,0,0,1.215-2.722,3.4,3.4,0,0,1-1.825-1.067,3.886,3.886,0,0,1-1.976.583Z" transform="translate(-2706.732 1360.788)"/></g><g transform="translate(33.592 62.336)"><path class="b" d="M2708.78-1358.411a3.6,3.6,0,0,1-2.765-1.088,4.121,4.121,0,0,1-3.835.216.546.546,0,0,1-.279-.72.547.547,0,0,1,.72-.278,3.093,3.093,0,0,0,3.162-.377.546.546,0,0,1,.469-.123.545.545,0,0,1,.381.3c.024.045.68,1.262,2.915.919a.545.545,0,0,1,.623.456.546.546,0,0,1-.457.623A6.15,6.15,0,0,1,2708.78-1358.411Z" transform="translate(-2701.854 1360.792)"/></g><g transform="translate(11.842 52.139)"><ellipse class="o" cx="2.386" cy="5.655" rx="2.386" ry="5.655" transform="translate(0 4.598) rotate(-74.463)"/></g><g transform="translate(53.614 58.657)"><ellipse class="o" cx="5.655" cy="2.386" rx="5.655" ry="2.386" transform="translate(0 0.235) rotate(-1.193)"/></g><g transform="translate(33.409 30.389)"><circle class="i" cx="3.735" cy="3.735" r="3.735" transform="translate(0.546 0.546)"/><path class="b" d="M2705.3-1498.562a4.286,4.286,0,0,1-4.281-4.281,4.286,4.286,0,0,1,4.281-4.281,4.286,4.286,0,0,1,4.28,4.281A4.285,4.285,0,0,1,2705.3-1498.562Zm0-7.47a3.193,3.193,0,0,0-3.19,3.189,3.193,3.193,0,0,0,3.19,3.19,3.192,3.192,0,0,0,3.188-3.19A3.192,3.192,0,0,0,2705.3-1506.032Z" transform="translate(-2701.015 1507.124)"/></g><g transform="translate(26.042 29.041)"><circle class="i" cx="3.735" cy="3.735" r="3.735" transform="translate(0.546 0.546)"/><path class="b" d="M2671.552-1504.74a4.286,4.286,0,0,1-4.281-4.281,4.286,4.286,0,0,1,4.281-4.281,4.286,4.286,0,0,1,4.281,4.281A4.286,4.286,0,0,1,2671.552-1504.74Zm0-7.47a3.193,3.193,0,0,0-3.189,3.189,3.193,3.193,0,0,0,3.189,3.19,3.193,3.193,0,0,0,3.189-3.19A3.193,3.193,0,0,0,2671.552-1512.21Z" transform="translate(-2667.272 1513.302)"/></g><g transform="translate(18.987 26.136)"><circle class="i" cx="3.735" cy="3.735" r="3.735" transform="translate(0.546 0.546)"/><path class="b" d="M2639.236-1518.047a4.286,4.286,0,0,1-4.281-4.281,4.286,4.286,0,0,1,4.281-4.281,4.285,4.285,0,0,1,4.281,4.281A4.286,4.286,0,0,1,2639.236-1518.047Zm0-7.47a3.193,3.193,0,0,0-3.189,3.189,3.193,3.193,0,0,0,3.189,3.19,3.193,3.193,0,0,0,3.189-3.19A3.193,3.193,0,0,0,2639.236-1525.517Z" transform="translate(-2634.955 1526.609)"/></g><g transform="translate(24.175 23.127)"><circle class="i" cx="3.735" cy="3.735" r="3.735" transform="translate(0.546 0.546)"/><path class="b" d="M2663-1531.829a4.286,4.286,0,0,1-4.281-4.281,4.286,4.286,0,0,1,4.281-4.281,4.286,4.286,0,0,1,4.281,4.281A4.286,4.286,0,0,1,2663-1531.829Zm0-7.47a3.193,3.193,0,0,0-3.189,3.19,3.193,3.193,0,0,0,3.189,3.189,3.193,3.193,0,0,0,3.189-3.189A3.193,3.193,0,0,0,2663-1539.3Z" transform="translate(-2658.718 1540.391)"/></g><g transform="translate(58.206 27.692)"><circle class="i" cx="3.735" cy="3.735" r="3.735" transform="translate(0.546 0.546)"/><path class="b" d="M2818.88-1510.918a4.286,4.286,0,0,1-4.281-4.281,4.286,4.286,0,0,1,4.281-4.281,4.286,4.286,0,0,1,4.281,4.281A4.286,4.286,0,0,1,2818.88-1510.918Zm0-7.47a3.193,3.193,0,0,0-3.189,3.19,3.193,3.193,0,0,0,3.189,3.189,3.193,3.193,0,0,0,3.189-3.189A3.193,3.193,0,0,0,2818.88-1518.388Z" transform="translate(-2814.599 1519.48)"/></g><g transform="translate(65.054 21.259)"><circle class="i" cx="3.735" cy="3.735" r="3.735" transform="translate(0.546 0.546)"/><path class="b" d="M2850.246-1540.383a4.286,4.286,0,0,1-4.281-4.281,4.286,4.286,0,0,1,4.281-4.281,4.286,4.286,0,0,1,4.282,4.281A4.286,4.286,0,0,1,2850.246-1540.383Zm0-7.47a3.193,3.193,0,0,0-3.189,3.19,3.193,3.193,0,0,0,3.189,3.189,3.193,3.193,0,0,0,3.19-3.189A3.193,3.193,0,0,0,2850.246-1547.853Z" transform="translate(-2845.966 1548.945)"/></g><g transform="translate(11.413 16.175)"><circle class="i" cx="3.735" cy="3.735" r="3.735" transform="translate(0.546 0.546)"/><path class="b" d="M2604.543-1563.671a4.286,4.286,0,0,1-4.281-4.281,4.286,4.286,0,0,1,4.281-4.281,4.286,4.286,0,0,1,4.281,4.281A4.286,4.286,0,0,1,2604.543-1563.671Zm0-7.47a3.193,3.193,0,0,0-3.189,3.19,3.192,3.192,0,0,0,3.189,3.189,3.193,3.193,0,0,0,3.189-3.189A3.193,3.193,0,0,0,2604.543-1571.141Z" transform="translate(-2600.262 1572.233)"/></g><g transform="translate(20.543 10.261)"><circle class="i" cx="3.735" cy="3.735" r="3.735" transform="translate(0.546 0.546)"/><path class="b" d="M2646.365-1590.76a4.286,4.286,0,0,1-4.281-4.281,4.286,4.286,0,0,1,4.281-4.281,4.286,4.286,0,0,1,4.281,4.281A4.286,4.286,0,0,1,2646.365-1590.76Zm0-7.47a3.193,3.193,0,0,0-3.189,3.189,3.193,3.193,0,0,0,3.189,3.189,3.193,3.193,0,0,0,3.189-3.189A3.193,3.193,0,0,0,2646.365-1598.23Z" transform="translate(-2642.084 1599.322)"/></g><g transform="translate(26.665 9.327)"><circle class="i" cx="3.735" cy="3.735" r="3.735" transform="translate(0.546 0.546)"/><path class="b" d="M2674.4-1595.037a4.286,4.286,0,0,1-4.28-4.281,4.285,4.285,0,0,1,4.28-4.281,4.286,4.286,0,0,1,4.282,4.281A4.286,4.286,0,0,1,2674.4-1595.037Zm0-7.47a3.192,3.192,0,0,0-3.188,3.189,3.192,3.192,0,0,0,3.188,3.19,3.193,3.193,0,0,0,3.19-3.19A3.193,3.193,0,0,0,2674.4-1602.507Z" transform="translate(-2670.124 1603.599)"/></g><g transform="translate(34.861 9.224)"><circle class="i" cx="3.735" cy="3.735" r="3.735" transform="translate(0.546 0.546)"/><path class="b" d="M2711.949-1595.512a4.286,4.286,0,0,1-4.281-4.281,4.286,4.286,0,0,1,4.281-4.281,4.286,4.286,0,0,1,4.281,4.281A4.286,4.286,0,0,1,2711.949-1595.512Zm0-7.47a3.193,3.193,0,0,0-3.189,3.189,3.193,3.193,0,0,0,3.189,3.189,3.194,3.194,0,0,0,3.19-3.189A3.193,3.193,0,0,0,2711.949-1602.982Z" transform="translate(-2707.668 1604.074)"/></g><g transform="translate(24.175 13.27)"><circle class="i" cx="3.735" cy="3.735" r="3.735" transform="translate(0.546 0.546)"/><path class="b" d="M2663-1576.978a4.286,4.286,0,0,1-4.281-4.281,4.286,4.286,0,0,1,4.281-4.281,4.286,4.286,0,0,1,4.281,4.281A4.286,4.286,0,0,1,2663-1576.978Zm0-7.47a3.193,3.193,0,0,0-3.189,3.189,3.193,3.193,0,0,0,3.189,3.19,3.193,3.193,0,0,0,3.189-3.19A3.193,3.193,0,0,0,2663-1584.448Z" transform="translate(-2658.718 1585.54)"/></g><g transform="translate(18.468 15.241)"><circle class="i" cx="3.735" cy="3.735" r="3.735" transform="translate(0.546 0.546)"/><path class="b" d="M2636.86-1567.948a4.286,4.286,0,0,1-4.281-4.281,4.286,4.286,0,0,1,4.281-4.281,4.286,4.286,0,0,1,4.281,4.281A4.286,4.286,0,0,1,2636.86-1567.948Zm0-7.47a3.193,3.193,0,0,0-3.189,3.189,3.193,3.193,0,0,0,3.189,3.19,3.193,3.193,0,0,0,3.189-3.19A3.193,3.193,0,0,0,2636.86-1575.418Z" transform="translate(-2632.579 1576.51)"/></g><g transform="translate(18.468 19.288)"><circle class="i" cx="3.735" cy="3.735" r="3.735" transform="translate(0.546 0.546)"/><path class="b" d="M2636.86-1549.413a4.286,4.286,0,0,1-4.281-4.281,4.286,4.286,0,0,1,4.281-4.281,4.286,4.286,0,0,1,4.281,4.281A4.286,4.286,0,0,1,2636.86-1549.413Zm0-7.47a3.193,3.193,0,0,0-3.189,3.189,3.193,3.193,0,0,0,3.189,3.189,3.193,3.193,0,0,0,3.189-3.189A3.193,3.193,0,0,0,2636.86-1556.883Z" transform="translate(-2632.579 1557.975)"/></g><g transform="translate(28.302 13.803)"><circle class="i" cx="3.735" cy="3.735" r="3.735" transform="translate(0.546 0.546)"/><path class="b" d="M2681.906-1574.535l-.142,0a4.254,4.254,0,0,1-2.985-1.351,4.251,4.251,0,0,1-1.155-3.066,4.253,4.253,0,0,1,1.351-2.985,4.253,4.253,0,0,1,3.066-1.155,4.251,4.251,0,0,1,2.985,1.351,4.252,4.252,0,0,1,1.156,3.066,4.253,4.253,0,0,1-1.352,2.985A4.25,4.25,0,0,1,2681.906-1574.535Zm-.006-7.471a3.168,3.168,0,0,0-2.178.862,3.167,3.167,0,0,0-1.007,2.224,3.193,3.193,0,0,0,3.084,3.291,3.183,3.183,0,0,0,2.284-.86,3.168,3.168,0,0,0,1.007-2.224,3.167,3.167,0,0,0-.86-2.284,3.169,3.169,0,0,0-2.224-1.007Z" transform="translate(-2677.621 1583.097)"/></g><g transform="translate(25.396 18.991)"><circle class="i" cx="3.735" cy="3.735" r="3.735" transform="translate(0.546 0.546)"/><path class="b" d="M2668.6-1550.773l-.142,0h0a4.286,4.286,0,0,1-4.14-4.417,4.255,4.255,0,0,1,1.351-2.985,4.246,4.246,0,0,1,3.066-1.155,4.25,4.25,0,0,1,2.985,1.351,4.251,4.251,0,0,1,1.155,3.066,4.25,4.25,0,0,1-1.351,2.985A4.251,4.251,0,0,1,2668.6-1550.773Zm-.107-1.093a3.194,3.194,0,0,0,3.291-3.084,3.17,3.17,0,0,0-.86-2.285,3.172,3.172,0,0,0-2.224-1.007,3.2,3.2,0,0,0-3.291,3.085A3.193,3.193,0,0,0,2668.49-1551.866Z" transform="translate(-2664.313 1559.335)"/></g><g transform="translate(29.997 22.352)"><circle class="i" cx="3.867" cy="3.867" r="3.867" transform="translate(0.546 0.546)"/><path class="b" d="M2689.8-1535.112l-.145,0a4.418,4.418,0,0,1-4.267-4.553,4.411,4.411,0,0,1,4.554-4.267,4.419,4.419,0,0,1,4.267,4.554A4.418,4.418,0,0,1,2689.8-1535.112Zm0-7.734a3.3,3.3,0,0,0-2.269.9,3.3,3.3,0,0,0-1.048,2.316,3.3,3.3,0,0,0,.9,2.379,3.3,3.3,0,0,0,2.315,1.048,3.325,3.325,0,0,0,3.428-3.212,3.3,3.3,0,0,0-.9-2.379,3.3,3.3,0,0,0-2.315-1.048Z" transform="translate(-2685.385 1543.938)"/></g><g transform="translate(12.984 21.991)"><circle class="i" cx="3.735" cy="3.735" r="3.735" transform="translate(0.546 0.546)"/><path class="b" d="M2611.739-1537.031l-.141,0h0a4.285,4.285,0,0,1-4.139-4.418,4.286,4.286,0,0,1,4.277-4.142l.14,0a4.252,4.252,0,0,1,2.985,1.352,4.254,4.254,0,0,1,1.156,3.066A4.287,4.287,0,0,1,2611.739-1537.031Zm-.105-1.093a3.2,3.2,0,0,0,3.291-3.084,3.165,3.165,0,0,0-.86-2.284,3.169,3.169,0,0,0-2.224-1.007,3.2,3.2,0,0,0-3.291,3.084A3.193,3.193,0,0,0,2611.634-1538.124Z" transform="translate(-2607.457 1545.593)"/></g><g transform="translate(46.552 17.614)"><circle class="i" cx="3.735" cy="3.735" r="3.735" transform="translate(0.546 0.546)"/><path class="b" d="M2765.5-1557.081l-.141,0h0a4.285,4.285,0,0,1-4.14-4.417,4.255,4.255,0,0,1,1.351-2.985,4.243,4.243,0,0,1,3.066-1.155,4.252,4.252,0,0,1,2.985,1.351,4.249,4.249,0,0,1,1.155,3.066A4.286,4.286,0,0,1,2765.5-1557.081Zm-.105-1.093a3.193,3.193,0,0,0,3.291-3.084,3.165,3.165,0,0,0-.861-2.284,3.166,3.166,0,0,0-2.222-1.007,3.173,3.173,0,0,0-2.285.861,3.169,3.169,0,0,0-1.007,2.224A3.193,3.193,0,0,0,2765.4-1558.174Z" transform="translate(-2761.218 1565.643)"/></g><g transform="translate(39.207 13.638)"><circle class="i" cx="3.735" cy="3.735" r="3.735" transform="translate(0.546 0.546)"/><path class="b" d="M2731.855-1575.291l-.141,0h0a4.286,4.286,0,0,1-4.14-4.418,4.279,4.279,0,0,1,4.418-4.14,4.253,4.253,0,0,1,2.985,1.351,4.253,4.253,0,0,1,1.155,3.066A4.286,4.286,0,0,1,2731.855-1575.291Zm-.106-1.093a3.194,3.194,0,0,0,3.291-3.084,3.168,3.168,0,0,0-.86-2.284,3.169,3.169,0,0,0-2.224-1.007l-.1,0a3.193,3.193,0,0,0-3.187,3.086,3.193,3.193,0,0,0,3.084,3.292Z" transform="translate(-2727.573 1583.853)"/></g><g transform="translate(38.459 28.819)"><circle class="i" cx="3.735" cy="3.735" r="3.735" transform="translate(0.546 0.546)"/><path class="b" d="M2728.433-1505.754l-.142,0h0a4.286,4.286,0,0,1-4.14-4.418,4.253,4.253,0,0,1,1.351-2.984,4.245,4.245,0,0,1,3.066-1.155,4.251,4.251,0,0,1,2.985,1.351,4.247,4.247,0,0,1,1.155,3.066,4.252,4.252,0,0,1-1.351,2.985A4.252,4.252,0,0,1,2728.433-1505.754Zm-.107-1.093a3.2,3.2,0,0,0,3.291-3.084,3.169,3.169,0,0,0-.86-2.284,3.17,3.17,0,0,0-2.225-1.007,3.181,3.181,0,0,0-2.284.861,3.17,3.17,0,0,0-1.007,2.224A3.194,3.194,0,0,0,2728.325-1506.847Z" transform="translate(-2724.148 1514.316)"/></g><g transform="translate(33.299 24.661)"><circle class="i" cx="3.867" cy="3.867" r="3.867" transform="translate(0.546 0.546)"/><path class="b" d="M2704.926-1524.537l-.145,0a4.419,4.419,0,0,1-4.267-4.554,4.411,4.411,0,0,1,4.554-4.267,4.418,4.418,0,0,1,4.267,4.554A4.419,4.419,0,0,1,2704.926-1524.537Zm0-7.734a3.325,3.325,0,0,0-3.318,3.213,3.3,3.3,0,0,0,.9,2.379,3.3,3.3,0,0,0,2.316,1.049,3.3,3.3,0,0,0,2.378-.9,3.3,3.3,0,0,0,1.048-2.316,3.3,3.3,0,0,0-.9-2.379,3.3,3.3,0,0,0-2.315-1.048Z" transform="translate(-2700.512 1533.362)"/></g><g transform="translate(38.055 21.689)"><circle class="i" cx="3.735" cy="3.735" r="3.735" transform="translate(0.546 0.546)"/><path class="b" d="M2726.579-1538.416c-.048,0-.095,0-.143,0a4.254,4.254,0,0,1-2.985-1.351,4.258,4.258,0,0,1-1.155-3.066,4.257,4.257,0,0,1,1.351-2.985,4.252,4.252,0,0,1,3.066-1.155,4.252,4.252,0,0,1,2.985,1.352,4.248,4.248,0,0,1,1.155,3.066,4.252,4.252,0,0,1-1.352,2.985A4.25,4.25,0,0,1,2726.579-1538.416Zm-.005-7.47a3.193,3.193,0,0,0-3.186,3.086,3.169,3.169,0,0,0,.86,2.284,3.17,3.17,0,0,0,2.224,1.007,3.19,3.19,0,0,0,3.291-3.084,3.167,3.167,0,0,0-.861-2.284,3.168,3.168,0,0,0-2.224-1.007Z" transform="translate(-2722.294 1546.978)"/></g><g transform="translate(43.761 20.34)"><circle class="i" cx="3.735" cy="3.735" r="3.735" transform="translate(0.546 0.546)"/><path class="b" d="M2752.717-1544.6c-.048,0-.095,0-.143,0a4.251,4.251,0,0,1-2.985-1.351,4.251,4.251,0,0,1-1.155-3.066,4.253,4.253,0,0,1,1.352-2.985,4.24,4.24,0,0,1,3.066-1.155,4.286,4.286,0,0,1,4.139,4.417,4.252,4.252,0,0,1-1.352,2.985A4.251,4.251,0,0,1,2752.717-1544.6Zm-.005-7.47a3.193,3.193,0,0,0-3.186,3.086,3.166,3.166,0,0,0,.861,2.284,3.167,3.167,0,0,0,2.224,1.007,3.2,3.2,0,0,0,3.291-3.084,3.193,3.193,0,0,0-3.084-3.291Z" transform="translate(-2748.432 1553.158)"/></g><g transform="translate(45.006 12.558)"><circle class="i" cx="3.735" cy="3.735" r="3.735" transform="translate(0.546 0.546)"/><path class="b" d="M2758.42-1580.239l-.143,0a4.253,4.253,0,0,1-2.985-1.352,4.252,4.252,0,0,1-1.155-3.066,4.253,4.253,0,0,1,1.351-2.984,4.24,4.24,0,0,1,3.067-1.155,4.287,4.287,0,0,1,4.14,4.417,4.253,4.253,0,0,1-1.352,2.985A4.252,4.252,0,0,1,2758.42-1580.239Zm-.005-7.47a3.193,3.193,0,0,0-3.187,3.086,3.168,3.168,0,0,0,.861,2.284,3.167,3.167,0,0,0,2.224,1.007,3.185,3.185,0,0,0,2.284-.86,3.169,3.169,0,0,0,1.007-2.224,3.193,3.193,0,0,0-3.084-3.291Z" transform="translate(-2754.135 1588.801)"/></g><g transform="translate(34.838 14.114)"><circle class="i" cx="3.735" cy="3.735" r="3.735" transform="translate(0.546 0.546)"/><path class="b" d="M2711.846-1573.11l-.143,0a4.254,4.254,0,0,1-2.985-1.351,4.253,4.253,0,0,1-1.155-3.066,4.28,4.28,0,0,1,4.417-4.14,4.286,4.286,0,0,1,4.14,4.417,4.254,4.254,0,0,1-1.351,2.985A4.25,4.25,0,0,1,2711.846-1573.11Zm-.005-7.47a3.193,3.193,0,0,0-3.186,3.086,3.194,3.194,0,0,0,3.084,3.292,3.176,3.176,0,0,0,2.284-.861,3.169,3.169,0,0,0,1.007-2.224,3.194,3.194,0,0,0-3.084-3.292Z" transform="translate(-2707.561 1581.672)"/></g><g transform="translate(51.549 12.804)"><circle class="i" cx="3.867" cy="3.867" r="3.867" transform="translate(0.546 0.546)"/><path class="b" d="M2788.517-1578.848l-.144,0a4.418,4.418,0,0,1-4.268-4.554,4.411,4.411,0,0,1,4.553-4.267,4.381,4.381,0,0,1,3.077,1.393,4.388,4.388,0,0,1,1.191,3.161A4.419,4.419,0,0,1,2788.517-1578.848Zm0-7.734a3.3,3.3,0,0,0-2.269.9,3.3,3.3,0,0,0-1.048,2.315,3.3,3.3,0,0,0,.9,2.379,3.3,3.3,0,0,0,2.316,1.048,3.319,3.319,0,0,0,3.427-3.212,3.3,3.3,0,0,0-.9-2.378,3.3,3.3,0,0,0-2.315-1.049Z" transform="translate(-2784.103 1587.673)"/></g><g transform="translate(40.966 9.588)"><circle class="i" cx="3.867" cy="3.867" r="3.867" transform="translate(0.546 0.546)"/><path class="b" d="M2740.046-1593.581l-.147,0h0a4.419,4.419,0,0,1-4.267-4.554,4.411,4.411,0,0,1,4.554-4.267,4.419,4.419,0,0,1,4.267,4.554,4.386,4.386,0,0,1-1.393,3.077A4.381,4.381,0,0,1,2740.046-1593.581Zm-.006-7.734a3.3,3.3,0,0,0-2.269.9,3.3,3.3,0,0,0-1.048,2.315,3.324,3.324,0,0,0,3.211,3.427h0a3.3,3.3,0,0,0,2.378-.9,3.3,3.3,0,0,0,1.049-2.316,3.3,3.3,0,0,0-.9-2.379,3.3,3.3,0,0,0-2.316-1.048Z" transform="translate(-2735.629 1602.407)"/></g><g transform="translate(33.288 15.917)"><circle class="i" cx="3.867" cy="3.867" r="3.867" transform="translate(0.546 0.546)"/><path class="b" d="M2704.875-1564.591l-.145,0a4.418,4.418,0,0,1-4.268-4.554,4.412,4.412,0,0,1,4.553-4.267,4.418,4.418,0,0,1,4.268,4.553A4.418,4.418,0,0,1,2704.875-1564.591Zm-.005-7.734a3.3,3.3,0,0,0-2.268.9,3.3,3.3,0,0,0-1.048,2.316,3.3,3.3,0,0,0,.9,2.379,3.3,3.3,0,0,0,2.315,1.048,3.326,3.326,0,0,0,3.427-3.212,3.3,3.3,0,0,0-.9-2.379,3.3,3.3,0,0,0-2.316-1.048Z" transform="translate(-2700.459 1573.416)"/></g><g transform="translate(48.05 18.202)"><circle class="i" cx="3.867" cy="3.867" r="3.867" transform="translate(0.546 0.546)"/><path class="b" d="M2772.494-1554.122c-.049,0-.1,0-.146,0a4.383,4.383,0,0,1-3.077-1.393,4.388,4.388,0,0,1-1.191-3.16,4.414,4.414,0,0,1,4.554-4.268,4.418,4.418,0,0,1,4.267,4.554A4.418,4.418,0,0,1,2772.494-1554.122Zm0-7.734a3.3,3.3,0,0,0-2.268.9,3.3,3.3,0,0,0-1.049,2.316,3.3,3.3,0,0,0,.9,2.379,3.3,3.3,0,0,0,2.316,1.048,3.319,3.319,0,0,0,3.427-3.211,3.3,3.3,0,0,0-.9-2.379,3.3,3.3,0,0,0-2.316-1.048Z" transform="translate(-2768.079 1562.948)"/></g><g transform="translate(51.353 20.511)"><circle class="i" cx="3.867" cy="3.867" r="3.867" transform="translate(0.546 0.546)"/><path class="b" d="M2787.623-1543.546l-.147,0a4.418,4.418,0,0,1-4.267-4.553,4.386,4.386,0,0,1,1.394-3.077,4.386,4.386,0,0,1,3.16-1.19,4.418,4.418,0,0,1,4.267,4.554,4.383,4.383,0,0,1-1.393,3.077A4.38,4.38,0,0,1,2787.623-1543.546Zm-.006-7.734a3.3,3.3,0,0,0-2.268.9,3.3,3.3,0,0,0-1.048,2.316,3.3,3.3,0,0,0,.9,2.378,3.3,3.3,0,0,0,2.315,1.048h0a3.3,3.3,0,0,0,2.378-.9,3.3,3.3,0,0,0,1.049-2.316,3.326,3.326,0,0,0-3.212-3.427Z" transform="translate(-2783.206 1552.371)"/></g><g transform="translate(56.108 17.538)"><circle class="i" cx="3.735" cy="3.735" r="3.735" transform="translate(0.546 0.546)"/><path class="b" d="M2809.271-1557.426l-.142,0a4.252,4.252,0,0,1-2.985-1.351,4.255,4.255,0,0,1-1.155-3.066,4.286,4.286,0,0,1,4.277-4.142l.141,0a4.249,4.249,0,0,1,2.985,1.351,4.25,4.25,0,0,1,1.155,3.066,4.251,4.251,0,0,1-1.351,2.985A4.25,4.25,0,0,1,2809.271-1557.426Zm0-7.47a3.193,3.193,0,0,0-3.186,3.086,3.193,3.193,0,0,0,3.084,3.291,3.184,3.184,0,0,0,2.284-.861,3.169,3.169,0,0,0,1.007-2.224,3.167,3.167,0,0,0-.861-2.284,3.165,3.165,0,0,0-2.224-1.007Z" transform="translate(-2804.987 1565.988)"/></g><g transform="translate(43.589 27.436)"><circle class="i" cx="3.867" cy="3.867" r="3.867" transform="translate(0.546 0.546)"/><path class="b" d="M2752.059-1511.825l-.146,0a4.417,4.417,0,0,1-4.267-4.553,4.412,4.412,0,0,1,4.554-4.267,4.417,4.417,0,0,1,4.267,4.553,4.381,4.381,0,0,1-1.393,3.077A4.381,4.381,0,0,1,2752.059-1511.825Zm0-7.734a3.325,3.325,0,0,0-3.318,3.214,3.3,3.3,0,0,0,.9,2.379,3.3,3.3,0,0,0,2.315,1.048h0a3.3,3.3,0,0,0,2.379-.9,3.3,3.3,0,0,0,1.048-2.316,3.325,3.325,0,0,0-3.211-3.427Z" transform="translate(-2747.643 1520.651)"/></g><g transform="translate(46.891 29.745)"><circle class="i" cx="3.867" cy="3.867" r="3.867" transform="translate(0.546 0.546)"/><path class="b" d="M2767.184-1501.249l-.145,0h0a4.417,4.417,0,0,1-4.268-4.553,4.413,4.413,0,0,1,4.554-4.267,4.418,4.418,0,0,1,4.267,4.553A4.418,4.418,0,0,1,2767.184-1501.249Zm-.11-1.094a3.321,3.321,0,0,0,3.428-3.212,3.3,3.3,0,0,0-.9-2.379,3.3,3.3,0,0,0-2.316-1.049,3.3,3.3,0,0,0-2.379.9,3.3,3.3,0,0,0-1.048,2.316,3.325,3.325,0,0,0,3.211,3.427Z" transform="translate(-2762.77 1510.075)"/></g><g transform="translate(51.647 26.773)"><circle class="i" cx="3.735" cy="3.735" r="3.735" transform="translate(0.546 0.546)"/><path class="b" d="M2788.836-1515.129l-.142,0a4.256,4.256,0,0,1-2.985-1.352,4.252,4.252,0,0,1-1.155-3.066,4.256,4.256,0,0,1,1.351-2.985,4.264,4.264,0,0,1,3.066-1.155,4.254,4.254,0,0,1,2.985,1.351,4.255,4.255,0,0,1,1.156,3.066,4.258,4.258,0,0,1-1.352,2.985A4.254,4.254,0,0,1,2788.836-1515.129Zm-.007-7.47a3.168,3.168,0,0,0-2.178.862,3.168,3.168,0,0,0-1.007,2.224,3.166,3.166,0,0,0,.861,2.285,3.166,3.166,0,0,0,2.223,1.007,3.185,3.185,0,0,0,2.284-.861,3.168,3.168,0,0,0,1.007-2.224,3.168,3.168,0,0,0-.861-2.284,3.167,3.167,0,0,0-2.223-1.007Z" transform="translate(-2784.552 1523.691)"/></g><g transform="translate(46.88 21.001)"><circle class="i" cx="3.867" cy="3.867" r="3.867" transform="translate(0.546 0.546)"/><path class="b" d="M2767.134-1541.3l-.147,0a4.418,4.418,0,0,1-4.267-4.554,4.382,4.382,0,0,1,1.393-3.076,4.383,4.383,0,0,1,3.16-1.191,4.418,4.418,0,0,1,4.268,4.554,4.388,4.388,0,0,1-1.393,3.077A4.381,4.381,0,0,1,2767.134-1541.3Zm-.007-7.734a3.3,3.3,0,0,0-2.268.9,3.3,3.3,0,0,0-1.048,2.316,3.3,3.3,0,0,0,.9,2.379,3.3,3.3,0,0,0,2.316,1.048h0a3.308,3.308,0,0,0,2.379-.9,3.3,3.3,0,0,0,1.048-2.316,3.3,3.3,0,0,0-.9-2.379,3.3,3.3,0,0,0-2.315-1.048Z" transform="translate(-2762.718 1550.129)"/></g><g transform="translate(40.894 26.971)"><circle class="i" cx="3.735" cy="3.735" r="3.735" transform="translate(0.546 0.546)"/><path class="b" d="M2739.581-1514.22l-.14,0h0a4.253,4.253,0,0,1-2.984-1.351,4.255,4.255,0,0,1-1.156-3.066,4.281,4.281,0,0,1,4.418-4.14,4.252,4.252,0,0,1,2.985,1.352,4.254,4.254,0,0,1,1.155,3.066A4.287,4.287,0,0,1,2739.581-1514.22Zm-.1-1.093a3.192,3.192,0,0,0,3.291-3.084,3.169,3.169,0,0,0-.861-2.284,3.168,3.168,0,0,0-2.224-1.007,3.2,3.2,0,0,0-3.291,3.084,3.194,3.194,0,0,0,3.085,3.291Z" transform="translate(-2735.298 1522.782)"/></g><g transform="translate(56.305 25.499)"><circle class="i" cx="3.735" cy="3.735" r="3.735" transform="translate(0.546 0.546)"/><path class="b" d="M2810.175-1520.963l-.143,0a4.254,4.254,0,0,1-2.985-1.351,4.253,4.253,0,0,1-1.156-3.066,4.253,4.253,0,0,1,1.352-2.985,4.242,4.242,0,0,1,3.066-1.155,4.287,4.287,0,0,1,4.14,4.417,4.254,4.254,0,0,1-1.352,2.985A4.251,4.251,0,0,1,2810.175-1520.963Zm0-7.47a3.193,3.193,0,0,0-3.187,3.086,3.167,3.167,0,0,0,.861,2.284,3.167,3.167,0,0,0,2.224,1.007,3.2,3.2,0,0,0,3.291-3.084,3.194,3.194,0,0,0-3.084-3.291Z" transform="translate(-2805.89 1529.525)"/></g><g transform="translate(52.488 29.201)"><circle class="i" cx="3.735" cy="3.735" r="3.735" transform="translate(0.546 0.546)"/><path class="b" d="M2792.688-1504l-.141,0a4.251,4.251,0,0,1-2.985-1.351,4.254,4.254,0,0,1-1.156-3.066,4.279,4.279,0,0,1,4.418-4.14,4.286,4.286,0,0,1,4.14,4.418A4.286,4.286,0,0,1,2792.688-1504Zm0-7.471a3.194,3.194,0,0,0-3.187,3.086,3.193,3.193,0,0,0,3.085,3.291,3.191,3.191,0,0,0,3.291-3.084,3.194,3.194,0,0,0-3.085-3.291Z" transform="translate(-2788.405 1512.566)"/></g><g transform="translate(55.289 19.967)"><circle class="i" cx="3.735" cy="3.735" r="3.735" transform="translate(0.546 0.546)"/><path class="b" d="M2805.521-1546.3c-.047,0-.095,0-.142,0a4.248,4.248,0,0,1-2.985-1.351,4.248,4.248,0,0,1-1.156-3.066,4.255,4.255,0,0,1,1.352-2.985,4.265,4.265,0,0,1,3.066-1.155,4.256,4.256,0,0,1,2.985,1.351,4.257,4.257,0,0,1,1.155,3.066,4.254,4.254,0,0,1-1.352,2.985A4.25,4.25,0,0,1,2805.521-1546.3Zm-.006-7.47a3.168,3.168,0,0,0-2.178.862,3.168,3.168,0,0,0-1.006,2.224,3.166,3.166,0,0,0,.86,2.285,3.169,3.169,0,0,0,2.224,1.007,3.193,3.193,0,0,0,2.285-.861,3.164,3.164,0,0,0,1.006-2.223,3.193,3.193,0,0,0-3.084-3.292Z" transform="translate(-2801.236 1554.862)"/></g><g transform="translate(59.751 18.93)"><circle class="i" cx="3.735" cy="3.735" r="3.735" transform="translate(0.546 0.546)"/><path class="b" d="M2825.957-1551.053c-.047,0-.095,0-.143,0a4.252,4.252,0,0,1-2.985-1.351,4.249,4.249,0,0,1-1.155-3.066,4.252,4.252,0,0,1,1.351-2.985,4.259,4.259,0,0,1,3.066-1.155,4.256,4.256,0,0,1,2.985,1.351,4.253,4.253,0,0,1,1.155,3.066,4.251,4.251,0,0,1-1.351,2.985A4.252,4.252,0,0,1,2825.957-1551.053Zm-.007-7.47a3.166,3.166,0,0,0-2.178.862,3.166,3.166,0,0,0-1.007,2.224,3.165,3.165,0,0,0,.86,2.284,3.17,3.17,0,0,0,2.224,1.007,3.184,3.184,0,0,0,2.284-.86,3.167,3.167,0,0,0,1.007-2.224,3.192,3.192,0,0,0-3.084-3.291Z" transform="translate(-2821.672 1559.615)"/></g><g transform="translate(40.141 15.817)"><circle class="i" cx="3.735" cy="3.735" r="3.735" transform="translate(0.546 0.546)"/><path class="b" d="M2736.134-1565.311l-.143,0a4.254,4.254,0,0,1-2.985-1.351,4.256,4.256,0,0,1-1.155-3.066,4.253,4.253,0,0,1,1.352-2.985,4.248,4.248,0,0,1,3.066-1.155,4.252,4.252,0,0,1,2.985,1.351,4.253,4.253,0,0,1,1.155,3.066,4.256,4.256,0,0,1-1.351,2.985A4.253,4.253,0,0,1,2736.134-1565.311Zm-.005-7.471a3.193,3.193,0,0,0-3.187,3.086,3.17,3.17,0,0,0,.861,2.284,3.169,3.169,0,0,0,2.224,1.007,3.194,3.194,0,0,0,3.291-3.084,3.169,3.169,0,0,0-.861-2.284,3.168,3.168,0,0,0-2.223-1.007Z" transform="translate(-2731.849 1573.873)"/></g><g transform="translate(62.253 24.164)"><circle class="i" cx="3.735" cy="3.735" r="3.735" transform="translate(0.546 0.546)"/><path class="b" d="M2837.415-1527.077a4.286,4.286,0,0,1-4.281-4.281,4.286,4.286,0,0,1,4.281-4.281,4.286,4.286,0,0,1,4.281,4.281A4.286,4.286,0,0,1,2837.415-1527.077Zm0-7.47a3.193,3.193,0,0,0-3.189,3.189,3.193,3.193,0,0,0,3.189,3.19,3.193,3.193,0,0,0,3.189-3.19A3.193,3.193,0,0,0,2837.415-1534.547Z" transform="translate(-2833.134 1535.639)"/></g></g><g transform="translate(2043.575 -1614.255)"><path class="p" d="M2970.635-1374.012a8.88,8.88,0,0,1-9.1,8.638,8.88,8.88,0,0,1-9.1-8.638c0-4.771,4.31-11.205,9.338-11.205S2970.635-1378.783,2970.635-1374.012Z" transform="translate(-2951.881 1385.764)"/><path class="b" d="M2959.576-1366.783a9.436,9.436,0,0,1-9.65-9.183c0-5.18,4.653-11.751,9.884-11.751s9.417,6.429,9.417,11.751A9.436,9.436,0,0,1,2959.576-1366.783Zm.233-19.843c-4.528,0-8.792,6.005-8.792,10.66a8.345,8.345,0,0,0,8.559,8.092,8.345,8.345,0,0,0,8.559-8.092C2968.135-1380.259,2964.639-1386.626,2959.809-1386.626Z" transform="translate(-2949.926 1387.718)"/></g><g transform="translate(2050.113 -1606.239)"><ellipse class="b" cx="0.506" cy="1.089" rx="0.506" ry="1.089" transform="translate(0 0)"/></g><g transform="translate(2052.292 -1606.006)"><ellipse class="b" cx="0.506" cy="1.089" rx="0.506" ry="1.089" transform="translate(0 0)"/></g><g transform="translate(2056.199 -1605.39)"><path class="p" d="M3028.43-1334.063a8.881,8.881,0,0,1-8.456,9.274,8.88,8.88,0,0,1-9.705-7.956c-.346-4.758,3.487-11.488,8.5-11.852S3028.084-1338.821,3028.43-1334.063Z" transform="translate(-3009.701 1345.158)"/><path class="b" d="M3017.318-1326.171a9.394,9.394,0,0,1-9.548-8.487,13.262,13.262,0,0,1,2.33-7.916c1.789-2.7,4.222-4.343,6.677-4.521,5.2-.374,9.857,5.73,10.242,11.039a8.9,8.9,0,0,1-2.358,6.692,9.845,9.845,0,0,1-6.6,3.166C3017.811-1326.18,3017.564-1326.171,3017.318-1326.171Zm-.066-19.849c-.132,0-.264,0-.4.014-2.114.153-4.245,1.625-5.846,4.036a12.327,12.327,0,0,0-2.151,7.233,8.342,8.342,0,0,0,9.122,7.451,8.755,8.755,0,0,0,5.874-2.813,7.825,7.825,0,0,0,2.077-5.878C3025.628-1340.14,3021.887-1346.02,3017.252-1346.02Z" transform="translate(-3007.746 1347.111)"/></g><g transform="translate(2062.472 -1597.209)"><ellipse class="b" cx="0.506" cy="1.089" rx="0.506" ry="1.089" transform="translate(0 0.073) rotate(-4.152)"/></g><g transform="translate(2064.662 -1597.135)"><ellipse class="b" cx="0.506" cy="1.089" rx="0.506" ry="1.089" transform="translate(0 0.073) rotate(-4.152)"/></g><g transform="translate(1944.187 -1642.329)"><g transform="translate(1.046 1.725)"><line class="o" x1="15.496" y1="13.326" transform="translate(1.092 1.092)"/><path class="b" d="M2516.055-1492.9a1.087,1.087,0,0,1-.711-.264l-15.5-13.326a1.091,1.091,0,0,1-.116-1.539,1.092,1.092,0,0,1,1.54-.116l15.5,13.326a1.091,1.091,0,0,1,.116,1.539A1.088,1.088,0,0,1,2516.055-1492.9Z" transform="translate(-2499.468 1508.408)"/></g><g transform="translate(0)"><path class="b" d="M2495.764-1507.491a1.092,1.092,0,0,1-1.084-.974,1.092,1.092,0,0,1,.967-1.2l4.79-.522-.557-4.9a1.092,1.092,0,0,1,.962-1.208,1.093,1.093,0,0,1,1.208.962l.681,5.994a1.093,1.093,0,0,1-.232.805,1.09,1.09,0,0,1-.734.4l-5.88.641A1.14,1.14,0,0,1,2495.764-1507.491Z" transform="translate(-2494.674 1516.309)"/></g></g><g transform="translate(2029.071 -1636.799)"><g transform="translate(0 1.552)"><line class="o" y1="14.023" x2="14.868" transform="translate(1.092 1.091)"/><path class="b" d="M2884.579-1467.661a1.09,1.09,0,0,1-.794-.343,1.091,1.091,0,0,1,.045-1.543l14.868-14.023a1.092,1.092,0,0,1,1.543.045,1.092,1.092,0,0,1-.045,1.543l-14.868,14.023A1.087,1.087,0,0,1,2884.579-1467.661Z" transform="translate(-2883.487 1483.867)"/></g><g transform="translate(10.094 0)"><path class="b" d="M2930.84-1482.881a1.089,1.089,0,0,1-.766-.315,1.092,1.092,0,0,1-.325-.772l-.024-5.915a1.092,1.092,0,0,1,1.087-1.1h0a1.092,1.092,0,0,1,1.092,1.087l.02,4.818,4.936-.043a1.092,1.092,0,0,1,1.1,1.082,1.092,1.092,0,0,1-1.083,1.1l-6.033.052Z" transform="translate(-2929.724 1490.978)"/></g></g><g transform="translate(1869.267 -1602.896)"><path class="b" d="M2156.487-1317.782H2152.6a1.091,1.091,0,0,1-1.091-1.091,1.091,1.091,0,0,1,1.091-1.092h2.852l.727-14.681a1.092,1.092,0,0,1,1.144-1.036,1.092,1.092,0,0,1,1.037,1.144l-.778,15.719A1.092,1.092,0,0,1,2156.487-1317.782Z" transform="translate(-2151.505 1335.684)"/></g><g transform="translate(1899.497 -1607.567)"><path class="b" d="M2300.374-1342.212a1.089,1.089,0,0,1-.88-.446l-9.306-12.687a1.092,1.092,0,0,1,.235-1.526,1.092,1.092,0,0,1,1.526.234l8.688,11.846,2.044-1.364a1.092,1.092,0,0,1,1.514.3,1.092,1.092,0,0,1-.3,1.514l-2.913,1.943A1.086,1.086,0,0,1,2300.374-1342.212Z" transform="translate(-2289.976 1357.083)"/></g><g transform="translate(1840.209 -1677.525)"><g transform="translate(0 0)"><g transform="translate(2.656 5.36)"><path class="f" d="M2107-1637.338l6.481,34.465s1.017,7.093-3.984,11.94-13.4,11.282-29,14.216-28.694.117-36.167-4.812c-2.353-2.408-3.59-2.809-4.522-6.645s-6.635-35.28-6.635-35.28-3.247-16.7,30.713-25.307a66.726,66.726,0,0,1,26.137-.8C2105.768-1646.594,2107-1637.338,2107-1637.338Z" transform="translate(-2032.543 1651.049)"/><path class="b" d="M2066.1-1576.9a57.4,57.4,0,0,1-8.787-.662,38.688,38.688,0,0,1-15.252-5.438.567.567,0,0,1-.089-.074c-.474-.485-.91-.895-1.3-1.256a9.369,9.369,0,0,1-3.368-5.641c-.926-3.809-6.408-34.028-6.641-35.312-.034-.173-.812-4.448,2.7-9.824,4.634-7.087,14.193-12.507,28.415-16.11a67.912,67.912,0,0,1,26.373-.805c8.289,1.561,12.572,4.889,14.705,7.406a11.381,11.381,0,0,1,2.706,5.263l6.479,34.453c0,.008,0,.016,0,.024.043.3,1,7.426-4.144,12.409-4.866,4.716-13.2,11.336-29.278,14.361A67.88,67.88,0,0,1,2066.1-1576.9Zm-23.389-6.979c8.465,5.557,21.81,7.314,35.717,4.7,15.792-2.97,23.954-9.453,28.719-14.072,4.649-4.506,3.863-11.16,3.824-11.461l-6.479-34.451c0-.009,0-.018-.005-.027a10.5,10.5,0,0,0-2.511-4.782c-2.023-2.359-6.1-5.484-14.021-6.976a66.656,66.656,0,0,0-25.9.79c-17.378,4.4-24.695,10.941-27.774,15.651-3.274,5.008-2.55,8.985-2.542,9.024.058.321,5.711,31.479,6.63,35.256a8.312,8.312,0,0,0,3.055,5.1C2041.81-1584.765,2042.242-1584.359,2042.715-1583.877Z" transform="translate(-2030.575 1652.973)"/></g><g transform="translate(0)"><ellipse class="g" cx="37.274" cy="19.013" rx="37.274" ry="19.013" transform="matrix(0.983, -0.185, 0.185, 0.983, 0, 13.778)"/><path class="b" d="M2059.167-1613.206a50.719,50.719,0,0,1-14.174-1.863c-7.789-2.289-12.618-6.415-13.6-11.617h0c-.979-5.2,2.021-10.8,8.447-15.763,6.322-4.882,15.238-8.593,25.106-10.449s19.523-1.637,27.187.614c7.789,2.289,12.618,6.415,13.6,11.618s-2.021,10.8-8.447,15.763c-6.322,4.882-15.238,8.593-25.106,10.449A70.763,70.763,0,0,1,2059.167-1613.206Zm-26.7-13.682c.9,4.779,5.456,8.6,12.832,10.772,7.5,2.2,16.975,2.414,26.677.589,19.9-3.743,34.564-14.93,32.682-24.937s-19.6-15.1-39.509-11.361S2030.588-1636.9,2032.469-1626.888Z" transform="translate(-2028.419 1659.251)"/></g><g transform="translate(4.652 8.352)"><path class="h" d="M2112.785-1624.286s-1.648-5.391-4.506-6.279-3.715-.806-4.648-1.977-1.12-2.165-3.147-2.417-3.69-.256-5-.485-7.8-1.464-11.966-1.313-9.005.11-11.443,1.043-6.83,2-8.79,2.524-8.693,4.723-11.273,6.158-5.933,6.342-7.275,7.624-2.03,3.945-2.455,5.054.173,10.182,16.819,13.227c10.174,1.887,23.517.58,34.63-4.058C2105.571-1610.124,2112.612-1617.206,2112.785-1624.286Z" transform="translate(-2041.657 1637.314)"/><path class="b" d="M2066.829-1601.693a53.83,53.83,0,0,1-9.768-.85c-10.192-1.865-14.4-5.944-16.143-9.038-1.335-2.376-1.308-4.341-1.086-4.921.077-.2.164-.46.266-.76a11.561,11.561,0,0,1,2.321-4.494c.4-.38,1.017-1.138,1.732-2.016,1.6-1.965,3.8-4.655,5.656-5.69.686-.382,1.661-.956,2.79-1.621,3.164-1.864,7.1-4.183,8.606-4.588.393-.106.884-.233,1.436-.376,2.142-.555,5.379-1.394,7.3-2.13,2.116-.811,5.863-.914,9.487-1.015.719-.02,1.435-.04,2.132-.065a65.631,65.631,0,0,1,11.7,1.253l.377.067c.668.117,1.438.173,2.331.238.787.058,1.677.123,2.643.243a3.683,3.683,0,0,1,3.017,1.941c.15.22.306.447.49.677.583.732,1.113.876,2.528,1.262.5.135,1.114.3,1.854.534,3.1.962,4.8,6.409,4.866,6.64a.568.568,0,0,1,.024.173c-.089,3.619-1.925,7.328-5.311,10.725a43.85,43.85,0,0,1-14.078,8.868A67.122,67.122,0,0,1,2066.829-1601.693Zm15.489-36.484q-.37,0-.721.012c-.7.025-1.418.045-2.14.065-3.532.1-7.185.2-9.127.943-1.979.758-5.251,1.606-7.416,2.168-.55.142-1.037.269-1.427.374-1.362.366-5.393,2.74-8.336,4.474-1.135.669-2.115,1.246-2.813,1.634-1.677.933-3.795,3.53-5.34,5.426a27.753,27.753,0,0,1-1.824,2.115,10.808,10.808,0,0,0-2.041,4.054c-.105.311-.2.579-.281.8a6.419,6.419,0,0,0,1.019,4c1.624,2.89,5.612,6.71,15.389,8.5,10.537,1.955,23.689.413,34.322-4.025,11.5-4.8,18.49-11.719,18.715-18.524-.471-1.484-2.045-5.189-4.119-5.833-.722-.224-1.3-.383-1.817-.523-1.525-.416-2.291-.624-3.1-1.635-.209-.261-.384-.516-.537-.741a2.636,2.636,0,0,0-2.251-1.474c-.937-.116-1.814-.181-2.587-.237-.922-.067-1.717-.125-2.439-.251l-.382-.068A70.207,70.207,0,0,0,2082.318-1638.176Z" transform="translate(-2039.716 1639.268)"/></g><g transform="translate(33.731 16.18)"><path class="i" d="M2187.556-1582.328a29.329,29.329,0,0,0,14.44-7.57c6.926-6.5-.418-8.677-3.48-9.748s-13.99-2.484-22.247.629c-2.25.943.614,4.652.614,4.652l8.767,10.661S2186.8-1582.186,2187.556-1582.328Z" transform="translate(-2174.863 1601.459)"/><path class="b" d="M2185.51-1583.726c-.952,0-1.947-1.208-2.245-1.6l-8.753-10.644c-.212-.274-1.966-2.609-1.531-4.257a1.84,1.84,0,0,1,1.127-1.245c8.394-3.165,19.441-1.76,22.637-.641l.374.13c2.137.737,5.711,1.971,6.278,4.618.374,1.746-.6,3.681-2.978,5.914a29.645,29.645,0,0,1-14.726,7.711A1.062,1.062,0,0,1,2185.51-1583.726Zm.785-18.608a34.184,34.184,0,0,0-11.784,1.876.73.73,0,0,0-.474.509c-.226.854.7,2.477,1.329,3.3l8.755,10.648c.482.631,1.167,1.213,1.385,1.185l.022,0a29.07,29.07,0,0,0,14.144-7.428c2.047-1.922,2.942-3.567,2.658-4.889-.438-2.045-3.648-3.153-5.566-3.814l-.378-.131A35.71,35.71,0,0,0,2186.3-1602.334Z" transform="translate(-2172.913 1603.412)"/></g><g transform="translate(42.799 25.597)"><path class="j" d="M2233.2-1555.242a19.165,19.165,0,0,0-7.653.789,34.561,34.561,0,0,0-7.915,3.894l-.68-.847s2.38-4.284,9.115-5.81,8.792.427,8.792.427Z" transform="translate(-2216.402 1558.341)"/><path class="b" d="M2215.674-1551.951a.546.546,0,0,1-.427-.2l-.679-.848a.545.545,0,0,1-.052-.606c.1-.184,2.578-4.515,9.471-6.077,6.939-1.573,9.2.476,9.289.564a.546.546,0,0,1,.17.4.544.544,0,0,1-.173.4l-1.66,1.548a.546.546,0,0,1-.449.141h0a18.812,18.812,0,0,0-7.413.769,34.2,34.2,0,0,0-7.77,3.824A.543.543,0,0,1,2215.674-1551.951Zm-.007-1.427.122.152a34.326,34.326,0,0,1,7.635-3.685,19.954,19.954,0,0,1,7.63-.84l.944-.88c-.94-.418-3.247-1.016-7.768.009A14.091,14.091,0,0,0,2215.666-1553.378Z" transform="translate(-2214.448 1560.279)"/></g><g transform="translate(38.844 20.203)"><path class="j" d="M2223.074-1580.362a41.8,41.8,0,0,0-13.172,1.177c-7.979,1.826-10.218,4.782-10.218,4.782l-.852-1.075s1.783-4.691,10.9-6.341,13.129.326,13.129.326S2223.442-1580.822,2223.074-1580.362Z" transform="translate(-2198.286 1583.024)"/><path class="b" d="M2197.729-1575.821a.547.547,0,0,1-.428-.207l-.852-1.075a.545.545,0,0,1-.083-.533c.077-.2,2-5,11.313-6.684,9.189-1.663,13.3.29,13.468.374a.548.548,0,0,1,.172.132,1.462,1.462,0,0,1,.225,1.829.549.549,0,0,1-.494.2,41.758,41.758,0,0,0-12.982,1.167c-7.7,1.761-9.884,4.552-9.905,4.58a.544.544,0,0,1-.428.216Zm-.21-1.689.248.313c1.021-.957,3.85-3.063,10.059-4.484a44.717,44.717,0,0,1,12.788-1.239c-.017-.031-.035-.062-.055-.092-.687-.278-4.7-1.678-12.684-.233C2200.464-1581.9,2198.066-1578.488,2197.52-1577.51Z" transform="translate(-2196.332 1584.988)"/></g><g transform="translate(36.479 16.43)"><path class="j" d="M2210.043-1598.1c.152.117-8.486.165-13.532,2.025a20.7,20.7,0,0,0-7.635,4.687l-.876-1.2s2.051-3.962,8.1-5.684,7.261-1.5,7.261-1.5S2208.826-1599.042,2210.043-1598.1Z" transform="translate(-2187.454 1600.322)"/><path class="b" d="M2186.921-1592.79h-.031a.547.547,0,0,1-.41-.223l-.876-1.2a.547.547,0,0,1-.044-.573c.088-.17,2.23-4.191,8.433-5.958,5.711-1.627,7.232-1.545,7.482-1.512h0c.575.076,5.651.775,6.948,1.777h0a.554.554,0,0,1,.189.6c-.115.372-.46.4-.764.42-.183.014-.447.029-.779.048-2.316.132-8.468.483-12.324,1.9a20.426,20.426,0,0,0-7.423,4.544A.547.547,0,0,1,2186.921-1592.79Zm-.221-1.774.289.4a22.389,22.389,0,0,1,7.378-4.366c3.359-1.237,8.146-1.68,11.131-1.879-1.356-.327-3-.607-4.167-.762l-.028,0c-.032,0-1.343-.131-7.011,1.484A13.287,13.287,0,0,0,2186.7-1594.564Z" transform="translate(-2185.5 1602.269)"/></g><g transform="translate(33.688 16.254)"><path class="j" d="M2185.009-1600.576s-3.708,2.063-5.917,3.453a10.129,10.129,0,0,0-2.719,2.137s-1.214-1.267-1.156-1.994c0,0,2.221-2.368,4.218-2.808S2185.009-1600.576,2185.009-1600.576Z" transform="translate(-2174.67 1601.121)"/><path class="b" d="M2174.42-1596.4a.546.546,0,0,1-.395-.165c-.324-.339-1.377-1.514-1.3-2.415a.548.548,0,0,1,.146-.329c.1-.1,2.361-2.5,4.5-2.968,2.006-.443,5.49-.784,5.637-.8a.547.547,0,0,1,.574.381.546.546,0,0,1-.255.64c-.038.021-3.722,2.072-5.892,3.438a10.343,10.343,0,0,0-2.564,1.989.554.554,0,0,1-.407.226Zm-.586-2.337a3.816,3.816,0,0,0,.6.979,15.93,15.93,0,0,1,2.412-1.784c1.042-.656,2.425-1.466,3.595-2.138-.98.13-2.045.292-2.842.468A9.623,9.623,0,0,0,2173.834-1598.734Z" transform="translate(-2172.716 1603.075)"/></g><g transform="translate(18.831 19.403)"><path class="k" d="M2126.195-1579.074l-19.031,2.864s.442-3.529,6.528-6.429,7.6-3.509,7.6-3.509S2127.713-1579.294,2126.195-1579.074Z" transform="translate(-2106.618 1586.694)"/><path class="b" d="M2105.209-1577.619a.546.546,0,0,1-.381-.155.545.545,0,0,1-.16-.459c.019-.156.551-3.859,6.834-6.854,6.032-2.874,7.565-3.5,7.627-3.522a.546.546,0,0,1,.6.133c.014.014,1.4,1.494,2.72,3.085,2.63,3.166,2.678,3.923,2.517,4.385a.78.78,0,0,1-.649.517l-19.03,2.864A.611.611,0,0,1,2105.209-1577.619Zm13.987-9.832c-.725.314-2.728,1.208-7.223,3.35-4.052,1.93-5.485,4.141-5.977,5.266l17.876-2.69C2123.5-1582.483,2121.309-1585.17,2119.2-1587.451Z" transform="translate(-2104.664 1588.649)"/></g><g transform="translate(19.035 26.477)"><path class="l" d="M2126.925-1553.745l-.289,1.225-18.392,2.809-.146-1.468Z" transform="translate(-2107.552 1554.291)"/><path class="b" d="M2106.291-1551.12a.548.548,0,0,1-.335-.115.548.548,0,0,1-.208-.377l-.146-1.468a.545.545,0,0,1,.469-.595l18.827-2.566a.545.545,0,0,1,.478.174.546.546,0,0,1,.126.493l-.29,1.224a.547.547,0,0,1-.448.414l-18.391,2.809A.541.541,0,0,1,2106.291-1551.12Zm.449-1.544.037.372,17.458-2.666.022-.093Z" transform="translate(-2105.599 1556.245)"/></g><g transform="translate(17.846 18.529)"><path class="m" d="M2103.986-1578.173a8.311,8.311,0,0,1-1.276-.215l-.06-1.354s-.046-5.777,14.231-10.412l.879.875s-1.822.776-4.212,1.919c-3.985,1.9-9.424,4.917-9.709,7.721C2103.84-1579.641,2104-1578.239,2103.986-1578.173Z" transform="translate(-2102.105 1590.701)"/><path class="b" d="M2102.016-1579.57a7.883,7.883,0,0,1-1.377-.24.545.545,0,0,1-.427-.509l-.06-1.354c0-.272.117-6.251,14.607-10.956a.546.546,0,0,1,.554.132l.879.875a.545.545,0,0,1,.151.49.548.548,0,0,1-.322.4c-.018.008-1.839.786-4.191,1.91-7.423,3.548-9.217,5.882-9.4,7.229a9.842,9.842,0,0,1,.138,1.541.561.561,0,0,1-.232.378A.467.467,0,0,1,2102.016-1579.57Zm-.02-1.092h0Zm-.712-.125.145.029c-.025-.239-.055-.515-.084-.776a.608.608,0,0,1,0-.115c.243-2.384,3.519-5.052,10.017-8.158,1.471-.7,2.738-1.273,3.493-1.606l-.073-.073c-13.061,4.322-13.523,9.556-13.536,9.786Z" transform="translate(-2100.152 1592.655)"/></g><g transform="translate(25.852 12.507)"><path class="n" d="M2139.707-1620.054a2.317,2.317,0,0,1,1.125-.159.8.8,0,0,1,.685.788l-2.5,1.053a1.724,1.724,0,0,0-.771.5,3.09,3.09,0,0,1-.328.507.7.7,0,0,1-1.051-.336,1.132,1.132,0,0,1,.383-1.17,3.318,3.318,0,0,1,1.159-.583" transform="translate(-2136.822 1620.236)"/></g><g transform="translate(19.181 27.702)"><path class="k" d="M2132.221-1542.651l-5.062-5.484-18.391,2.808s1.685,2.739,9.045,3.5A50.648,50.648,0,0,0,2132.221-1542.651Z" transform="translate(-2108.221 1548.681)"/><path class="b" d="M2120.013-1543.031a41.1,41.1,0,0,1-4.211-.207c-7.541-.78-9.379-3.636-9.453-3.757a.544.544,0,0,1-.03-.516.545.545,0,0,1,.413-.31l18.391-2.808a.542.542,0,0,1,.483.169l5.062,5.485a.543.543,0,0,1,.12.532.546.546,0,0,1-.4.37A53.224,53.224,0,0,1,2120.013-1543.031Zm-12.062-3.872c1,.8,3.3,2.1,7.962,2.579a50.259,50.259,0,0,0,13.289-.629l-4.2-4.554Z" transform="translate(-2106.267 1550.636)"/></g><g transform="translate(19.072 30.511)"><path class="m" d="M2131.831-1532.595l.3,1.57a33.723,33.723,0,0,1-13.45,1.424c-8.051-.632-10.407-3.829-10.407-3.829l.109-1.841s1.762,2.76,10.36,3.578A53.16,53.16,0,0,0,2131.831-1532.595Z" transform="translate(-2107.723 1535.817)"/><path class="b" d="M2119.819-1530.886c-.993,0-2.042-.037-3.141-.124-8.205-.644-10.7-3.911-10.8-4.049a.547.547,0,0,1-.106-.356l.109-1.841a.546.546,0,0,1,.408-.5.547.547,0,0,1,.6.235c.013.018,1.833,2.556,9.951,3.328a52.891,52.891,0,0,0,12.933-.894.548.548,0,0,1,.414.082.546.546,0,0,1,.231.352l.3,1.57a.546.546,0,0,1-.343.611A31.965,31.965,0,0,1,2119.819-1530.886Zm-12.948-4.686c.559.59,3.187,2.948,9.892,3.474a34.75,34.75,0,0,0,12.783-1.245l-.107-.567a51.754,51.754,0,0,1-12.71.807c-5.754-.547-8.561-1.974-9.832-2.924Z" transform="translate(-2105.768 1537.77)"/></g><g transform="translate(11.575 35.895)"><path class="n" d="M2072.833-1513a.924.924,0,0,1,1.284.505,3.227,3.227,0,0,0,.18.746c.173.289.579.392.711.7a.63.63,0,0,1-.155.658,1.211,1.211,0,0,1-.633.312,2.356,2.356,0,0,1-2.08-.591,2.356,2.356,0,0,1-.685-2.05" transform="translate(-2071.426 1513.108)"/></g><g transform="translate(32.504 11.61)"><path class="n" d="M2168.7-1624.244a.925.925,0,0,1,1.284.5,3.247,3.247,0,0,0,.178.746c.174.289.58.392.711.7a.629.629,0,0,1-.154.658,1.215,1.215,0,0,1-.633.312,2.357,2.357,0,0,1-2.08-.591,2.357,2.357,0,0,1-.685-2.05" transform="translate(-2167.291 1624.347)"/></g><g transform="translate(8.642 31.904)"><path class="n" d="M2060.16-1531.253c.3-.12.709-.2.87.071.141.241-.055.534-.24.743a6.18,6.18,0,0,1-1.424,1.3c-.394.232-.975.339-1.253-.025a.894.894,0,0,1,.087-1,3.921,3.921,0,0,1,1.764-1.226" transform="translate(-2057.992 1531.391)"/></g><g transform="translate(71.885 21.814)"><path class="n" d="M2348.165-1574.959a.536.536,0,0,1-.327-.324c-.339-.711-.208-2.94.99-2.159C2349.677-1576.887,2349.334-1574.7,2348.165-1574.959Z" transform="translate(-2347.677 1577.605)"/></g><g transform="translate(55.85 12.582)"><path class="n" d="M2277.666-1619.332a1.6,1.6,0,0,1,.858.753,1.965,1.965,0,0,1-1.182.131,11.463,11.463,0,0,1-2.982-.76.226.226,0,0,1-.119-.083c-.056-.1.057-.208.157-.263A3.359,3.359,0,0,1,2277.666-1619.332Z" transform="translate(-2274.226 1619.892)"/></g><g transform="translate(48.773 10.643)"><path class="n" d="M2243.918-1628.377a2.661,2.661,0,0,1,1.661-.385c.221.023.495.142.476.364-.015.176-.208.27-.374.331l-.9.333a1.415,1.415,0,0,0-.51.271,3.2,3.2,0,0,0-.264.34,1.952,1.952,0,0,1-1.489.616c-.283.009-.641-.071-.7-.349a.6.6,0,0,1,.167-.465,2.611,2.611,0,0,1,.8-.67" transform="translate(-2241.81 1628.775)"/></g><g transform="translate(53.09 37.386)"><path class="n" d="M2263.691-1505.881a2.661,2.661,0,0,1,1.661-.384c.22.023.494.142.475.363-.015.176-.208.27-.373.331l-.9.333a1.418,1.418,0,0,0-.509.271,3.049,3.049,0,0,0-.264.34,1.952,1.952,0,0,1-1.488.616c-.284.009-.641-.071-.7-.349a.6.6,0,0,1,.167-.465,2.594,2.594,0,0,1,.8-.67" transform="translate(-2261.583 1506.279)"/></g><g transform="translate(14.6 20.426)"><path class="n" d="M2086.77-1583.687a1.33,1.33,0,0,1,.568-.269.534.534,0,0,1,.548.234.632.632,0,0,1-.1.639c-.345.494-1.023.775-1.14,1.366a.929.929,0,0,1-.075.3.427.427,0,0,1-.3.18.909.909,0,0,1-.981-.818,1.406,1.406,0,0,1,.613-1.224" transform="translate(-2085.281 1583.962)"/></g><g transform="translate(63.861 31.432)"><path class="n" d="M2312.41-1533.274a1.331,1.331,0,0,1,.567-.27.535.535,0,0,1,.548.234.631.631,0,0,1-.1.638c-.345.494-1.023.776-1.14,1.367a.912.912,0,0,1-.076.3.425.425,0,0,1-.3.181.91.91,0,0,1-.982-.818,1.407,1.407,0,0,1,.614-1.224" transform="translate(-2310.921 1533.551)"/></g><g transform="translate(30.756 41.253)"><path class="n" d="M2161.122-1488.374a3.332,3.332,0,0,0-1.205.39,1.244,1.244,0,0,0-.631,1.041.366.366,0,0,0,.055.2c.112.159.356.112.539.043a5.6,5.6,0,0,1,2.564-.632c.493.059,3.753.751,2.306-.674C2163.916-1488.826,2162.132-1488.553,2161.122-1488.374Z" transform="translate(-2159.286 1488.565)"/></g><g transform="translate(45.691 38.838)"><path class="n" d="M2228.6-1497.5a1.122,1.122,0,0,1-.862-.535.642.642,0,0,1,.724-.824,5.48,5.48,0,0,1,.613.343,1.166,1.166,0,0,0,.735.019c.593-.149,3.09-2.232,2.869-.334C2232.5-1497.345,2229.632-1497.287,2228.6-1497.5Z" transform="translate(-2227.696 1499.629)"/></g><g transform="translate(68.596 17.843)"><path class="n" d="M2333.333-1594.2a.878.878,0,0,1-.692-.367c-.138-.3.251-.684.606-.6a4.35,4.35,0,0,1,.493.234,1.078,1.078,0,0,0,.6,0c.487-.118,2.565-1.659,2.347-.295C2336.518-1594.161,2334.174-1594.064,2333.333-1594.2Z" transform="translate(-2332.612 1595.793)"/></g><g transform="translate(25.637 39.969)"><path class="n" d="M2137.443-1494.424a.651.651,0,0,1,.616.126.575.575,0,0,1-.109.755c-.655.655-.948.489-.915,1.433.018.472.249,1.231-.475.956C2134.981-1491.754,2136.32-1494.2,2137.443-1494.424Z" transform="translate(-2135.838 1494.447)"/></g><g transform="translate(16.976 40.905)"><path class="n" d="M2097.156-1490a2.866,2.866,0,0,0-.371.1c-.3.109-.565.286-.608.586C2095.9-1487.31,2101.514-1490.939,2097.156-1490Z" transform="translate(-2096.167 1490.159)"/></g><g transform="translate(68.426 28.245)"><path class="n" d="M2332.82-1547.992a2.853,2.853,0,0,0-.37.1c-.3.109-.566.286-.608.586C2331.564-1545.3,2337.179-1548.93,2332.82-1547.992Z" transform="translate(-2331.832 1548.15)"/></g></g><g transform="translate(51.353 51.287)"><ellipse class="b" cx="1.245" cy="2.957" rx="1.245" ry="2.957" transform="translate(0 0.377) rotate(-8.716)"/></g><g transform="translate(38.092 53.612)"><ellipse class="b" cx="1.245" cy="2.957" rx="1.245" ry="2.957" transform="translate(0 0.377) rotate(-8.716)"/></g><g transform="translate(45.063 64.278)"><path class="o" d="M2227.318-1379.106s.756,4.163,3.269,3.8c2.565-.373,1.621-4.648,1.621-4.648a2.91,2.91,0,0,1-2.6-.649A3.367,3.367,0,0,1,2227.318-1379.106Z" transform="translate(-2226.772 1381.15)"/><path class="b" d="M2228.308-1376.688c-2.674,0-3.448-4.089-3.481-4.271a.547.547,0,0,1,.1-.424.546.546,0,0,1,.379-.216,2.838,2.838,0,0,0,1.886-1.24.551.551,0,0,1,.408-.257.545.545,0,0,1,.451.164,2.388,2.388,0,0,0,2.07.5.545.545,0,0,1,.419.066.547.547,0,0,1,.246.346c.024.113.6,2.8-.444,4.307a2.309,2.309,0,0,1-1.632,1A2.8,2.8,0,0,1,2228.308-1376.688Zm-2.283-3.95c.273.995,1.026,3.057,2.529,2.839a1.239,1.239,0,0,0,.89-.539,4.753,4.753,0,0,0,.361-2.958,3.4,3.4,0,0,1-2.059-.483A3.886,3.886,0,0,1,2226.025-1380.638Zm-.661-.419h0Z" transform="translate(-2224.818 1383.1)"/></g><g transform="translate(43.919 64.278)"><path class="b" d="M2220.6-1380.435a4.564,4.564,0,0,1-.541-.033.545.545,0,0,1-.477-.607.547.547,0,0,1,.606-.477,3.072,3.072,0,0,0,2.911-1.293.55.55,0,0,1,.413-.252.546.546,0,0,1,.45.172c.035.036,1.022,1.006,3.056.02a.545.545,0,0,1,.729.253.545.545,0,0,1-.253.729,3.914,3.914,0,0,1-3.833.12A4.124,4.124,0,0,1,2220.6-1380.435Z" transform="translate(-2219.579 1383.099)"/></g><g transform="translate(21.08 61.53)"><ellipse class="o" cx="5.655" cy="2.386" rx="5.655" ry="2.386" transform="translate(0 0.312) rotate(-1.579)"/></g><g transform="translate(61.767 52.826)"><ellipse class="o" cx="5.655" cy="2.386" rx="5.655" ry="2.386" transform="translate(0 3.553) rotate(-18.309)"/></g></g><g transform="translate(1832.35 -1625.623)"><g transform="translate(0 2.855)"><line class="o" x1="18.694" y1="8.26" transform="translate(1.092 1.092)"/><path class="b" d="M2002.2-1416.269a1.089,1.089,0,0,1-.44-.093l-18.694-8.26a1.091,1.091,0,0,1-.558-1.44,1.092,1.092,0,0,1,1.439-.558l18.694,8.26a1.091,1.091,0,0,1,.557,1.439A1.092,1.092,0,0,1,2002.2-1416.269Z" transform="translate(-1982.41 1426.712)"/></g><g transform="translate(0.422 0)"><path class="b" d="M1985.437-1429.748a1.093,1.093,0,0,1-1-.664,1.092,1.092,0,0,1,.576-1.432l4.433-1.889-1.955-4.532a1.092,1.092,0,0,1,.57-1.435,1.092,1.092,0,0,1,1.435.57l2.389,5.539a1.088,1.088,0,0,1,.011.838,1.092,1.092,0,0,1-.585.6l-5.441,2.318A1.09,1.09,0,0,1,1985.437-1429.748Z" transform="translate(-1984.344 1439.79)"/></g></g><g transform="translate(1920.502 -1648.705)"><g transform="translate(0 0.521)"><line class="o" y1="16.819" x2="11.612" transform="translate(1.092 1.092)"/><path class="b" d="M2387.281-1524.124a1.085,1.085,0,0,1-.619-.193,1.092,1.092,0,0,1-.279-1.519L2398-1542.655a1.092,1.092,0,0,1,1.519-.278,1.092,1.092,0,0,1,.278,1.519L2388.18-1524.6A1.089,1.089,0,0,1,2387.281-1524.124Z" transform="translate(-2386.19 1543.126)"/></g><g transform="translate(6.619 0)"><path class="b" d="M2418.857-1537.551a1.094,1.094,0,0,1-.588-.172,1.1,1.1,0,0,1-.479-.688l-1.259-5.779a1.092,1.092,0,0,1,.834-1.3,1.091,1.091,0,0,1,1.3.834l1.027,4.707,4.817-1.073a1.092,1.092,0,0,1,1.3.828,1.092,1.092,0,0,1-.829,1.3l-5.889,1.311A1.079,1.079,0,0,1,2418.857-1537.551Z" transform="translate(-2416.506 1545.513)"/></g></g><g transform="translate(1964.184 -1599.472)"><path class="b" d="M2588.005-1307.7a1.089,1.089,0,0,1-.826-.378,1.091,1.091,0,0,1,.113-1.54l1.93-1.667c-1.506-.6-3.209-1.688-2.916-3.444.371-2.225,4.336-4.5,5.543-5.141a1.092,1.092,0,0,1,1.477.449,1.092,1.092,0,0,1-.449,1.477c-1.984,1.06-4.287,2.789-4.417,3.574-.052.314,1.421,1.17,3.2,1.555a1.093,1.093,0,0,1,.827.8,1.092,1.092,0,0,1-.344,1.1l-3.424,2.957A1.089,1.089,0,0,1,2588.005-1307.7Z" transform="translate(-2586.273 1320.001)"/></g><g transform="translate(2006.845 -1594.491)"><path class="b" d="M2788.4-1291.544a2.727,2.727,0,0,1-.565-.063,7.056,7.056,0,0,1-3.654-2.328,2.949,2.949,0,0,0-.432.659,1.091,1.091,0,0,1-1.464.488,1.092,1.092,0,0,1-.489-1.464c1.027-2.055,2.42-2.16,2.688-2.16a1.091,1.091,0,0,1,.919.5,5.619,5.619,0,0,0,2.734,2.131,6.709,6.709,0,0,0-.463-1.913,1.092,1.092,0,0,1,.608-1.419,1.091,1.091,0,0,1,1.419.608c.365.913,1.108,3.162.126,4.327A1.809,1.809,0,0,1,2788.4-1291.544Z" transform="translate(-2781.682 1297.19)"/></g><g transform="translate(1831.216 -1640.946)"><path class="q" d="M1979.713-1506.645s7.445,47.731,7.885,49.491c.415,1.66,3.009,1.66,3.009-.83s-8.093-49.491-8.093-49.491Z" transform="translate(-1979.167 1508.021)"/><path class="b" d="M1987.081-1457.4a2.028,2.028,0,0,1-1.967-1.571c-.441-1.765-7.591-47.589-7.895-49.539a.545.545,0,0,1,.384-.607l2.8-.83a.545.545,0,0,1,.443.06.545.545,0,0,1,.25.371c.33,1.921,8.1,47.076,8.1,49.583a2.26,2.26,0,0,1-1.863,2.518A2.112,2.112,0,0,1,1987.081-1457.4Zm-8.71-50.806c.777,4.976,7.4,47.347,7.8,48.971a.944.944,0,0,0,1.028.736c.438-.054.905-.459.905-1.434,0-1.909-5.16-32.4-7.981-48.793Z" transform="translate(-1977.213 1509.975)"/></g><g transform="translate(1821.005 -1659.249)"><path class="r" d="M1932.946-1587.944s-.358,17.431,10.75,16.419,3.583-19.687,3.583-19.687-1.7-.778-1.254,2.179.92,8.326,1.1,9.494a1.209,1.209,0,0,1-1.995,1.012c-.717-.623-3.245-12.759-4.837-12.528-3.225.467,2.329,12.45,1.254,13.151s-3.4,1.557-3.942.156C1935.9-1590.356,1933.3-1590.434,1932.946-1587.944Z" transform="translate(-1932.398 1591.852)"/><path class="b" d="M1940.827-1572.895a8.066,8.066,0,0,1-5.684-2.192c-4.854-4.524-4.707-14.408-4.7-14.827a.509.509,0,0,1,.005-.067c.157-1.094.682-1.747,1.4-1.747h.005c2.354.01,3.715,7.409,4.322,11.874a.539.539,0,0,0,.348.3,4.048,4.048,0,0,0,2.66-.7,20.469,20.469,0,0,0-.93-3.919c-1.177-4.054-2.006-7.267-1.1-8.678a1.529,1.529,0,0,1,1.1-.7c1.265-.182,2.165,2.156,4.075,8.832a32.725,32.725,0,0,0,1.223,3.845.782.782,0,0,0,.8.023.5.5,0,0,0,.27-.56c-.072-.469-.185-1.552-.328-2.924-.223-2.13-.5-4.782-.771-6.571-.2-1.346-.024-2.21.549-2.642a1.509,1.509,0,0,1,1.471-.115.544.544,0,0,1,.28.293c.193.478,4.678,11.772,1.241,17.4a6.5,6.5,0,0,1-5.281,3.039Q1941.3-1572.9,1940.827-1572.895Zm-9.292-16.963c-.006.629-.011,9.907,4.354,13.974a7.2,7.2,0,0,0,5.8,1.858,5.391,5.391,0,0,0,4.448-2.521c2.888-4.724-.587-14.479-1.225-16.168a.261.261,0,0,0-.179.036c-.034.026-.324.293-.125,1.606.275,1.814.553,4.479.777,6.621.136,1.3.254,2.429.321,2.872a1.579,1.579,0,0,1-.822,1.681,1.846,1.846,0,0,1-2.07-.175c-.337-.293-.613-1.14-1.531-4.348-.7-2.449-2.147-7.5-2.934-8.04a.432.432,0,0,0-.272.2c-.712,1.106.455,5.124,1.227,7.783.99,3.405,1.3,4.607.583,5.071-.74.482-2.463,1.289-3.7.889a1.631,1.631,0,0,1-1.052-1,.57.57,0,0,1-.031-.122c-1.234-9.14-2.877-11-3.253-11h0C1931.8-1590.616,1931.618-1590.394,1931.535-1589.858Zm12.032,9Z" transform="translate(-1930.442 1593.81)"/></g><g transform="translate(2038.198 -1663.806)"><path class="r" d="M2933.171-1588.308s-5.136.467-5.37-2.8,4.436-19.609,9.338-21.01,5.836,22.878,2.8,24.746S2933.171-1588.308,2933.171-1588.308Z" transform="translate(-2927.248 1612.725)"/><path class="b" d="M2935.644-1588.14a8.794,8.794,0,0,1-4.584-1.569c-.737.037-3.228.064-4.682-1.171a3,3,0,0,1-1.074-2.148c-.133-1.868,1.112-7,2.777-11.437,1.561-4.164,4.036-9.3,6.956-10.138.878-.251,2.151-.036,3.229,2.411,1.429,3.246,1.974,8.919,2.007,13.146.021,2.678-.132,9.03-2,10.179A4.935,4.935,0,0,1,2935.644-1588.14Zm-4.1-2.564c.034.026,3.479,2.553,6.157.906.767-.472,1.521-3.8,1.479-9.24-.04-5.175-.792-10.166-1.915-12.715-.419-.953-1.1-2.039-1.93-1.8-1.908.545-4.181,4-6.233,9.472-1.755,4.681-2.818,9.454-2.71,10.975a1.92,1.92,0,0,0,.691,1.393c1.332,1.135,4.057.906,4.085.9a.551.551,0,0,1,.376.107Zm-.327.437h0Z" transform="translate(-2925.294 1614.684)"/></g><g transform="translate(2030.533 -1643.047)"><path class="q" d="M2904.745-1516.421s-11.759,46.854-12.039,48.647c-.266,1.69,2.123,2.7,3.094.409s11.64-48.334,11.64-48.334-.077-1.4-1.245-1.4S2904.745-1516.421,2904.745-1516.421Z" transform="translate(-2892.14 1517.645)"/><path class="b" d="M2892.194-1467.439a2,2,0,0,1-.542-.075,2.025,2.025,0,0,1-1.438-2.3c.282-1.8,11.569-46.782,12.05-48.7a.478.478,0,0,1,.025-.077,2.012,2.012,0,0,1,1.953-1.014,1.886,1.886,0,0,1,1.791,1.916.6.6,0,0,1-.013.153c-.436,1.882-10.691,46.114-11.669,48.424A2.369,2.369,0,0,1,2892.194-1467.439Zm11.11-50.733c-.521,2.075-11.743,46.812-12.012,48.529a.945.945,0,0,0,.659,1.079c.425.121,1.012-.07,1.393-.968.752-1.776,7.9-32.225,11.591-48.158-.028-.215-.153-.818-.694-.818A1.086,1.086,0,0,0,2903.3-1518.171Z" transform="translate(-2890.186 1519.599)"/></g></g></svg>