<svg xmlns="http://www.w3.org/2000/svg" xmlns:xlink="http://www.w3.org/1999/xlink" width="68" height="68" viewBox="0 0 68 68"><defs><style>.a{fill:#fff;}.b{fill:#1a1818;}.c{fill:#a6be2e;}.d{fill:#f26711;}.e{fill:#c6c6c6;}.f{fill:#030504;}.g{filter:url(#a);}</style><filter id="a" x="0" y="0" width="68" height="68" filterUnits="userSpaceOnUse"><feOffset dy="3" input="SourceAlpha"/><feGaussianBlur stdDeviation="3" result="b"/><feFlood flood-opacity="0.102"/><feComposite operator="in" in2="b"/><feComposite in="SourceGraphic"/></filter></defs><g transform="translate(9 6)"><g class="g" transform="matrix(1, 0, 0, 1, -9, -6)"><circle class="a" cx="25" cy="25" r="25" transform="translate(9 6)"/></g><g transform="translate(-1027.758 742.148)"><g transform="translate(1038.865 -731.042)"><rect class="a" width="27.787" height="27.787" rx="13.894" transform="translate(0 0)"/></g><path class="b" d="M1059.718-733.148H1045.8a9.04,9.04,0,0,0-9.04,9.04v13.92a9.04,9.04,0,0,0,9.04,9.04h13.92a9.04,9.04,0,0,0,9.04-9.04v-13.92A9.04,9.04,0,0,0,1059.718-733.148Zm6.934,22.043a7.85,7.85,0,0,1-7.85,7.85h-12.087a7.85,7.85,0,0,1-7.85-7.85v-12.087a7.85,7.85,0,0,1,7.85-7.85H1058.8a7.85,7.85,0,0,1,7.85,7.85Z" transform="translate(0 0)"/><g transform="translate(1042.987 -725.225)"><g transform="translate(0.688 0.689)"><path class="c" d="M1099.053-649.3a12.142,12.142,0,0,1-3.759-.58,4.085,4.085,0,0,1-2.857-2.536c-.755-2.258.824-4.774,1.326-5.492a5.389,5.389,0,0,0,.778-2.085,4.317,4.317,0,0,1,2.318-3.437,5.756,5.756,0,0,1,2.683-.645,6.754,6.754,0,0,1,2.865.645l.1.054.08.085c3.457,3.666,1.437,12.536,1.349,12.912l-.159.682-.6-.15c-.091.014-.293.058-.474.1A16.531,16.531,0,0,1,1099.053-649.3Z" transform="translate(-1092.235 664.074)"/></g><g transform="translate(0 0)"><path class="b" d="M1094.715-668.223a6.059,6.059,0,0,1,2.548.568c3.243,3.439,1.179,12.283,1.179,12.283a.221.221,0,0,0-.052-.005,22.858,22.858,0,0,1-4.164.552,11.434,11.434,0,0,1-3.547-.547c-3.93-1.277-2.555-5.011-1.179-6.977s.393-4.029,2.849-5.306a5.08,5.08,0,0,1,2.366-.568m0-1.378a6.437,6.437,0,0,0-3,.723,4.953,4.953,0,0,0-2.674,3.9,4.787,4.787,0,0,1-.669,1.837c-.549.784-2.273,3.542-1.416,6.105a4.739,4.739,0,0,0,3.3,2.973,12.831,12.831,0,0,0,3.972.614,17.159,17.159,0,0,0,3.8-.466l.307-.066,1.132.283.318-1.363a30.487,30.487,0,0,0,.661-5.107c.163-3.89-.57-6.728-2.18-8.434l-.16-.17-.207-.108a7.384,7.384,0,0,0-3.184-.723Z" transform="translate(-1086.72 669.601)"/></g></g><g transform="translate(1050.424 -726.147)"><path class="d" d="M1156.9-671.231a7.452,7.452,0,0,0-4.914,6,11.677,11.677,0,0,0-.043,2.427l.246,4.748a1.975,1.975,0,0,0,.134.739,1.978,1.978,0,0,0,.513.6,8.309,8.309,0,0,0,2.633,1.8,4.322,4.322,0,0,0,5.469-3.24,7.015,7.015,0,0,1,.212-1.242,5.305,5.305,0,0,1,.732-1.188,6.839,6.839,0,0,0,.188-7.314A3.765,3.765,0,0,0,1156.9-671.231Z" transform="translate(-1151.208 672.155)"/><path class="b" d="M1151.857-658.862a4.36,4.36,0,0,1-1.463-.249,8.9,8.9,0,0,1-2.861-1.941,2.576,2.576,0,0,1-.678-.824,2.572,2.572,0,0,1-.2-.994l-.246-4.748a12.236,12.236,0,0,1,.05-2.571,8.085,8.085,0,0,1,5.412-6.552h0a4.766,4.766,0,0,1,4.133.443,5.035,5.035,0,0,1,1.885,3.322,7.568,7.568,0,0,1-.287,7.937c-.061.088-.125.176-.189.264a3.286,3.286,0,0,0-.46.762,3.259,3.259,0,0,0-.126.695c-.016.143-.032.285-.055.427a4.775,4.775,0,0,1-2.354,3.3A5.048,5.048,0,0,1,1151.857-658.862Zm1.774-16.757a5.306,5.306,0,0,0-1.393.208h0a6.767,6.767,0,0,0-4.415,5.438,11.217,11.217,0,0,0-.035,2.284l.247,4.748a1.514,1.514,0,0,0,.071.483,1.521,1.521,0,0,0,.348.38,7.753,7.753,0,0,0,2.4,1.669,3.449,3.449,0,0,0,2.863-.365,3.447,3.447,0,0,0,1.7-2.335c.019-.12.033-.241.047-.362a4.392,4.392,0,0,1,.2-1,4.4,4.4,0,0,1,.644-1.111c.058-.079.115-.159.171-.239a6.146,6.146,0,0,0,.169-6.56l-.087-.14-.014-.164a3.776,3.776,0,0,0-1.328-2.486A2.711,2.711,0,0,0,1153.631-675.619Z" transform="translate(-1146.367 676.999)"/></g><g transform="translate(1044.174 -730.151)"><path class="e" d="M1099.232-709.1a1.223,1.223,0,0,1,.828.4.612.612,0,0,1,.008.839,1.042,1.042,0,0,1-.754.12,2.39,2.39,0,0,0-1.757.505c-.267.24-.527.594-.882.544a.559.559,0,0,1-.438-.557.914.914,0,0,1,.344-.666,2.712,2.712,0,0,1,.667-.385A2.684,2.684,0,0,1,1099.232-709.1Z" transform="translate(-1096.237 709.107)"/></g><g transform="translate(1050.07 -728.85)"><path class="e" d="M1144.219-696.96a.708.708,0,0,1-.521-.1.354.354,0,0,1-.125-.469.6.6,0,0,1,.4-.176,1.382,1.382,0,0,0,.911-.536c.115-.173.209-.409.416-.432a.324.324,0,0,1,.326.249.529.529,0,0,1-.1.422,1.565,1.565,0,0,1-.318.312A1.553,1.553,0,0,1,1144.219-696.96Z" transform="translate(-1143.526 698.676)"/></g><g transform="translate(1063.557 -718.97)"><path class="e" d="M1252.389-617.719a.708.708,0,0,1-.521-.1.354.354,0,0,1-.125-.469.6.6,0,0,1,.4-.176,1.382,1.382,0,0,0,.911-.536c.115-.173.209-.409.416-.432a.323.323,0,0,1,.325.249.528.528,0,0,1-.1.422,1.567,1.567,0,0,1-.318.312A1.553,1.553,0,0,1,1252.389-617.719Z" transform="translate(-1251.696 619.435)"/></g><g transform="translate(1040.344 -718.97)"><path class="e" d="M1066.187-619.275a.708.708,0,0,1,.507-.157.354.354,0,0,1,.332.353c-.018.15-.156.251-.273.347a1.383,1.383,0,0,0-.549.9c-.019.207.009.459-.162.577a.323.323,0,0,1-.4-.065.528.528,0,0,1-.115-.418,1.561,1.561,0,0,1,.133-.425A1.552,1.552,0,0,1,1066.187-619.275Z" transform="translate(-1065.519 619.435)"/></g><g transform="translate(1045.674 -706.559)"><path class="e" d="M1108.94-519.731a.707.707,0,0,1,.507-.156.354.354,0,0,1,.332.353c-.019.15-.156.251-.273.347a1.382,1.382,0,0,0-.549.9c-.019.207.009.459-.162.577a.323.323,0,0,1-.4-.065.529.529,0,0,1-.115-.418,1.56,1.56,0,0,1,.133-.425A1.553,1.553,0,0,1,1108.94-519.731Z" transform="translate(-1108.272 519.891)"/></g><g transform="translate(1058.6 -728.782)"><path class="e" d="M1214-697.4a.708.708,0,0,1,.137.513.354.354,0,0,1-.366.318c-.149-.024-.245-.166-.336-.287a1.382,1.382,0,0,0-.881-.584c-.206-.027-.459-.009-.57-.184a.324.324,0,0,1,.081-.4.529.529,0,0,1,.422-.1,1.569,1.569,0,0,1,.42.149A1.552,1.552,0,0,1,1214-697.4Z" transform="translate(-1211.943 698.132)"/></g><g transform="translate(1040.448 -726.634)"><path class="e" d="M1068.411-680.167a.707.707,0,0,1,.136.513.354.354,0,0,1-.366.318c-.149-.024-.245-.166-.336-.287a1.383,1.383,0,0,0-.881-.584c-.206-.027-.459-.009-.57-.184a.324.324,0,0,1,.081-.4.529.529,0,0,1,.422-.1,1.574,1.574,0,0,1,.42.149A1.552,1.552,0,0,1,1068.411-680.167Z" transform="translate(-1066.355 680.899)"/></g><g transform="translate(1056.401 -705.896)"><path class="e" d="M1196.36-513.839a.708.708,0,0,1,.136.513.354.354,0,0,1-.366.318c-.149-.024-.245-.166-.336-.287a1.382,1.382,0,0,0-.881-.584c-.206-.027-.459-.009-.57-.184a.324.324,0,0,1,.081-.4.528.528,0,0,1,.422-.1,1.569,1.569,0,0,1,.42.149A1.553,1.553,0,0,1,1196.36-513.839Z" transform="translate(-1194.304 514.571)"/></g><g transform="translate(1063.267 -714.051)"><path class="e" d="M1251.431-579.252a.709.709,0,0,1,.137.513.354.354,0,0,1-.366.318c-.149-.024-.245-.166-.336-.287a1.381,1.381,0,0,0-.881-.584c-.206-.027-.459-.009-.57-.184a.323.323,0,0,1,.081-.4.529.529,0,0,1,.422-.1,1.559,1.559,0,0,1,.42.149A1.552,1.552,0,0,1,1251.431-579.252Z" transform="translate(-1249.375 579.984)"/></g><g transform="translate(1042.198 -723.166)"><path class="e" d="M1082.448-652.357a.708.708,0,0,1,.137.513.354.354,0,0,1-.366.318c-.149-.024-.245-.166-.336-.287a1.381,1.381,0,0,0-.881-.584c-.206-.027-.459-.009-.57-.184a.323.323,0,0,1,.081-.4.529.529,0,0,1,.422-.1,1.564,1.564,0,0,1,.42.149A1.552,1.552,0,0,1,1082.448-652.357Z" transform="translate(-1080.392 653.088)"/></g><g transform="translate(1063.236 -725.851)"><path class="e" d="M1250.606-671a1.224,1.224,0,0,1-.832.387.612.612,0,0,1-.652-.528,1.042,1.042,0,0,1,.387-.658,2.389,2.389,0,0,0,.729-1.676c-.015-.359-.123-.785.142-1.027a.559.559,0,0,1,.708.017.915.915,0,0,1,.295.689,2.715,2.715,0,0,1-.128.76A2.685,2.685,0,0,1,1250.606-671Z" transform="translate(-1249.122 674.618)"/></g><g transform="translate(1049.642 -707.938)"><path class="e" d="M1141.575-527.332a1.224,1.224,0,0,1-.832.387.612.612,0,0,1-.652-.528,1.043,1.043,0,0,1,.387-.658,2.39,2.39,0,0,0,.729-1.676c-.015-.359-.123-.785.142-1.027a.559.559,0,0,1,.708.017.914.914,0,0,1,.295.689,2.71,2.71,0,0,1-.128.759A2.685,2.685,0,0,1,1141.575-527.332Z" transform="translate(-1140.091 530.953)"/></g><g transform="translate(1061.225 -710.762)"><path class="e" d="M1234.775-553.469a1.225,1.225,0,0,1,.915-.069.612.612,0,0,1,.424.724c-.089.246-.359.364-.594.48a2.389,2.389,0,0,0-1.273,1.312c-.112.341-.161.778-.495.911a.559.559,0,0,1-.657-.265.914.914,0,0,1-.033-.749,2.718,2.718,0,0,1,.387-.666A2.685,2.685,0,0,1,1234.775-553.469Z" transform="translate(-1232.998 553.597)"/></g><g transform="translate(1039.554 -711.081)"><path class="e" d="M1062.8-555.327a1.225,1.225,0,0,1,.37.84.612.612,0,0,1-.541.641c-.261,0-.463-.218-.65-.4a2.391,2.391,0,0,0-1.661-.764c-.359.008-.787.107-1.024-.163a.559.559,0,0,1,.032-.708.914.914,0,0,1,.695-.28,2.705,2.705,0,0,1,.757.144A2.685,2.685,0,0,1,1062.8-555.327Z" transform="translate(-1059.183 556.162)"/></g><g transform="translate(1040.902 -723.381)"><g transform="translate(0 0.201)"><path class="a" d="M1083.583-638.128a.5.5,0,0,1-.5-.5l-.019-3.544-1.672,2.8a.5.5,0,0,1-.428.243H1079.7a.5.5,0,0,1-.425-.238l-1.65-2.692v3.424a.5.5,0,0,1-.5.5h-2.632a.5.5,0,0,1-.5-.5v-10.067a.5.5,0,0,1,.5-.5h2.344a.5.5,0,0,1,.426.239l3.107,5.1,3.028-5.1a.5.5,0,0,1,.429-.244h2.344a.5.5,0,0,1,.5.5l.029,10.067a.5.5,0,0,1-.145.354.5.5,0,0,1-.353.147Z" transform="translate(-1073.495 649.692)"/><path class="f" d="M1082.671-652.2l.029,10.067h-2.618l-.028-5.336-2.589,4.343H1076.2l-2.574-4.2v5.192h-2.632V-652.2h2.344l3.538,5.811,3.452-5.811h2.344m0-1h-2.344a1,1,0,0,0-.858.488l-2.6,4.385-2.676-4.394a1,1,0,0,0-.852-.479h-2.344a1,1,0,0,0-1,1v10.067a1,1,0,0,0,1,1h2.632a1,1,0,0,0,1-1v-1.656l.726,1.184a1,1,0,0,0,.851.476h1.266a1,1,0,0,0,.857-.487l.754-1.264.009,1.752a1,1,0,0,0,1,.992h2.618a1,1,0,0,0,.706-.293,1,1,0,0,0,.291-.707l-.029-10.067a1,1,0,0,0-1-.995Z" transform="translate(-1069.995 653.193)"/></g><g transform="translate(13.016 0)"><path class="a" d="M1183.133-639.34a9.86,9.86,0,0,1-2.5-.318,6.358,6.358,0,0,1-2.028-.879.5.5,0,0,1-.17-.612l.935-2.1a.5.5,0,0,1,.316-.276.5.5,0,0,1,.14-.02.5.5,0,0,1,.275.082,5.571,5.571,0,0,0,1.438.658,5.489,5.489,0,0,0,1.609.251c.526,0,1.141-.084,1.141-.32,0-.048,0-.108-.172-.185a8.332,8.332,0,0,0-1.408-.408,14.758,14.758,0,0,1-1.962-.544,3.7,3.7,0,0,1-1.511-1.036,2.921,2.921,0,0,1-.671-2,3.39,3.39,0,0,1,.589-1.941,3.863,3.863,0,0,1,1.718-1.35,6.7,6.7,0,0,1,2.65-.472,9.2,9.2,0,0,1,2.068.236,6.511,6.511,0,0,1,1.838.71.5.5,0,0,1,.208.621l-.878,2.114a.5.5,0,0,1-.294.279.5.5,0,0,1-.167.029.5.5,0,0,1-.237-.06,5.4,5.4,0,0,0-2.553-.717,1.838,1.838,0,0,0-.964.172c-.161.1-.161.187-.161.236,0,.027,0,.077.161.147a7.9,7.9,0,0,0,1.385.386,14.389,14.389,0,0,1,1.976.545,3.794,3.794,0,0,1,1.5,1.024,2.876,2.876,0,0,1,.682,2,3.336,3.336,0,0,1-.591,1.922,3.936,3.936,0,0,1-1.722,1.347A6.627,6.627,0,0,1,1183.133-639.34Z" transform="translate(-1177.893 651.307)"/><path class="f" d="M1180.02-653.811a8.657,8.657,0,0,1,1.956.223,5.989,5.989,0,0,1,1.7.654l-.878,2.114a5.86,5.86,0,0,0-2.79-.777,2.334,2.334,0,0,0-1.236.252.754.754,0,0,0-.389.654.648.648,0,0,0,.46.6,8.281,8.281,0,0,0,1.482.417,13.819,13.819,0,0,1,1.906.525,3.286,3.286,0,0,1,1.308.891,2.385,2.385,0,0,1,.554,1.661,2.832,2.832,0,0,1-.5,1.64,3.435,3.435,0,0,1-1.51,1.172,6.107,6.107,0,0,1-2.445.439,9.314,9.314,0,0,1-2.374-.3,5.846,5.846,0,0,1-1.869-.805l.935-2.1a6.039,6.039,0,0,0,1.567.719,5.96,5.96,0,0,0,1.755.273q1.64,0,1.64-.819a.68.68,0,0,0-.467-.64,8.725,8.725,0,0,0-1.5-.439,14.2,14.2,0,0,1-1.9-.525,3.192,3.192,0,0,1-1.31-.9,2.429,2.429,0,0,1-.545-1.668,2.885,2.885,0,0,1,.5-1.661,3.36,3.36,0,0,1,1.5-1.172,6.177,6.177,0,0,1,2.452-.431m0-1a7.187,7.187,0,0,0-2.848.513,4.352,4.352,0,0,0-1.933,1.528,3.879,3.879,0,0,0-.675,2.22,3.4,3.4,0,0,0,.8,2.329,4.285,4.285,0,0,0,.776.69c-.031.006-.062.013-.092.022a1,1,0,0,0-.631.552l-.935,2.1a1,1,0,0,0,.34,1.223,6.848,6.848,0,0,0,2.187.952,10.361,10.361,0,0,0,2.627.335,7.116,7.116,0,0,0,2.843-.522,4.424,4.424,0,0,0,1.934-1.521,3.824,3.824,0,0,0,.679-2.2,3.356,3.356,0,0,0-.811-2.33,4.31,4.31,0,0,0-1.208-.939l.061-.019a1,1,0,0,0,.588-.558l.878-2.114a1,1,0,0,0-.415-1.242,7.011,7.011,0,0,0-1.978-.766,9.693,9.693,0,0,0-2.181-.249Z" transform="translate(-1174.391 654.808)"/></g></g></g></g></svg>